<svg width="14" height="14" viewBox="0 0 14 14" fill="none" xmlns="http://www.w3.org/2000/svg">
<path d="M12.4732 4.31199H4.75916C4.70316 4.31199 4.65416 4.29332 4.61216 4.25599C4.57016 4.21865 4.54449 4.17199 4.53516 4.11599L4.08716 1.81999C4.06849 1.68932 4.01249 1.58432 3.91916 1.50499C3.82582 1.42565 3.71382 1.38599 3.58316 1.38599H1.53916C1.39916 1.38599 1.28016 1.43499 1.18216 1.53299C1.08416 1.63099 1.03516 1.74999 1.03516 1.88999V1.95999C1.03516 2.09999 1.08416 2.22132 1.18216 2.32399C1.28016 2.42665 1.39916 2.47799 1.53916 2.47799H2.96716C3.00449 2.47799 3.03716 2.48965 3.06516 2.51299C3.09316 2.53632 3.11182 2.56665 3.12116 2.60399L4.54916 10.22C4.57716 10.3973 4.67049 10.528 4.82916 10.612C4.90382 10.6587 4.98782 10.682 5.08116 10.682H5.31916C5.11382 10.9153 5.01582 11.1883 5.02516 11.501C5.03449 11.8137 5.15116 12.0773 5.37516 12.292C5.59916 12.5067 5.86749 12.614 6.18016 12.614C6.49282 12.614 6.76349 12.5067 6.99216 12.292C7.22082 12.0773 7.33982 11.8137 7.34916 11.501C7.35849 11.1883 7.25582 10.9153 7.04116 10.682H9.64516C9.43049 10.9153 9.33016 11.1883 9.34416 11.501C9.35816 11.8137 9.47716 12.0773 9.70116 12.292C9.92516 12.5067 10.1935 12.614 10.5062 12.614C10.8188 12.614 11.0872 12.5067 11.3112 12.292C11.5352 12.0773 11.6518 11.8137 11.6612 11.501C11.6705 11.1883 11.5725 10.9153 11.3672 10.682H11.6052C11.7452 10.682 11.8642 10.633 11.9622 10.535C12.0602 10.437 12.1092 10.318 12.1092 10.178V10.066C12.1092 9.92599 12.0578 9.80699 11.9552 9.70899C11.8525 9.61099 11.7312 9.56199 11.5912 9.56199H5.72516C5.66916 9.56199 5.62016 9.54332 5.57816 9.50599C5.53616 9.46865 5.51049 9.42665 5.50116 9.37999L5.36116 8.62399C5.35182 8.54932 5.37049 8.48399 5.41716 8.42799C5.46382 8.37199 5.51982 8.34865 5.58516 8.35799H12.0252C12.1465 8.35799 12.2515 8.32065 12.3402 8.24599C12.4288 8.17132 12.4825 8.07332 12.5012 7.95199L12.9632 4.88599C12.9912 4.73665 12.9562 4.60365 12.8582 4.48699C12.7602 4.37032 12.6318 4.31199 12.4732 4.31199Z" fill="white"/>
</svg>
