<svg width="15" height="14" viewBox="0 0 15 14" fill="none" xmlns="http://www.w3.org/2000/svg">
<path d="M7.47225 3.50309C8.4396 3.50309 9.22379 2.71889 9.22379 1.75154C9.22379 0.784193 8.4396 0 7.47225 0C6.5049 0 5.7207 0.784193 5.7207 1.75154C5.7207 2.71889 6.5049 3.50309 7.47225 3.50309Z" fill="white"/>
<path d="M13.604 6.57043L11.9715 6.2299C11.4154 6.1134 10.8663 6.36831 10.576 6.82149C10.294 6.67666 9.99084 6.55177 9.66834 6.44813V5.4774C9.66899 4.74293 9.06774 4.14233 8.33587 4.14233H6.66671C5.93096 4.14233 5.3323 4.74293 5.3323 5.4774V6.45327C5.01302 6.55497 4.71305 6.67986 4.42916 6.82534C4.13886 6.37022 3.58911 6.1134 3.03229 6.2299L1.39853 6.57043C0.681433 6.72041 0.216017 7.43172 0.366003 8.15139L0.776061 10.1102C0.924764 10.8279 1.6367 11.2934 2.35446 11.1434L2.87135 11.0352C3.13011 11.4176 3.48804 11.7684 3.94635 12.0684C4.90097 12.6941 6.16203 13.0391 7.50029 13.0391C9.54796 13.0391 11.3117 12.2158 12.1241 11.0333L12.6494 11.1434C13.3665 11.2927 14.0784 10.8279 14.2271 10.1102L14.6378 8.15139C14.7871 7.43172 14.3217 6.72041 13.604 6.57043ZM7.49963 12.3703C6.29074 12.3703 5.15779 12.0658 4.3126 11.509C4.02293 11.3197 3.78282 11.1093 3.59037 10.884L3.98625 10.8009C4.70464 10.6516 5.17005 9.94027 5.02007 9.22188L4.6525 7.46067C4.86686 7.34545 5.09216 7.24438 5.33162 7.15813V7.47935C5.33162 8.21254 5.93156 8.81314 6.66603 8.81314H8.33518C9.06774 8.81314 9.66768 8.21191 9.66768 7.47935V7.14139C9.91164 7.22829 10.1408 7.32808 10.3532 7.44136L9.98051 9.22254C9.83181 9.94092 10.2966 10.6522 11.015 10.8016L11.4147 10.8852C10.6693 11.7678 9.19454 12.3703 7.49963 12.3703Z" fill="white"/>
<path d="M13.2476 5.80558C14.215 5.80558 14.9992 5.02138 14.9992 4.05403C14.9992 3.08668 14.215 2.30249 13.2476 2.30249C12.2803 2.30249 11.4961 3.08668 11.4961 4.05403C11.4961 5.02138 12.2803 5.80558 13.2476 5.80558Z" fill="white"/>
<path d="M2.11092 5.76897C3.05846 5.5707 3.66357 4.64184 3.46786 3.69492C3.26831 2.74866 2.34136 2.14099 1.39316 2.33926C0.446904 2.53687 -0.160768 3.46511 0.0375023 4.41202C0.235146 5.35957 1.16338 5.96661 2.11092 5.76897Z" fill="white"/>
</svg>
