<svg width="14" height="14" viewBox="0 0 14 14" fill="none" xmlns="http://www.w3.org/2000/svg">
<g clip-path="url(#clip0_2652_14626)">
<path d="M12.8333 5.54175H9.33333C9.17862 5.54175 9.03025 5.60321 8.92085 5.7126C8.81146 5.822 8.75 5.97037 8.75 6.12508V12.5417C8.75 12.6965 8.81146 12.8448 8.92085 12.9542C9.03025 13.0636 9.17862 13.1251 9.33333 13.1251H12.8333C12.988 13.1251 13.1364 13.0636 13.2458 12.9542C13.3552 12.8448 13.4167 12.6965 13.4167 12.5417V6.12508C13.4167 5.97037 13.3552 5.822 13.2458 5.7126C13.1364 5.60321 12.988 5.54175 12.8333 5.54175Z" fill="white"/>
<path d="M11.6673 2.62508C11.6673 2.47037 11.6059 2.322 11.4965 2.2126C11.3871 2.10321 11.2387 2.04175 11.084 2.04175H2.04232C1.88761 2.04175 1.73923 2.10321 1.62984 2.2126C1.52044 2.322 1.45898 2.47037 1.45898 2.62508V9.04175C1.45898 9.19646 1.52044 9.34483 1.62984 9.45423C1.73923 9.56362 1.88761 9.62508 2.04232 9.62508H7.58398V4.95841C7.58398 4.8037 7.64544 4.65533 7.75484 4.54594C7.86424 4.43654 8.01261 4.37508 8.16732 4.37508H11.6673V2.62508Z" fill="white"/>
<path d="M7.58398 10.7917V11.9584H1.16732C1.01261 11.9584 0.864235 11.897 0.754839 11.7876C0.645443 11.6782 0.583984 11.5298 0.583984 11.3751C0.583984 11.2204 0.645443 11.072 0.754839 10.9626C0.864235 10.8532 1.01261 10.7917 1.16732 10.7917H7.58398Z" fill="white"/>
</g>
<defs>
<clipPath id="clip0_2652_14626">
<rect width="14" height="14" fill="white"/>
</clipPath>
</defs>
</svg>
