<svg width="14" height="14" viewBox="0 0 14 14" fill="none" xmlns="http://www.w3.org/2000/svg">
<path d="M4.35173 12.1137L7.08876 13.4639C7.18542 13.5121 7.29864 13.4993 7.39154 13.4451L12.8684 10.2459C12.966 10.1889 13.0265 10.0812 13.0265 9.96844C13.0265 9.87429 12.9851 9.78416 12.9131 9.72341C12.841 9.66265 12.7469 9.63604 12.6535 9.65286L8.02295 10.458L8.22605 10.6611C8.40757 10.8426 8.50749 11.0839 8.50749 11.3405C8.50749 11.8705 8.07617 12.3015 7.54644 12.3015C7.28936 12.3015 7.04834 12.2016 6.86682 12.0198L5.56835 10.7216L5.92335 10.3666L7.22182 11.6648C7.30743 11.7502 7.42543 11.7994 7.54644 11.7994C7.79951 11.7994 8.00537 11.5935 8.00537 11.3402C8.00537 11.2177 7.95767 11.1389 7.87106 11.0523L5.89297 9.11133H3.48633V12.124H4.2395C4.27842 12.124 4.31708 12.0964 4.35173 12.1137Z" fill="white"/>
<path d="M9.00887 5.14665C9.14753 5.14665 9.25993 5.03424 9.25993 4.89559C9.25993 4.75693 9.14753 4.64453 9.00887 4.64453C8.87021 4.64453 8.75781 4.75693 8.75781 4.89559C8.75781 5.03424 8.87021 5.14665 9.00887 5.14665Z" fill="white"/>
<path d="M7.00106 3.6403C7.13971 3.6403 7.25212 3.5279 7.25212 3.38924C7.25212 3.25059 7.13971 3.13818 7.00106 3.13818C6.8624 3.13818 6.75 3.25059 6.75 3.38924C6.75 3.5279 6.8624 3.6403 7.00106 3.6403Z" fill="white"/>
<path d="M4.20589 4.92133L8.00515 8.92445L11.8044 4.92133C12.764 3.91057 12.764 2.26564 11.8044 1.25488C11.3437 0.76933 10.7321 0.501953 10.0827 0.501953C9.43267 0.501953 8.82134 0.76933 8.36065 1.25488L8.18767 1.4374C8.09252 1.53732 7.91854 1.53732 7.82339 1.4374L7.65041 1.25488C7.18972 0.76933 6.57814 0.501953 5.9284 0.501953C5.27866 0.501953 4.66734 0.76933 4.20665 1.25488C3.24635 2.26564 3.24635 3.91057 4.20589 4.92133ZM7.25198 6.5276H6.74986V6.02548H7.25198V6.5276ZM8.25621 6.5276H7.7541V6.02548H8.25621V6.5276ZM9.26044 6.5276H8.75833V6.02548H9.26044V6.5276ZM9.76256 4.89572C9.76256 5.31097 9.42464 5.64889 9.00939 5.64889C8.59414 5.64889 8.25621 5.31097 8.25621 4.89572C8.25621 4.48047 8.59414 4.14255 9.00939 4.14255C9.42464 4.14255 9.76256 4.48022 9.76256 4.89572ZM9.07466 2.59276L9.44623 2.93069L6.93565 5.69233L6.56408 5.3544L9.07466 2.59276ZM7.00092 2.6362C7.41617 2.6362 7.7541 2.97412 7.7541 3.38937C7.7541 3.80462 7.41617 4.14255 7.00092 4.14255C6.58567 4.14255 6.24775 3.80462 6.24775 3.38937C6.24775 2.97387 6.58567 2.6362 7.00092 2.6362Z" fill="white"/>
<path d="M6.9366 5.69361L9.44727 2.93213L9.07556 2.59419L6.56489 5.35566L6.9366 5.69361Z" fill="white"/>
<path d="M7.00122 4.14258C7.41647 4.14258 7.7544 3.80465 7.7544 3.3894C7.7544 2.97415 7.41647 2.63623 7.00122 2.63623C6.58597 2.63623 6.24805 2.97415 6.24805 3.3894C6.24805 3.80465 6.58597 4.14258 7.00122 4.14258ZM7.00122 3.13835C7.13981 3.13835 7.25228 3.25107 7.25228 3.3894C7.25228 3.52774 7.13981 3.64046 7.00122 3.64046C6.86264 3.64046 6.75016 3.52774 6.75016 3.3894C6.75016 3.25107 6.86264 3.13835 7.00122 3.13835Z" fill="white"/>
<path d="M8.25586 4.89575C8.25586 5.311 8.59378 5.64893 9.00903 5.64893C9.42428 5.64893 9.76221 5.311 9.76221 4.89575C9.76221 4.4805 9.42428 4.14258 9.00903 4.14258C8.59378 4.14258 8.25586 4.48025 8.25586 4.89575ZM9.26009 4.89575C9.26009 5.03409 9.14762 5.14681 9.00903 5.14681C8.87045 5.14681 8.75798 5.03409 8.75798 4.89575C8.75798 4.75742 8.87045 4.64469 9.00903 4.64469C9.14762 4.64469 9.26009 4.75717 9.26009 4.89575Z" fill="white"/>
<path d="M7.82284 9.46187C7.87029 9.51184 7.93606 9.5402 8.0051 9.5402C8.07389 9.5402 8.13967 9.51184 8.18737 9.46187L12.1687 5.2672C13.309 4.06563 13.309 2.11064 12.1687 0.909332C11.6121 0.322861 10.8712 0 10.0824 0C9.29755 0 8.56044 0.319346 8.0051 0.899792C7.44976 0.319346 6.71266 0 5.92785 0C5.13903 0 4.39815 0.322861 3.84156 0.909332C2.70125 2.1109 2.70125 4.06588 3.84156 5.2672L7.82284 9.46187ZM4.20584 1.25479C4.66653 0.769242 5.27786 0.501865 5.9276 0.501865C6.57759 0.501865 7.18891 0.769242 7.64961 1.25479L7.82258 1.43731C7.91774 1.53723 8.09172 1.53723 8.18687 1.43731L8.35985 1.25479C8.82054 0.769242 9.43187 0.501865 10.0819 0.501865C10.7316 0.501865 11.3429 0.769242 11.8036 1.25479C12.7632 2.26555 12.7632 3.91048 11.8036 4.92124L8.0051 8.92436L4.20584 4.92124C3.2463 3.91048 3.2463 2.26555 4.20584 1.25479Z" fill="white"/>
<path d="M7.25212 6.02539H6.75V6.52751H7.25212V6.02539Z" fill="white"/>
<path d="M8.25602 6.02539H7.75391V6.52751H8.25602V6.02539Z" fill="white"/>
<path d="M9.25993 6.02539H8.75781V6.52751H9.25993V6.02539Z" fill="white"/>
</svg>
