<svg width="14" height="14" viewBox="0 0 14 14" fill="none" xmlns="http://www.w3.org/2000/svg">
<path d="M11.4221 10.8038C12.3014 9.78249 12.8328 8.4533 12.8328 6.99993C12.8328 5.54657 12.3014 4.21735 11.4221 3.19604L8.92969 5.68846C9.18408 6.06222 9.33283 6.51372 9.33283 6.99993C9.33283 7.48613 9.18408 7.93763 8.92969 8.31138L11.4221 10.8038Z" fill="white"/>
<path d="M10.8031 11.4226C9.78175 12.3018 8.45257 12.8333 6.99919 12.8333C5.54584 12.8333 4.21662 12.3018 3.19531 11.4226L5.68773 8.93018C6.06149 9.18457 6.51299 9.33332 6.99919 9.33332C7.4854 9.33332 7.9369 9.18457 8.31064 8.93018L10.8031 11.4226Z" fill="white"/>
<path d="M2.57675 10.8038L5.06917 8.31138C4.81474 7.93763 4.66602 7.48613 4.66602 6.99993C4.66602 6.51372 4.81474 6.06222 5.06917 5.68846L2.57675 3.19604C1.69751 4.21735 1.16602 5.54657 1.16602 6.99993C1.16602 8.4533 1.69751 9.78249 2.57675 10.8038Z" fill="white"/>
<path d="M6.99919 4.66675C6.51299 4.66675 6.06149 4.81547 5.68773 5.0699L3.19531 2.57748C4.21662 1.69825 5.54584 1.16675 6.99919 1.16675C8.45257 1.16675 9.78175 1.69825 10.8031 2.57748L8.31064 5.0699C7.9369 4.81547 7.4854 4.66675 6.99919 4.66675Z" fill="white"/>
</svg>
