<svg width="12" height="12" viewBox="0 0 12 12" fill="none" xmlns="http://www.w3.org/2000/svg">
<g clip-path="url(#clip0_2423_17755)">
<path d="M11.8941 5.77852L11.3066 4.00777C11.1541 3.54752 10.7316 3.25002 10.2306 3.25002H8.65761L8.71511 2.78127C8.72828 2.68315 8.72044 2.58335 8.69213 2.48849C8.66381 2.39363 8.61566 2.30587 8.55086 2.23102C8.48512 2.15768 8.40454 2.09915 8.31446 2.05933C8.22437 2.0195 8.12685 1.99929 8.02836 2.00002H1.96911C1.56911 2.00002 1.20611 2.32327 1.15986 2.71827L1.12786 2.96827C1.12369 3.00084 1.12597 3.03391 1.13458 3.06559C1.14319 3.09728 1.15796 3.12696 1.17804 3.15294C1.19812 3.17891 1.22313 3.20068 1.25162 3.217C1.28011 3.23331 1.31154 3.24385 1.34411 3.24802C1.37674 3.25257 1.40994 3.25056 1.44177 3.2421C1.47361 3.23364 1.50343 3.2189 1.52949 3.19876C1.55555 3.17861 1.57732 3.15346 1.59353 3.12479C1.60974 3.09611 1.62005 3.06449 1.62386 3.03177L1.65611 2.77902C1.67336 2.63027 1.81961 2.50002 1.96911 2.50002H8.02836C8.08836 2.50002 8.14061 2.52202 8.17586 2.56177C8.19401 2.58344 8.20727 2.60878 8.21474 2.63605C8.2222 2.66332 8.22369 2.69187 8.21911 2.71977L7.63361 7.50027H1.07061C1.07137 7.43977 1.04989 7.38111 1.01026 7.33539C0.970633 7.28968 0.915604 7.2601 0.855613 7.25227C0.823032 7.24814 0.789957 7.2505 0.758288 7.25919C0.726619 7.26789 0.696982 7.28276 0.671078 7.30295C0.645175 7.32314 0.623516 7.34825 0.607348 7.37683C0.591179 7.40542 0.580819 7.43692 0.576863 7.46952L0.483613 8.22127C0.471122 8.31973 0.479636 8.41972 0.508593 8.51465C0.537551 8.60958 0.586295 8.69729 0.651613 8.77202C0.716753 8.84499 0.796794 8.90312 0.88633 8.9425C0.975866 8.98187 1.07281 9.00157 1.17061 9.00027H1.65461C1.65836 9.24852 1.74036 9.48002 1.90186 9.66202C2.09461 9.88002 2.36911 10.0003 2.67411 10.0003C3.24611 10.0003 3.76611 9.55902 3.88311 9.00027H8.21486C8.21861 9.24852 8.30061 9.47977 8.46161 9.66177C8.65461 9.88002 8.92911 10.0003 9.23436 10.0003C9.80611 10.0003 10.3261 9.55902 10.4434 9.00027H10.9816C11.3861 9.00027 11.7416 8.68402 11.7909 8.28077L11.9829 6.71502C12.0235 6.40024 11.9933 6.08035 11.8944 5.77877L11.8941 5.77852ZM11.3579 5.75002H9.85136L9.97011 4.78052C9.97186 4.76777 9.99236 4.75002 10.0026 4.75002H11.0261L11.3579 5.75002ZM8.59661 3.75002H10.2309C10.5171 3.75002 10.7471 3.90902 10.8321 4.16527L10.8604 4.25002H10.0026C9.73836 4.25002 9.50636 4.45627 9.47411 4.71952L9.35161 5.71952C9.343 5.78621 9.34864 5.85396 9.36816 5.91831C9.38768 5.98265 9.42064 6.04211 9.46486 6.09277C9.55336 6.19252 9.68211 6.24977 9.81886 6.24977H11.4874C11.5032 6.38398 11.503 6.51961 11.4866 6.65377L11.3829 7.49977H8.13711L8.59636 3.74977L8.59661 3.75002ZM8.32161 8.50002H8.01461L8.07586 8.00002H8.72936C8.55355 8.12974 8.41331 8.30171 8.32161 8.50002ZM7.51111 8.50002H3.87636C3.83816 8.34776 3.7644 8.20673 3.66111 8.08852C3.63161 8.05527 3.59711 8.02877 3.56411 8.00002H7.57261L7.51111 8.50002ZM1.75911 8.50002H1.17036C1.14318 8.50103 1.1161 8.49615 1.09099 8.4857C1.06587 8.47526 1.04331 8.4595 1.02486 8.43952C1.00647 8.41779 0.992922 8.3924 0.985119 8.36502C0.977317 8.33765 0.975439 8.30893 0.979613 8.28077L1.01436 8.00002H2.16061C1.98597 8.1294 1.8476 8.30161 1.75886 8.50002H1.75911ZM3.40811 8.84452C3.36461 9.20002 3.02836 9.50002 2.67386 9.50002C2.51386 9.50002 2.37286 9.43977 2.27586 9.33027C2.17736 9.21927 2.13436 9.06827 2.15411 8.90552C2.19786 8.55002 2.53411 8.25002 2.88861 8.25002C3.04861 8.25002 3.18986 8.31027 3.28661 8.41977C3.38511 8.53077 3.42811 8.68177 3.40811 8.84452ZM9.96836 8.84452C9.92461 9.20002 9.58836 9.50002 9.23411 9.50002C9.07411 9.50002 8.93286 9.43977 8.83586 9.33027C8.73736 9.21927 8.69436 9.06827 8.71436 8.90552C8.75811 8.55002 9.09436 8.25002 9.44861 8.25002C9.60861 8.25002 9.74986 8.31027 9.84686 8.41977C9.94536 8.53077 9.98836 8.68177 9.96836 8.84452ZM10.9816 8.50002H10.4366C10.3984 8.34776 10.3246 8.20673 10.2214 8.08852C10.1919 8.05527 10.1574 8.02877 10.1244 8.00002H11.3219L11.2949 8.21952C11.2766 8.36902 11.1301 8.50002 10.9816 8.50002Z" fill="#1FC16B"/>
<path d="M2.2575 6.5C2.2575 6.4337 2.23116 6.37011 2.18428 6.32322C2.13739 6.27634 2.0738 6.25 2.0075 6.25H0.25C0.183696 6.25 0.120107 6.27634 0.0732233 6.32322C0.0263392 6.37011 0 6.4337 0 6.5C0 6.5663 0.0263392 6.62989 0.0732233 6.67678C0.120107 6.72366 0.183696 6.75 0.25 6.75H2.0075C2.0738 6.75 2.13739 6.72366 2.18428 6.67678C2.23116 6.62989 2.2575 6.5663 2.2575 6.5ZM1.02175 5C0.955446 5 0.891857 5.02634 0.844973 5.07322C0.798089 5.12011 0.77175 5.1837 0.77175 5.25C0.77175 5.3163 0.798089 5.37989 0.844973 5.42678C0.891857 5.47366 0.955446 5.5 1.02175 5.5H2.162C2.2283 5.5 2.29189 5.47366 2.33878 5.42678C2.38566 5.37989 2.412 5.3163 2.412 5.25C2.412 5.1837 2.38566 5.12011 2.33878 5.07322C2.29189 5.02634 2.2283 5 2.162 5H1.02175ZM0.54375 4.25H2.56375C2.63005 4.25 2.69364 4.22366 2.74053 4.17678C2.78741 4.12989 2.81375 4.0663 2.81375 4C2.81375 3.9337 2.78741 3.87011 2.74053 3.82322C2.69364 3.77634 2.63005 3.75 2.56375 3.75H0.54375C0.477446 3.75 0.413857 3.77634 0.366973 3.82322C0.320089 3.87011 0.29375 3.9337 0.29375 4C0.29375 4.0663 0.320089 4.12989 0.366973 4.17678C0.413857 4.22366 0.477446 4.25 0.54375 4.25Z" fill="#1FC16B"/>
</g>
<defs>
<clipPath id="clip0_2423_17755">
<rect width="12" height="12" fill="white"/>
</clipPath>
</defs>
</svg>
