<svg width="18" height="14" viewBox="0 0 18 14" fill="none" xmlns="http://www.w3.org/2000/svg">
<path d="M10.857 3.14272H14.7141C15.3961 3.14272 16.0502 3.41364 16.5324 3.89587C17.0147 4.37811 17.2856 5.03216 17.2856 5.71415V10.857H15.357M1.857 10.857H0.571289V1.857C0.571289 1.51601 0.706748 1.18898 0.947866 0.947866C1.18898 0.706748 1.51601 0.571289 1.857 0.571289H9.57129C9.91228 0.571289 10.2393 0.706748 10.4804 0.947866C10.7215 1.18898 10.857 1.51601 10.857 1.857V10.857M10.2141 10.857H6.99986" stroke="#4B4F63" stroke-width="1.14286" stroke-linecap="round" stroke-linejoin="round"/>
<path d="M13.1068 13.4282C12.5101 13.4282 11.9378 13.1912 11.5158 12.7692C11.0938 12.3473 10.8568 11.775 10.8568 11.1782C10.8568 10.5815 11.0938 10.0092 11.5158 9.58723C11.9378 9.16528 12.5101 8.92822 13.1068 8.92822C13.7035 8.92822 14.2758 9.16528 14.6978 9.58723C15.1197 10.0092 15.3568 10.5815 15.3568 11.1782C15.3568 11.775 15.1197 12.3473 14.6978 12.7692C14.2758 13.1912 13.7035 13.4282 13.1068 13.4282ZM4.42822 13.4282C3.83149 13.4282 3.25919 13.1912 2.83723 12.7692C2.41528 12.3473 2.17822 11.775 2.17822 11.1782C2.17822 10.5815 2.41528 10.0092 2.83723 9.58723C3.25919 9.16528 3.83149 8.92822 4.42822 8.92822C5.02496 8.92822 5.59726 9.16528 6.01921 9.58723C6.44117 10.0092 6.67822 10.5815 6.67822 11.1782C6.67822 11.775 6.44117 12.3473 6.01921 12.7692C5.59726 13.1912 5.02496 13.4282 4.42822 13.4282Z" stroke="#4B4F63" stroke-width="1.14286" stroke-linecap="round" stroke-linejoin="round"/>
</svg>
