<svg width="20" height="20" viewBox="0 0 20 20" fill="none" xmlns="http://www.w3.org/2000/svg">
<path d="M6.67871 10.7871C8.04936 10.7874 9.1582 11.9061 9.1582 13.2842V15.8369C9.15794 17.2141 8.04903 18.3327 6.67871 18.333H4.14648C2.77608 18.3328 1.66726 17.2141 1.66699 15.8369V13.2842C1.66699 11.9061 2.77575 10.7873 4.14648 10.7871H6.67871ZM15.8545 10.7871C17.2247 10.7872 18.334 11.9062 18.334 13.2842V15.8369C18.3337 17.214 17.2243 18.3329 15.8545 18.333H13.3223C11.9519 18.3328 10.843 17.2141 10.8428 15.8369V13.2842C10.8428 11.9061 11.9515 10.7873 13.3223 10.7871H15.8545ZM4.14648 11.9502C3.42028 11.9504 2.83008 12.546 2.83008 13.2842V15.8369C2.83034 16.5742 3.42052 17.1698 4.14648 17.1699H6.67871C7.40458 17.1697 7.99485 16.5741 7.99512 15.8369V13.2842C7.99512 12.546 7.40483 11.9505 6.67871 11.9502H4.14648ZM13.3223 11.9502C12.5961 11.9504 12.0059 12.546 12.0059 13.2842V15.8369C12.0061 16.5742 12.5963 17.1698 13.3223 17.1699H15.8545C16.5798 17.1699 17.1706 16.5742 17.1709 15.8369V13.2842C17.1709 12.546 16.5801 11.9503 15.8545 11.9502H13.3223ZM6.67871 1.66602C8.04914 1.66628 9.15811 2.78479 9.1582 4.16211V6.71582C9.15814 8.09261 8.04892 9.21165 6.67871 9.21191H4.14648C2.77618 9.21176 1.66705 8.09267 1.66699 6.71582V4.16211C1.66708 2.78472 2.77597 1.66617 4.14648 1.66602H6.67871ZM15.8545 1.66602C17.2245 1.66609 18.3339 2.78483 18.334 4.16211V6.71582C18.3339 8.09256 17.2242 9.21184 15.8545 9.21191H13.3223C11.952 9.21176 10.8428 8.09267 10.8428 6.71582V4.16211C10.8429 2.78472 11.9517 1.66617 13.3223 1.66602H15.8545ZM4.14648 2.8291C3.42042 2.82926 2.83017 3.42468 2.83008 4.16211V6.71582C2.83014 7.45279 3.42071 8.04867 4.14648 8.04883H6.67871C7.4044 8.04856 7.99506 7.45273 7.99512 6.71582V4.16211C7.99503 3.42474 7.40469 2.82937 6.67871 2.8291H4.14648ZM13.3223 2.8291C12.5962 2.82926 12.006 3.42468 12.0059 4.16211V6.71582C12.0059 7.45279 12.5965 8.04867 13.3223 8.04883H15.8545C16.5796 8.04876 17.1708 7.45276 17.1709 6.71582V4.16211C17.1708 3.42471 16.5799 2.82917 15.8545 2.8291H13.3223Z" fill="#1C1C1C"/>
</svg>
