<svg width="18" height="18" viewBox="0 0 18 18" fill="none" xmlns="http://www.w3.org/2000/svg">
<path d="M9.0437 1.5C12.1587 1.52306 14.937 3.46371 16.0261 6.37793C17.1153 9.29248 16.289 12.576 13.95 14.6309C11.6112 16.6853 8.24522 17.0848 5.48901 15.6357L5.45483 15.624C5.44954 15.6209 5.44816 15.6178 5.44702 15.6143L4.9353 15.3252C4.83145 15.2827 4.71587 15.2754 4.64526 15.293C4.11326 15.4842 3.56845 15.6417 3.01636 15.7637L2.91577 15.7754C2.30803 15.7889 2.00188 15.3951 2.00171 14.8213L2.01636 14.6982C2.15439 14.1274 2.3273 13.5652 2.52417 13.0449C2.55459 12.9467 2.54429 12.8398 2.49194 12.7412L2.35327 12.4717C1.13499 10.142 1.22693 7.34549 2.59546 5.10059C3.96416 2.85593 6.41014 1.48948 9.0437 1.5ZM8.82593 2.5498C6.6417 2.61234 4.6301 3.77331 3.48901 5.64453C2.31136 7.576 2.23285 9.98219 3.28296 11.9902L3.4187 12.2549C3.59905 12.5925 3.63678 12.9888 3.51343 13.3838C3.35513 13.8042 3.21916 14.2329 3.10425 14.667L3.40015 14.5908C3.60322 14.5348 3.80806 14.4728 4.01538 14.4043L4.32886 14.2969C4.66025 14.2057 5.01303 14.2262 5.36011 14.3691C5.43297 14.4043 5.52455 14.4532 5.63843 14.5176L5.95483 14.6992C5.96004 14.7006 5.965 14.7022 5.96851 14.7031L5.95874 14.7021L6.17456 14.8105C8.44359 15.906 11.1476 15.5838 13.0945 13.9854L13.2595 13.8447C15.2721 12.0766 15.9827 9.25152 15.0457 6.74414C14.1084 4.23667 11.7176 2.56653 9.03687 2.5459L8.82593 2.5498ZM5.71265 8.14453C6.18482 8.14489 6.56797 8.52769 6.56812 9C6.56812 9.47243 6.18492 9.85511 5.71265 9.85547C5.24007 9.85547 4.8562 9.47266 4.8562 9C4.85635 8.52747 5.24016 8.14453 5.71265 8.14453ZM9.03979 8.14453C9.51217 8.14466 9.89609 8.52755 9.89624 9C9.89624 9.47257 9.51226 9.85534 9.03979 9.85547C8.56726 9.85542 8.18433 9.47263 8.18433 9C8.18447 8.5275 8.56735 8.14458 9.03979 8.14453ZM12.3679 8.14453C12.8401 8.14487 13.2232 8.52768 13.2234 9C13.2234 9.47245 12.8402 9.85513 12.3679 9.85547C11.8953 9.85547 11.5115 9.47266 11.5115 9C11.5116 8.52747 11.8954 8.14453 12.3679 8.14453Z" fill="#38587A"/>
</svg>
