<svg width="20" height="20" viewBox="0 0 20 20" fill="none" xmlns="http://www.w3.org/2000/svg">
<path d="M10.0488 1.66797C13.51 1.69349 16.5965 3.84975 17.8066 7.08789C19.0169 10.3264 18.0991 13.9747 15.5 16.2578C12.9013 18.5406 9.16114 18.9843 6.09863 17.374L6.06055 17.3613C6.05459 17.3579 6.05304 17.3546 6.05176 17.3506L5.4834 17.0293C5.36774 16.982 5.23954 16.9735 5.16113 16.9932C4.56988 17.2057 3.96515 17.3811 3.35156 17.5166L3.23926 17.5293C2.56385 17.5443 2.22369 17.1065 2.22363 16.4688L2.23926 16.332C2.39263 15.6977 2.58496 15.0732 2.80371 14.4951C2.83765 14.3857 2.82712 14.267 2.76855 14.1572L2.61523 13.8584C1.26142 11.2698 1.36297 8.16243 2.88379 5.66797C4.40458 3.17372 7.12248 1.65621 10.0488 1.66797ZM9.80664 2.83398C7.37952 2.90343 5.1448 4.19404 3.87695 6.27344C2.56847 8.4196 2.48052 11.093 3.64746 13.3242L3.79785 13.6182C3.99838 13.9934 4.04052 14.433 3.90332 14.8721C3.72742 15.3393 3.5769 15.8154 3.44922 16.2979L3.77734 16.2129C4.00316 16.1507 4.23039 16.082 4.46094 16.0059L4.80957 15.8857C5.17805 15.7843 5.57011 15.8077 5.95605 15.9668C6.03707 16.0058 6.13793 16.0602 6.26465 16.1318L6.61621 16.334C6.62217 16.3356 6.62785 16.3368 6.63184 16.3379L6.62109 16.3369L6.86133 16.457C9.38241 17.6741 12.3856 17.316 14.5488 15.54L14.7324 15.3838C16.9687 13.4193 17.7588 10.2811 16.7178 7.49512C15.6764 4.7088 13.0198 2.85289 10.041 2.83008L9.80664 2.83398ZM6.34668 9.05078C6.87163 9.0508 7.29765 9.47598 7.29785 10.001C7.29785 10.5261 6.87175 10.9521 6.34668 10.9521C5.82174 10.952 5.39551 10.526 5.39551 10.001C5.3957 9.47608 5.82186 9.05095 6.34668 9.05078ZM10.0439 9.05078C10.5689 9.05078 10.9949 9.47597 10.9951 10.001C10.9951 10.5262 10.569 10.9521 10.0439 10.9521C9.51905 10.9519 9.09277 10.526 9.09277 10.001C9.09297 9.47611 9.51917 9.051 10.0439 9.05078ZM13.7412 9.05078C14.2662 9.05078 14.6922 9.47597 14.6924 10.001C14.6924 10.5262 14.2663 10.9521 13.7412 10.9521C13.2164 10.9519 12.79 10.526 12.79 10.001C12.7902 9.47615 13.2165 9.05108 13.7412 9.05078Z" fill="#1C1C1C"/>
</svg>
