<svg width="28" height="28" viewBox="0 0 28 28" fill="none" xmlns="http://www.w3.org/2000/svg">
<path d="M22.0488 22.1763H19.002C18.7917 22.1763 18.6211 22.3469 18.6211 22.5571C18.6211 22.7674 18.7917 22.938 19.002 22.938H22.0488C22.2591 22.938 22.4297 22.7674 22.4297 22.5571C22.4297 22.3469 22.2591 22.1763 22.0488 22.1763ZM17.7324 22.1763H17.4785C17.2683 22.1763 17.0977 22.3469 17.0977 22.5571C17.0977 22.7674 17.2683 22.938 17.4785 22.938H17.7324C17.9427 22.938 18.1133 22.7674 18.1133 22.5571C18.1133 22.3469 17.9427 22.1763 17.7324 22.1763ZM23.5723 22.1763H23.3184C23.1081 22.1763 22.9375 22.3469 22.9375 22.5571C22.9375 22.7674 23.1081 22.938 23.3184 22.938H23.5723C23.7825 22.938 23.9531 22.7674 23.9531 22.5571C23.9531 22.3469 23.7825 22.1763 23.5723 22.1763ZM4.93555 8.36377H6.45898C6.94902 8.36377 7.34766 7.96514 7.34766 7.4751V5.95166C7.34766 5.46162 6.94902 5.06299 6.45898 5.06299H4.93555C4.44551 5.06299 4.04688 5.46162 4.04688 5.95166V7.4751C4.04688 7.96514 4.44551 8.36377 4.93555 8.36377ZM4.80859 5.95166C4.80859 5.91799 4.82197 5.8857 4.84578 5.86189C4.86959 5.83808 4.90188 5.82471 4.93555 5.82471H6.45898C6.49265 5.82471 6.52495 5.83808 6.54875 5.86189C6.57256 5.8857 6.58594 5.91799 6.58594 5.95166V7.4751C6.58594 7.50877 6.57256 7.54106 6.54875 7.56487C6.52495 7.58868 6.49265 7.60205 6.45898 7.60205H4.93555C4.90188 7.60205 4.86959 7.58868 4.84578 7.56487C4.82197 7.54106 4.80859 7.50877 4.80859 7.4751V5.95166ZM9.50586 8.36377H11.0293C11.5193 8.36377 11.918 7.96514 11.918 7.4751V5.95166C11.918 5.46162 11.5193 5.06299 11.0293 5.06299H9.50586C9.01582 5.06299 8.61719 5.46162 8.61719 5.95166V7.4751C8.61719 7.96514 9.01582 8.36377 9.50586 8.36377ZM9.37891 5.95166C9.37891 5.91799 9.39228 5.8857 9.41609 5.86189C9.4399 5.83808 9.47219 5.82471 9.50586 5.82471H11.0293C11.063 5.82471 11.0953 5.83808 11.1191 5.86189C11.1429 5.8857 11.1562 5.91799 11.1562 5.95166V7.4751C11.1562 7.50877 11.1429 7.54106 11.1191 7.56487C11.0953 7.58868 11.063 7.60205 11.0293 7.60205H9.50586C9.47219 7.60205 9.4399 7.58868 9.41609 7.56487C9.39228 7.54106 9.37891 7.50877 9.37891 7.4751V5.95166ZM4.93555 12.9341H6.45898C6.94902 12.9341 7.34766 12.5354 7.34766 12.0454V10.522C7.34766 10.0319 6.94902 9.6333 6.45898 9.6333H4.93555C4.44551 9.6333 4.04688 10.0319 4.04688 10.522V12.0454C4.04688 12.5354 4.44551 12.9341 4.93555 12.9341ZM4.80859 10.522C4.80859 10.4883 4.82197 10.456 4.84578 10.4322C4.86959 10.4084 4.90188 10.395 4.93555 10.395H6.45898C6.49265 10.395 6.52495 10.4084 6.54875 10.4322C6.57256 10.456 6.58594 10.4883 6.58594 10.522V12.0454C6.58594 12.0791 6.57256 12.1114 6.54875 12.1352C6.52495 12.159 6.49265 12.1724 6.45898 12.1724H4.93555C4.90188 12.1724 4.86959 12.159 4.84578 12.1352C4.82197 12.1114 4.80859 12.0791 4.80859 12.0454V10.522ZM9.50586 12.9341H11.0293C11.5193 12.9341 11.918 12.5354 11.918 12.0454V10.522C11.918 10.0319 11.5193 9.6333 11.0293 9.6333H9.50586C9.01582 9.6333 8.61719 10.0319 8.61719 10.522V12.0454C8.61719 12.5354 9.01582 12.9341 9.50586 12.9341ZM9.37891 10.522C9.37891 10.4883 9.39228 10.456 9.41609 10.4322C9.4399 10.4084 9.47219 10.395 9.50586 10.395H11.0293C11.063 10.395 11.0953 10.4084 11.1191 10.4322C11.1429 10.456 11.1562 10.4883 11.1562 10.522V12.0454C11.1562 12.0791 11.1429 12.1114 11.1191 12.1352C11.0953 12.159 11.063 12.1724 11.0293 12.1724H9.50586C9.47219 12.1724 9.4399 12.159 9.41609 12.1352C9.39228 12.1114 9.37891 12.0791 9.37891 12.0454V10.522ZM6.45898 17.5044C6.94902 17.5044 7.34766 17.1058 7.34766 16.6157V15.0923C7.34766 14.6022 6.94902 14.2036 6.45898 14.2036H4.93555C4.44551 14.2036 4.04688 14.6022 4.04688 15.0923V16.6157C4.04688 17.1058 4.44551 17.5044 4.93555 17.5044H6.45898ZM4.80859 16.6157V15.0923C4.80859 15.0586 4.82197 15.0263 4.84578 15.0025C4.86959 14.9787 4.90188 14.9653 4.93555 14.9653H6.45898C6.49265 14.9653 6.52495 14.9787 6.54875 15.0025C6.57256 15.0263 6.58594 15.0586 6.58594 15.0923V16.6157C6.58594 16.6494 6.57256 16.6817 6.54875 16.7055C6.52495 16.7293 6.49265 16.7427 6.45898 16.7427H4.93555C4.90188 16.7427 4.86959 16.7293 4.84578 16.7055C4.82197 16.6817 4.80859 16.6494 4.80859 16.6157ZM9.50586 17.5044H11.0293C11.5193 17.5044 11.918 17.1058 11.918 16.6157V15.0923C11.918 14.6022 11.5193 14.2036 11.0293 14.2036H9.50586C9.01582 14.2036 8.61719 14.6022 8.61719 15.0923V16.6157C8.61719 17.1058 9.01582 17.5044 9.50586 17.5044ZM9.37891 15.0923C9.37891 15.0586 9.39228 15.0263 9.41609 15.0025C9.4399 14.9787 9.47219 14.9653 9.50586 14.9653H11.0293C11.063 14.9653 11.0953 14.9787 11.1191 15.0025C11.1429 15.0263 11.1562 15.0586 11.1562 15.0923V16.6157C11.1562 16.6494 11.1429 16.6817 11.1191 16.7055C11.0953 16.7293 11.063 16.7427 11.0293 16.7427H9.50586C9.47219 16.7427 9.4399 16.7293 9.41609 16.7055C9.39228 16.6817 9.37891 16.6494 9.37891 16.6157V15.0923Z" fill="white"/>
<path d="M26.6191 24.207H25.9844V14.9395C25.9844 14.7292 25.8137 14.5586 25.6035 14.5586H15.4473C15.237 14.5586 15.0664 14.7292 15.0664 14.9395V24.207H13.9492V4.17383C13.9492 3.54363 13.4368 3.03125 12.8066 3.03125H11.4102V2.14258C11.4102 1.51238 10.8978 1 10.2676 1H5.69727C5.06707 1 4.55469 1.51238 4.55469 2.14258V3.03125H3.1582C2.52801 3.03125 2.01562 3.54363 2.01562 4.17383V24.207H1.38086C1.17063 24.207 1 24.3777 1 24.5879V25.6035C1 26.3734 1.62664 27 2.39648 27H25.6035C26.3734 27 27 26.3734 27 25.6035V24.5879C27 24.3777 26.8294 24.207 26.6191 24.207ZM25.2227 16.5898H22.4297V15.3203H25.2227V16.5898ZM19.3828 15.3203H21.668V18.4733L20.6457 18.1326C20.5675 18.1067 20.4832 18.1067 20.405 18.1326L19.3828 18.4733V15.3203ZM18.6211 15.3203V16.5898H15.8281V15.3203H18.6211ZM15.8281 17.3516H18.6211V19.002C18.6211 19.1243 18.68 19.2391 18.779 19.3107C18.828 19.346 18.8847 19.3691 18.9444 19.3782C19.004 19.3873 19.065 19.3821 19.1223 19.363L20.5254 18.8953L21.9285 19.363C21.9681 19.3762 22.0087 19.3823 22.0488 19.3823C22.1275 19.3823 22.2057 19.3579 22.2718 19.3102C22.3207 19.275 22.3606 19.2286 22.388 19.1749C22.4155 19.1212 22.4298 19.0618 22.4297 19.0014V17.3511H25.2227V24.2065H15.8281V17.3511V17.3516ZM5.31641 2.14258C5.31641 1.93234 5.48703 1.76172 5.69727 1.76172H10.2676C10.4778 1.76172 10.6484 1.93234 10.6484 2.14258V3.03125H5.31641V2.14258ZM2.77734 4.17383C2.77734 3.96359 2.94797 3.79297 3.1582 3.79297H12.8066C13.0169 3.79297 13.1875 3.96359 13.1875 4.17383V24.207H10.9023V19.5352H11.0293C11.2395 19.5352 11.4102 19.3645 11.4102 19.1543C11.4102 18.9441 11.2395 18.7734 11.0293 18.7734H4.93555C4.72531 18.7734 4.55469 18.9441 4.55469 19.1543C4.55469 19.3645 4.72531 19.5352 4.93555 19.5352H5.0625V24.207H2.77734V4.17383ZM7.60156 19.5352V24.207H5.82422V19.5352H7.60156ZM8.36328 19.5352H10.1406V24.207H8.36328V19.5352ZM26.2383 25.6035C26.2383 25.9534 25.9534 26.2383 25.6035 26.2383H2.39648C2.0466 26.2383 1.76172 25.9534 1.76172 25.6035V24.9688H26.2383V25.6035Z" fill="white"/>
</svg>
