<svg width="20" height="20" viewBox="0 0 20 20" fill="none" xmlns="http://www.w3.org/2000/svg">
<g clip-path="url(#clip0_604_42160)">
<path d="M9.96387 0.833984C4.92918 0.833984 0.833008 4.94609 0.833008 10.0007C0.833008 15.0552 4.92918 19.1673 9.96387 19.1673C12.208 19.1673 12.9844 18.1018 13.2475 17.4668C13.6384 16.5228 13.3941 15.3461 12.6532 14.6053C12.1428 14.0949 12.1428 13.2648 12.6532 12.7544C13.1629 12.2448 14.0176 12.2429 14.529 12.7544C15.2863 13.5116 16.4771 13.7661 17.4254 13.3734C19.3401 12.5802 19.1115 9.89742 19.1305 9.83952L19.1304 9.8296C19.0396 4.88773 14.9789 0.833984 9.96387 0.833984ZM17.0144 12.381C16.3991 12.6359 15.666 12.3722 15.2887 11.9949C14.3582 11.0644 12.824 11.0645 11.8937 11.9949C10.9634 12.9251 10.9634 14.4346 11.8937 15.3649C12.2667 15.7379 12.5108 16.4386 12.2551 17.0557C11.9779 17.7247 11.1642 18.0931 9.96387 18.0931C5.5214 18.0931 1.90723 14.4628 1.90723 10.0007C1.90723 5.53845 5.5214 1.9082 9.96387 1.9082C14.344 1.9082 17.9732 5.46795 18.0563 9.84453C18.0449 9.91464 18.1833 11.8968 17.0144 12.381Z" fill="#1C1C1C"/>
<path d="M13.7594 8.92578C13.7594 9.81427 14.4823 10.5371 15.3708 10.5371C16.2592 10.5371 16.9821 9.81423 16.9821 8.92578C16.9821 8.03733 16.2592 7.31445 15.3708 7.31445C14.4823 7.31445 13.7594 8.03733 13.7594 8.92578ZM15.9079 8.92578C15.9079 9.22191 15.6669 9.46289 15.3708 9.46289C15.0746 9.46289 14.8337 9.22191 14.8337 8.92578C14.8337 8.62966 15.0746 8.38867 15.3708 8.38867C15.6669 8.38867 15.9079 8.62966 15.9079 8.92578ZM8.88965 3.01758C8.00116 3.01758 7.27832 3.74046 7.27832 4.62891C7.27832 5.51736 8.0012 6.24023 8.88965 6.24023C9.7781 6.24023 10.501 5.51736 10.501 4.62891C10.501 3.74046 9.7781 3.01758 8.88965 3.01758ZM8.88965 5.16602C8.59352 5.16602 8.35254 4.92503 8.35254 4.62891C8.35254 4.33278 8.59352 4.0918 8.88965 4.0918C9.18577 4.0918 9.42676 4.33278 9.42676 4.62891C9.42676 4.92503 9.18577 5.16602 8.88965 5.16602ZM5.66699 9.46289C6.55548 9.46289 7.27832 8.74001 7.27832 7.85156C7.27832 6.96311 6.55544 6.24023 5.66699 6.24023C4.77854 6.24023 4.05566 6.96311 4.05566 7.85156C4.05566 8.74001 4.77854 9.46289 5.66699 9.46289ZM5.66699 7.31445C5.96312 7.31445 6.2041 7.55544 6.2041 7.85156C6.2041 8.14769 5.96312 8.38867 5.66699 8.38867C5.37087 8.38867 5.12988 8.14769 5.12988 7.85156C5.12988 7.55544 5.37087 7.31445 5.66699 7.31445ZM5.66699 10.5371C4.77851 10.5371 4.05566 11.26 4.05566 12.1484C4.05566 13.0369 4.77854 13.7598 5.66699 13.7598C6.55544 13.7598 7.27832 13.0369 7.27832 12.1484C7.27832 11.26 6.55544 10.5371 5.66699 10.5371ZM5.66699 12.6855C5.37087 12.6855 5.12988 12.4446 5.12988 12.1484C5.12988 11.8523 5.37087 11.6113 5.66699 11.6113C5.96312 11.6113 6.2041 11.8523 6.2041 12.1484C6.2041 12.4446 5.96312 12.6855 5.66699 12.6855ZM8.88965 13.7598C8.00116 13.7598 7.27832 14.4826 7.27832 15.3711C7.27832 16.2595 8.0012 16.9824 8.88965 16.9824C9.7781 16.9824 10.501 16.2595 10.501 15.3711C10.501 14.4826 9.7781 13.7598 8.88965 13.7598ZM8.88965 15.9082C8.59352 15.9082 8.35254 15.6672 8.35254 15.3711C8.35254 15.075 8.59352 14.834 8.88965 14.834C9.18577 14.834 9.42676 15.075 9.42676 15.3711C9.42676 15.6672 9.18577 15.9082 8.88965 15.9082Z" fill="#1C1C1C"/>
</g>
<defs>
<clipPath id="clip0_604_42160">
<rect width="20" height="20" fill="white"/>
</clipPath>
</defs>
</svg>
