<svg width="20" height="20" viewBox="0 0 20 20" fill="none" xmlns="http://www.w3.org/2000/svg">
<path d="M1.25245 7.03956L9.76435 10.3134C9.84044 10.3421 9.91973 10.3568 9.99967 10.3568C10.0796 10.3568 10.1589 10.3421 10.235 10.3134L18.7469 7.03956C18.9994 6.94234 19.1663 6.69937 19.1663 6.42826C19.1663 6.15714 18.9994 5.91417 18.7469 5.81697L10.235 2.54317C10.0834 2.48561 9.91598 2.48561 9.76439 2.54317L1.25249 5.81697C0.999906 5.91419 0.833008 6.15718 0.833008 6.42826C0.833008 6.69934 0.999906 6.94234 1.25245 7.03956ZM9.99967 3.8559L16.6873 6.42826L9.99967 9.00064L3.31204 6.42824L9.99967 3.8559ZM18.7469 13.6741L16.8702 12.9522L15.046 13.6543L16.6873 14.2854L9.99967 16.8578L3.31204 14.2854L4.95342 13.6543L3.12917 12.9522L1.25247 13.6741C0.999906 13.7713 0.833008 14.0143 0.833008 14.2854C0.833008 14.5565 0.999906 14.7995 1.25245 14.8967L9.76435 18.1705C9.84044 18.1993 9.91973 18.214 9.99967 18.214C10.0796 18.214 10.1589 18.1993 10.235 18.1705L18.7469 14.8967C18.9994 14.7995 19.1663 14.5565 19.1663 14.2854C19.1663 14.0143 18.9994 13.7713 18.7469 13.6741V13.6741Z" fill="#1C1C1C"/>
<path d="M18.7469 9.74535L16.8702 9.02344L15.046 9.72551L16.6873 10.3566L9.99967 12.929L3.31204 10.3566L4.95342 9.72553L3.12917 9.02347L1.25247 9.74538C0.999906 9.84255 0.833008 10.0855 0.833008 10.3566C0.833008 10.6277 0.999906 10.8707 1.25245 10.9679L9.76435 14.2417C9.84044 14.2705 9.91973 14.2852 9.99967 14.2852C10.0796 14.2852 10.1589 14.2705 10.235 14.2417L18.7469 10.9679C18.9994 10.8707 19.1663 10.6277 19.1663 10.3566C19.1663 10.0855 18.9994 9.84255 18.7469 9.74535Z" fill="#1C1C1C"/>
</svg>
