<svg width="20" height="20" viewBox="0 0 20 20" fill="none" xmlns="http://www.w3.org/2000/svg">
<path d="M9.82031 1.66797C13.6334 1.79397 16.68 4.94054 16.667 8.79102L16.666 8.87598C16.6225 11.1727 15.474 13.4349 13.5674 15.4531C12.6306 16.4288 11.584 17.2926 10.4502 18.0283L10.4053 18.0664C9.91493 18.4186 9.2521 18.4185 8.76172 18.0664L8.71191 18.0264L8.36719 17.7949C6.93631 16.8085 5.66123 15.6115 4.58887 14.248L4.3252 13.9033C3.2018 12.431 2.5639 10.6432 2.5 8.76855L2.50391 8.53125C2.62946 4.7064 5.76667 1.65101 9.60742 1.66406L9.82031 1.66797ZM9.40234 2.92969C6.27925 3.02516 3.77162 5.58907 3.76074 8.74512L3.77637 9.04297C3.88468 10.5266 4.42253 11.9492 5.33008 13.1387C6.45681 14.6479 7.83967 15.947 9.41504 16.9756L9.48438 17.0273C9.54128 17.0764 9.62579 17.0765 9.68262 17.0273L9.75293 16.9746C10.8105 16.2898 11.7856 15.484 12.6553 14.5781C14.3609 12.7726 15.3697 10.7879 15.4062 8.8623L15.4033 8.58691C15.3084 5.45384 12.7513 2.93752 9.60254 2.92676L9.40234 2.92969ZM9.58301 6.16797C11.0732 6.16797 12.281 7.37929 12.2812 8.87402C12.2811 10.3688 11.0732 11.5811 9.58301 11.5811C8.09288 11.5809 6.88492 10.3687 6.88477 8.87402C6.88499 7.37937 8.09293 6.1681 9.58301 6.16797ZM9.58301 7.43066C8.78899 7.43076 8.14551 8.07656 8.14551 8.87305C8.14571 9.66936 8.78912 10.3153 9.58301 10.3154C10.377 10.3154 11.0213 9.66942 11.0215 8.87305C11.0215 8.07649 10.3771 7.43066 9.58301 7.43066Z" fill="#1C1C1C"/>
</svg>
