<svg width="24" height="24" viewBox="0 0 24 24" fill="none" xmlns="http://www.w3.org/2000/svg">
<path d="M8 13H16M8 8H12M6.099 18.5C4.79967 18.372 3.824 17.9813 3.172 17.328C2 16.157 2 14.271 2 10.5V10C2 6.229 2 4.343 3.172 3.172C4.344 2.001 6.229 2 10 2H14C17.771 2 19.657 2 20.828 3.172C21.999 4.344 22 6.229 22 10V10.5C22 14.271 22 16.157 20.828 17.328C19.656 18.499 17.771 18.5 14 18.5C13.44 18.512 12.993 18.555 12.555 18.655C11.356 18.931 10.246 19.545 9.15 20.079C7.587 20.841 6.806 21.222 6.316 20.865C5.378 20.167 6.295 18.002 6.5 17" stroke="white" stroke-width="1.7" stroke-linecap="round" stroke-linejoin="round"/>
</svg>
