<svg width="365" height="273" viewBox="0 0 365 273" fill="none" xmlns="http://www.w3.org/2000/svg">
<path d="M84.5545 129.504L67.0156 186.168L141.948 215.361L159.487 158.697L84.5545 129.504Z" fill="#EBEBEB"/>
<path d="M159.481 158.683C159.185 158.878 158.874 159.04 158.551 159.169L155.831 160.403L145.767 164.82L112.391 179.153L112.114 179.267L111.958 178.989L111.573 178.312L92.3404 143.881L86.5783 133.398L85.0453 130.526C84.8556 130.199 84.6927 129.854 84.5586 129.494C84.7885 129.786 84.9922 130.102 85.1669 130.439L86.8167 133.229L92.7687 143.597L112.187 177.902C112.313 178.137 112.445 178.367 112.566 178.58L112.133 178.416L145.587 164.313L155.734 160.114L158.503 159.022C158.818 158.873 159.146 158.76 159.481 158.683Z" fill="#E0E0E0"/>
<path d="M67.0146 186.185C66.9124 185.994 74.9522 180.424 84.9678 173.741C94.9834 167.058 103.189 161.8 103.291 161.991C103.393 162.182 95.3532 167.752 85.3328 174.435C75.3123 181.118 67.1168 186.348 67.0146 186.185Z" fill="#E0E0E0"/>
<path d="M128.417 170.957C128.602 170.886 131.785 180.785 135.522 193.021C139.26 205.257 142.136 215.276 141.946 215.347C141.757 215.418 138.579 205.519 134.841 193.283C131.103 181.047 128.227 171.028 128.417 170.957Z" fill="#E0E0E0"/>
<path d="M305.678 114.756L231.531 128.855L240.002 184.927L314.149 170.827L305.678 114.756Z" fill="#E0E0E0"/>
<path d="M305.671 114.779C305.505 115.092 305.312 115.386 305.097 115.658L303.34 118.077L296.77 126.9C291.13 134.364 283.411 144.58 274.87 155.893L274.69 156.133L274.447 155.98L273.853 155.615L243.864 136.843L234.817 131.077L232.384 129.478C232.09 129.308 231.813 129.105 231.557 128.872C231.867 128.999 232.166 129.156 232.452 129.341L234.958 130.821L244.113 136.368L274.198 154.932L274.792 155.298L274.369 155.385L296.434 126.54L303.165 117.875C303.939 116.909 304.552 116.133 305.019 115.544C305.218 115.27 305.436 115.014 305.671 114.779Z" fill="#EBEBEB"/>
<path d="M239.996 184.945C239.836 184.836 244.25 176.089 249.856 165.409C255.463 154.73 260.144 146.157 260.305 146.267C260.466 146.376 256.052 155.117 250.445 165.803C244.839 176.488 240.157 185.049 239.996 184.945Z" fill="#EBEBEB"/>
<path d="M284.846 140.868C284.973 140.715 291.66 147.294 299.724 155.572C307.788 163.849 314.27 170.685 314.139 170.86C314.007 171.034 307.355 164.422 299.261 156.156C291.168 147.889 284.7 141.037 284.846 140.868Z" fill="#EBEBEB"/>
<path d="M231.563 25.6271L218.205 63.7305L268.594 85.9651L281.952 47.8617L231.563 25.6271Z" fill="#EBEBEB"/>
<path d="M281.936 48.3702C281.732 48.4982 281.515 48.599 281.289 48.6705L279.406 49.4349L272.432 52.1376L249.31 60.8736L249.12 60.9446L249.023 60.7481L248.78 60.2785L236.521 36.1944C234.988 33.1423 233.742 30.6525 232.851 28.8671L231.878 26.8633C231.754 26.6345 231.65 26.3932 231.566 26.1426C231.717 26.3486 231.851 26.5697 231.965 26.8032C232.228 27.3001 232.579 27.9498 233.022 28.7579L236.827 36.0033C240.02 42.1895 244.395 50.6525 249.223 60.0273L249.466 60.5024L249.179 60.3768L272.339 51.7937L279.347 49.2329L281.26 48.5941C281.48 48.4994 281.706 48.4246 281.936 48.3702Z" fill="#E0E0E0"/>
<path d="M218.192 64.2478C218.124 64.1168 223.745 60.5623 230.743 56.3145C237.741 52.0666 243.465 48.736 243.528 48.867C243.591 48.9981 237.98 52.5525 230.977 56.784C223.974 61.0155 218.255 64.3843 218.192 64.2478Z" fill="#E0E0E0"/>
<path d="M260.445 55.7795C260.576 55.7358 262.503 62.5772 264.747 71.0675C266.99 79.5578 268.713 86.4538 268.582 86.4975C268.45 86.5411 266.523 79.7052 264.279 71.2095C262.036 62.7137 260.313 55.8232 260.445 55.7795Z" fill="#E0E0E0"/>
<path d="M321.969 249.566C321.969 249.642 259.52 249.708 182.505 249.708C105.49 249.708 43.0312 249.642 43.0312 249.566C43.0312 249.489 105.466 249.424 182.505 249.424C259.544 249.424 321.969 249.484 321.969 249.566Z" fill="#263238"/>
<path d="M56.7934 100.715L63.7528 97.947L60.7597 93.4644C60.6114 92.474 60.5397 91.4711 60.5456 90.4668C60.5472 89.9498 60.6262 89.4367 60.7792 88.949C60.9482 88.3353 61.1922 87.751 61.5043 87.2127C61.5818 87.1211 61.6313 87.0044 61.6457 86.8792C61.6601 86.7541 61.6386 86.627 61.5845 86.5164C61.5303 86.4058 61.4462 86.3174 61.3443 86.2639C61.2425 86.2105 61.1281 86.1947 61.0177 86.219C60.531 86.3555 59.6161 87.6003 59.2024 89.4458C58.7888 91.2913 57.6597 88.5722 57.2558 87.5949C56.8518 86.6175 55.3821 83.6473 55.0073 83.5545C54.4623 83.418 54.2336 84.0513 54.6813 85.0178C55.129 85.9842 56.2824 88.9981 55.8055 89.2274C55.3285 89.4567 53.231 84.4226 53.231 84.4226C53.231 84.4226 52.939 83.2651 52.3842 83.5108C51.3817 83.9476 53.9756 89.1073 54.2336 89.5878C54.4136 89.9263 53.9075 90.1938 53.7469 89.8226C53.5863 89.4513 51.7467 84.7502 50.7247 85.187C49.9412 85.5201 52.8222 89.4513 52.72 90.647C52.6178 91.8428 50.8074 87.4202 50.0677 87.7696C49.7951 87.9006 49.581 88.0426 50.9729 90.4232C51.6546 91.5369 52.3872 92.6103 53.1678 93.6391L56.8032 100.704" fill="#FFBE9D"/>
<path d="M119.432 110.259C119.432 110.259 115.996 101.261 113.626 96.8873C111.392 92.7704 108.433 92.1043 106.856 91.9733C106.203 91.7477 105.531 91.5923 104.851 91.5092L91.979 91.3945C89.1656 91.4232 86.4474 92.542 84.2848 94.5613C83.6862 95.1073 79.2332 100.906 73.3202 109.161L62.9786 96.6034L56.8125 100.698C56.8125 100.698 63.509 126.639 71.8992 124.859C76.8924 123.816 80.7857 119.928 80.7857 119.928L87.3314 114.01L87.4822 114.993C87.6136 116.188 87.9446 118.121 88.1976 119.29C88.986 122.997 89.4289 127.878 87.711 131.111C87.711 131.111 85.3798 133.114 87.2243 135.315H111.485C111.485 135.315 114.921 132.699 111.782 129.795L109.835 124.275L111.105 117.537L111.592 114.84L113.728 118.946C113.728 118.946 117.952 124.908 122.347 124.176C127.627 123.292 130.689 112.497 125.924 98.225L120.181 100.185L119.432 110.259Z" fill="#3D5E83"/>
<g opacity="0.4">
<path d="M56.793 100.714L57.4013 102.876L64.2536 98.1862L62.959 96.6191L56.793 100.714Z" fill="black"/>
</g>
<g opacity="0.2">
<path d="M87.7072 131.11C88.7268 130.939 89.7051 130.538 90.5832 129.932C91.4613 129.326 92.2212 128.527 92.8172 127.583C93.4415 126.632 93.892 125.552 94.1426 124.405C94.3931 123.258 94.4389 122.067 94.2772 120.9C94.2506 120.486 94.1468 120.082 93.9725 119.715C93.7981 119.348 93.557 119.027 93.2649 118.771C92.5008 118.225 91.4545 118.509 90.6612 118.034C90.0091 117.646 89.6635 116.849 89.2012 116.194C88.7389 115.539 88.1208 114.523 87.4492 114.851C87.4492 114.851 88.2619 119.655 88.6172 121.796C88.9725 123.936 89.1039 127.01 88.4177 129.254C88.2417 129.9 88.0035 130.522 87.7072 131.11Z" fill="black"/>
</g>
<path d="M72.3281 113.568C72.3351 112.799 72.4568 112.037 72.6883 111.313C72.8371 110.567 73.0422 109.836 73.3015 109.129C73.3004 109.898 73.1785 110.662 72.9413 111.384C72.7925 112.13 72.5874 112.861 72.3281 113.568Z" fill="#263238"/>
<path d="M73.8652 112.394C73.4969 111.364 73.299 110.266 73.2812 109.156C73.5038 109.654 73.6455 110.192 73.6998 110.745C73.8379 111.28 73.8938 111.838 73.8652 112.394Z" fill="#263238"/>
<path d="M120.129 80.6113L111.32 96.6201L118.25 98.7877L125.94 85.4816L120.129 80.6113Z" fill="#455A64"/>
<path d="M119.578 94.2501L119.875 96.5925L121.106 98.367L121.228 99.8193L125.647 98.3124L123.861 91.2144C124.004 90.2586 124.063 89.2893 124.036 88.3206L122.82 90.1278L122.484 87.1794L119.997 84.9354C119.932 84.8822 119.859 84.8438 119.781 84.8224C119.704 84.801 119.623 84.797 119.544 84.8107C119.465 84.8244 119.389 84.8555 119.32 84.9022C119.252 84.9489 119.192 85.0102 119.145 85.0828C119.061 85.214 119.022 85.3744 119.033 85.5353C119.045 85.6963 119.107 85.8474 119.208 85.9618L121.209 87.9384L121.34 90.379L119.88 88.872C119.737 88.7224 119.561 88.6203 119.369 88.5772L117.359 88.124C117.288 88.1084 117.214 88.1097 117.143 88.1279C117.071 88.146 117.004 88.1806 116.946 88.2294C116.887 88.2782 116.838 88.3401 116.802 88.4113C116.766 88.4824 116.744 88.5613 116.736 88.6427C116.724 88.7777 116.754 88.9134 116.82 89.0268C116.886 89.1402 116.986 89.2244 117.101 89.2651L118.931 89.893L120.78 91.9897L118.97 91.2144L116.512 91.602C116.397 91.623 116.293 91.6896 116.218 91.7898C116.143 91.89 116.102 92.0172 116.104 92.148C116.104 92.2928 116.155 92.4317 116.246 92.5341C116.337 92.6365 116.461 92.694 116.59 92.694L118.152 92.5957L119.072 92.9179L116.96 93.5458C116.865 93.5724 116.781 93.6356 116.723 93.7244C116.666 93.8132 116.637 93.922 116.644 94.0317C116.646 94.0956 116.66 94.1583 116.685 94.216C116.709 94.2737 116.744 94.3252 116.787 94.3675C116.829 94.4098 116.879 94.4421 116.933 94.4622C116.987 94.4824 117.044 94.4901 117.101 94.4849L119.578 94.2501Z" fill="#FFBE9D"/>
<g opacity="0.4">
<path d="M120.157 100.185L119.967 102.806L126.668 100.736L125.899 98.2246L120.157 100.185Z" fill="black"/>
</g>
<path d="M111.319 96.6414C111.319 96.6414 110.726 95.7405 110.774 95.5876C110.823 95.4347 119.155 80.043 119.155 80.043L120.128 80.6326L111.319 96.6414Z" fill="#263238"/>
<path d="M122.332 84.6304C122.37 84.5881 122.417 84.5575 122.468 84.5416C122.52 84.5258 122.574 84.5252 122.625 84.54C122.677 84.5547 122.724 84.5843 122.763 84.6258C122.801 84.6674 122.829 84.7194 122.844 84.7767C122.859 84.8341 122.86 84.8948 122.848 84.9529C122.836 85.0111 122.81 85.0646 122.773 85.1082C122.737 85.1519 122.691 85.1841 122.64 85.2018C122.589 85.2195 122.535 85.222 122.483 85.2091C122.436 85.1924 122.392 85.1633 122.356 85.1243C122.32 85.0852 122.292 85.0372 122.276 84.9842C122.259 84.9311 122.254 84.8744 122.26 84.8187C122.267 84.763 122.285 84.7097 122.313 84.6631" fill="#263238"/>
<path d="M116.8 104.389C116.737 104.535 116.652 104.666 116.547 104.777C116.243 105.095 115.868 105.314 115.461 105.41C114.819 105.557 114.157 105.557 113.515 105.41C112.697 105.193 111.85 105.15 111.018 105.285C110.043 105.604 109.143 106.163 108.385 106.923C107.514 107.671 106.594 108.599 105.358 109.036C104.726 109.237 104.064 109.295 103.411 109.205C102.743 109.09 102.09 108.887 101.465 108.599C100.19 108.053 98.9682 107.245 97.625 106.699C96.3305 106.133 94.9131 106.022 93.5613 106.382C92.2424 106.688 91.0063 107.201 89.775 107.474C87.5746 108.006 85.2774 107.651 83.2878 106.47C81.9403 105.69 80.7737 104.568 79.8811 103.194C79.556 102.697 79.2833 102.16 79.0684 101.594C79.1024 101.594 79.336 102.183 79.9638 103.128C80.8758 104.449 82.0399 105.523 83.3705 106.273C85.3322 107.407 87.586 107.736 89.741 107.201C90.9528 106.906 92.1743 106.388 93.5272 106.071C94.9253 105.695 96.3925 105.807 97.732 106.393C99.1044 106.939 100.331 107.747 101.582 108.304C102.188 108.584 102.822 108.784 103.47 108.899C104.089 108.984 104.717 108.932 105.319 108.746C106.487 108.342 107.402 107.447 108.278 106.699C109.067 105.929 110 105.369 111.008 105.061C111.863 104.93 112.732 104.986 113.568 105.225C114.188 105.382 114.83 105.401 115.456 105.279C115.849 105.204 116.218 105.016 116.527 104.733C116.624 104.624 116.715 104.51 116.8 104.389Z" fill="#FAFAFA"/>
<path d="M119.575 114.79C119.421 113.996 119.354 113.183 119.375 112.371C119.307 111.561 119.328 110.745 119.438 109.941C119.591 110.736 119.658 111.548 119.638 112.36C119.705 113.17 119.684 113.986 119.575 114.79Z" fill="#263238"/>
<path d="M104.395 215.183C104.604 216.133 109.568 247.359 109.568 247.359L117.174 246.72L115.783 214.834L104.395 215.183Z" fill="#FFBE9D"/>
<path d="M117.403 247.217L117.378 246.316L109.275 246.508L109.324 249.467H109.811C112.04 249.549 121.15 249.718 122.625 249.221C124.289 248.681 117.403 247.217 117.403 247.217Z" fill="#3D5E83"/>
<g opacity="0.3">
<path d="M112.249 249.336C112.105 248.617 111.724 247.985 111.183 247.567C110.63 247.133 109.958 246.93 109.285 246.994L109.329 249.347L112.249 249.336Z" fill="black"/>
</g>
<g opacity="0.3">
<path d="M120.771 248.059C120.771 248.059 123.204 248.73 122.897 249.151C122.591 249.571 113.393 249.762 109.324 249.473V249.282L120.07 249.162C120.07 249.162 120.303 248.086 120.771 248.059Z" fill="black"/>
</g>
<path d="M109.207 249.275H109.343H109.742L111.202 249.314C112.443 249.314 114.152 249.341 116.045 249.314C117.938 249.286 119.646 249.204 120.887 249.133L122.347 249.041L122.741 249.008H122.342L120.882 249.068C119.646 249.117 117.933 249.183 116.045 249.215C114.156 249.248 112.443 249.259 111.202 249.259H109.207V249.275Z" fill="#263238"/>
<path d="M120.08 249.287C120.137 249.03 120.224 248.782 120.338 248.55C120.478 248.33 120.641 248.13 120.825 247.955C120.579 248.049 120.374 248.244 120.25 248.501C120.106 248.729 120.045 249.01 120.08 249.287Z" fill="#263238"/>
<path d="M117.676 248.074C117.676 248.074 117.808 247.943 117.925 247.747C118.041 247.55 118.109 247.381 118.085 247.365C118.061 247.348 117.954 247.496 117.842 247.692C117.73 247.889 117.652 248.058 117.676 248.074Z" fill="#263238"/>
<path d="M117.014 247.726C117.014 247.726 117.16 247.655 117.296 247.524C117.433 247.393 117.525 247.267 117.511 247.245C117.496 247.224 117.365 247.316 117.228 247.447C117.092 247.578 116.995 247.709 117.014 247.726Z" fill="#263238"/>
<path d="M116.586 246.939C116.722 246.991 116.867 247.007 117.009 246.988C117.151 247.005 117.294 246.986 117.428 246.934C117.291 246.886 117.147 246.869 117.004 246.885C116.863 246.872 116.721 246.891 116.586 246.939Z" fill="#263238"/>
<path d="M116.434 246.383C116.579 246.484 116.749 246.532 116.92 246.519C117.086 246.547 117.256 246.518 117.407 246.437C117.245 246.424 117.082 246.424 116.92 246.437C116.76 246.403 116.597 246.385 116.434 246.383Z" fill="#263238"/>
<path d="M117.934 247.338C118.106 247.369 118.282 247.369 118.454 247.338C118.64 247.312 118.822 247.264 118.999 247.196C119.11 247.165 119.216 247.117 119.316 247.054C119.345 247.037 119.371 247.013 119.392 246.984C119.413 246.955 119.429 246.921 119.437 246.885C119.446 246.844 119.443 246.802 119.428 246.763C119.413 246.725 119.387 246.693 119.355 246.672C119.157 246.57 118.935 246.545 118.723 246.602C118.511 246.658 118.322 246.793 118.187 246.984C118.111 247.091 118.056 247.216 118.026 247.349C118.026 247.442 118.026 247.497 118.026 247.497C118.072 247.327 118.149 247.169 118.25 247.033C118.367 246.885 118.519 246.777 118.688 246.721C118.89 246.644 119.111 246.656 119.306 246.754C119.389 246.814 119.36 246.918 119.272 246.973C119.179 247.029 119.081 247.075 118.98 247.109C118.807 247.177 118.63 247.23 118.449 247.267C118.133 247.338 117.934 247.338 117.934 247.338Z" fill="#263238"/>
<path d="M118.07 247.338C118.126 247.223 118.143 247.09 118.118 246.961C118.1 246.819 118.05 246.683 117.972 246.568C117.925 246.487 117.86 246.419 117.783 246.373C117.707 246.326 117.621 246.301 117.534 246.301C117.509 246.305 117.485 246.316 117.464 246.331C117.442 246.346 117.424 246.366 117.409 246.389C117.394 246.413 117.384 246.439 117.379 246.467C117.374 246.495 117.374 246.524 117.379 246.552C117.392 246.639 117.423 246.722 117.471 246.792C117.543 246.911 117.628 247.019 117.724 247.114C117.808 247.212 117.911 247.285 118.026 247.327C118.026 247.327 117.919 247.234 117.773 247.065C117.688 246.967 117.613 246.859 117.549 246.743C117.476 246.634 117.422 246.426 117.549 246.399C117.617 246.407 117.683 246.431 117.743 246.469C117.803 246.508 117.854 246.56 117.894 246.623C117.969 246.724 118.021 246.844 118.045 246.972C118.064 247.093 118.073 247.216 118.07 247.338Z" fill="#263238"/>
<path d="M109.324 246.971C109.324 246.971 109.558 246.944 109.923 246.971C110.394 247.024 110.845 247.212 111.232 247.517C111.604 247.814 111.894 248.223 112.069 248.696C112.2 249.057 112.215 249.297 112.234 249.297C112.245 249.241 112.245 249.183 112.234 249.128C112.217 248.973 112.186 248.822 112.142 248.674C111.978 248.175 111.683 247.743 111.295 247.435C110.895 247.114 110.423 246.925 109.933 246.889C109.785 246.873 109.637 246.873 109.49 246.889C109.378 246.944 109.324 246.96 109.324 246.971Z" fill="#263238"/>
<path d="M113.246 248.495C113.635 248.584 114.032 248.617 114.429 248.594C114.824 248.606 115.22 248.566 115.606 248.474C115.606 248.441 115.076 248.474 114.424 248.474C113.772 248.474 113.251 248.468 113.246 248.495Z" fill="#263238"/>
<path d="M111.666 248.527C111.666 248.527 111.71 248.642 111.768 248.767C111.827 248.893 111.856 249.002 111.886 249.002C111.915 249.002 111.925 248.866 111.856 248.724C111.788 248.582 111.686 248.505 111.666 248.527Z" fill="#263238"/>
<path d="M111.057 247.763C111.057 247.763 111.091 247.872 111.174 247.959C111.257 248.047 111.345 248.101 111.364 248.08C111.384 248.058 111.33 247.97 111.242 247.883C111.154 247.796 111.071 247.747 111.057 247.763Z" fill="#263238"/>
<path d="M110.196 247.429C110.196 247.457 110.308 247.457 110.429 247.495C110.551 247.533 110.634 247.599 110.653 247.582C110.673 247.566 110.605 247.446 110.459 247.397C110.313 247.348 110.186 247.402 110.196 247.429Z" fill="#263238"/>
<path d="M109.582 247.277C109.582 247.277 109.621 247.343 109.689 247.37C109.758 247.397 109.821 247.397 109.831 247.37C109.841 247.343 109.792 247.299 109.724 247.272C109.655 247.245 109.592 247.25 109.582 247.277Z" fill="#263238"/>
<path d="M85.0451 212.58C85.0061 213.557 81.8477 243.964 81.8477 243.964L89.2888 245.815L96.1557 214.835L85.0451 212.58Z" fill="#FFBE9D"/>
<path d="M89.6247 246.623L89.7951 245.75L81.8819 243.768L81.3027 246.656L81.7894 246.809C83.9356 247.486 92.7491 250.085 94.2919 249.992C96.0049 249.888 89.6247 246.623 89.6247 246.623Z" fill="#3D5E83"/>
<g opacity="0.3">
<path d="M84.1927 247.338C84.2079 246.601 83.9731 245.885 83.5357 245.334C83.0908 244.763 82.4809 244.386 81.8129 244.27L81.3555 246.568L84.1927 247.338Z" fill="black"/>
</g>
<g opacity="0.3">
<path d="M92.7199 248.343C92.7199 248.343 94.9245 249.642 94.5547 249.981C94.1848 250.319 85.1961 248.032 81.3027 246.667L81.3514 246.486L91.8147 249.216C91.8147 249.216 92.2576 248.244 92.7199 248.343Z" fill="black"/>
</g>
<path d="M81.2285 246.438L81.3599 246.487L81.7444 246.612L83.1606 247.038C84.3626 247.388 86.0222 247.852 87.8666 248.321C89.7111 248.791 91.3901 249.178 92.6068 249.441L94.0668 249.741L94.461 249.812H94.6021L94.4658 249.774L94.0765 249.681L92.6165 249.348C91.3998 249.064 89.7257 248.671 87.8812 248.201C86.0368 247.732 84.3772 247.278 83.1703 246.945L81.759 246.574L81.3696 246.47C81.3243 246.452 81.2767 246.441 81.2285 246.438Z" fill="#263238"/>
<path d="M91.7852 249.353C91.8974 249.119 92.0347 248.901 92.194 248.704C92.3795 248.529 92.5819 248.379 92.7974 248.256C92.5407 248.288 92.3026 248.421 92.1258 248.633C91.9335 248.814 91.8115 249.073 91.7852 249.353Z" fill="#263238"/>
<path d="M89.7073 247.534C89.7073 247.534 89.8679 247.441 90.0187 247.277C90.1696 247.113 90.2767 246.971 90.2572 246.955C90.2377 246.938 90.1015 247.048 89.9506 247.206C89.7997 247.364 89.6878 247.512 89.7073 247.534Z" fill="#263238"/>
<path d="M89.1373 247.021C89.2504 247.01 89.3592 246.967 89.4536 246.896C89.6142 246.803 89.7359 246.705 89.7213 246.683C89.7067 246.661 89.5656 246.71 89.405 246.803C89.2444 246.896 89.1276 246.994 89.1373 247.021Z" fill="#263238"/>
<path d="M88.8883 246.142C88.379 246.132 87.8855 246.341 87.5094 246.726C87.1333 247.112 86.9032 247.644 86.8665 248.214C86.8298 248.784 86.9893 249.349 87.3122 249.791C87.6351 250.233 88.0967 250.519 88.6021 250.591C89.1075 250.662 89.6182 250.514 90.0289 250.176C90.4397 249.838 90.7194 249.336 90.8103 248.774C90.9012 248.212 90.7965 247.631 90.5178 247.153C90.239 246.675 89.8074 246.335 89.3117 246.203C89.1758 246.15 89.0317 246.129 88.8883 246.142Z" fill="#263238"/>
<path d="M88.8594 245.559C88.9764 245.69 89.1254 245.779 89.2876 245.815C89.4421 245.884 89.6107 245.903 89.7743 245.87C89.6265 245.803 89.4733 245.751 89.3168 245.717C89.168 245.652 89.0151 245.599 88.8594 245.559Z" fill="#263238"/>
<path d="M90.1152 246.885C90.2709 246.953 90.4351 246.994 90.6019 247.005C90.7897 247.025 90.9787 247.025 91.1664 247.005C91.2781 246.999 91.389 246.981 91.4974 246.95C91.5637 246.931 91.621 246.884 91.658 246.819C91.6731 246.781 91.678 246.738 91.6719 246.696C91.6659 246.655 91.6492 246.616 91.6239 246.585C91.4525 246.434 91.2408 246.352 91.0229 246.352C90.8049 246.352 90.5933 246.434 90.4218 246.585C90.3225 246.667 90.241 246.773 90.1834 246.896C90.1444 246.978 90.1396 247.032 90.1444 247.032C90.2269 246.882 90.3343 246.75 90.4608 246.645C90.6041 246.532 90.7728 246.468 90.9474 246.459C91.1604 246.438 91.3727 246.508 91.5412 246.656C91.6093 246.738 91.5412 246.825 91.4584 246.858C91.3582 246.889 91.2555 246.909 91.1518 246.918C90.9687 246.931 90.785 246.931 90.6019 246.918C90.3099 246.912 90.1201 246.869 90.1152 246.885Z" fill="#263238"/>
<path d="M90.2428 246.94C90.2428 246.94 90.3498 246.836 90.3742 246.59C90.3844 246.447 90.3626 246.302 90.3109 246.17C90.2816 246.078 90.2325 245.995 90.168 245.93C90.1035 245.864 90.0255 245.817 89.941 245.793C89.9157 245.792 89.8904 245.796 89.8665 245.806C89.8427 245.815 89.8208 245.83 89.8022 245.85C89.7836 245.869 89.7687 245.892 89.7582 245.918C89.7478 245.944 89.7421 245.972 89.7415 246.001C89.7358 246.089 89.7492 246.177 89.7804 246.257C89.824 246.391 89.8829 246.518 89.9556 246.634C90.0175 246.751 90.1024 246.85 90.2038 246.923C90.2038 246.923 90.1211 246.803 90.014 246.601C89.9534 246.483 89.9029 246.359 89.8632 246.23C89.8145 246.099 89.8096 245.886 89.941 245.897C90.0724 245.908 90.1746 246.077 90.2282 246.203C90.2791 246.322 90.3057 246.453 90.306 246.585C90.2967 246.706 90.2755 246.825 90.2428 246.94Z" fill="#263238"/>
<path d="M81.832 244.23C81.832 244.23 82.0608 244.263 82.4112 244.399C82.8574 244.569 83.2566 244.867 83.5694 245.262C83.868 245.653 84.0635 246.129 84.134 246.638C84.1539 246.845 84.1637 247.053 84.1632 247.26C84.1632 247.26 84.1875 247.2 84.1972 247.097C84.2126 246.941 84.2126 246.783 84.1972 246.627C84.1439 246.1 83.9506 245.604 83.6424 245.202C83.3166 244.79 82.8954 244.488 82.4258 244.328C82.283 244.28 82.1363 244.247 81.9878 244.23C81.9362 244.22 81.8836 244.22 81.832 244.23Z" fill="#263238"/>
<path d="M85.3164 246.759C85.6739 246.949 86.0517 247.087 86.4406 247.168C86.823 247.287 87.2169 247.353 87.6135 247.365C87.6135 247.338 87.0927 247.239 86.4649 247.07C85.8371 246.901 85.3261 246.731 85.3164 246.759Z" fill="#263238"/>
<path d="M83.7734 246.365C83.7734 246.365 83.7734 246.49 83.8221 246.627C83.8708 246.763 83.8562 246.878 83.8854 246.884C83.9146 246.889 83.9535 246.763 83.9194 246.611C83.8854 246.458 83.7929 246.349 83.7734 246.365Z" fill="#263238"/>
<path d="M83.3418 245.465C83.3418 245.465 83.3418 245.58 83.4199 245.683C83.498 245.787 83.5565 245.864 83.576 245.853C83.5956 245.842 83.576 245.738 83.5028 245.634C83.4296 245.531 83.3662 245.449 83.3418 245.465Z" fill="#263238"/>
<path d="M82.5762 244.907C82.5762 244.94 82.6832 244.962 82.7903 245.033C82.8974 245.103 82.9704 245.191 82.9947 245.18C83.019 245.169 82.9947 245.033 82.839 244.945C82.6832 244.858 82.5762 244.88 82.5762 244.907Z" fill="#263238"/>
<path d="M82.0176 244.608C82.0176 244.608 82.042 244.684 82.1005 244.728C82.1591 244.771 82.2225 244.788 82.2372 244.76C82.2518 244.733 82.2372 244.684 82.1542 244.64C82.0713 244.597 82.0322 244.575 82.0176 244.608Z" fill="#263238"/>
<path d="M112.979 77.1598C112.779 76.51 112.288 76.0241 112.049 75.3907C111.694 74.4407 111.957 73.365 112.049 72.344C112.142 71.323 111.952 70.0781 111.12 69.6577C110.755 69.5512 110.398 69.4181 110.049 69.2591C109.397 68.8005 109.431 67.7631 109.373 66.9059C109.333 66.339 109.205 65.7844 108.993 65.2679L109.129 65.2187C109.622 65.0848 110.142 65.1498 110.596 65.4024C111.051 65.6549 111.412 66.0789 111.616 66.6001C111.706 66.8182 111.745 67.0583 111.73 67.298C111.715 67.5377 111.645 67.7691 111.528 67.9706C111.428 68.1383 111.281 68.2635 111.109 68.3258C110.938 68.3882 110.753 68.3842 110.584 68.3146C110.453 68.238 110.349 68.1153 110.286 67.9653C110.224 67.8153 110.207 67.6463 110.239 67.4846C110.28 67.3677 110.355 67.2703 110.453 67.2086C110.55 67.1469 110.664 67.1249 110.774 67.1461C110.848 67.1531 110.919 67.1777 110.984 67.2182C111.049 67.2587 111.105 67.3141 111.149 67.3809C111.207 67.4792 111.212 67.5501 111.222 67.5447C111.232 67.5392 111.222 67.4737 111.222 67.3536C111.181 67.2659 111.122 67.1901 111.05 67.1323C110.978 67.0745 110.895 67.0362 110.808 67.0205C110.683 66.9943 110.554 67.0056 110.433 67.0533C110.358 67.0847 110.29 67.1343 110.234 67.1984C110.177 67.2625 110.134 67.3397 110.107 67.4246C110.051 67.6309 110.061 67.8528 110.134 68.0521C110.208 68.2513 110.341 68.4156 110.511 68.5166C110.724 68.6209 110.962 68.6399 111.185 68.5703C111.409 68.5007 111.604 68.3467 111.738 68.1344C111.886 67.8985 111.977 67.6238 112.002 67.3369C112.028 67.0499 111.987 66.7604 111.884 66.4964C111.68 65.9434 111.317 65.4823 110.854 65.1857C110.39 64.8892 109.852 64.774 109.324 64.8584C109.438 64.6417 109.511 64.4004 109.537 64.1502C109.563 63.9 109.542 63.6464 109.475 63.406C109.385 63.113 109.237 62.8468 109.043 62.6273C108.848 62.4079 108.611 62.241 108.351 62.1393C107.894 61.9508 107.397 61.9204 106.925 62.0519C106.525 62.1609 106.145 62.3455 105.8 62.5979C105.484 62.8273 105.241 63.0784 105.007 63.2477C104.814 63.4043 104.587 63.5022 104.35 63.5316C104.146 63.5527 103.941 63.5052 103.761 63.3951C103.761 63.3951 103.912 63.6572 104.355 63.6572C104.616 63.6491 104.871 63.5603 105.09 63.4006C105.348 63.2368 105.606 62.991 105.907 62.789C106.245 62.5262 106.633 62.3545 107.04 62.2873C107.447 62.22 107.862 62.2591 108.253 62.4014C108.479 62.4883 108.684 62.6318 108.852 62.8211C109.021 63.0103 109.149 63.2402 109.227 63.4934C109.299 63.7472 109.305 64.0187 109.246 64.2766C109.187 64.5345 109.063 64.7683 108.891 64.9512C108.644 64.4482 108.281 64.0294 107.84 63.7391C106.866 63.1221 105.406 63.4224 104.92 64.5472L96.9333 61.4677C96.4326 60.9955 95.834 60.6725 95.1927 60.5284C94.5513 60.3843 93.888 60.4238 93.2639 60.6432L93.0984 60.6105C92.6372 60.5619 92.1727 60.6485 91.7503 60.8617C91.2202 61.1952 90.7578 61.6489 90.3925 62.1939C90.1736 62.4766 89.9156 62.7181 89.6285 62.9091C89.5777 62.9343 89.5257 62.9562 89.4727 62.9747C89.119 63.0195 88.7627 63.0341 88.4069 63.0183C87.7353 62.8436 87.0394 62.4123 86.2121 62.3195C85.7495 62.2493 85.2791 62.2864 84.8299 62.4287C84.3528 62.5864 83.9245 62.8909 83.5938 63.3077C83.2461 63.7447 83.0553 64.3109 83.0585 64.8966C83.0648 65.3169 83.1238 65.7341 83.2337 66.136C83.0542 66.6766 82.9747 67.2525 83.0001 67.8286C83.0341 68.5876 83.2288 69.3847 83.2385 70.1273C83.0429 70.2987 82.8199 70.4266 82.5815 70.504C82.163 70.6514 81.7104 70.7224 81.2821 70.908C80.8812 71.0913 80.5199 71.3688 80.2227 71.722C79.9255 72.0753 79.6993 72.4959 79.5593 72.9555C79.4255 73.3228 79.375 73.7215 79.4124 74.1161C79.4497 74.5106 79.5738 74.8885 79.7735 75.216C79.6713 75.7143 79.6689 76.2318 79.7665 76.7313C79.8641 77.2308 80.0593 77.6997 80.338 78.1043C80.781 78.5766 81.1987 79.078 81.5887 79.6058C82.1143 80.5177 82.0365 81.6915 82.1727 82.7672C82.309 83.8428 82.8589 85.0658 83.8274 85.1368C84.6061 85.1914 85.2874 84.4598 86.0855 84.5308C87.1757 84.629 87.6234 86.0978 88.2561 87.1024C88.6646 87.7336 89.2163 88.2306 89.8538 88.5417C90.4914 88.8528 91.1916 88.9667 91.8817 88.8715C92.8551 88.724 93.8576 88.1343 94.8261 88.4073C96.0476 88.7568 96.7727 90.362 98.0332 90.564C98.9579 90.7115 99.8193 90.0181 100.51 89.3083C101.201 88.5985 101.897 87.7794 102.822 87.5938C103.932 87.3699 105.002 88.1398 106.122 88.2927C106.848 88.3903 107.584 88.2462 108.238 87.8783C108.892 87.5104 109.436 86.9349 109.801 86.2233C110.414 84.973 110.409 83.4388 110.988 82.1666C111.431 81.3562 111.919 80.5775 112.448 79.8352C112.906 79.0653 113.261 78.077 112.979 77.1598ZM80.9561 73.1303C80.8662 73.1087 80.7734 73.1087 80.6835 73.1303C80.6835 73.1303 80.7663 73.1303 80.9025 73.1903L80.7517 73.3159C80.296 73.7417 79.9667 74.313 79.8075 74.9539C79.6869 74.6636 79.6204 74.3488 79.612 74.0286C79.6036 73.7085 79.6536 73.3898 79.7589 73.092C79.8926 72.6734 80.104 72.2915 80.3792 71.9714C80.6544 71.6514 80.987 71.4006 81.3551 71.2357C81.7445 71.0718 82.1873 71.0009 82.6399 70.848C82.836 70.786 83.0229 70.6922 83.1947 70.5695C83.174 70.8669 83.096 71.1557 82.966 71.4158C82.5475 72.2294 81.6617 72.5734 80.9561 73.1303ZM86.4067 63.0839C85.7598 63.221 85.1506 63.5266 84.6283 63.9761C84.1059 64.4256 83.6849 65.0065 83.3991 65.6719C83.3495 65.4264 83.3234 65.1756 83.3213 64.9239C83.319 64.4137 83.4835 63.9203 83.7836 63.5371C84.0843 63.1816 84.4578 62.9137 84.8716 62.7567C85.2855 62.5997 85.7272 62.5584 86.1585 62.6361C86.6068 62.7022 87.0464 62.8287 87.4677 63.0129C87.1129 63.0064 86.7583 63.0302 86.4067 63.0839ZM90.412 62.7071C90.3147 62.7563 90.2125 62.789 90.1151 62.8272C90.257 62.6827 90.3919 62.5296 90.5191 62.3686C90.8637 61.8395 91.2967 61.3908 91.7941 61.0473C92.1615 60.8449 92.5677 60.7474 92.9767 60.7634C92.7656 60.85 92.5633 60.9616 92.3733 61.0964C91.6919 61.5878 91.1517 62.3249 90.412 62.7071Z" fill="#263238"/>
<path d="M107.724 81.4626C108.103 78.7763 107.986 74.3646 107.782 70.7556C107.739 69.9864 107.558 69.2349 107.249 68.5463C106.941 67.8578 106.511 67.2464 105.987 66.749C105.462 66.2516 104.853 65.8785 104.196 65.6522C103.54 65.4259 102.849 65.351 102.166 65.4321L93.8 66.4258C93.378 66.4751 92.9881 66.7007 92.7076 67.0578C92.4272 67.4149 92.2768 67.8774 92.2864 68.3532L93.1478 91.4108H91.2012V95.5877C91.2012 97.8814 92.0133 100.081 93.459 101.703C94.9047 103.325 96.8655 104.236 98.91 104.236C100.954 104.236 102.915 103.325 104.361 101.703C105.807 100.081 106.619 97.8814 106.619 95.5877V91.9731C106.619 91.9731 104.614 91.236 103.397 91.3125H103.1C103.1 89.1995 103.256 87.5451 103.256 87.5451C103.256 87.5451 106.959 86.8735 107.724 81.4626Z" fill="#FFBE9D"/>
<path d="M106.531 74.2548C106.531 74.4355 106.469 74.6093 106.357 74.7396C106.246 74.8699 106.093 74.9466 105.932 74.9537C105.854 74.9611 105.774 74.9506 105.699 74.9228C105.624 74.895 105.554 74.8504 105.495 74.7918C105.435 74.7332 105.387 74.6617 105.352 74.5816C105.318 74.5016 105.299 74.4145 105.295 74.3258C105.295 74.145 105.357 73.9713 105.469 73.841C105.58 73.7107 105.733 73.6339 105.894 73.6269C105.972 73.6202 106.051 73.6313 106.126 73.6593C106.201 73.6874 106.271 73.732 106.33 73.7905C106.389 73.849 106.438 73.9202 106.472 73.9999C106.507 74.0796 106.527 74.1663 106.531 74.2548Z" fill="#263238"/>
<path d="M106.931 73.054C106.853 73.1413 106.386 72.7536 105.719 72.7536C105.052 72.7536 104.565 73.1304 104.492 73.0376C104.419 72.9448 104.536 72.8355 104.75 72.6608C105.037 72.4408 105.376 72.3228 105.724 72.3223C106.073 72.3195 106.414 72.4419 106.697 72.6718C106.897 72.8465 106.97 73.0103 106.931 73.054Z" fill="#263238"/>
<path d="M100.024 74.2548C100.026 74.435 99.9645 74.6087 99.8537 74.7392C99.7428 74.8697 99.5911 74.9466 99.4306 74.9537C99.3517 74.9611 99.2722 74.9506 99.197 74.9228C99.1218 74.895 99.0523 74.8504 98.9928 74.7918C98.9333 74.7332 98.8849 74.6617 98.8506 74.5816C98.8163 74.5016 98.7967 74.4145 98.7931 74.3258C98.7904 74.1452 98.8512 73.9706 98.9623 73.8399C99.0734 73.7091 99.2259 73.6326 99.3868 73.6269C99.4656 73.6202 99.5447 73.6313 99.6197 73.6593C99.6946 73.6874 99.7638 73.732 99.8232 73.7905C99.8825 73.849 99.9309 73.9202 99.9655 73.9999C100 74.0796 100.02 74.1663 100.024 74.2548Z" fill="#263238"/>
<path d="M100.39 73.1912C100.312 73.284 99.8446 72.8964 99.1778 72.8964C98.5111 72.8964 98.0245 73.2731 97.9515 73.1803C97.8785 73.0875 97.9953 72.9783 98.2094 72.8035C98.494 72.5786 98.8346 72.4602 99.1827 72.465C99.5324 72.4595 99.8742 72.5822 100.156 72.8145C100.356 72.9892 100.429 73.1639 100.39 73.1912Z" fill="#263238"/>
<path d="M102.804 78.7264C103.154 78.6034 103.517 78.5301 103.884 78.508C104.055 78.508 104.215 78.4534 104.244 78.3224C104.255 78.1321 104.216 77.9424 104.132 77.7764C103.972 77.3177 103.806 76.8318 103.646 76.324C102.95 74.2601 102.444 72.5621 102.522 72.5293C103.072 73.7153 103.539 74.9475 103.918 76.2148C104.084 76.728 104.244 77.2085 104.405 77.6781C104.512 77.9078 104.544 78.173 104.493 78.4261C104.467 78.4933 104.429 78.5533 104.38 78.6015C104.331 78.6497 104.273 78.6849 104.21 78.7046C104.117 78.7334 104.02 78.7481 103.923 78.7482C103.551 78.7947 103.175 78.7874 102.804 78.7264Z" fill="#263238"/>
<path d="M103.265 87.5617C100.994 87.6007 98.7583 86.9316 96.8066 85.6289C96.8066 85.6289 98.3737 89.3472 103.197 88.8394L103.265 87.5617Z" fill="#EB996E"/>
<path d="M102.521 80.5283C102.394 80.3491 102.229 80.209 102.041 80.1212C101.853 80.0333 101.648 80.0005 101.445 80.0259C101.299 80.0415 101.156 80.0901 101.026 80.1689C100.897 80.2477 100.783 80.3551 100.691 80.4846C100.601 80.6087 100.548 80.7608 100.539 80.9201C100.529 81.0794 100.564 81.2381 100.637 81.3746C100.745 81.5064 100.885 81.6 101.04 81.6436C101.195 81.6873 101.358 81.6792 101.509 81.6203C101.821 81.5013 102.11 81.3159 102.36 81.0743C102.435 81.0136 102.5 80.9377 102.55 80.8504C102.575 80.8094 102.589 80.7609 102.589 80.7112C102.589 80.6614 102.575 80.6129 102.55 80.5719" fill="#EB996E"/>
<path d="M100.847 79.2462C100.954 79.2462 100.954 80.0488 101.572 80.6221C102.19 81.1954 102.959 81.1081 102.964 81.2227C102.969 81.3374 102.793 81.3811 102.477 81.392C102.055 81.398 101.644 81.2355 101.319 80.9333C101.003 80.6476 100.8 80.2337 100.754 79.7813C100.74 79.4428 100.798 79.2407 100.847 79.2462Z" fill="#263238"/>
<path d="M100.686 71.8853C100.622 72.0873 99.9557 71.989 99.177 72.0982C98.3983 72.2074 97.7657 72.4422 97.6635 72.2566C97.6148 72.1747 97.7267 71.9836 97.9798 71.787C98.3169 71.5392 98.7028 71.3874 99.104 71.3447C99.5034 71.2909 99.9086 71.3433 100.287 71.4976C100.574 71.6287 100.739 71.787 100.686 71.8853Z" fill="#263238"/>
<path d="M106.686 71.5259C106.57 71.6951 106.107 71.5259 105.557 71.5259C105.007 71.5259 104.54 71.6405 104.433 71.4604C104.384 71.373 104.433 71.2037 104.662 71.0454C104.934 70.8501 105.254 70.753 105.577 70.7669C105.901 70.7726 106.215 70.8909 106.477 71.1055C106.672 71.2693 106.735 71.444 106.686 71.5259Z" fill="#263238"/>
<path d="M109.577 65.9291C109.246 64.4877 108.272 63.1554 106.968 62.8824C106.116 62.7077 105.245 62.9862 104.384 62.9261C103.669 62.877 103.411 62.2382 102.734 61.987C101.605 61.572 100.739 60.1634 98.3006 60.4582C97.6485 60.5401 96.8114 61.3864 96.2128 62.3474C95.2784 61.8942 94.0471 62.3801 93.3755 62.7132C91.9788 63.3957 91.1077 65.1593 90.8303 66.9501C90.5529 68.741 90.7816 70.581 91.0055 72.3828C91.1077 73.2018 91.2099 74.0208 91.3169 74.8508C91.3567 75.3972 91.4871 75.9305 91.7014 76.4232L90.5918 87.9984C91.1472 88.1977 91.733 88.268 92.3134 88.2049C92.8939 88.1417 93.4567 87.9466 93.9677 87.6314C94.4787 87.3161 94.927 86.8874 95.2854 86.3713C95.6438 85.8552 95.9047 85.2626 96.0522 84.6296C96.4805 82.3528 95.3514 80.0378 95.5315 77.7173C95.6385 76.3359 96.3345 75.0528 96.3296 73.6659C96.3216 73.21 96.2628 72.7569 96.1544 72.3173C98.1011 70.5319 98.6169 69.0959 98.5342 67.4033C99.135 67.8746 99.8455 68.1384 100.578 68.1623C101.61 68.1623 102.685 67.7255 103.649 68.1623C104.312 68.543 104.897 69.0748 105.367 69.7238C105.897 70.3135 106.584 70.854 107.314 70.7394C107.663 70.6468 108.002 70.5132 108.326 70.3408C108.489 70.2543 108.667 70.2095 108.847 70.2095C109.027 70.2095 109.205 70.2543 109.367 70.3408C109.761 68.9123 109.833 67.3965 109.577 65.9291Z" fill="#263238"/>
<path d="M80.748 77.782C81.2471 78.1881 81.784 78.5322 82.3492 78.8085C83.0123 79.1218 83.7225 79.2904 84.4418 79.3053C85.3955 79.3339 86.3321 79.0181 87.1136 78.4044C87.5824 78.0413 87.978 77.5718 88.2748 77.0263C88.5715 76.4807 88.7629 75.8714 88.8364 75.2376C88.9121 74.5342 88.7841 73.8221 88.4714 73.2065C88.3098 72.8911 88.0804 72.626 87.8042 72.4353C87.528 72.2446 87.2136 72.1343 86.8898 72.1145C86.559 72.1048 86.2356 72.2245 85.9748 72.453C85.7103 72.7012 85.5145 73.0289 85.4103 73.3976C85.2955 73.7777 85.2692 74.1844 85.3339 74.5791C85.3986 74.9737 85.5523 75.3433 85.7802 75.6526C86.2759 76.2991 86.9454 76.7474 87.6879 76.9302C88.4547 77.1332 89.2515 77.1481 90.0239 76.9739C90.799 76.8008 91.5273 76.4269 92.1507 75.8819C92.754 75.3577 93.2116 74.6512 93.4695 73.8453C93.7227 73.07 93.7833 72.232 93.6447 71.4211C93.5786 71.0375 93.4569 70.6686 93.2846 70.3291C93.1271 69.9891 92.9024 69.694 92.6276 69.4664C92.3729 69.24 92.0615 69.1083 91.737 69.0897C91.5864 69.0839 91.4374 69.1247 91.3061 69.2075C91.1748 69.2903 91.0663 69.412 90.9924 69.5592C90.8507 69.8596 90.8176 70.2096 90.8999 70.5366C90.9937 70.8614 91.1614 71.1531 91.3866 71.3829C92.1875 72.1431 93.2131 72.5395 94.2615 72.494C95.3099 72.4486 96.3051 71.9645 97.0514 71.1372C97.5523 70.5579 97.9184 69.849 98.1172 69.0733C98.2812 68.4093 98.3324 67.7165 98.268 67.0312C98.313 67.2092 98.3391 67.3925 98.3459 67.5773C98.3805 68.0966 98.3377 68.6188 98.2194 69.1224C98.0265 69.9238 97.6623 70.6604 97.1584 71.2682C96.4726 72.0716 95.5554 72.5764 94.5694 72.6933C93.9748 72.7795 93.3707 72.7244 92.7964 72.5316C92.222 72.3388 91.6903 72.0125 91.2357 71.574C90.9835 71.3156 90.7985 70.9854 90.7004 70.6185C90.6014 70.2256 90.6415 69.8051 90.8123 69.4446C90.9063 69.2574 91.0437 69.1022 91.2099 68.9955C91.3761 68.8888 91.565 68.8345 91.7564 68.8385C92.1331 68.8559 92.4955 69.0048 92.793 69.2644C93.0956 69.5133 93.3436 69.8363 93.5182 70.209C93.7059 70.5812 93.839 70.985 93.9124 71.4047C94.0638 72.266 94.0015 73.1575 93.7323 73.9818C93.4597 74.8431 92.9755 75.6003 92.3356 76.1658C91.6779 76.734 90.9115 77.1228 90.0969 77.3015C89.2921 77.4816 88.4621 77.4648 87.6636 77.2524C86.8664 77.0533 86.1477 76.5707 85.6147 75.8765C85.3632 75.5233 85.1958 75.1044 85.128 74.6589C85.068 74.2199 85.0996 73.7713 85.2205 73.3485C85.3382 72.9222 85.5629 72.5431 85.8678 72.2565C86.1768 71.9898 86.5585 71.851 86.9482 71.8633C87.3133 71.8853 87.6675 72.011 87.9774 72.2288C88.2873 72.4466 88.5427 72.7492 88.7196 73.1082C89.0507 73.7722 89.1853 74.5369 89.1041 75.2922C89.023 75.9575 88.8177 76.5961 88.5015 77.1663C88.1853 77.7365 87.7655 78.2253 87.2694 78.601C86.4565 79.2308 85.4823 79.5452 84.4954 79.4964C83.7598 79.473 83.0355 79.2875 82.3638 78.9504C81.938 78.7455 81.536 78.4834 81.1666 78.1697C81.04 78.0659 80.9525 77.9731 80.8892 77.9185L80.748 77.782Z" fill="#455A64"/>
<path d="M109.859 68.3761C109.79 68.4494 109.711 68.5102 109.626 68.5562C109.387 68.7055 109.129 68.8124 108.862 68.8729C108.435 68.9703 107.994 68.9703 107.567 68.8729C107.002 68.7231 106.479 68.4193 106.044 67.9884C105.52 67.4649 105.11 66.8128 104.847 66.0829C104.759 65.8727 104.711 65.6448 104.704 65.413C104.697 65.1812 104.733 64.9503 104.808 64.7342C104.901 64.5012 105.06 64.3092 105.26 64.1882C105.369 64.1251 105.489 64.0921 105.611 64.0921C105.733 64.0921 105.853 64.1251 105.961 64.1882C106.17 64.3242 106.331 64.535 106.419 64.7867C106.508 65.0384 106.518 65.3162 106.448 65.5751C106.363 65.8288 106.233 66.0604 106.066 66.2557C105.898 66.451 105.697 66.6059 105.474 66.7108C104.578 67.1449 103.565 67.1625 102.657 66.7599C102.203 66.5762 101.768 66.3401 101.357 66.0556C100.947 65.7893 100.575 65.4562 100.253 65.0673C100.08 64.8615 99.9744 64.5958 99.9541 64.314C99.9337 64.0322 99.9995 63.751 100.141 63.5167C100.224 63.4031 100.333 63.3172 100.457 63.2681C100.58 63.2191 100.713 63.2087 100.841 63.2382C101.077 63.2966 101.287 63.4453 101.435 63.6586C101.583 63.8684 101.651 64.1353 101.625 64.4012C101.594 64.65 101.5 64.8835 101.352 65.0728C101.082 65.4232 100.699 65.6392 100.287 65.6734C99.9159 65.7031 99.5435 65.6493 99.1916 65.515C98.8746 65.4021 98.5642 65.2671 98.2621 65.111C97.7268 64.8602 97.2589 64.4576 96.9043 63.9425C96.6455 63.5369 96.5215 63.0423 96.5539 62.5448C96.5708 62.2341 96.669 61.936 96.8361 61.6876C96.8944 61.6015 96.9672 61.5292 97.0503 61.4746C96.805 61.7728 96.6649 62.161 96.6561 62.5666C96.6434 63.0302 96.7722 63.4848 97.0211 63.8552C97.3685 64.3417 97.8231 64.7181 98.3399 64.9472C98.9433 65.2892 99.6106 65.4651 100.287 65.4604C100.464 65.4416 100.636 65.3837 100.793 65.29C100.95 65.1963 101.089 65.0686 101.202 64.9144C101.327 64.7715 101.403 64.5828 101.416 64.3826C101.428 64.1823 101.376 63.9836 101.27 63.8224C101.051 63.5003 100.583 63.3583 100.364 63.6914C100.309 63.7748 100.268 63.87 100.246 63.9713C100.223 64.0726 100.219 64.1779 100.233 64.2811C100.262 64.5031 100.346 64.7115 100.476 64.8817C100.783 65.2417 101.133 65.5506 101.518 65.7989C101.912 66.0728 102.331 66.2979 102.769 66.4705C103.183 66.6642 103.628 66.764 104.078 66.764C104.527 66.764 104.972 66.6642 105.387 66.4705C105.575 66.3822 105.744 66.252 105.886 66.0877C106.027 65.9235 106.137 65.7286 106.209 65.515C106.269 65.3124 106.264 65.0929 106.196 64.8938C106.128 64.6948 106 64.5284 105.835 64.423C105.757 64.3837 105.673 64.363 105.588 64.3623C105.503 64.3616 105.419 64.381 105.341 64.419C105.263 64.4571 105.193 64.5131 105.136 64.5834C105.078 64.6536 105.034 64.7367 105.007 64.8271C104.945 65.0113 104.917 65.2074 104.922 65.4042C104.928 65.6009 104.969 65.7944 105.041 65.9737C105.286 66.6724 105.669 67.2996 106.161 67.8082C106.567 68.2289 107.058 68.5324 107.591 68.6927C107.997 68.8084 108.419 68.8325 108.832 68.7637C109.189 68.6863 109.534 68.5559 109.859 68.3761Z" fill="#455A64"/>
<path d="M95.8037 81.0745C95.7458 81.1493 95.6766 81.2121 95.5993 81.2601C95.3834 81.4173 95.1419 81.525 94.8888 81.5768C94.4884 81.6695 94.0731 81.6393 93.6867 81.4894C93.4203 81.4027 93.1735 81.2531 92.9628 81.0506C92.7521 80.8482 92.5825 80.5975 92.4652 80.3155C92.386 80.1357 92.3613 79.9318 92.3946 79.7348C92.428 79.5377 92.5177 79.3583 92.6501 79.2235C92.8 79.0938 92.984 79.0234 93.1733 79.0234C93.3626 79.0234 93.5465 79.0938 93.6964 79.2235C93.998 79.4994 94.227 79.8621 94.3591 80.2727C94.4911 80.6834 94.5211 81.1266 94.4459 81.5549C94.3962 82.0293 94.2415 82.4822 93.9958 82.8722C93.7502 83.2623 93.4214 83.5771 93.0394 83.7881C92.6189 83.9874 92.1621 84.0716 91.7068 84.0336C91.2515 83.9956 90.8108 83.8366 90.4212 83.5697C90.0181 83.316 89.6745 82.9585 89.4186 82.5268C89.2886 82.3107 89.2002 82.0665 89.1591 81.8098C89.118 81.5531 89.1252 81.2896 89.1802 81.0362C89.2386 80.7828 89.3582 80.5523 89.5257 80.3701C89.611 80.2767 89.7124 80.2039 89.8237 80.156C89.935 80.1081 90.0539 80.0862 90.173 80.0917C90.3918 80.1103 90.6026 80.1919 90.785 80.3287C90.9675 80.4655 91.1154 80.6528 91.2144 80.8724C91.3948 81.2686 91.493 81.7054 91.5016 82.1501C91.5159 82.5595 91.4799 82.9692 91.3945 83.3677C91.2415 84.0921 90.9032 84.7506 90.4212 85.2623C90.0763 85.6365 89.6405 85.888 89.1686 85.9852C88.6967 86.0823 88.2097 86.0208 87.7688 85.8083C87.5334 85.6931 87.3189 85.5303 87.1362 85.3278C87.0702 85.2621 87.0143 85.1846 86.9707 85.0985C87.2203 85.3462 87.5027 85.5488 87.8078 85.6991C88.17 85.8562 88.5611 85.9105 88.9466 85.8574C89.4535 85.7884 89.9258 85.5331 90.2898 85.1312C90.7295 84.6393 91.0337 84.0157 91.1658 83.3349C91.2444 82.9576 91.2739 82.5696 91.2534 82.1828C91.2429 81.7811 91.1514 81.3872 90.9857 81.0308C90.9073 80.8522 90.7889 80.6996 90.6422 80.5876C90.4955 80.4756 90.3255 80.4082 90.1486 80.392C89.9699 80.4043 89.8002 80.4846 89.6675 80.6195C89.5348 80.7545 89.447 80.9361 89.4186 81.1345C89.3726 81.3486 89.3675 81.5711 89.4036 81.7875C89.4396 82.004 89.5161 82.2094 89.6279 82.3903C89.8617 82.7817 90.1732 83.1069 90.538 83.3404C90.8976 83.5856 91.304 83.7314 91.7238 83.7655C92.1435 83.7997 92.5644 83.7214 92.9518 83.5369C93.2962 83.3454 93.5928 83.0611 93.8154 82.7096C94.0379 82.358 94.1792 81.95 94.2269 81.5222C94.2957 81.1428 94.2733 80.7497 94.1622 80.3833C94.051 80.0168 93.855 79.69 93.5942 79.4365C93.4811 79.3368 93.3414 79.2827 93.1976 79.2827C93.0538 79.2827 92.9141 79.3368 92.801 79.4365C92.7028 79.5383 92.6361 79.6727 92.6107 79.82C92.5853 79.9673 92.6025 80.1199 92.6598 80.2555C92.7621 80.5119 92.911 80.7416 93.0971 80.9296C93.2832 81.1177 93.5022 81.26 93.7402 81.3475C94.1038 81.4985 94.4957 81.5436 94.879 81.4785C95.2055 81.404 95.5183 81.2673 95.8037 81.0745Z" fill="#455A64"/>
<path d="M75.7012 213.803C75.7012 213.803 78.957 220.901 87.4444 217.45C87.4444 217.45 95.7567 222.517 103.709 216.844C103.709 216.844 114.002 218.389 119.603 215.348L112.42 145.657L111.505 134.955H88.773C88.773 134.955 82.0278 138.4 80.9426 155.223C79.8573 172.045 77.5359 195.152 77.5359 195.152L75.7012 213.803Z" fill="#263238"/>
<path d="M103.221 217.057C103.221 217.057 103.221 216.986 103.221 216.844C103.221 216.702 103.192 216.489 103.172 216.227C103.133 215.681 103.08 214.867 103.007 213.846C102.871 211.782 102.691 208.79 102.496 205.11C102.102 197.717 101.683 187.485 101.464 176.172C101.245 164.859 101.269 154.622 101.377 147.234C101.43 143.527 101.488 140.529 101.552 138.46C101.581 137.434 101.605 136.636 101.625 136.074C101.625 135.812 101.625 135.605 101.625 135.452C101.618 135.383 101.618 135.313 101.625 135.244C101.632 135.313 101.632 135.383 101.625 135.452V136.074C101.625 136.62 101.625 137.439 101.6 138.46C101.6 140.546 101.547 143.543 101.508 147.234C101.45 154.644 101.45 164.881 101.669 176.172C101.888 187.464 102.282 197.701 102.642 205.11C102.822 208.801 102.968 211.788 103.075 213.846C103.124 214.867 103.163 215.67 103.192 216.227C103.192 216.489 103.192 216.696 103.216 216.849C103.223 216.918 103.224 216.988 103.221 217.057Z" fill="#455A64"/>
<path d="M105.217 197.105C105.217 197.105 105.265 197.029 105.392 196.99C105.579 196.945 105.775 196.972 105.947 197.067C106.077 197.138 106.191 197.242 106.281 197.369C106.372 197.497 106.435 197.645 106.467 197.804C106.486 198.008 106.452 198.214 106.368 198.396C106.284 198.579 106.155 198.73 105.997 198.832C105.838 198.933 105.656 198.981 105.474 198.969C105.291 198.958 105.116 198.887 104.969 198.765C104.863 198.652 104.782 198.514 104.73 198.361C104.679 198.207 104.659 198.043 104.672 197.88C104.686 197.666 104.765 197.464 104.896 197.307C104.988 197.203 105.066 197.182 105.071 197.192C104.941 197.398 104.865 197.64 104.852 197.891C104.852 198.018 104.876 198.143 104.922 198.259C104.968 198.375 105.035 198.478 105.119 198.563C105.231 198.642 105.36 198.686 105.493 198.689C105.625 198.692 105.755 198.655 105.87 198.582C105.985 198.509 106.08 198.401 106.145 198.272C106.21 198.143 106.242 197.996 106.239 197.848C106.218 197.723 106.174 197.604 106.108 197.5C106.043 197.397 105.958 197.31 105.859 197.247C105.663 197.127 105.439 197.078 105.217 197.105Z" fill="#455A64"/>
<path d="M104.711 176.412C104.711 176.412 104.76 176.341 104.887 176.303C105.074 176.254 105.27 176.281 105.441 176.38C105.574 176.448 105.69 176.55 105.78 176.678C105.871 176.806 105.933 176.956 105.962 177.117C105.979 177.319 105.943 177.523 105.859 177.704C105.776 177.884 105.647 178.034 105.49 178.135C105.332 178.235 105.152 178.283 104.971 178.272C104.789 178.261 104.615 178.192 104.468 178.072C104.361 177.962 104.278 177.825 104.226 177.672C104.175 177.52 104.156 177.355 104.171 177.193C104.187 176.988 104.264 176.796 104.39 176.647C104.488 176.538 104.561 176.521 104.565 176.532C104.436 176.736 104.36 176.976 104.346 177.226C104.346 177.353 104.37 177.478 104.416 177.594C104.462 177.709 104.53 177.813 104.614 177.897C104.725 177.978 104.854 178.023 104.987 178.028C105.119 178.033 105.25 177.996 105.365 177.923C105.481 177.85 105.576 177.743 105.641 177.613C105.706 177.483 105.738 177.336 105.733 177.188C105.712 177.063 105.668 176.944 105.603 176.84C105.539 176.735 105.455 176.647 105.359 176.582C105.161 176.459 104.937 176.4 104.711 176.412Z" fill="#455A64"/>
<path d="M104.414 158.111C104.414 158.111 104.462 158.04 104.594 158.002C104.779 157.954 104.974 157.981 105.144 158.078C105.276 158.147 105.393 158.249 105.484 158.377C105.576 158.505 105.639 158.655 105.669 158.816C105.687 159.019 105.652 159.224 105.568 159.406C105.484 159.587 105.355 159.738 105.196 159.839C105.038 159.94 104.856 159.987 104.674 159.975C104.492 159.963 104.317 159.892 104.171 159.771C104.064 159.66 103.982 159.523 103.93 159.371C103.879 159.218 103.859 159.054 103.874 158.892C103.887 158.679 103.964 158.477 104.093 158.319C104.19 158.215 104.263 158.193 104.273 158.204C104.14 158.406 104.063 158.647 104.049 158.897C104.048 159.025 104.072 159.151 104.119 159.267C104.166 159.383 104.235 159.486 104.321 159.569C104.432 159.648 104.561 159.692 104.693 159.696C104.824 159.7 104.954 159.663 105.069 159.59C105.184 159.517 105.278 159.411 105.343 159.282C105.408 159.153 105.44 159.007 105.436 158.859C105.415 158.734 105.37 158.616 105.306 158.512C105.241 158.407 105.158 158.319 105.061 158.253C104.861 158.139 104.637 158.09 104.414 158.111Z" fill="#455A64"/>
<path d="M103.835 138.531C103.835 138.531 103.884 138.454 104.01 138.416C104.198 138.37 104.394 138.399 104.565 138.498C104.697 138.567 104.812 138.67 104.903 138.798C104.993 138.926 105.056 139.075 105.086 139.235C105.11 139.441 105.077 139.651 104.989 139.834C104.902 140.017 104.765 140.165 104.599 140.256C104.443 140.365 104.26 140.417 104.076 140.405C103.893 140.393 103.716 140.319 103.572 140.191C103.467 140.077 103.385 139.939 103.334 139.786C103.283 139.633 103.262 139.469 103.275 139.306C103.295 139.101 103.373 138.91 103.499 138.76C103.596 138.656 103.669 138.634 103.674 138.645C103.544 138.851 103.468 139.093 103.455 139.344C103.456 139.471 103.48 139.596 103.526 139.712C103.572 139.828 103.639 139.931 103.723 140.016C103.835 140.095 103.964 140.139 104.096 140.142C104.228 140.145 104.359 140.108 104.474 140.035C104.589 139.961 104.684 139.854 104.749 139.725C104.814 139.596 104.846 139.449 104.842 139.301C104.822 139.175 104.777 139.057 104.712 138.953C104.646 138.849 104.561 138.763 104.463 138.7C104.273 138.574 104.055 138.515 103.835 138.531Z" fill="#455A64"/>
<path d="M133.464 117.334L248.254 116.4L251.451 203.957L132.588 202.723L133.464 117.334Z" fill="#3D5E83"/>
<path d="M133.459 117.335L187.79 68.0146C188.907 67.0025 190.3 66.4531 191.735 66.459C193.17 66.465 194.56 67.026 195.67 68.0474L248.254 116.401" fill="#3D5E83"/>
<g opacity="0.3">
<path d="M133.459 117.335L187.79 68.0146C188.907 67.0025 190.3 66.4531 191.735 66.459C193.17 66.465 194.56 67.026 195.67 68.0474L248.254 116.401" fill="black"/>
</g>
<path d="M132.588 202.724C132.446 202.572 141.635 191.313 153.115 177.581C164.596 163.849 174.013 152.836 174.159 152.984C174.305 153.131 165.111 164.39 153.631 178.127C142.151 191.865 132.734 202.872 132.588 202.724Z" fill="#263238"/>
<path d="M251.452 203.957C251.306 204.104 242.356 193.075 231.464 179.327C220.573 165.578 211.861 154.309 211.998 154.162C212.134 154.014 221.093 165.043 231.985 178.797C242.877 192.551 251.607 203.809 251.452 203.957Z" fill="#263238"/>
<g opacity="0.5">
<path d="M248.253 116.4L190.607 168.063L133.463 117.334" fill="black"/>
</g>
<path d="M139.24 122.119L139.064 81.9002L239.576 80.5625L240.71 122.883L190.602 167.387L139.24 122.119Z" fill="#FAFAFA"/>
<path d="M139.24 122.118C139.24 122.118 139.567 122.391 140.185 122.932L142.91 125.312L153.3 134.414L190.681 167.294H190.555L240.647 122.774L240.599 122.888C240.384 114.818 240.156 106.344 239.922 97.7285C239.771 91.9245 239.615 86.1915 239.465 80.5677L239.591 80.7042L139.08 81.9873L139.158 81.9C139.197 94.5508 139.231 104.603 139.25 111.493C139.25 114.938 139.25 117.592 139.25 119.388V121.425C139.25 121.884 139.25 122.118 139.25 122.118C139.25 122.118 139.25 121.889 139.25 121.436C139.25 120.983 139.25 120.3 139.25 119.41C139.25 117.614 139.216 114.966 139.192 111.526C139.153 104.624 139.094 94.5672 139.021 81.9V81.8072H139.099L239.615 80.4258H239.737V80.5677C239.888 86.1861 240.039 91.9191 240.195 97.7231C240.428 106.344 240.652 114.813 240.871 122.888V122.959L240.822 123.003L190.696 167.485L190.632 167.54L190.569 167.485L153.213 134.496L142.886 125.351L140.16 122.948C139.547 122.402 139.24 122.118 139.24 122.118Z" fill="#263238"/>
<path d="M223.691 100.818C223.691 100.895 208.317 101.064 189.362 101.19C170.406 101.315 155.027 101.364 155.027 101.283C155.027 101.201 170.396 101.037 189.362 100.906C208.327 100.775 223.691 100.737 223.691 100.818Z" fill="#263238"/>
<path d="M223.691 112.176C223.691 112.258 208.317 112.427 189.362 112.553C170.406 112.678 155.027 112.722 155.027 112.645C155.027 112.569 170.396 112.4 189.362 112.269C208.327 112.138 223.691 112.099 223.691 112.176Z" fill="#263238"/>
<path d="M223.691 125.273C223.691 125.349 208.317 125.518 189.362 125.649C170.406 125.78 155.027 125.819 155.027 125.737C155.027 125.655 170.396 125.491 189.362 125.365C208.327 125.24 223.691 125.191 223.691 125.273Z" fill="#263238"/>
<path d="M223.692 138.367C223.692 138.449 209.029 138.607 190.939 138.733C172.85 138.858 158.187 138.891 158.182 138.815C158.177 138.738 172.845 138.575 190.939 138.449C209.033 138.323 223.692 138.291 223.692 138.367Z" fill="#263238"/>
<path d="M210.834 149.859C210.703 149.884 210.569 149.895 210.435 149.892L209.277 149.93L205.033 150.007L191.022 150.231C185.552 150.334 180.593 150.367 177.006 150.373H172.762H171.604C171.471 150.375 171.337 150.366 171.205 150.345C171.337 150.32 171.47 150.309 171.604 150.313L172.762 150.28L177.006 150.198L191.017 149.974C196.487 149.87 201.447 149.838 205.028 149.832H209.277H210.435C210.569 149.832 210.702 149.841 210.834 149.859Z" fill="#263238"/>
<path d="M197.893 160.911C197.893 160.988 194.618 161.053 190.593 161.053C186.568 161.053 183.293 160.988 183.293 160.911C183.293 160.835 186.573 160.77 190.593 160.77C194.613 160.77 197.893 160.83 197.893 160.911Z" fill="#263238"/>
<path d="M231.726 151.99C238.432 151.99 243.869 145.89 243.869 138.367C243.869 130.843 238.432 124.744 231.726 124.744C225.02 124.744 219.584 130.843 219.584 138.367C219.584 145.89 225.02 151.99 231.726 151.99Z" fill="#263238"/>
<path d="M228.568 151.99C235.274 151.99 240.71 145.89 240.71 138.367C240.71 130.843 235.274 124.744 228.568 124.744C221.862 124.744 216.426 130.843 216.426 138.367C216.426 145.89 221.862 151.99 228.568 151.99Z" fill="#455A64"/>
<path d="M228.738 145.991C223.356 145.991 221.276 142.299 221.276 136.553C221.276 130.911 223.434 126.933 228.79 126.933C234.172 126.933 236.252 130.885 236.252 136.553C236.252 142.195 234.068 145.991 228.738 145.991ZM228.764 142.299C231.208 142.299 231.988 140.141 231.962 136.527C231.962 132.887 231.26 130.703 228.764 130.703C226.216 130.703 225.54 132.913 225.54 136.501C225.54 140.167 226.19 142.299 228.764 142.299Z" fill="white"/>
<path d="M161.956 56.6669C161.923 56.5768 161.898 56.4845 161.879 56.3908C161.831 56.1929 161.768 55.9306 161.686 55.5808C161.585 55.1406 161.455 54.707 161.295 54.2829C161.199 54.0344 161.131 53.7536 161.001 53.4729L160.591 52.58C159.848 51.0718 158.863 49.6835 157.671 48.4655C156.105 46.8914 154.21 45.6494 152.107 44.8205C150.91 44.3398 149.656 43.9998 148.372 43.808C146.988 43.6155 145.584 43.5939 144.194 43.7435C143.462 43.8169 142.737 43.9368 142.022 44.1025C141.66 44.1761 141.308 44.3096 140.941 44.4155C140.573 44.5129 140.213 44.6376 139.865 44.7883C138.387 45.3585 137.011 46.1458 135.788 47.1216C133.073 49.2567 131.159 52.1754 130.335 55.4381C129.901 57.1861 129.795 58.9936 130.021 60.7768C130.22 62.6216 130.781 64.414 131.676 66.0604L131.956 66.562L131.99 66.6264V66.6955C131.097 69.4569 130.229 72.2183 129.379 74.8555L129.153 74.6576L136.048 71.2288L136.13 71.1874L136.208 71.2426C139.09 73.363 142.644 74.4852 146.284 74.425C149.924 74.3647 153.434 73.1257 156.238 70.9112C157.676 69.7648 158.901 68.3956 159.862 66.8612C160.63 65.5797 161.222 64.2092 161.623 62.7835C161.894 61.7007 162.055 60.5957 162.106 59.4836C162.106 59.0233 162.106 58.6275 162.106 58.2732C162.106 57.9188 162.048 57.638 162.029 57.3941C162.009 57.1502 161.99 56.9891 161.98 56.8556C161.973 56.7945 161.973 56.7327 161.98 56.6715C161.997 56.7302 162.009 56.7903 162.014 56.851C162.014 56.986 162.038 57.1655 162.086 57.3895C162.115 57.6334 162.149 57.9234 162.193 58.2732C162.236 58.6229 162.193 59.0326 162.193 59.4882C162.166 60.61 162.02 61.7263 161.758 62.8203C161.373 64.2679 160.789 65.6607 160.021 66.9624C159.06 68.5303 157.826 69.9309 156.373 71.1045C154.594 72.5212 152.518 73.5601 150.285 74.1521C148.052 74.7441 145.712 74.8756 143.422 74.5379C140.725 74.1295 138.177 73.0906 136.005 71.5141H136.169L129.283 74.9521L128.936 75.127L129.051 74.7542L131.657 66.5942V66.7277L131.372 66.2168C130.46 64.5342 129.887 62.7029 129.683 60.8183C129.447 58.9933 129.558 57.1426 130.012 55.3553C130.856 52.0288 132.812 49.0547 135.585 46.8823C136.837 45.8946 138.242 45.0981 139.749 44.5213C140.104 44.3683 140.47 44.2422 140.845 44.1439C141.216 44.0427 141.573 43.9092 141.945 43.8356C142.67 43.6654 143.407 43.5454 144.15 43.4766C145.563 43.3282 146.991 43.356 148.397 43.5594C149.697 43.765 150.967 44.1173 152.18 44.6088C154.305 45.4622 156.216 46.7359 157.787 48.3459C158.979 49.5863 159.957 51.0001 160.682 52.534C160.822 52.8562 160.957 53.1553 161.078 53.4545C161.199 53.7536 161.271 54.0252 161.363 54.2783C161.519 54.7058 161.64 55.1444 161.725 55.59C161.792 55.9352 161.85 56.2067 161.889 56.4092C161.917 56.4936 161.94 56.5797 161.956 56.6669Z" fill="#263238"/>
<path d="M145.547 66.6316C140.165 66.6316 138.085 62.9396 138.085 57.1936C138.085 51.5516 140.243 47.5736 145.599 47.5736C150.981 47.5736 153.061 51.5256 153.061 57.1936C153.061 62.8356 150.877 66.6316 145.547 66.6316ZM145.573 62.9396C148.017 62.9396 148.797 60.7816 148.771 57.1676C148.771 53.5276 148.069 51.3436 145.573 51.3436C143.025 51.3436 142.349 53.5536 142.349 57.1416C142.349 60.8076 142.999 62.9396 145.573 62.9396Z" fill="#3D5E83"/>
<path d="M296.044 184.663C297.636 190.696 296.429 198.455 294.502 204.363C292.543 210.328 288.939 215.437 284.213 218.946C283.688 219.334 283.011 219.711 282.457 219.378C282.251 219.195 282.084 218.963 281.967 218.7C281.851 218.437 281.787 218.148 281.78 217.854C280.642 211.331 281.418 204.569 283.994 198.582C286.569 192.595 290.804 187.706 296.064 184.646" fill="#3D5E83"/>
<g opacity="0.2">
<path d="M296.044 184.663C297.636 190.696 296.429 198.455 294.502 204.363C292.543 210.328 288.939 215.437 284.213 218.946C283.688 219.334 283.011 219.711 282.457 219.378C282.251 219.195 282.084 218.963 281.967 218.7C281.851 218.437 281.787 218.148 281.78 217.854C280.642 211.331 281.418 204.569 283.994 198.582C286.569 192.595 290.804 187.706 296.064 184.646" fill="black"/>
</g>
<path d="M272.139 156.025C275.487 155.921 277.697 160.098 278.033 163.843C278.368 167.589 277.629 171.487 278.607 175.069C279.833 179.634 283.658 182.91 284.807 187.512C286.17 192.934 283.517 198.563 283.391 204.193C283.327 206.923 283.877 209.702 283.415 212.383C283.03 214.676 281.948 216.748 280.354 218.247C278.759 219.745 276.751 220.577 274.671 220.6C272.591 220.623 270.569 219.836 268.948 218.374C267.327 216.911 266.209 214.863 265.783 212.579C265 208.364 266.659 203.881 265.666 199.716C264.931 196.642 262.8 194.026 262.625 190.848C262.42 187.065 265.029 183.794 265.515 180.043C266.002 176.292 264.309 172.628 264.055 168.845C263.603 162.063 266.104 156.74 272.134 156.014" fill="#3D5E83"/>
<path d="M279.479 233.256C279.524 233.135 279.558 233.009 279.581 232.88C279.639 232.596 279.712 232.23 279.8 231.788C279.98 230.843 280.286 229.473 280.627 227.785C282.529 218.996 285.241 210.452 288.72 202.293C289.387 200.726 289.942 199.47 290.336 198.602L290.779 197.603C290.836 197.488 290.881 197.367 290.915 197.242C290.841 197.341 290.777 197.449 290.725 197.564L290.239 198.536C289.81 199.383 289.222 200.627 288.531 202.183C284.93 210.305 282.207 218.88 280.418 227.725C280.082 229.423 279.834 230.805 279.688 231.766C279.625 232.208 279.571 232.574 279.527 232.858C279.498 232.988 279.482 233.122 279.479 233.256Z" fill="#263238"/>
<path d="M272.275 174.523C272.277 174.725 272.294 174.926 272.324 175.124C272.368 175.544 272.431 176.118 272.509 176.838L273.254 183.145C273.881 188.468 274.748 195.817 275.658 203.947C276.568 212.077 277.351 219.443 277.911 224.777C278.193 227.414 278.422 229.566 278.587 231.089C278.67 231.81 278.733 232.383 278.782 232.803C278.799 233.004 278.828 233.203 278.87 233.399C278.885 233.199 278.885 232.998 278.87 232.798C278.836 232.372 278.792 231.799 278.733 231.073C278.592 229.544 278.398 227.393 278.159 224.745C277.673 219.405 276.908 212.034 275.998 203.904C275.088 195.774 274.188 188.425 273.497 183.107C273.147 180.48 272.859 178.34 272.66 176.822C272.553 176.101 272.47 175.534 272.412 175.113C272.383 174.912 272.337 174.715 272.275 174.523Z" fill="#263238"/>
<path d="M291.168 225.879H265.734V229.209H291.168V225.879Z" fill="#263238"/>
<path d="M268.096 229.211L271.079 249.424H286.857L288.92 229.211H268.096Z" fill="#263238"/>
<path d="M289.003 229.073C289.003 229.155 284.306 229.281 278.51 229.362C272.714 229.444 268.018 229.444 268.018 229.362C268.018 229.281 272.714 229.155 278.51 229.073C284.306 228.991 289.003 228.997 289.003 229.073Z" fill="#455A64"/>
<path d="M288.135 239.191H287.994H287.571C287.028 239.213 286.485 239.189 285.945 239.12C285.078 239.024 284.249 238.674 283.541 238.105C283.097 237.745 282.738 237.269 282.495 236.718C282.213 236.088 282.159 235.36 282.344 234.687C282.45 234.309 282.662 233.981 282.948 233.749C283.233 233.517 283.578 233.394 283.931 233.398C284.306 233.433 284.654 233.628 284.904 233.944C285.148 234.276 285.315 234.669 285.391 235.091C285.697 236.816 284.617 238.738 282.957 239.339C281.298 239.939 279.273 238.902 278.446 237.018C278.23 236.543 278.104 236.022 278.076 235.489C278.043 234.934 278.173 234.382 278.446 233.917C278.59 233.681 278.777 233.483 278.996 233.336C279.214 233.189 279.458 233.097 279.711 233.065C279.972 233.049 280.233 233.109 280.467 233.239C280.702 233.369 280.902 233.565 281.049 233.808C281.344 234.274 281.496 234.836 281.483 235.407C281.473 235.96 281.348 236.502 281.118 236.991C280.67 237.936 279.959 238.692 279.093 239.142C278.275 239.575 277.398 239.853 276.499 239.966C275.634 240.107 274.751 240.021 273.92 239.715C273.117 239.413 272.43 238.812 271.973 238.012C271.761 237.631 271.628 237.202 271.584 236.756C271.54 236.309 271.587 235.858 271.72 235.435C271.833 235.03 272.041 234.668 272.323 234.386C272.605 234.104 272.95 233.914 273.321 233.835C273.664 233.776 274.015 233.816 274.34 233.952C274.666 234.088 274.955 234.314 275.18 234.61C275.366 234.898 275.48 235.236 275.509 235.589C275.538 235.943 275.482 236.299 275.346 236.62C275.12 237.185 274.746 237.661 274.275 237.985C273.88 238.267 273.457 238.498 273.015 238.672C272.611 238.847 272.236 238.984 271.895 239.093C271.376 239.263 270.848 239.398 270.314 239.497L269.895 239.568H269.754C269.754 239.568 269.798 239.568 269.89 239.524L270.304 239.431C270.664 239.344 271.199 239.208 271.871 238.973C272.202 238.858 272.572 238.711 272.971 238.536C273.402 238.358 273.813 238.125 274.197 237.843C274.628 237.524 274.967 237.07 275.171 236.538C275.293 236.248 275.344 235.926 275.317 235.607C275.289 235.288 275.185 234.983 275.015 234.725C274.808 234.459 274.545 234.256 274.25 234.136C273.954 234.016 273.636 233.982 273.326 234.037C272.992 234.114 272.683 234.29 272.431 234.548C272.179 234.805 271.994 235.134 271.895 235.5C271.773 235.89 271.732 236.306 271.774 236.716C271.816 237.127 271.941 237.521 272.139 237.87C272.57 238.615 273.213 239.175 273.964 239.459C274.762 239.744 275.607 239.823 276.436 239.688C277.306 239.574 278.154 239.303 278.947 238.885C279.765 238.457 280.436 237.742 280.86 236.849C281.087 236.409 281.203 235.908 281.195 235.4C281.186 234.891 281.053 234.396 280.811 233.966C280.69 233.761 280.524 233.595 280.328 233.485C280.133 233.375 279.915 233.324 279.697 233.338C279.481 233.367 279.274 233.447 279.088 233.573C278.903 233.699 278.743 233.869 278.621 234.07C278.378 234.482 278.263 234.974 278.295 235.467C278.321 235.961 278.435 236.444 278.631 236.887C279.405 238.651 281.307 239.666 282.85 239.071C284.393 238.476 285.415 236.707 285.133 235.123C285.071 234.739 284.92 234.379 284.695 234.081C284.591 233.941 284.463 233.827 284.32 233.743C284.176 233.66 284.019 233.609 283.858 233.595C283.546 233.59 283.242 233.698 282.989 233.901C282.736 234.104 282.548 234.393 282.451 234.725C282.273 235.349 282.319 236.027 282.578 236.614C282.801 237.141 283.135 237.6 283.551 237.952C284.237 238.514 285.039 238.869 285.882 238.984C286.416 239.062 286.954 239.102 287.493 239.104H287.916L288.135 239.191Z" fill="#455A64"/>
</svg>
