<svg width="305" height="305" viewBox="0 0 305 305" fill="none" xmlns="http://www.w3.org/2000/svg">
<path d="M165.407 231.037H101.875V280.038H165.407V231.037Z" fill="#EBEBEB"/>
<path d="M149.493 279.696C149.407 279.696 149.334 268.771 149.334 255.296C149.334 241.822 149.407 230.896 149.493 230.896C149.578 230.896 149.651 241.822 149.651 255.296C149.651 268.771 149.578 279.696 149.493 279.696Z" fill="#E0E0E0"/>
<path d="M160.02 268.889H155.152V274.397H160.02V268.889Z" fill="#FAFAFA"/>
<path d="M128.478 231.166H121.262V241.621H128.478V231.166Z" fill="#E0E0E0"/>
<path d="M128.478 269.438H121.262V279.893H128.478V269.438Z" fill="#E0E0E0"/>
<path d="M280.691 218.752H200.58V280.539H280.691V218.752Z" fill="#EBEBEB"/>
<path d="M260.616 280.1C260.53 280.1 260.457 266.333 260.457 249.344C260.457 232.356 260.53 218.588 260.616 218.588C260.701 218.588 260.774 232.356 260.774 249.344C260.774 266.333 260.707 280.1 260.616 280.1Z" fill="#E0E0E0"/>
<path d="M273.895 266.473H267.752V273.414H273.895V266.473Z" fill="#FAFAFA"/>
<path d="M234.117 218.91H225.016V232.092H234.117V218.91Z" fill="#E0E0E0"/>
<path d="M234.117 267.168H225.016V280.35H234.117V267.168Z" fill="#E0E0E0"/>
<path d="M49.6899 220.57C52.9351 218.898 56.7537 218.679 60.3527 219.277C62.2864 219.594 64.2994 220.173 65.617 221.625C66.9346 223.077 67.1786 225.633 65.6719 226.883C64.7691 227.628 63.5186 227.737 62.3474 227.725C59.5292 227.689 56.406 227.194 54.1551 228.89C52.868 229.86 52.014 231.464 50.4951 231.94C48.9762 232.416 47.2987 231.519 46.5057 230.165C45.7721 228.753 45.6104 227.112 46.0543 225.584C46.2339 224.525 46.6554 223.522 47.2859 222.652C47.9165 221.782 48.7391 221.07 49.6899 220.57Z" fill="#EBEBEB"/>
<path d="M42.2611 206.229C44.2436 209.06 48.0988 208.126 49.8861 206.394C51.6734 204.662 52.4298 202.161 53.113 199.775C54.6868 194.316 56.2667 188.588 55.1016 183.031C54.8211 181.346 54.0801 179.771 52.9605 178.48C52.3937 177.847 51.6711 177.372 50.8644 177.103C50.0576 176.835 49.1947 176.782 48.3611 176.949C46.4152 177.462 45.2074 179.389 44.3351 181.177C41.7633 186.52 40.417 192.37 40.3945 198.299C40.3945 201.063 40.7056 203.954 42.2611 206.229Z" fill="#EBEBEB"/>
<path d="M36.8191 210.292C38.9724 207.736 39.3811 204.015 38.4234 200.813C37.4657 197.61 35.3002 194.89 32.8053 192.663C29.8709 190.053 26.4564 188.039 22.7525 186.734C21.3169 186.154 19.7728 185.892 18.2263 185.965C17.4548 186.009 16.7057 186.241 16.0444 186.641C15.3831 187.041 14.8296 187.596 14.4321 188.259C13.3707 190.278 14.3894 192.724 15.4874 194.725C17.4209 198.245 19.6278 201.609 22.0876 204.784C24.0701 207.334 26.3576 209.853 29.3527 211.006C32.3478 212.159 35.5076 212.024 37.1058 209.932" fill="#EBEBEB"/>
<path d="M42.1255 248.941C42.2314 248.521 42.2928 248.092 42.3085 247.66C42.4 246.72 42.5098 245.543 42.6501 244.146C42.825 242.418 43.0876 240.699 43.437 238.998C43.8954 236.917 44.5217 234.877 45.3097 232.898C46.0826 230.931 47.1278 229.083 48.4146 227.408C49.4666 226.045 50.8058 224.931 52.3369 224.144C53.3783 223.631 54.494 223.285 55.6431 223.119C56.0757 223.102 56.5051 223.039 56.9241 222.93C56.4923 222.883 56.0566 222.883 55.6248 222.93C54.4315 223.02 53.2641 223.324 52.1783 223.827C50.5614 224.59 49.1436 225.717 48.0364 227.121C46.6896 228.819 45.6041 230.708 44.8156 232.727C44.0285 234.73 43.4162 236.797 42.9856 238.906C42.6538 240.63 42.4236 242.371 42.2963 244.122C42.1865 245.616 42.1438 246.824 42.1255 247.66C42.0806 248.085 42.0806 248.515 42.1255 248.941Z" fill="#E0E0E0"/>
<path d="M42.3697 246.244C42.4059 246.043 42.4182 245.838 42.4063 245.634C42.4063 245.183 42.4063 244.615 42.4063 243.926C42.4063 242.444 42.4063 240.297 42.4795 237.649C42.6137 232.354 43.0895 226.669 43.9496 218.623C44.7853 211.065 45.9016 202.275 47.085 196.56C47.3351 195.26 47.5913 194.089 47.8353 193.064C48.0793 192.04 48.2562 191.149 48.4453 190.435C48.6344 189.722 48.7381 189.215 48.8479 188.776C48.9076 188.578 48.9424 188.373 48.9516 188.166C48.8597 188.344 48.7901 188.532 48.7442 188.727C48.61 189.16 48.4453 189.697 48.244 190.362C48.0427 191.027 47.7987 191.954 47.5425 192.973C47.2863 193.992 46.9935 195.163 46.719 196.462C45.2536 203.222 44.152 210.056 43.4189 216.934C42.5405 224.986 42.144 232.318 42.1074 237.625C42.1074 240.278 42.1074 242.432 42.1989 243.914C42.2416 244.603 42.2782 245.171 42.3026 245.616C42.2996 245.827 42.3222 246.038 42.3697 246.244Z" fill="#E0E0E0"/>
<path d="M42.4063 232.104C42.4528 231.51 42.4528 230.912 42.4063 230.317C42.3392 229.17 42.1806 227.517 41.8573 225.486C41.4583 223.111 40.9247 220.761 40.2591 218.446C39.4898 215.598 38.5048 212.813 37.3128 210.114C35.2719 205.141 32.3429 200.581 28.6691 196.657C28.0317 195.983 27.3511 195.352 26.6317 194.766C26.3206 194.498 26.0217 194.236 25.7655 194.028L25.0091 193.485C24.5343 193.123 24.0304 192.801 23.5024 192.521C23.417 192.637 25.6313 193.943 28.4251 196.913C31.9788 200.874 34.8299 205.413 36.8553 210.333C38.0268 213.015 39.0152 215.772 39.8138 218.587C40.4846 220.88 41.0404 223.205 41.4791 225.553C41.8451 227.56 42.0891 229.213 42.1867 230.335C42.2128 230.93 42.2862 231.521 42.4063 232.104Z" fill="#E0E0E0"/>
<path d="M27.791 254.895L29.2062 274.311H54.1491L55.5643 254.895H27.791Z" fill="#EBEBEB"/>
<path d="M58.5344 247.244H25.3809V254.894H58.5344V247.244Z" fill="#EBEBEB"/>
<path d="M25.3809 273.566V275.683H26.9425H57.9915V273.566H25.3809Z" fill="#E0E0E0"/>
<path d="M28.4684 279.184L26.9434 275.451H56.8029L55.0217 279.184H28.4684Z" fill="#E0E0E0"/>
<path d="M55.1017 261.238C55.0705 261.303 55.0316 261.365 54.9858 261.421C54.8882 261.549 54.7601 261.714 54.6137 261.915L53.1619 263.745L53.0948 263.83L53.0338 263.745L49.4653 258.81H49.6666L46.153 263.782L46.0432 263.94L45.9212 263.794L41.7549 258.835H41.9928L41.7671 259.127L38.04 263.794L37.9119 263.952L37.8021 263.788L34.2824 258.816H34.4898L30.1588 263.745L30.0856 263.837L30.0246 263.733L28.6704 261.488C28.524 261.244 28.4142 261.043 28.3227 260.878C28.2767 260.81 28.2398 260.736 28.2129 260.658C28.27 260.717 28.3192 260.782 28.3593 260.854L28.7436 261.433L30.1649 263.672H30.0307L34.3007 258.682L34.4044 258.554L34.502 258.688L38.0522 263.641H37.8204L41.5353 258.963C41.6146 258.865 41.6939 258.767 41.761 258.676L41.883 258.523L42.005 258.67L46.1591 263.641H45.9273L49.4775 258.694L49.5812 258.548L49.6788 258.694C51.0879 260.701 52.2835 262.403 53.1741 263.684H53.046L54.5588 261.854C54.7235 261.665 54.8577 261.512 54.9614 261.384C55.0045 261.332 55.0514 261.283 55.1017 261.238Z" fill="#F5F5F5"/>
<path d="M55.9116 254.766C55.9116 254.851 49.6591 254.924 41.9548 254.924C34.2505 254.924 27.998 254.851 27.998 254.766C27.998 254.68 34.2444 254.613 41.9548 254.613C49.6652 254.613 55.9116 254.68 55.9116 254.766Z" fill="#F5F5F5"/>
<path d="M257.389 60.1094H164.205V64.2086H257.389V60.1094Z" fill="#E0E0E0"/>
<path d="M183.243 62.0801H179.461V76.0674H183.243V62.0801Z" fill="#E0E0E0"/>
<path d="M239.712 62.0801H235.93V76.0674H239.712V62.0801Z" fill="#E0E0E0"/>
<path d="M283.442 280.204C283.442 280.295 224.809 280.362 152.505 280.362C80.202 280.362 21.5566 280.295 21.5566 280.204C21.5566 280.112 80.1776 280.045 152.505 280.045C224.833 280.045 283.442 280.118 283.442 280.204Z" fill="#263238"/>
<path d="M91.018 56.334C93.8947 59.8544 95.4523 64.2684 95.4222 68.8146C95.3917 71.3888 94.9159 74.2253 96.4165 76.3176C97.5511 77.9036 99.6251 78.7027 100.546 80.4229C101.656 82.4908 100.711 85.1077 101.394 87.3525C102.358 90.5367 106.091 91.8726 108.305 94.3553C109.249 95.4531 109.91 96.7657 110.229 98.1779C110.548 99.5902 110.516 101.059 110.135 102.456C109.732 103.847 109.002 105.122 108.007 106.175C107.012 107.227 105.78 108.027 104.414 108.507C102.955 109.082 101.327 109.056 99.8874 108.434C98.3929 107.69 97.4474 106.159 96.7154 104.664C95.2453 101.724 82.3316 85.8336 81.5996 82.625" fill="#263238"/>
<path d="M81.6242 52.5893C76.3416 51.7353 71.2542 55.2428 69.0399 60.1106C66.8256 64.9784 66.7524 70.4806 66.5999 75.8486C66.4474 81.2166 66.057 86.7798 63.3303 91.3792C61.5979 94.3011 58.9139 96.8692 58.493 100.23C58.1148 103.244 59.6764 106.282 59.1579 109.277C58.7065 111.887 56.7179 114.157 56.7972 116.798C56.8948 119.982 60.1705 122.379 63.3486 122.465C66.5267 122.55 69.5035 120.885 71.9984 118.909C76.0633 115.681 79.316 111.547 81.4961 106.837" fill="#263238"/>
<path d="M72.9325 65.1794C72.7666 63.8506 72.8693 62.502 73.2345 61.2136C73.5998 59.9253 74.2201 58.7234 75.0588 57.6794C75.8974 56.6353 76.9372 55.7704 78.1165 55.136C79.2958 54.5015 80.5906 54.1104 81.9239 53.9859C87.2492 53.4735 91.9889 57.4446 92.788 62.7394C93.4895 67.3815 94.0873 72.0663 94.069 73.7682C94.0019 78.8983 91.019 80.893 89.799 81.4969C89.3602 81.6544 88.9064 81.7669 88.4448 81.8324V81.869L89.5794 87.7616C90.0979 91.6229 87.9446 95.0816 84.0894 95.6245C80.2342 96.1674 77.2025 93.2211 76.6108 89.3598L72.9325 65.1794Z" fill="#FFBE9D"/>
<path d="M91.7381 64.984C91.6527 65.106 90.9756 64.7461 90.1094 64.8742C89.2432 65.0023 88.6637 65.5269 88.5539 65.4354C88.4441 65.3439 88.5539 65.1914 88.8223 64.9474C89.1559 64.6225 89.5822 64.4093 90.0423 64.3374C90.4937 64.2678 90.9555 64.3448 91.3599 64.557C91.6649 64.7522 91.7808 64.9352 91.7381 64.984Z" fill="#263238"/>
<path d="M84.0154 66.8618C83.93 66.9838 83.2529 66.6178 82.3806 66.7459C81.5083 66.874 80.941 67.4047 80.8312 67.3132C80.7214 67.2217 80.8312 67.0631 81.0996 66.8252C81.4332 66.5002 81.8596 66.287 82.3196 66.2152C82.7716 66.1508 83.2324 66.2297 83.6372 66.4409C83.9361 66.63 84.0581 66.8069 84.0154 66.8618Z" fill="#263238"/>
<path d="M87.1828 71.5169C87.6191 71.307 88.0803 71.1532 88.5553 71.0594C88.7749 71.0045 88.9762 70.9313 88.9945 70.7727C88.9747 70.5498 88.8899 70.3377 88.7505 70.1627L87.8416 68.5401C86.5789 66.2709 85.6334 64.3921 85.7249 64.3372C85.8164 64.2823 86.9449 66.094 88.1649 68.3632C88.476 68.9244 88.7749 69.4612 89.0433 69.9675C89.2205 70.2155 89.3067 70.5172 89.2873 70.8215C89.2671 70.9047 89.228 70.9821 89.173 71.0477C89.118 71.1134 89.0485 71.1654 88.9701 71.1997C88.8511 71.2517 88.7261 71.2886 88.598 71.3095C88.1373 71.44 87.6615 71.5097 87.1828 71.5169Z" fill="#263238"/>
<path d="M88.3966 81.8382C88.3966 81.8382 85.0843 82.6007 80.5215 80.6914C80.5215 80.6914 82.4918 84.9309 88.7077 83.4242L88.3966 81.8382Z" fill="#EB996E"/>
<path d="M83.5717 64.5874C83.5229 64.8375 82.6384 64.8497 81.638 65.1242C80.6376 65.3987 79.8507 65.7891 79.686 65.6C79.6128 65.5085 79.7226 65.2645 80.0215 64.99C80.4239 64.6457 80.8995 64.3976 81.4121 64.2644C81.9247 64.1313 82.4608 64.1165 82.98 64.2214C83.3826 64.3129 83.5717 64.4715 83.5717 64.5874Z" fill="#263238"/>
<path d="M91.0246 63.0617C90.9026 63.2813 90.2743 63.1654 89.5545 63.2569C88.8347 63.3484 88.243 63.5863 88.0722 63.3972C87.999 63.3057 88.0722 63.0983 88.304 62.8726C88.6239 62.589 89.0253 62.4139 89.4508 62.3724C89.8709 62.3217 90.2965 62.4005 90.6708 62.5981C90.9636 62.7628 91.0795 62.9519 91.0246 63.0617Z" fill="#263238"/>
<path d="M82.1316 67.9858C82.145 68.0802 82.1771 68.171 82.2258 68.2529C82.2746 68.3348 82.3392 68.4062 82.4158 68.463C82.4924 68.5197 82.5796 68.5607 82.6722 68.5835C82.7647 68.6063 82.8609 68.6105 82.9551 68.5958C83.0467 68.5853 83.1353 68.5566 83.2157 68.5115C83.2961 68.4664 83.3668 68.4057 83.4236 68.3331C83.4803 68.2604 83.5221 68.1772 83.5464 68.0883C83.5707 67.9993 83.5771 67.9064 83.5651 67.815C83.5365 67.6251 83.4338 67.4542 83.2794 67.3399C83.125 67.2255 82.9317 67.177 82.7416 67.205C82.6497 67.2148 82.5607 67.2429 82.4798 67.2877C82.399 67.3326 82.328 67.3933 82.2711 67.4661C82.2142 67.5389 82.1725 67.6225 82.1486 67.7118C82.1246 67.8011 82.1188 67.8943 82.1316 67.9858Z" fill="#263238"/>
<path d="M89.823 66.3198C89.8517 66.5097 89.9544 66.6806 90.1088 66.7949C90.2631 66.9093 90.4565 66.9578 90.6465 66.9298C90.7381 66.9192 90.8267 66.8906 90.9071 66.8455C90.9876 66.8004 91.0582 66.7397 91.115 66.6671C91.1717 66.5944 91.2135 66.5112 91.2378 66.4223C91.2621 66.3333 91.2685 66.2404 91.2565 66.149C91.2279 65.959 91.1252 65.7882 90.9708 65.6738C90.8165 65.5595 90.6231 65.511 90.433 65.539C90.3411 65.5487 90.2521 65.5769 90.1712 65.6217C90.0904 65.6666 90.0194 65.7272 89.9625 65.8001C89.9056 65.8729 89.8639 65.9565 89.84 66.0458C89.816 66.135 89.8102 66.2282 89.823 66.3198Z" fill="#263238"/>
<path d="M88.5488 73.2008C88.3093 73.1263 88.0513 73.138 87.8196 73.2338C87.5878 73.3296 87.3969 73.5036 87.28 73.7254C87.1683 73.9292 87.123 74.1627 87.1503 74.3934C87.1777 74.6241 87.2763 74.8405 87.4325 75.0125C87.5988 75.1758 87.8177 75.2747 88.0501 75.2915C88.2825 75.3082 88.5134 75.2418 88.7013 75.104C88.9366 74.8898 89.0789 74.5921 89.0978 74.2744C89.1392 73.9832 89.0696 73.687 88.9026 73.4448C88.8169 73.3264 88.6946 73.2395 88.5545 73.1976C88.4145 73.1557 88.2646 73.1611 88.1279 73.213" fill="#EB996E"/>
<path d="M92.111 58.5606C91.6321 56.628 90.4374 54.9492 88.7682 53.8636C87.4019 52.8767 85.7789 52.3068 84.0956 52.2227C82.4017 52.1498 80.748 52.7508 79.4962 53.8941C78.6079 54.7746 78.0998 55.968 78.081 57.2186L78.1786 56.3646C77.9222 57.0595 77.9222 57.8231 78.1786 58.5179C78.3189 58.89 78.4897 59.2682 78.6361 59.6403C79.0728 60.7156 79.8828 61.5972 80.9175 62.123C81.386 62.3744 81.9108 62.5024 82.4425 62.4951C82.7086 62.4898 82.9704 62.4264 83.2096 62.3095C83.4487 62.1925 83.6595 62.0248 83.8272 61.818C84.2059 61.1568 84.3234 60.3778 84.1566 59.6342C84.5568 60.369 85.128 60.9966 85.8219 61.4642C86.1761 61.6906 86.5975 61.7881 87.0152 61.7404C87.433 61.6926 87.8215 61.5025 88.1155 61.2019C88.6157 60.5919 88.4205 59.6281 88.1155 58.8717C88.5874 59.5852 89.2485 60.1533 90.0248 60.5126C90.229 60.6298 90.4554 60.7034 90.6896 60.7285C90.9237 60.7537 91.1605 60.7301 91.3851 60.659C91.5646 60.57 91.7215 60.4414 91.8441 60.2829C91.9667 60.1244 92.0517 59.9402 92.0927 59.744C92.1832 59.3554 92.1895 58.9519 92.111 58.5606Z" fill="#263238"/>
<path d="M87.7006 60.1839C87.6457 60.1839 87.6579 59.458 87.42 58.3539C87.1456 56.8868 86.408 55.5462 85.3155 54.5292C84.7151 53.9832 83.9907 53.5917 83.2049 53.3885C82.5614 53.2306 81.8913 53.2139 81.2407 53.3397C80.6411 53.4799 80.0683 53.7168 79.5449 54.0412C79.5449 54.0412 79.6486 53.8887 79.917 53.6935C80.3022 53.4241 80.7347 53.2295 81.1919 53.1201C81.876 52.96 82.5879 52.96 83.272 53.1201C84.115 53.3306 84.8912 53.7502 85.529 54.3401C86.6729 55.3991 87.4199 56.8177 87.6457 58.36C87.7183 58.816 87.755 59.2769 87.7555 59.7386C87.7631 59.8891 87.7445 60.0398 87.7006 60.1839Z" fill="#455A64"/>
<path d="M143.882 131.303L120.428 122.001C120.428 122.001 108.417 106.244 108.667 105.939L100.23 115.175L112.491 131.761L140.911 138.422L145.791 137.068C144.718 131.889 143.882 131.303 143.882 131.303Z" fill="#FFBE9D"/>
<path d="M92.764 86.3528L89.5676 85.1328L75.7694 86.8835V89.3235L75.3729 89.3723C72.3986 90.0047 69.5457 91.1129 66.9244 92.6541C64.469 94.153 62.518 96.3521 61.3223 98.9685C60.1266 101.585 59.7407 104.499 60.2144 107.337C60.7756 110.826 61.8614 115.066 63.9598 117.518C67.9675 122.209 71.6275 116.414 71.6275 116.414C71.6275 116.414 74.1407 122.148 73.9943 124.862C73.8723 127.137 72.8719 131.871 72.5486 133.347C72.5353 133.406 72.5342 133.467 72.5453 133.527C72.5564 133.586 72.5795 133.643 72.6132 133.693C72.6469 133.743 72.6904 133.786 72.7412 133.819C72.792 133.852 72.8489 133.874 72.9085 133.884L102.018 139.27L102.158 132.152L101.231 102.872L99.9193 91.5012C99.9193 91.5012 99.962 86.0722 92.764 86.3528Z" fill="#5B87B9"/>
<path d="M99.4727 89.6094L110.575 105.646L101.638 116.529L99.4727 89.6094Z" fill="#5B87B9"/>
<path d="M101.87 123.354C101.83 123.01 101.816 122.664 101.827 122.317C101.827 121.598 101.827 120.652 101.791 119.499C101.737 116.405 101.515 113.316 101.126 110.245C100.668 106.646 99.9667 103.432 99.436 101.095L98.7894 98.3505C98.6957 98.0185 98.6264 97.68 98.582 97.3379C98.7208 97.6548 98.831 97.9835 98.9114 98.32C99.1005 98.93 99.3567 99.8877 99.6495 101.047C100.437 104.056 101.036 107.112 101.443 110.197C101.835 113.28 102.027 116.385 102.016 119.493C102.016 120.713 101.986 121.652 101.949 122.317C101.952 122.665 101.926 123.012 101.87 123.354Z" fill="#263238"/>
<path d="M74.5429 98.9731C74.5429 99.0219 73.7011 99.0158 72.353 99.0829C70.594 99.1783 68.8445 99.4046 67.1192 99.76C65.3943 100.122 63.698 100.609 62.044 101.218C60.7752 101.688 60.0127 102.035 59.9883 101.986C60.1446 101.864 60.317 101.763 60.5007 101.688C60.8362 101.505 61.3364 101.273 61.9647 101.01C65.2563 99.6512 68.774 98.9228 72.3347 98.8633C73.0179 98.8633 73.5547 98.8633 73.9512 98.8999C74.151 98.8934 74.3506 98.9181 74.5429 98.9731Z" fill="#FAFAFA"/>
<path d="M100.254 106.311C99.8076 106.473 99.342 106.576 98.869 106.616C96.6134 106.945 94.3282 107.023 92.0553 106.848C91.5807 106.839 91.1091 106.77 90.6523 106.64C91.1232 106.598 91.5967 106.598 92.0675 106.64C92.9337 106.64 94.1354 106.64 95.4591 106.64C96.7828 106.64 97.9784 106.506 98.8446 106.427C99.3099 106.345 99.7815 106.307 100.254 106.311Z" fill="#FAFAFA"/>
<path d="M105.348 99.0594C104.675 99.8362 103.87 100.487 102.969 100.981C102.118 101.556 101.169 101.969 100.169 102.201C100.132 102.115 101.389 101.591 102.804 100.688C104.219 99.7853 105.287 98.9862 105.348 99.0594Z" fill="#FAFAFA"/>
<path d="M100.864 91.6235C98.9399 93.3548 96.4877 94.3864 93.9043 94.5516C93.9043 94.454 95.5818 94.1978 97.5094 93.3743C99.437 92.5508 100.803 91.5442 100.864 91.6235Z" fill="#FAFAFA"/>
<path d="M101.468 118.731C101.289 118.852 101.097 118.952 100.895 119.03C100.511 119.213 99.9557 119.439 99.2481 119.701C97.4097 120.362 95.512 120.844 93.5812 121.141C91.6505 121.439 89.6953 121.547 87.7435 121.464C86.9932 121.433 86.3893 121.379 85.9745 121.324C85.7573 121.309 85.5424 121.27 85.334 121.208C85.334 121.153 86.2612 121.208 87.774 121.244C91.6524 121.281 95.5109 120.687 99.1993 119.488C100.59 119.03 101.45 118.682 101.468 118.731Z" fill="#FAFAFA"/>
<path d="M101.694 126.996C101.694 126.996 101.608 127.057 101.431 127.149L100.651 127.49C99.9796 127.807 98.9853 128.222 97.7409 128.71C96.4965 129.198 94.9898 129.668 93.294 130.131C89.6073 131.124 85.8232 131.711 82.009 131.882C80.2522 131.949 78.6723 131.943 77.3425 131.882C76.0127 131.821 74.9452 131.724 74.2071 131.62L73.3592 131.504C73.2593 131.497 73.1609 131.476 73.0664 131.443C73.1654 131.427 73.2663 131.427 73.3653 131.443L74.2193 131.498C74.9574 131.559 76.0493 131.62 77.3486 131.656C78.6479 131.693 80.2522 131.656 81.9968 131.595C83.7414 131.534 85.6568 131.315 87.6515 130.985C89.6462 130.656 91.525 130.26 93.2208 129.833C94.9166 129.406 96.4172 128.924 97.6616 128.478C98.906 128.033 99.9186 127.661 100.602 127.38L101.395 127.069C101.492 127.035 101.592 127.01 101.694 126.996Z" fill="#FAFAFA"/>
<path d="M48.1907 256.676L44.8906 271.578L38.8699 282.613C38.7675 282.801 38.7049 283.009 38.6859 283.222C38.6668 283.436 38.6918 283.651 38.7593 283.855C38.8268 284.058 38.9353 284.246 39.0781 284.406C39.2209 284.566 39.3951 284.695 39.5897 284.785C39.8157 284.888 40.0632 284.936 40.3116 284.925C40.5599 284.913 40.8019 284.842 41.0171 284.717C43.8109 283.107 54.065 277.111 54.2419 276.007C54.4554 274.732 58.7681 260.519 58.7681 260.519L48.1907 256.676Z" fill="#5B87B9"/>
<g opacity="0.6">
<path d="M39.5898 284.785L54.4921 275.025L54.3335 275.635C54.2031 276.18 53.8831 276.66 53.4307 276.99C52.2107 277.862 48.813 280.204 41.066 284.73C40.8436 284.861 40.5924 284.934 40.3348 284.944C40.0773 284.953 39.8213 284.899 39.5898 284.785Z" fill="white"/>
</g>
<g opacity="0.6">
<path d="M52.6188 269.481C52.4036 269.57 52.2291 269.736 52.1289 269.947C52.0287 270.158 52.0098 270.398 52.0759 270.621C52.1573 270.839 52.319 271.017 52.5278 271.119C52.7365 271.221 52.9765 271.24 53.1983 271.17C53.4287 271.075 53.6153 270.897 53.7213 270.671C53.8274 270.446 53.8454 270.189 53.7717 269.95C53.6637 269.734 53.4771 269.568 53.2502 269.485C53.0234 269.402 52.7734 269.409 52.5517 269.505" fill="white"/>
</g>
<path d="M44.5673 279.137C44.3212 278.589 43.9759 278.09 43.5486 277.667C43.0565 277.324 42.5039 277.078 41.9199 276.941C41.9199 276.898 42.1334 276.831 42.4933 276.868C42.9616 276.928 43.4024 277.123 43.7621 277.429C44.1246 277.723 44.392 278.118 44.5307 278.564C44.6344 278.911 44.6039 279.137 44.5673 279.137Z" fill="#263238"/>
<path d="M43.0249 280.863C42.9395 280.912 42.5796 280.314 41.8659 279.905C41.4106 279.694 40.9419 279.512 40.4629 279.362C40.7262 279.276 41.0063 279.254 41.28 279.297C41.5537 279.341 41.8131 279.449 42.0367 279.612C42.848 280.082 43.1103 280.844 43.0249 280.863Z" fill="#263238"/>
<path d="M47.1541 277.074C46.6353 276.498 46.0724 275.964 45.4705 275.476C44.8073 275.071 44.1139 274.719 43.3965 274.421C44.2215 274.404 45.0257 274.681 45.6657 275.201C46.3713 275.626 46.8999 276.291 47.1541 277.074Z" fill="#263238"/>
<path d="M48.5386 272.627C48.4776 272.707 47.7395 272.164 46.7086 271.865C45.6777 271.566 44.7444 271.615 44.7383 271.511C45.4172 271.335 46.1311 271.346 46.8043 271.543C47.4776 271.739 48.0852 272.114 48.563 272.627H48.5386Z" fill="#263238"/>
<path d="M49.6185 268.278C49.0235 267.91 48.3812 267.625 47.7092 267.43C47.017 267.336 46.3153 267.336 45.623 267.43C45.623 267.393 45.8121 267.247 46.2025 267.131C46.7157 266.992 47.2544 266.974 47.7755 267.08C48.2966 267.186 48.7857 267.412 49.2037 267.741C49.5148 268.034 49.6429 268.253 49.6185 268.278Z" fill="#263238"/>
<path d="M47.9351 266.606C47.9356 266.413 47.9772 266.222 48.0571 266.045C48.23 265.542 48.504 265.079 48.8623 264.685C49.0968 264.373 49.4266 264.146 49.8017 264.038C49.9295 264.017 50.0605 264.035 50.178 264.09C50.2954 264.144 50.3939 264.232 50.4605 264.343C50.5726 264.571 50.5966 264.831 50.5276 265.075C50.3712 265.565 50.0496 265.984 49.6178 266.262C49.186 266.541 48.671 266.66 48.1608 266.6C47.6577 266.529 47.1871 266.31 46.8083 265.971C46.4294 265.632 46.1593 265.189 46.0319 264.697C46.0026 264.572 46 264.442 46.0242 264.316C46.0483 264.19 46.0988 264.07 46.1722 263.965C46.2565 263.867 46.3699 263.798 46.4961 263.768C46.6222 263.738 46.7545 263.75 46.8737 263.8C47.2185 263.972 47.5128 264.231 47.7277 264.551C48.051 264.974 48.2968 265.451 48.4536 265.96C48.5279 266.142 48.5633 266.337 48.5573 266.533C48.3114 265.876 47.968 265.259 47.5386 264.703C47.3387 264.443 47.0794 264.233 46.7822 264.093C46.7169 264.065 46.6441 264.058 46.5748 264.075C46.5056 264.091 46.4435 264.13 46.3979 264.185C46.3553 264.257 46.3279 264.336 46.3174 264.419C46.3069 264.502 46.3135 264.586 46.3369 264.667C46.4642 265.081 46.7057 265.45 47.0338 265.733C47.3619 266.016 47.7631 266.2 48.1913 266.265C48.6228 266.315 49.0585 266.217 49.4274 265.988C49.7963 265.759 50.0766 265.411 50.2226 265.002C50.2817 264.836 50.2817 264.655 50.2226 264.49C50.188 264.427 50.1347 264.377 50.0702 264.346C50.0056 264.316 49.933 264.306 49.8627 264.319C49.5448 264.406 49.2615 264.589 49.0514 264.844C48.5835 265.365 48.2062 265.961 47.9351 266.606Z" fill="#263238"/>
<g opacity="0.3">
<path d="M47.7879 258.292L47.0742 261.708L57.8651 263.502L58.7679 260.519L48.1722 256.676L47.7879 258.292Z" fill="black"/>
</g>
<path d="M96.3802 262.191L95.4896 274.098C95.4896 274.098 107.299 278.978 107.348 281.223L84.168 280.326L84.778 261.709L96.3802 262.191Z" fill="#5B87B9"/>
<g opacity="0.6">
<path d="M88.3829 272.817C88.1579 272.878 87.9629 273.018 87.8347 273.213C87.7066 273.407 87.6542 273.642 87.6875 273.873C87.7389 274.099 87.8747 274.298 88.0673 274.428C88.2599 274.559 88.4949 274.611 88.7245 274.574C88.9638 274.511 89.171 274.361 89.3062 274.154C89.4414 273.946 89.495 273.696 89.4565 273.452C89.3795 273.22 89.2158 273.027 88.9998 272.913C88.7837 272.8 88.5321 272.774 88.2975 272.842" fill="white"/>
</g>
<g opacity="0.6">
<path d="M84.1816 280.326L84.3158 278.447L106.489 279.991C106.489 279.991 107.508 280.479 107.362 281.211L84.1816 280.326Z" fill="white"/>
</g>
<path d="M95.8815 273.994C95.8815 274.11 95.3081 274.14 94.7408 274.482C94.1735 274.823 93.8563 275.287 93.7526 275.238C93.6489 275.189 93.8441 274.543 94.5395 274.14C95.2349 273.737 95.912 273.89 95.8815 273.994Z" fill="#263238"/>
<path d="M98.2711 275.111C98.2711 275.226 97.7953 275.397 97.3927 275.861C96.9901 276.324 96.862 276.825 96.7461 276.819C96.6302 276.812 96.5875 276.166 97.0999 275.599C97.6123 275.031 98.2711 274.989 98.2711 275.111Z" fill="#263238"/>
<path d="M99.5397 278.057C99.436 278.057 99.3018 277.502 99.6129 276.898C99.924 276.294 100.467 276.063 100.51 276.16C100.552 276.258 100.217 276.575 99.9667 277.075C99.7166 277.575 99.6495 278.051 99.5397 278.057Z" fill="#263238"/>
<path d="M95.7712 271.262C95.7224 271.36 95.21 271.183 94.5512 271.201C93.8924 271.22 93.4044 271.403 93.3312 271.305C93.258 271.207 93.7704 270.823 94.5512 270.811C95.332 270.799 95.8444 271.177 95.7712 271.262Z" fill="#263238"/>
<g opacity="0.3">
<path d="M96.2167 264.552L96.0581 266.675L84.6816 266.126L84.7609 263.674L96.2167 264.552Z" fill="black"/>
</g>
<path d="M95.9224 268.852C95.5391 268.945 95.1375 268.928 94.7634 268.803C94.3405 268.715 93.9305 268.574 93.5434 268.382C93.3175 268.271 93.0995 268.145 92.8907 268.004C92.7633 267.926 92.6482 267.829 92.5491 267.717C92.4818 267.63 92.4453 267.523 92.4453 267.412C92.4453 267.302 92.4818 267.195 92.5491 267.107C92.6084 267.03 92.6853 266.968 92.7733 266.927C92.8614 266.886 92.9581 266.866 93.0554 266.87C93.2022 266.875 93.3478 266.9 93.4885 266.943C93.7326 267.014 93.9695 267.108 94.1961 267.223C94.5813 267.412 94.9335 267.661 95.2392 267.961C95.7577 268.48 95.9224 268.913 95.8858 268.931C95.8492 268.95 95.5869 268.602 95.0562 268.169C94.7446 267.925 94.4046 267.72 94.0436 267.559C93.8283 267.47 93.6084 267.392 93.3848 267.327C93.1408 267.254 92.9334 267.248 92.8663 267.327C92.7992 267.406 92.8663 267.388 92.8663 267.461C92.9394 267.542 93.0236 267.612 93.1164 267.669C93.312 267.805 93.5157 267.929 93.7264 268.041C94.0781 268.235 94.4479 268.394 94.8305 268.517C95.2019 268.602 95.5668 268.714 95.9224 268.852Z" fill="#263238"/>
<path d="M95.7705 269.011C95.5678 268.669 95.4762 268.273 95.5082 267.876C95.5106 267.447 95.5806 267.021 95.7156 266.614C95.8032 266.375 95.9113 266.144 96.0389 265.924C96.1075 265.774 96.2135 265.643 96.347 265.545C96.4805 265.446 96.6369 265.384 96.8014 265.363C96.9056 265.37 97.0056 265.406 97.0899 265.468C97.1742 265.529 97.2391 265.614 97.2772 265.711C97.3302 265.848 97.3631 265.992 97.3748 266.138C97.4149 266.397 97.4149 266.66 97.3748 266.919C97.2932 267.35 97.1068 267.754 96.8319 268.096C96.3561 268.706 95.8803 268.798 95.8681 268.761C95.8559 268.724 96.2341 268.499 96.6062 267.931C96.8197 267.608 96.9593 267.241 97.0149 266.858C97.0458 266.635 97.0458 266.409 97.0149 266.187C96.9844 265.943 96.899 265.735 96.8075 265.76C96.716 265.784 96.4903 265.931 96.3866 266.126C96.2675 266.321 96.1635 266.525 96.0755 266.736C95.9343 267.104 95.844 267.49 95.8071 267.883C95.7278 268.566 95.8315 269.011 95.7705 269.011Z" fill="#263238"/>
<path d="M72.4201 133.773C72.4201 133.773 68.7601 133.938 66.3201 146.455C63.8801 158.972 45.2812 260.397 45.2812 260.397L58.7683 260.519L84.181 164.09L82.4912 263.52L96.1918 264.569C96.1918 264.569 106.47 154.593 106.562 148.194C106.684 140.215 102.103 132.145 102.103 132.145L72.4201 133.773Z" fill="#263238"/>
<path d="M90.9579 132.707C91.0433 132.707 89.6403 139.875 87.8286 148.677C86.0169 157.479 84.4797 164.604 84.3943 164.586C84.3089 164.567 85.7058 157.418 87.5175 148.616C89.3292 139.814 90.8908 132.689 90.9579 132.707Z" fill="#455A64"/>
<path d="M93.0553 134.493C93.0553 134.456 93.4213 134.347 93.8422 134.719C93.9618 134.827 94.0564 134.96 94.1196 135.109C94.1828 135.257 94.213 135.417 94.2082 135.579C94.193 135.783 94.1201 135.978 93.998 136.142C93.876 136.306 93.7099 136.433 93.5189 136.506C93.3327 136.59 93.1264 136.621 92.9237 136.594C92.7209 136.567 92.5298 136.484 92.3721 136.353C92.2542 136.243 92.1611 136.108 92.099 135.959C92.037 135.81 92.0074 135.649 92.0122 135.487C92.0122 134.926 92.3904 134.731 92.3965 134.767C92.2937 134.991 92.2396 135.235 92.2379 135.481C92.2461 135.605 92.2789 135.726 92.3344 135.837C92.3899 135.948 92.4671 136.047 92.5612 136.128C92.6816 136.211 92.8209 136.262 92.9663 136.277C93.1117 136.292 93.2585 136.271 93.3933 136.214C93.5282 136.158 93.6466 136.068 93.7379 135.954C93.8291 135.84 93.8901 135.704 93.9154 135.56C93.9244 135.437 93.9085 135.313 93.8687 135.195C93.8289 135.078 93.766 134.97 93.6836 134.877C93.3847 134.53 93.0492 134.542 93.0553 134.493Z" fill="#455A64"/>
<path d="M92.4772 139.447C92.4772 139.411 92.8554 139.447 93.0872 139.954C93.1462 140.098 93.1729 140.254 93.1655 140.41C93.1581 140.566 93.1169 140.718 93.0445 140.856C92.9396 141.021 92.7919 141.154 92.6173 141.24C92.4426 141.327 92.2476 141.365 92.0532 141.349C91.8587 141.333 91.6723 141.265 91.5138 141.151C91.3553 141.038 91.2307 140.883 91.1535 140.704C91.1048 140.557 91.0888 140.401 91.1067 140.247C91.1246 140.093 91.176 139.945 91.2572 139.813C91.5439 139.356 91.9343 139.368 91.9221 139.405C91.9099 139.441 91.6293 139.527 91.4524 139.917C91.3629 140.136 91.3629 140.381 91.4524 140.6C91.5161 140.721 91.6094 140.824 91.7236 140.9C91.8377 140.975 91.9691 141.02 92.1054 141.031C92.2418 141.042 92.3787 141.018 92.5034 140.962C92.6281 140.906 92.7366 140.819 92.8188 140.71C92.9337 140.502 92.9622 140.256 92.8981 140.027C92.7212 139.612 92.4467 139.49 92.4772 139.447Z" fill="#455A64"/>
<path d="M79.5508 134.616C79.5258 134.825 79.4724 135.03 79.3922 135.226C79.2017 135.784 78.9629 136.325 78.6785 136.842C77.7478 138.568 76.4036 140.035 74.7662 141.114C73.1289 142.192 71.2496 142.848 69.2967 143.021C68.7102 143.072 68.1203 143.072 67.5338 143.021C67.3272 143.015 67.1222 142.982 66.9238 142.924C66.9238 142.863 67.8449 142.966 69.3028 142.783C71.2029 142.553 73.0236 141.885 74.6219 140.832C76.2201 139.778 77.5524 138.369 78.5138 136.714C79.2275 135.482 79.4959 134.597 79.5508 134.616Z" fill="#455A64"/>
<path d="M105.794 143.516C105.794 143.516 105.635 143.443 105.385 143.272C105.035 143.021 104.709 142.739 104.409 142.43C103.406 141.415 102.623 140.203 102.11 138.871C101.596 137.539 101.364 136.115 101.426 134.689C101.44 134.26 101.495 133.833 101.591 133.414C101.658 133.116 101.7 132.957 101.725 132.963C101.749 132.969 101.652 133.628 101.652 134.695C101.653 137.498 102.694 140.2 104.574 142.278C105.287 143.065 105.824 143.467 105.794 143.516Z" fill="#455A64"/>
<path d="M153.111 143.869C153.312 143.381 153.257 143.576 150.024 141.429C150.024 141.429 154.66 144.479 154.178 143.027C153.761 142.478 153.251 142.005 152.671 141.631C153.891 142.35 154.599 142.43 154.813 142.137C155.179 141.631 152.525 139.697 151.262 138.825C152.417 139.65 153.627 140.394 154.886 141.051C155.636 141.283 155.276 140.404 154.77 139.764C154.264 139.123 150.335 135.341 149.28 134.213C149.179 134.127 149.099 134.02 149.043 133.9C148.988 133.78 148.96 133.65 148.96 133.518C148.96 133.385 148.988 133.255 149.043 133.135C149.099 133.015 149.179 132.908 149.28 132.822C151.171 131.602 152 129.656 151.976 129.016C151.955 128.872 151.889 128.738 151.787 128.633C151.685 128.529 151.553 128.46 151.409 128.436C151.266 128.411 151.118 128.433 150.987 128.498C150.857 128.562 150.75 128.667 150.683 128.796C150.205 129.389 149.649 129.915 149.03 130.358C148.549 130.733 148.009 131.023 147.432 131.218C146.761 131.437 143.46 131.254 142.753 130.895L140.502 138.526C140.502 138.526 148.67 142.344 150.219 143.088C152.122 143.991 152.97 144.241 153.111 143.869Z" fill="#FFBE9D"/>
<path d="M148.554 140.3C148.487 140.392 149.548 141.167 150.921 142.039C152.293 142.911 153.446 143.539 153.501 143.448C153.556 143.356 152.494 142.576 151.128 141.709C149.762 140.843 148.615 140.184 148.554 140.3Z" fill="#EB996E"/>
<path d="M149.323 138.805C149.262 138.897 150.348 139.788 151.763 140.8C153.178 141.813 154.349 142.563 154.41 142.478C154.471 142.392 153.391 141.496 151.97 140.483C150.549 139.47 149.39 138.72 149.323 138.805Z" fill="#EB996E"/>
<path d="M150.133 137.294C150.072 137.379 151.085 138.246 152.397 139.222C153.708 140.198 154.837 140.917 154.885 140.832C154.934 140.747 153.94 139.88 152.628 138.904C151.317 137.928 150.201 137.209 150.133 137.294Z" fill="#EB996E"/>
<path d="M67.0577 109.653L73.0479 109.983C73.4722 111.655 74.0396 113.288 74.7437 114.863C79.5688 106.493 83.2837 95.2756 84.2353 90.7677C84.1011 90.3244 83.9364 89.8242 83.7412 89.2671C83.595 88.4249 83.6199 87.5619 83.8144 86.7295C83.9791 85.7291 84.2597 84.3749 84.339 83.7527C84.6013 81.8495 84.9063 81.5445 85.559 81.7641C86.4618 82.0569 85.1869 87.1138 85.925 87.2236C86.3276 87.2785 86.8095 85.5461 86.9559 84.1248C87.1023 82.7035 87.7367 78.3359 88.2064 78.0248C88.8957 77.5978 89.4935 78.2749 89.3227 79.6901C89.1519 81.1053 88.9262 85.3936 89.6765 85.4485C90.4268 85.5034 91.0368 78.2566 91.0368 78.2566C91.0368 78.2566 90.9209 76.6828 91.7871 76.7194C93.3548 76.7865 92.1348 84.4298 92.0006 85.1557C91.903 85.6559 92.7204 85.7657 92.7936 85.2045C92.8668 84.6433 93.245 77.9516 94.8371 78.0065C96.0571 78.0492 93.8916 84.3017 94.5809 85.7535C95.2702 87.2053 95.746 80.8308 96.9172 80.9162C97.3503 80.9528 97.6736 81.0382 96.8745 84.6433C96.0946 87.51 95.1599 90.3323 94.0746 93.0979C92.2446 103.102 84.0767 135.102 71.3155 129.246C64.1785 125.971 60.8418 109.726 60.8418 109.726L67.0577 109.653Z" fill="#FFBE9D"/>
<path d="M94.0868 93.1538C94.0973 93.0782 94.1178 93.0044 94.1478 92.9342C94.2027 92.7756 94.2698 92.5682 94.3613 92.3242C94.5626 91.7447 94.8371 90.9395 95.197 89.8842C95.5569 88.8289 95.99 87.5479 96.417 86.0351C96.6366 85.2848 96.8196 84.4674 96.9843 83.5951C97.0697 83.1559 97.149 82.7045 97.2039 82.2409C97.2191 82.0114 97.2191 81.7811 97.2039 81.5516C97.2039 81.3137 97.149 81.1185 96.9599 81.1124C96.7708 81.1063 96.6366 81.2222 96.5024 81.4235C96.3809 81.6389 96.2808 81.8657 96.2035 82.1006C96.0327 82.5825 95.8985 83.0949 95.7643 83.6134C95.6301 84.1319 95.5081 84.6748 95.3495 85.2238C95.2804 85.5245 95.1563 85.8099 94.9835 86.0656C94.9401 86.1157 94.8828 86.1518 94.8188 86.1693C94.7785 86.1781 94.7368 86.1778 94.6966 86.1683C94.6565 86.1588 94.619 86.1404 94.587 86.1144C94.5169 86.0501 94.459 85.9736 94.4162 85.8887C94.3518 85.7389 94.3087 85.5808 94.2881 85.419C94.2603 84.1886 94.3832 82.9595 94.6541 81.759C94.7578 81.149 94.8676 80.539 94.9469 79.929C94.9835 79.6179 95.0201 79.319 95.0262 78.9896C95.0323 78.6602 94.9835 78.3125 94.8554 78.2576C94.7273 78.2027 94.4162 78.3735 94.2454 78.6297C94.0768 78.9003 93.9435 79.1914 93.8489 79.4959C93.6409 80.1331 93.4838 80.7858 93.3792 81.4479C93.2633 82.1189 93.1718 82.8021 93.0925 83.4975C93.062 83.8452 93.0254 84.1929 92.9949 84.5467L92.9461 85.0774C92.9526 85.1907 92.9341 85.3041 92.892 85.4095C92.8498 85.515 92.785 85.6098 92.7021 85.6874C92.5976 85.7637 92.4716 85.8049 92.3422 85.8049C92.2128 85.8049 92.0868 85.7637 91.9823 85.6874C91.9232 85.6483 91.873 85.5971 91.8351 85.5372C91.7973 85.4772 91.7726 85.4099 91.7627 85.3397C91.7534 85.275 91.7534 85.2092 91.7627 85.1445V85.0164L91.9274 83.9489C92.0311 83.2291 92.1165 82.5093 92.1836 81.7773C92.2507 81.0453 92.3056 80.3072 92.3178 79.5691C92.3535 78.8383 92.2795 78.1063 92.0982 77.3975C92.0561 77.2176 91.9471 77.0606 91.7932 76.9583C91.7196 76.9347 91.6405 76.9349 91.5671 76.959C91.4936 76.9831 91.4297 77.0298 91.3845 77.0925C91.187 77.4536 91.106 77.867 91.1527 78.2759C91.0185 79.7094 90.866 81.1185 90.6586 82.5032C90.5549 83.1925 90.439 83.8818 90.2682 84.5589C90.2194 84.7236 90.1706 84.8944 90.1096 85.0652C90.0516 85.2722 89.93 85.4557 89.7619 85.5898C89.6876 85.6263 89.6031 85.6365 89.5222 85.6188C89.4413 85.6011 89.3689 85.5564 89.3166 85.4922C89.2421 85.414 89.1859 85.3202 89.1519 85.2177C89.0861 85.0485 89.0391 84.8726 89.0116 84.6931C88.8686 83.3657 88.8564 82.0274 88.975 80.6976C89.0652 80.0777 89.0999 79.451 89.0787 78.8249C89.059 78.5577 88.9365 78.3085 88.7371 78.1295C88.6903 78.1004 88.638 78.081 88.5835 78.0727C88.529 78.0643 88.4733 78.067 88.4199 78.0807C88.3629 78.0999 88.3077 78.1244 88.2552 78.1539C88.2003 78.2027 88.2064 78.1539 88.1698 78.2576C87.9492 78.8062 87.7877 79.3767 87.6879 79.9595C87.5659 80.5695 87.4622 81.1246 87.3707 81.698C87.2792 82.2714 87.1938 82.8326 87.1206 83.3938C87.0474 83.955 87.0108 84.504 86.901 85.053C86.8062 85.5893 86.6633 86.1161 86.474 86.6268C86.4237 86.7568 86.3646 86.8831 86.2971 87.005C86.2117 87.1209 86.1629 87.2673 85.9311 87.3405C85.8718 87.3514 85.8106 87.3445 85.7552 87.3206C85.6998 87.2967 85.6528 87.2569 85.62 87.2063C85.5773 87.1359 85.5445 87.0599 85.5224 86.9806C85.495 86.848 85.4787 86.7133 85.4736 86.578C85.4736 85.5349 85.6139 84.5833 85.6688 83.6622C85.7086 83.2219 85.7086 82.7788 85.6688 82.3385C85.6688 82.1433 85.5773 81.9115 85.4675 81.8688C85.3906 81.8311 85.3061 81.8115 85.2205 81.8115C85.1348 81.8115 85.0503 81.8311 84.9734 81.8688C84.7174 82.1438 84.5588 82.4953 84.522 82.8692C84.4305 83.2413 84.3939 83.6195 84.3268 83.9794C84.0706 85.419 83.8022 86.6634 83.6741 87.676C83.614 88.1213 83.614 88.5727 83.6741 89.018C83.7595 89.384 83.8876 89.7134 83.9547 89.9696C84.0218 90.2258 84.0889 90.4088 84.1316 90.5796C84.1543 90.645 84.1707 90.7124 84.1804 90.7809C84.1438 90.7218 84.1151 90.6583 84.095 90.5918L83.8876 89.9818C83.8022 89.7195 83.6741 89.4267 83.5704 89.0241C83.5052 88.5669 83.5052 88.1027 83.5704 87.6455C83.6863 86.6146 83.9303 85.3824 84.1804 83.9367C84.2475 83.5768 84.2841 83.1986 84.3634 82.8082C84.4071 82.602 84.4621 82.3984 84.5281 82.1982C84.5891 81.9763 84.7222 81.781 84.9063 81.6431C85.0172 81.5843 85.1407 81.5536 85.2662 81.5536C85.3917 81.5536 85.5152 81.5843 85.6261 81.6431C85.7454 81.7183 85.8434 81.8228 85.9106 81.9467C85.9779 82.0706 86.0123 82.2097 86.0104 82.3507C86.0531 82.8092 86.0531 83.2708 86.0104 83.7293C85.9677 84.6565 85.8213 85.6264 85.8457 86.6146C85.8502 86.7315 85.8645 86.8478 85.8884 86.9623C85.8884 87.0782 85.9738 87.127 85.9616 87.1026C85.9494 87.0782 86.0775 87.005 86.1263 86.9074C86.1865 86.7992 86.2394 86.6871 86.2849 86.5719C86.4656 86.0774 86.5984 85.5668 86.6814 85.0469C86.7851 84.5162 86.8217 83.9672 86.8949 83.3999C86.9681 82.8326 87.0413 82.2714 87.1328 81.6919C87.2243 81.1124 87.328 80.5329 87.4439 79.9412C87.5431 79.3232 87.7151 78.7192 87.9563 78.1417C88.0051 78.0448 88.0788 77.9627 88.1698 77.9038C88.2509 77.8593 88.3369 77.8245 88.426 77.8001C88.5283 77.7709 88.6357 77.7639 88.7409 77.7797C88.8462 77.7955 88.9468 77.8336 89.036 77.8916C89.1776 78.004 89.2945 78.1443 89.3795 78.3038C89.4645 78.4633 89.5158 78.6386 89.5301 78.8188C89.5759 79.1507 89.5759 79.4873 89.5301 79.8192C89.4996 80.1303 89.4691 80.4292 89.4508 80.7708C89.3319 82.0701 89.3442 83.378 89.4874 84.6748C89.5135 84.8288 89.5544 84.98 89.6094 85.1262C89.6277 85.1852 89.659 85.2394 89.7009 85.2848C89.7009 85.2848 89.7009 85.2848 89.7314 85.2848C89.7314 85.4251 89.7314 85.2848 89.7314 85.3397C89.7314 85.3946 89.7314 85.3397 89.7314 85.2909C89.8075 85.189 89.8672 85.0758 89.9083 84.9554C89.9652 84.8049 90.014 84.6463 90.0547 84.4796C90.2194 83.833 90.3292 83.1498 90.4329 82.4666C90.6403 81.0941 90.7928 79.685 90.9209 78.2576V78.2881C90.8667 77.7853 90.9757 77.2784 91.232 76.8424C91.3298 76.7178 91.4641 76.6268 91.616 76.5819C91.768 76.5371 91.9301 76.5407 92.0799 76.5923C92.2078 76.6633 92.3202 76.7593 92.4103 76.8745C92.5005 76.9898 92.5665 77.122 92.6045 77.2633C92.7999 78.0134 92.8801 78.7888 92.8424 79.563C92.8424 80.3194 92.7753 81.0636 92.7082 81.8017C92.6411 82.5398 92.5496 83.2657 92.4459 83.9855C92.391 84.3515 92.3361 84.7053 92.2812 85.0652C92.2324 85.2909 92.2446 85.297 92.2812 85.3641C92.3236 85.3927 92.3735 85.408 92.4246 85.408C92.4756 85.408 92.5256 85.3927 92.5679 85.3641C92.6411 85.3092 92.6533 85.2055 92.6716 85.0042L92.7143 84.4735L92.8241 83.4182C92.8973 82.7228 92.9949 82.0274 93.1108 81.3503C93.2237 80.6702 93.3868 79.9994 93.5988 79.3434C93.7096 79.0118 93.859 78.6945 94.0441 78.3979C94.1449 78.238 94.2778 78.1009 94.4345 77.9953C94.5215 77.9324 94.6222 77.8912 94.7284 77.8753C94.8345 77.8594 94.9429 77.8692 95.0445 77.9038C95.138 77.9614 95.2168 78.0399 95.275 78.133C95.3332 78.2261 95.3691 78.3313 95.38 78.4406C95.4052 78.6122 95.4154 78.7857 95.4105 78.9591C95.4105 79.2946 95.3678 79.6179 95.3312 79.9412C95.2458 80.5512 95.1299 81.1978 95.0201 81.8139C94.7581 82.9726 94.6312 84.1578 94.6419 85.3458C94.6591 85.4734 94.6919 85.5983 94.7395 85.7179C94.7616 85.7612 94.7882 85.8021 94.8188 85.8399C94.8188 85.8399 94.8188 85.8399 94.8188 85.7972C94.9558 85.5767 95.0567 85.3358 95.1177 85.0835C95.2763 84.5528 95.4044 84.016 95.5447 83.4914C95.6705 82.9694 95.8232 82.4543 96.0022 81.9481C96.0867 81.6974 96.1971 81.4561 96.3316 81.2283C96.4044 81.1041 96.4995 80.9945 96.6122 80.905C96.6735 80.8518 96.7468 80.8142 96.8257 80.7952C96.9045 80.7828 96.9848 80.7828 97.0636 80.7952C97.1468 80.8035 97.2264 80.8339 97.2939 80.8832C97.3615 80.9326 97.4146 80.999 97.4479 81.0758C97.4989 81.204 97.5257 81.3405 97.5272 81.4784C97.5319 81.7252 97.5177 81.9719 97.4845 82.2165C97.4296 82.6923 97.3381 83.1437 97.2527 83.589C97.0758 84.4613 96.8806 85.2909 96.6427 86.029C96.1852 87.5418 95.7277 88.8228 95.3556 89.8659C94.9835 90.909 94.6663 91.6959 94.4528 92.2571C94.3491 92.5133 94.2637 92.7146 94.2027 92.8671C94.1754 92.9669 94.1365 93.0631 94.0868 93.1538Z" fill="#EB996E"/>
<path d="M60.7871 110.343C61.9461 114.436 64.2153 120.75 66.6492 127.423C66.7259 127.638 66.8647 127.826 67.0481 127.962C67.2314 128.098 67.451 128.176 67.679 128.187C67.907 128.199 68.1331 128.142 68.3288 128.024C68.5245 127.907 68.6809 127.734 68.7781 127.527L74.7439 114.906C74.7439 114.906 73.3043 104.536 73.4263 104.908C73.5483 105.28 61.1165 106.25 61.1165 106.25L60.7871 110.343Z" fill="#5B87B9"/>
<path d="M74.2326 108.313C74.2326 108.362 73.4884 108.581 72.3111 109.033C70.7725 109.617 69.2902 110.339 67.8825 111.192C66.4767 112.049 65.1498 113.028 63.9175 114.12C62.972 114.956 62.4291 115.529 62.3925 115.492C62.3559 115.456 62.4962 115.322 62.728 115.047C63.0548 114.666 63.4009 114.301 63.765 113.955C64.9674 112.797 66.2929 111.775 67.7178 110.905C69.1431 110.046 70.6565 109.343 72.2318 108.807C72.708 108.643 73.1926 108.504 73.6836 108.392C73.8612 108.336 74.0465 108.31 74.2326 108.313Z" fill="#FAFAFA"/>
<path d="M76.5982 111.459C76.2105 111.069 75.8744 110.63 75.5978 110.154C74.8854 109.043 74.273 107.872 73.7678 106.653C73.2622 105.43 72.8682 104.164 72.5905 102.871C72.4483 102.342 72.3765 101.796 72.377 101.248C72.5589 101.76 72.7036 102.283 72.8101 102.816C73.1368 104.079 73.5443 105.32 74.0301 106.531C74.5375 107.735 75.1202 108.907 75.7747 110.038C76.0793 110.494 76.3543 110.969 76.5982 111.459Z" fill="#263238"/>
<path d="M80.576 55.5717C79.5411 57.2774 78.8996 59.1923 78.698 61.1772C78.4965 63.1621 78.74 65.1669 79.4109 67.0458C80.0209 68.7233 80.9969 70.3764 80.82 72.1576C80.6431 73.9388 79.2523 75.7017 79.7403 77.4585C80.0331 78.5016 80.9237 79.2885 81.2714 80.3011C81.6679 81.5211 81.2714 82.8082 81.0579 84.0587C80.5699 87.2551 81.5947 90.4698 81.8448 93.6906C82.0949 96.9114 81.2348 100.687 78.3556 102.09C77.4833 102.517 76.3426 102.639 75.6167 101.987C74.6895 101.163 74.9457 99.6747 75.2019 98.4547C77.7273 86.2547 69.9254 74.3475 71.7066 62.0011C71.9933 60.0247 73.0974 56.6697 74.5187 55.2911C75.94 53.9125 79.8867 54.0711 81.2287 55.5351" fill="#263238"/>
<path d="M68.5586 90.9645C68.5586 90.9645 68.9307 90.5253 69.4797 89.6591C70.2501 88.4357 70.7897 87.0815 71.0718 85.6636C71.2558 84.6868 71.3193 83.6912 71.2609 82.699C71.1542 81.5452 71.1114 80.3865 71.1328 79.2281C71.1692 78.5936 71.286 77.9664 71.4805 77.3615C71.7034 76.7382 71.9853 76.1377 72.3223 75.5681C73.0055 74.4152 73.8656 73.3416 74.6586 72.1948C75.4729 71.1109 76.0393 69.8615 76.3178 68.5348C76.453 67.2851 76.3809 66.0216 76.1043 64.7955C75.8735 63.6558 75.7834 62.4922 75.8359 61.3307C75.9085 60.316 76.1135 59.3153 76.4459 58.3539C76.9119 56.9588 77.6453 55.6679 78.6053 54.5536C78.8603 54.2506 79.1376 53.9672 79.4349 53.7057C79.5292 53.6052 79.6357 53.5171 79.7521 53.4434C79.7521 53.4434 79.3434 53.8399 78.6968 54.6634C77.1567 56.575 76.2563 58.9222 76.1226 61.3734C76.0818 62.5159 76.1822 63.6592 76.4215 64.7772C76.7125 66.0363 76.7908 67.3352 76.6533 68.6202C76.3641 69.9839 75.7813 71.2683 74.9453 72.3839C74.1462 73.549 73.2861 74.6165 72.6151 75.7389C72.2851 76.2874 72.0112 76.8678 71.7977 77.4713C71.6047 78.0515 71.4878 78.6543 71.45 79.2647C71.423 80.4103 71.4556 81.5567 71.5476 82.699C71.596 83.7112 71.5182 84.7255 71.3158 85.7185C71.0101 87.1557 70.4302 88.5206 69.6078 89.7384C69.3851 90.0675 69.1406 90.3814 68.8758 90.6778C68.7809 90.7846 68.6745 90.8808 68.5586 90.9645Z" fill="#455A64"/>
<path d="M62.7754 91.8726C62.8245 91.7304 62.8879 91.5934 62.9645 91.4639C63.117 91.1772 63.3122 90.799 63.5745 90.3232C64.0869 89.3289 64.8494 87.8832 65.5997 86.0532C66.5175 83.9159 67.0265 81.6254 67.1003 79.3005C67.1006 78.6307 67.0496 77.9618 66.9478 77.2997C66.8441 76.6165 66.6855 75.9272 66.5818 75.2074C66.4549 74.4629 66.4715 73.7009 66.6306 72.9626C66.8369 72.2046 67.2611 71.5238 67.8506 71.0045C68.9974 69.9614 70.3821 69.2782 71.1019 68.0521C71.7255 66.8363 72.093 65.5055 72.1816 64.142C72.3107 62.892 72.5934 61.6628 73.0234 60.482C73.9903 57.9471 75.7131 55.7708 77.9583 54.2478C78.3162 54.0069 78.6891 53.7889 79.0746 53.5951C79.2047 53.5172 79.3441 53.4557 79.4894 53.4121C79.4894 53.4121 78.9404 53.7049 78.0315 54.3515C76.7504 55.2657 75.6414 56.3995 74.7558 57.7004C74.1416 58.5922 73.6416 59.5574 73.2674 60.5735C72.8563 61.757 72.5901 62.986 72.4744 64.2335C72.2914 65.5328 72.145 66.9846 71.3642 68.2717C70.5834 69.5588 69.156 70.2908 68.0641 71.3217C67.5076 71.8046 67.1065 72.4413 66.9112 73.1517C66.7629 73.8503 66.7484 74.5706 66.8685 75.2745C66.9661 75.976 67.1186 76.6714 67.2223 77.3607C67.3278 78.0387 67.3768 78.7242 67.3687 79.4103C67.2858 81.7778 66.7495 84.1074 65.7888 86.2728C65.1648 87.7362 64.456 89.1619 63.666 90.5428L63.0194 91.5005C62.9514 91.6328 62.8696 91.7575 62.7754 91.8726Z" fill="#455A64"/>
<path d="M264.6 264.239C264.629 264.15 264.665 264.065 264.71 263.983C264.796 263.8 264.912 263.556 265.052 263.245C265.476 262.292 265.817 261.304 266.071 260.292C266.742 257.669 266.979 253.662 265.985 248.904C265.445 246.309 264.738 243.752 263.868 241.248C262.978 238.534 261.935 235.655 261.087 232.537C260.13 229.286 259.667 225.91 259.714 222.521C259.842 218.977 260.892 215.445 262.045 211.919C263.197 208.394 264.387 204.959 264.741 201.482C265.134 198.148 264.464 194.775 262.825 191.844C261.3 189.032 259.379 186.623 257.945 184.134C256.603 181.821 255.614 179.321 255.011 176.716C254.146 172.945 254.081 169.034 254.822 165.236C255.092 163.847 255.501 162.488 256.042 161.18C256.026 161.271 256.001 161.361 255.969 161.448L255.725 162.223C255.518 162.906 255.243 163.931 254.981 165.273C254.299 169.053 254.401 172.934 255.28 176.674C255.892 179.247 256.885 181.714 258.226 183.994C259.659 186.434 261.587 188.874 263.149 191.698C264.827 194.688 265.517 198.132 265.119 201.537C264.759 205.063 263.563 208.534 262.411 212.054C261.258 215.573 260.221 219.069 260.093 222.552C260.038 225.907 260.49 229.251 261.435 232.47C262.27 235.569 263.295 238.448 264.18 241.175C265.041 243.692 265.734 246.264 266.254 248.873C267.223 253.668 266.949 257.718 266.254 260.347C265.981 261.361 265.616 262.347 265.162 263.294L264.783 264.02C264.731 264.1 264.67 264.173 264.6 264.239Z" fill="#263238"/>
<path d="M259.898 186.592C259.898 186.592 256.982 177.253 262.216 171.788C262.256 171.744 262.308 171.712 262.366 171.696C262.424 171.679 262.485 171.68 262.542 171.696C262.6 171.712 262.651 171.745 262.692 171.789C262.732 171.833 262.76 171.887 262.771 171.946C263.051 173.489 263.399 178.187 259.898 186.592Z" fill="#92AFD0"/>
<path d="M261.648 174.898C261.639 175.477 261.574 176.053 261.453 176.619C261.258 177.808 261.032 179.199 260.788 180.736C260.544 182.273 260.319 183.67 260.129 184.854C260.076 185.431 259.974 186.002 259.824 186.562C259.767 185.985 259.779 185.403 259.861 184.829C259.959 183.762 260.148 182.298 260.41 180.687C260.672 179.077 260.959 177.637 261.185 176.582C261.274 176.005 261.429 175.44 261.648 174.898Z" fill="#263238"/>
<path d="M263.326 208.62C263.326 208.62 265.113 199.001 272.299 196.622C272.356 196.602 272.417 196.598 272.476 196.611C272.534 196.624 272.588 196.653 272.631 196.695C272.674 196.737 272.705 196.79 272.719 196.848C272.734 196.906 272.732 196.967 272.714 197.024C272.238 198.506 270.353 202.819 263.326 208.62Z" fill="#92AFD0"/>
<path d="M270.341 199.092C270.063 199.6 269.736 200.08 269.365 200.525L266.846 203.85L264.345 207.186C264.03 207.671 263.673 208.126 263.277 208.547C263.5 208.01 263.787 207.502 264.131 207.034C264.741 206.137 265.571 204.929 266.571 203.63C267.572 202.331 268.481 201.19 269.17 200.361C269.513 199.896 269.905 199.47 270.341 199.092Z" fill="#263238"/>
<path d="M261.386 232.732C261.386 232.732 260.3 223.009 266.485 218.647C266.533 218.61 266.59 218.587 266.651 218.582C266.711 218.576 266.772 218.587 266.825 218.615C266.879 218.642 266.924 218.685 266.955 218.737C266.985 218.789 267 218.849 266.998 218.91C266.98 220.477 266.424 225.15 261.386 232.732Z" fill="#92AFD0"/>
<path d="M265.351 221.588C265.238 222.156 265.064 222.71 264.832 223.241L263.393 227.157C262.856 228.621 262.374 229.945 261.965 231.073C261.809 231.629 261.605 232.17 261.355 232.69C261.412 232.111 261.539 231.542 261.734 230.994C262.033 229.969 262.496 228.554 263.063 227.029C263.631 225.504 264.186 224.132 264.607 223.149C264.801 222.605 265.05 222.082 265.351 221.588Z" fill="#263238"/>
<path d="M266.795 256.998C266.795 256.998 266.063 247.238 272.395 243.102C272.445 243.068 272.503 243.048 272.563 243.045C272.623 243.042 272.683 243.056 272.735 243.085C272.788 243.115 272.831 243.158 272.861 243.21C272.89 243.263 272.904 243.322 272.901 243.383C272.828 244.95 272.108 249.605 266.795 256.998Z" fill="#92AFD0"/>
<path d="M271.139 246.006C271.002 246.569 270.808 247.117 270.559 247.641C270.108 248.751 269.571 250.081 268.979 251.502C268.388 252.923 267.869 254.247 267.418 255.363C267.237 255.914 267.006 256.447 266.729 256.955C266.809 256.378 266.959 255.813 267.174 255.272C267.509 254.259 268.022 252.868 268.644 251.362C269.266 249.855 269.864 248.501 270.321 247.537C270.539 246.999 270.813 246.486 271.139 246.006Z" fill="#263238"/>
<path d="M255.7 178.387C255.7 178.387 247.05 173.849 246.861 166.291C246.861 166.232 246.876 166.174 246.906 166.122C246.936 166.071 246.979 166.029 247.031 166C247.083 165.972 247.142 165.957 247.201 165.959C247.26 165.961 247.318 165.979 247.368 166.011C248.655 166.901 252.229 169.976 255.7 178.387Z" fill="#92AFD0"/>
<path d="M248.66 168.891C249.066 169.305 249.428 169.761 249.74 170.251C250.447 171.221 251.271 172.368 252.18 173.63L254.62 176.998C254.992 177.44 255.322 177.916 255.608 178.419C255.162 178.048 254.763 177.624 254.419 177.156C253.729 176.339 252.826 175.168 251.875 173.844C250.923 172.52 250.088 171.294 249.514 170.397C249.178 169.926 248.892 169.421 248.66 168.891Z" fill="#263238"/>
<path d="M265.015 198.439C265.015 198.439 256.085 194.443 255.456 186.898C255.451 186.838 255.463 186.779 255.489 186.726C255.516 186.672 255.557 186.628 255.607 186.596C255.657 186.564 255.716 186.547 255.775 186.547C255.835 186.546 255.893 186.562 255.944 186.593C257.28 187.404 261.032 190.247 265.015 198.439Z" fill="#92AFD0"/>
<path d="M257.42 189.387C257.85 189.774 258.239 190.205 258.579 190.674L261.226 193.901L263.88 197.115C264.277 197.536 264.637 197.991 264.953 198.476C264.485 198.13 264.06 197.731 263.685 197.286C262.953 196.505 261.977 195.395 260.946 194.133C259.915 192.87 259.012 191.693 258.378 190.832C258.006 190.387 257.685 189.903 257.42 189.387Z" fill="#263238"/>
<path d="M259.861 220.819C259.861 220.819 253.761 213.194 256.609 206.179C256.632 206.124 256.669 206.076 256.717 206.041C256.765 206.006 256.822 205.985 256.881 205.98C256.94 205.975 257 205.986 257.053 206.013C257.106 206.039 257.151 206.08 257.183 206.131C258.031 207.454 260.062 211.7 259.861 220.819Z" fill="#92AFD0"/>
<path d="M257.225 209.277C257.434 209.819 257.585 210.381 257.676 210.955C257.933 212.126 258.232 213.505 258.561 215.03C258.89 216.555 259.201 217.927 259.458 219.098C259.621 219.654 259.733 220.224 259.793 220.8C259.525 220.282 259.321 219.733 259.183 219.165C258.884 218.135 258.518 216.725 258.177 215.103C257.835 213.48 257.567 212.053 257.396 211.004C257.276 210.436 257.219 209.857 257.225 209.277Z" fill="#263238"/>
<path d="M265.961 247.117C265.961 247.117 257.097 242.975 256.597 235.423C256.591 235.363 256.602 235.302 256.629 235.248C256.656 235.194 256.698 235.148 256.749 235.117C256.801 235.085 256.86 235.068 256.92 235.068C256.981 235.069 257.04 235.086 257.091 235.118C258.403 235.954 262.106 238.864 265.961 247.117Z" fill="#92AFD0"/>
<path d="M258.5 237.936C258.919 238.336 259.299 238.775 259.635 239.247L262.227 242.511L264.826 245.774C265.216 246.201 265.568 246.662 265.875 247.153C265.421 246.796 265.011 246.387 264.655 245.933C263.929 245.14 262.977 244.011 261.965 242.73C260.952 241.449 260.074 240.26 259.452 239.387C259.079 238.942 258.76 238.455 258.5 237.936Z" fill="#263238"/>
<path d="M283.596 208.662C283.596 208.662 283.596 208.735 283.596 208.876C283.596 209.016 283.596 209.248 283.596 209.486C283.596 210.096 283.535 210.87 283.492 211.859C283.382 213.945 283.218 216.854 283.028 220.331C282.418 223.869 280.588 227.792 278.148 231.604C276.373 234.41 274.488 236.96 272.902 239.333C271.455 241.415 270.154 243.596 269.011 245.86C268.253 247.389 267.641 248.986 267.181 250.63C267.028 251.21 266.906 251.667 266.839 251.978C266.81 252.14 266.767 252.299 266.711 252.454C266.713 252.29 266.734 252.126 266.772 251.966C266.815 251.649 266.906 251.185 267.046 250.594C267.457 248.921 268.04 247.296 268.785 245.744C269.919 243.463 271.217 241.267 272.671 239.174C274.269 236.783 276.117 234.227 277.886 231.44C280.296 227.645 282.089 223.784 282.766 220.301C283.01 216.83 283.211 213.926 283.376 211.84C283.455 210.852 283.523 210.065 283.571 209.473C283.571 209.229 283.614 209.022 283.632 208.863C283.612 208.798 283.599 208.73 283.596 208.662Z" fill="#263238"/>
<path d="M278.319 230.903C278.319 230.903 282.071 221.875 277.356 215.952C277.319 215.905 277.27 215.868 277.214 215.847C277.158 215.826 277.097 215.821 277.038 215.832C276.979 215.843 276.925 215.871 276.881 215.912C276.836 215.952 276.804 216.004 276.788 216.062C276.367 217.575 275.593 222.217 278.319 230.903Z" fill="#92AFD0"/>
<path d="M277.635 219.105C277.797 219.662 277.897 220.235 277.934 220.813C278.068 221.875 278.215 223.345 278.331 224.974C278.447 226.602 278.501 228.079 278.501 229.152C278.538 229.732 278.503 230.314 278.398 230.885C278.292 230.315 278.241 229.737 278.245 229.158C278.166 227.938 278.068 226.554 277.965 224.998C277.861 223.443 277.763 222.033 277.678 220.838C277.607 220.263 277.593 219.683 277.635 219.105Z" fill="#263238"/>
<g opacity="0.3">
<path d="M278.319 230.903C278.319 230.903 282.071 221.875 277.356 215.952C277.319 215.905 277.27 215.868 277.214 215.847C277.158 215.826 277.097 215.821 277.038 215.832C276.979 215.843 276.925 215.871 276.881 215.912C276.836 215.952 276.804 216.004 276.788 216.062C276.367 217.575 275.593 222.217 278.319 230.903Z" fill="black"/>
</g>
<path d="M266.698 252.674C266.698 252.674 269.705 243.366 264.52 237.851C264.48 237.807 264.428 237.775 264.371 237.759C264.314 237.742 264.253 237.742 264.196 237.758C264.138 237.773 264.086 237.805 264.046 237.848C264.005 237.892 263.977 237.945 263.965 238.004C263.672 239.541 263.276 244.238 266.698 252.674Z" fill="#92AFD0"/>
<path d="M265.059 240.949C265.27 241.491 265.417 242.056 265.498 242.633C265.717 243.676 265.98 245.134 266.23 246.744C266.48 248.355 266.651 249.825 266.742 250.892C266.821 251.468 266.832 252.052 266.773 252.631C266.628 252.071 266.53 251.499 266.48 250.923C266.303 249.733 266.096 248.342 265.87 246.799C265.644 245.256 265.425 243.865 265.26 242.676C265.136 242.108 265.069 241.53 265.059 240.949Z" fill="#263238"/>
<g opacity="0.3">
<path d="M266.698 252.674C266.698 252.674 269.705 243.366 264.52 237.851C264.48 237.807 264.428 237.775 264.371 237.759C264.314 237.742 264.253 237.742 264.196 237.758C264.138 237.773 264.086 237.805 264.046 237.848C264.005 237.892 263.977 237.945 263.965 238.004C263.672 239.541 263.276 244.238 266.698 252.674Z" fill="black"/>
</g>
<path d="M283.102 219.868C283.102 219.868 291.111 214.256 290.306 206.729C290.299 206.67 290.277 206.613 290.241 206.566C290.205 206.519 290.156 206.483 290.101 206.461C290.045 206.44 289.985 206.434 289.926 206.445C289.868 206.455 289.813 206.482 289.769 206.522C288.604 207.571 285.481 211.06 283.102 219.868Z" fill="#92AFD0"/>
<g opacity="0.3">
<path d="M283.102 219.868C283.102 219.868 291.111 214.256 290.306 206.729C290.299 206.67 290.277 206.613 290.241 206.566C290.205 206.519 290.156 206.483 290.101 206.461C290.045 206.44 289.985 206.434 289.926 206.445C289.868 206.455 289.813 206.482 289.769 206.522C288.604 207.571 285.481 211.06 283.102 219.868Z" fill="black"/>
</g>
<path d="M288.855 209.541C288.696 210.1 288.473 210.638 288.19 211.145C287.732 212.109 287.067 213.427 286.293 214.866C285.518 216.306 284.774 217.581 284.2 218.484C283.918 218.99 283.576 219.461 283.182 219.887C283.396 219.35 283.661 218.835 283.975 218.349C284.548 217.294 285.225 216.062 285.969 214.689L287.958 211.029C288.208 210.505 288.508 210.007 288.855 209.541Z" fill="#263238"/>
<path d="M269.932 243.444C269.932 243.444 279.594 241.937 282.18 234.824C282.201 234.769 282.207 234.709 282.196 234.65C282.185 234.592 282.158 234.538 282.118 234.494C282.079 234.45 282.028 234.417 281.971 234.4C281.914 234.383 281.854 234.382 281.796 234.397C280.289 234.849 275.922 236.587 269.932 243.444Z" fill="#92AFD0"/>
<g opacity="0.3">
<path d="M269.932 243.444C269.932 243.444 279.594 241.937 282.18 234.824C282.201 234.769 282.207 234.709 282.196 234.65C282.185 234.592 282.158 234.538 282.118 234.494C282.079 234.45 282.028 234.417 281.971 234.4C281.914 234.383 281.854 234.382 281.796 234.397C280.289 234.849 275.922 236.587 269.932 243.444Z" fill="black"/>
</g>
<path d="M279.643 236.709C279.251 237.136 278.813 237.519 278.337 237.85C277.502 238.521 276.324 239.411 275.001 240.363C273.677 241.314 272.439 242.126 271.524 242.687C271.047 243.02 270.53 243.292 269.986 243.498C270.419 243.112 270.887 242.767 271.383 242.467L274.787 240.064L278.185 237.624C278.637 237.268 279.126 236.961 279.643 236.709Z" fill="#263238"/>
<path d="M260.709 261.232L257.891 280.203H275.459L273.183 261.232H260.709Z" fill="#455A64"/>
<path d="M273.891 267.107C273.891 267.211 270.719 267.29 266.809 267.29C262.899 267.29 259.721 267.211 259.721 267.107C262.079 266.926 264.445 266.865 266.809 266.924C269.171 266.865 271.535 266.926 273.891 267.107Z" fill="#263238"/>
<path d="M274.232 268.619C274.232 268.722 270.956 268.802 266.912 268.802C262.867 268.802 259.592 268.722 259.592 268.619C259.592 268.515 262.867 268.436 266.912 268.436C270.956 268.436 274.232 268.515 274.232 268.619Z" fill="#263238"/>
<path d="M205.916 77.1891C205.916 77.1891 205.752 77.1891 205.435 77.1891C204.971 77.1616 204.507 77.1616 204.044 77.1891C202.252 77.294 200.492 77.7067 198.84 78.4091C196.223 79.5064 193.944 81.2814 192.24 83.5514C191.189 84.9688 190.408 86.5671 189.934 88.2667C188.867 92.3154 189.443 96.622 191.539 100.247C192.11 101.251 192.807 102.177 193.613 103.004C194.426 103.88 195.373 104.622 196.419 105.2C197.492 105.804 198.707 106.11 199.938 106.085C201.208 106.07 202.425 105.577 203.348 104.706C203.795 104.239 204.145 103.688 204.378 103.085C204.611 102.482 204.724 101.839 204.709 101.193C204.699 99.8499 204.273 98.5432 203.489 97.4533C201.909 95.2268 199.347 93.7323 196.62 92.9271C193.793 92.133 190.807 92.0909 187.958 92.8051C186.504 93.1834 185.102 93.7407 183.786 94.4643C182.456 95.2145 181.249 96.1627 180.205 97.2764C179.955 97.5631 179.668 97.8254 179.442 98.1426L178.753 99.0698C178.334 99.7232 177.959 100.404 177.631 101.107C176.978 102.535 176.532 104.049 176.307 105.603C175.864 108.707 176.286 111.873 177.527 114.753C178.713 117.567 180.778 119.921 183.413 121.463C184.691 122.193 186.118 122.625 187.586 122.726C189.026 122.806 190.457 122.463 191.703 121.737C192.94 121.054 193.918 119.982 194.485 118.687C195.02 117.412 195.057 115.981 194.589 114.68C194.107 113.424 193.318 112.308 192.295 111.434C191.303 110.577 190.159 109.913 188.922 109.476C186.51 108.716 183.929 108.671 181.492 109.348C179.212 109.966 177.118 111.133 175.392 112.746C173.82 114.252 172.623 116.105 171.897 118.157C170.626 121.717 170.685 125.616 172.061 129.137C173.135 131.765 174.863 134.075 177.082 135.847C178.479 136.967 180.035 137.874 181.699 138.537C182.273 138.75 182.718 138.909 183.023 138.994L183.475 139.141C183.475 139.141 183.316 139.11 183.011 139.025C182.56 138.904 182.116 138.76 181.681 138.592C179.995 137.958 178.419 137.065 177.008 135.944C174.753 134.174 172.99 131.852 171.891 129.204C170.489 125.65 170.418 121.71 171.689 118.108C172.417 116.025 173.627 114.144 175.221 112.618C176.971 110.972 179.097 109.779 181.413 109.141C183.901 108.447 186.537 108.489 189.001 109.263C190.274 109.707 191.452 110.388 192.472 111.27C193.535 112.172 194.354 113.328 194.851 114.631C195.353 115.991 195.331 117.489 194.79 118.834C194.188 120.179 193.168 121.294 191.88 122.012C190.588 122.765 189.104 123.125 187.61 123.049C186.106 122.944 184.646 122.498 183.34 121.744C180.645 120.18 178.528 117.785 177.307 114.918C176.04 111.985 175.605 108.76 176.051 105.597C176.284 104.012 176.74 102.467 177.405 101.01C177.74 100.291 178.123 99.5963 178.552 98.9295L179.259 97.984C179.485 97.6607 179.778 97.374 180.034 97.0934C181.103 95.9586 182.336 94.992 183.694 94.2264C185.042 93.489 186.476 92.9234 187.964 92.5428C190.867 91.8153 193.91 91.8594 196.791 92.6709C199.572 93.5005 202.177 95.0194 203.818 97.3252C204.643 98.4606 205.091 99.8259 205.099 101.229C205.129 102.61 204.609 103.946 203.653 104.944C202.677 105.86 201.393 106.376 200.054 106.39C198.774 106.419 197.509 106.101 196.394 105.469C195.324 104.878 194.355 104.118 193.527 103.218C192.711 102.372 192.004 101.428 191.423 100.406C189.29 96.7132 188.711 92.3251 189.812 88.2057C190.301 86.4864 191.101 84.8715 192.173 83.4416C193.909 81.1544 196.226 79.3744 198.883 78.2871C200.548 77.5982 202.322 77.21 204.123 77.1403C204.59 77.1095 205.059 77.1095 205.526 77.1403L205.916 77.1891Z" fill="#263238"/>
<path d="M226.286 138.227H140.758V204.192H226.286V138.227Z" fill="#5B87B9"/>
<path d="M140.758 138.227L156.557 152.964H240.633L226.286 138.227H140.758Z" fill="#5B87B9"/>
<path d="M140.758 138.225L226.31 138.072H226.377L226.426 138.115L240.627 152.7L240.773 152.853L241.036 153.121H240.658L156.581 153.054H156.545L140.758 138.225L156.618 152.865H156.551L240.627 152.804L240.517 153.072L240.365 152.92L226.17 138.335L226.28 138.383L140.758 138.225Z" fill="#263238"/>
<path d="M166.451 168.646C165.988 168.663 165.55 168.861 165.231 169.198C164.912 169.534 164.738 169.983 164.746 170.446C164.755 170.91 164.945 171.352 165.276 171.676C165.606 172.001 166.051 172.183 166.515 172.183C166.979 172.183 167.424 172.001 167.755 171.676C168.085 171.352 168.275 170.91 168.284 170.446C168.292 169.983 168.118 169.534 167.799 169.198C167.481 168.861 167.042 168.663 166.579 168.646" fill="#263238"/>
<path d="M186.659 168.646C186.197 168.664 185.761 168.862 185.444 169.198C185.127 169.533 184.954 169.98 184.963 170.442C184.972 170.903 185.162 171.343 185.491 171.666C185.821 171.99 186.264 172.171 186.726 172.171C187.188 172.171 187.631 171.99 187.96 171.666C188.29 171.343 188.48 170.903 188.488 170.442C188.497 169.98 188.324 169.533 188.007 169.198C187.69 168.862 187.254 168.664 186.793 168.646" fill="#263238"/>
<path d="M186.774 184.433C186.422 183.085 185.849 181.805 185.079 180.645C184.222 179.403 183.122 178.349 181.846 177.546C180.306 176.524 178.51 175.955 176.662 175.904C174.815 175.854 172.99 176.323 171.396 177.259C170.08 177.994 168.925 178.985 167.999 180.175C167.165 181.293 166.523 182.542 166.102 183.871C166.106 183.772 166.123 183.674 166.15 183.579C166.209 183.304 166.284 183.033 166.376 182.767C166.71 181.788 167.198 180.867 167.822 180.041C168.741 178.796 169.911 177.757 171.256 176.991C172.891 176.015 174.77 175.524 176.673 175.576C178.576 175.628 180.425 176.22 182.004 177.283C183.303 178.118 184.412 179.215 185.262 180.504C185.841 181.365 186.28 182.312 186.561 183.31C186.636 183.581 186.695 183.856 186.738 184.134C186.759 184.232 186.771 184.332 186.774 184.433Z" fill="#263238"/>
<path opacity="0.5" d="M140.953 138.951L156.081 158.13H226.286V152.963H156.557L140.953 138.951Z" fill="black"/>
<path d="M209.418 204.045C209.333 204.045 209.26 192.571 209.26 178.425C209.26 164.279 209.333 152.805 209.418 152.805C209.504 152.805 209.583 164.273 209.583 178.425C209.583 192.577 209.51 204.045 209.418 204.045Z" fill="#263238"/>
<path d="M222.85 189.088H215.311V197.61H222.85V189.088Z" fill="#F5F5F5"/>
<path d="M140.757 138.227L123.201 152.964H140.757V138.227Z" fill="#5B87B9"/>
<g opacity="0.4">
<path d="M140.757 138.227L123.201 152.964H140.757V138.227Z" fill="black"/>
</g>
<path d="M228.811 204.191H130.473V280.039H228.811V204.191Z" fill="#5B87B9"/>
<path opacity="0.3" d="M228.811 204.191H130.473V280.039H228.811V204.191Z" fill="black"/>
<path d="M204.172 279.502C204.087 279.502 204.014 262.599 204.014 241.749C204.014 220.899 204.087 203.99 204.172 203.99C204.258 203.99 204.331 220.893 204.331 241.749C204.331 262.605 204.258 279.502 204.172 279.502Z" fill="#263238"/>
<path d="M220.471 262.775H212.932V271.297H220.471V262.775Z" fill="#F5F5F5"/>
<path d="M171.642 204.393H160.473V220.576H171.642V204.393Z" fill="#263238"/>
<path d="M171.642 263.629H160.473V279.812H171.642V263.629Z" fill="#263238"/>
<path d="M227.957 204.191H227.701H226.962L224.126 204.222L213.677 204.27L179.218 204.35L144.747 204.307L134.303 204.258L131.467 204.228L134.303 204.197L144.747 204.148L179.218 204.1L213.677 204.148L224.126 204.197L226.962 204.228H227.701L227.957 204.191Z" fill="#263238"/>
<path d="M233.5 59.8748C233.711 57.2876 243.176 53.8702 242.863 50.3058C246.062 50.0649 248.618 50.1534 250.657 50C250.805 52.913 251.21 56.9723 251.5 59.8748C250.176 59.9746 248.666 59.775 247.342 59.8748C246.918 58.9874 246.494 57.2493 246.07 56.3619C245.657 57.3108 244.873 58.9262 244.459 59.8748C241.064 59.8748 239.332 60.1565 233.5 59.8748Z" fill="#3D5E83" stroke="black" stroke-width="0.653396" stroke-linecap="round" stroke-linejoin="round"/>
<path d="M207.544 44.8301C204.117 49.5639 201.619 49.4586 200.394 49.9827C199.122 50.5277 197.748 50.785 196.416 51.164C194.595 51.6823 192.841 52.4342 191.209 53.3949C190.496 53.8155 189.751 54.349 189.55 55.1528C189.361 55.9072 189.728 56.7182 190.3 57.2443C191.407 58.2615 193.094 58.3318 194.569 58.0412C196.044 57.7506 197.462 57.1597 198.962 57.053C201.306 56.886 203.544 57.9093 205.795 58.5865C208.211 59.3134 210.723 59.6519 213.224 59.9876C214.566 60.1677 215.918 60.3484 217.27 60.2658C219.208 60.1476 221.108 59.4767 222.691 58.3522C223.276 57.9362 223.832 57.4428 224.155 56.8017C224.479 56.1605 224.531 55.3461 224.139 54.7446" stroke="#010101" stroke-width="0.653396" stroke-linecap="round" stroke-linejoin="round"/>
<path d="M211.775 44.481C212.217 43.4138 212.781 42.341 213.721 41.6694C214.701 40.9689 216.041 40.8031 217.163 41.2435C218.284 41.6838 219.153 42.7165 219.396 43.8969" stroke="#010101" stroke-width="0.653396" stroke-linecap="round" stroke-linejoin="round"/>
<path d="M207.544 44.8321C206.57 47.4148 205.852 49.6572 205.197 52.3382C205.083 52.8043 205.019 53.2851 205.051 53.7636C205.209 56.1015 207.204 56.6428 208.929 56.6428C215.724 56.6428 219.314 56.7117 223.606 56.4053C228.13 56.082 226.393 52.0697 225.796 50.9693L223.499 44.9601C222.601 43.3029 208.118 43.3092 207.544 44.8321Z" fill="#38587A" stroke="#010101" stroke-width="0.653396" stroke-linecap="round" stroke-linejoin="round"/>
<path d="M214.912 51.9259C214.958 52.3941 215.135 52.8637 215.478 53.1858C215.82 53.508 216.345 53.6551 216.781 53.479C217.128 53.3387 217.378 53.0186 217.517 52.6709C217.656 52.3232 217.7 51.946 217.742 51.5742" stroke="#010101" stroke-width="0.653396" stroke-linecap="round" stroke-linejoin="round"/>
<path d="M206.463 48.4575C207.956 49.8571 209.862 50.7831 211.857 51.2383C213.852 51.6936 215.936 51.691 217.959 51.3797C219.17 51.1933 222.764 50.5389 224.538 47.6758" stroke="#010101" stroke-width="0.653396" stroke-linecap="round" stroke-linejoin="round"/>
<path d="M163.5 48.5338C165.596 46.2486 167.915 44.4158 170.589 44.0149C170.581 45.3716 171.812 46.2941 173.156 46.5681C175.553 47.0564 176.391 44.9162 176.649 44C179.672 44.4221 181.798 45.4167 183.5 46.9016C183.074 48.1616 182.007 50.9244 182.007 50.9244C182.007 50.9244 180.189 49.9539 179.311 49.5827C179.092 52.1079 179.061 57.3241 179.017 59.8467C175.483 59.8037 171.855 60.0377 168.321 59.9947C168.382 57.5947 168.446 52.2405 168.208 49.6848C167.434 50.2445 166.66 50.8042 165.887 51.364C165.134 50.6734 164.585 49.7682 163.5 48.5339L163.5 48.5338Z" fill="#3D5E83" stroke="#010101" stroke-width="0.653396" stroke-linecap="round" stroke-linejoin="round"/>
<path d="M59.5782 72.7062L48.8666 70.071H48.9459C46.1801 71.8303 42.9818 72.7908 39.7044 72.8465C37.7641 72.8554 35.8334 72.5737 33.9765 72.0108C30.7119 70.9626 27.8155 69.0017 25.6299 66.3598C23.4442 63.718 22.0605 60.5056 21.6423 57.1024C21.3139 54.5286 21.5556 51.9141 22.3505 49.4441C23.1453 46.9742 24.4738 44.7093 26.2417 42.8101C27.171 41.7893 28.2126 40.8767 29.3466 40.0895C29.92 39.7296 30.4934 39.3575 31.0912 39.0464L32.0001 38.6072L32.4515 38.3876L32.9273 38.2168C35.3767 37.2674 38.0043 36.8655 40.6255 37.0395C44.1384 37.2676 47.5053 38.5305 50.3016 40.669C53.098 42.8076 55.1987 45.726 56.3391 49.0565C56.9726 50.9196 57.3062 52.8716 57.3273 54.8393C57.3426 58.1096 56.4538 61.3205 54.7592 64.1174V64.0198C57.736 69.3939 59.2366 72.1084 59.5721 72.7062C59.2244 72.0962 57.6689 69.4305 54.5884 64.1113V64.0625V64.0137C56.2222 61.2438 57.066 58.0793 57.0284 54.8637C57.0001 52.9275 56.6623 51.0082 56.028 49.1785C54.9 45.9161 52.8347 43.0589 50.0906 40.9648C47.3465 38.8706 44.0455 37.6325 40.6011 37.4055C38.0315 37.2381 35.4563 37.6336 33.0554 38.5645L32.5918 38.7292L32.1465 38.9488L31.2559 39.3758C30.6459 39.6869 30.1091 40.0468 29.5418 40.4006C28.4297 41.1667 27.4066 42.0547 26.4918 43.048C24.7562 44.9124 23.4517 47.1356 22.6706 49.5601C21.8895 51.9846 21.6509 54.5511 21.9717 57.078C22.5372 61.7075 24.9124 65.9248 28.578 68.8083C30.2168 70.1069 32.0767 71.0988 34.068 71.7363C35.8915 72.3 37.7896 72.5859 39.6983 72.5842C42.9364 72.5495 46.1024 71.623 48.8483 69.9063H48.8849H48.952L59.5782 72.7062Z" fill="#263238"/>
<g clip-path="url(#clip0_5388_12367)">
<path fill-rule="evenodd" clip-rule="evenodd" d="M32.6949 46.3765C32.4524 46.1423 32.1276 46.0127 31.7905 46.0157C31.4534 46.0186 31.1309 46.1538 30.8926 46.3922C30.6542 46.6306 30.519 46.9531 30.516 47.2902C30.5131 47.6273 30.6427 47.9521 30.8769 48.1945L37.6822 54.9998L30.8769 61.8051C30.7541 61.9237 30.6561 62.0656 30.5888 62.2225C30.5214 62.3793 30.4859 62.548 30.4844 62.7187C30.4829 62.8895 30.5155 63.0588 30.5801 63.2168C30.6448 63.3748 30.7402 63.5183 30.861 63.639C30.9817 63.7598 31.1252 63.8552 31.2832 63.9199C31.4412 63.9845 31.6105 64.0171 31.7813 64.0156C31.952 64.0141 32.1207 63.9786 32.2776 63.9112C32.4344 63.8439 32.5763 63.7459 32.6949 63.6231L39.5002 56.8178L46.3055 63.6231C46.5479 63.8573 46.8727 63.9869 47.2098 63.984C47.5469 63.9811 47.8694 63.8458 48.1078 63.6075C48.3462 63.3691 48.4814 63.0466 48.4843 62.7095C48.4873 62.3724 48.3577 62.0476 48.1235 61.8051L41.3182 54.9998L48.1235 48.1945C48.3577 47.9521 48.4873 47.6273 48.4843 47.2902C48.4814 46.9531 48.3462 46.6306 48.1078 46.3922C47.8694 46.1538 47.5469 46.0186 47.2098 46.0157C46.8727 46.0127 46.5479 46.1423 46.3055 46.3765L39.5002 53.1818L32.6949 46.3765Z" fill="#D00416"/>
</g>
<defs>
<clipPath id="clip0_5388_12367">
<rect width="18" height="18" fill="white" transform="translate(30.5 46)"/>
</clipPath>
</defs>
</svg>
