<svg width="18" height="18" viewBox="0 0 18 18" fill="none" xmlns="http://www.w3.org/2000/svg">
<path d="M12.2513 1.5C14.8038 1.50023 16.5002 3.32207 16.5004 5.93652V12.0635C16.5002 14.6781 14.8035 16.4999 12.2504 16.5H5.74939C3.19682 16.5 1.50057 14.6782 1.50037 12.0635V5.93652C1.50057 3.32422 3.20136 1.5 5.74939 1.5H12.2513ZM5.74939 2.625C3.84104 2.625 2.62556 3.92857 2.62537 5.93652V12.0635C2.62556 14.0742 3.83686 15.375 5.74939 15.375H12.2504C14.1636 15.3749 15.3752 14.074 15.3754 12.0635V5.93652C15.3752 3.92618 14.1638 2.62522 12.2513 2.625H5.74939ZM8.99939 5.88672C9.28169 5.88675 9.51574 6.09513 9.55603 6.36621L9.56189 6.44922V8.43066H11.5414C11.8519 8.43087 12.1039 8.68263 12.1039 8.99316C12.1038 9.27545 11.8955 9.50954 11.6244 9.5498L11.5414 9.55566H9.56189V11.5371C9.56186 11.8476 9.30983 12.0994 8.99939 12.0996C8.71697 12.0996 8.4829 11.8914 8.44275 11.6201L8.43689 11.5371V9.55566H6.45837C6.14775 9.55566 5.89594 9.30377 5.89587 8.99316C5.89587 8.71075 6.10412 8.4767 6.37537 8.43652L6.45837 8.43066H8.43689V6.44922C8.43712 6.13878 8.68893 5.88678 8.99939 5.88672Z" fill="#38587A"/>
</svg>
