<svg width="20" height="20" viewBox="0 0 20 20" fill="none" xmlns="http://www.w3.org/2000/svg">
<path d="M8.19141 12.3525C9.39447 12.2464 10.6046 12.2464 11.8076 12.3525L12.1924 12.3848C12.7177 12.4366 13.2397 12.5174 13.7529 12.627C15.0612 12.8965 16.011 13.375 16.4316 14.2617C16.7441 14.9217 16.7443 15.6884 16.4316 16.3486C16.0099 17.2376 15.0477 17.7201 13.7627 17.9736L13.373 18.0547C12.8525 18.1546 12.327 18.2221 11.8057 18.2578C10.8274 18.3411 9.84453 18.3568 8.89648 18.3047C8.79212 18.3047 8.7219 18.3042 8.66016 18.3027L8.54004 18.2979C8.39395 18.2904 8.25935 18.2752 8.20312 18.2588C7.54359 18.214 6.88826 18.1184 6.25977 17.9766L6.04688 17.9326C4.85671 17.6682 3.97525 17.1906 3.56738 16.3477C3.41297 16.0205 3.33255 15.6627 3.33301 15.3037C3.33165 14.9421 3.41209 14.5846 3.57227 14.251C3.99698 13.3981 4.99507 12.8848 6.24219 12.6279C6.88828 12.4895 7.54339 12.3975 8.19141 12.3525ZM11.7031 13.5537C10.5699 13.4537 9.42938 13.4539 8.28516 13.5547C7.6826 13.5966 7.08364 13.681 6.48828 13.8086C5.5659 13.9986 4.86018 14.362 4.65039 14.7832C4.57332 14.9439 4.53356 15.1203 4.53418 15.3018C4.53395 15.4845 4.57492 15.6652 4.65039 15.8252C4.86615 16.2712 5.53108 16.6048 6.50586 16.7959L6.7998 16.8584C7.29178 16.9559 7.79921 17.0229 8.3623 17.0654C8.43325 17.0796 8.5098 17.0891 8.60059 17.0938L8.92871 17.0986C9.85384 17.1487 10.7818 17.135 11.7148 17.0557C12.3159 17.0144 12.913 16.9274 13.5156 16.793L13.7031 16.7529C14.5594 16.5588 15.1527 16.2413 15.3477 15.8301C15.5049 15.498 15.5047 15.1121 15.3477 14.7803C15.139 14.3402 14.4788 14.0079 13.5068 13.8076C12.9156 13.6814 12.3158 13.5971 11.7129 13.5547L11.7031 13.5537ZM10.0029 1.66797C12.4479 1.66798 14.4307 3.65882 14.4307 6.11426C14.4305 8.56955 12.4478 10.5596 10.0029 10.5596C7.55817 10.5594 5.57634 8.56945 5.57617 6.11426C5.57617 3.65893 7.55807 1.66816 10.0029 1.66797ZM10.0029 2.87402C8.22151 2.87421 6.77734 4.3252 6.77734 6.11426C6.77751 7.90317 8.22161 9.35333 10.0029 9.35352C11.7844 9.3535 13.2293 7.90328 13.2295 6.11426C13.2295 4.32509 11.7845 2.87403 10.0029 2.87402Z" fill="#1C1C1C"/>
</svg>
