<svg width="18" height="18" viewBox="0 0 18 18" fill="none" xmlns="http://www.w3.org/2000/svg">
<path d="M9 11.25C8.6625 11.25 8.4375 11.025 8.4375 10.6875C8.49375 9.95625 8.8875 9.3375 9.45 8.8875C9.7875 8.55 10.125 8.2125 10.125 7.875C10.125 7.25625 9.61875 6.75 9 6.75C8.38125 6.75 7.875 7.25625 7.875 7.875C7.875 8.2125 7.65 8.4375 7.3125 8.4375C6.975 8.4375 6.75 8.2125 6.75 7.875C6.75 6.6375 7.7625 5.625 9 5.625C10.2375 5.625 11.25 6.6375 11.25 7.875C11.1937 8.60625 10.8 9.225 10.2375 9.675C9.9 10.0125 9.5625 10.35 9.5625 10.6875C9.5625 11.025 9.3375 11.25 9 11.25Z" fill="#38587A"/>
<path d="M9 12.9375C9.31066 12.9375 9.5625 12.6857 9.5625 12.375C9.5625 12.0643 9.31066 11.8125 9 11.8125C8.68934 11.8125 8.4375 12.0643 8.4375 12.375C8.4375 12.6857 8.68934 12.9375 9 12.9375Z" fill="#38587A"/>
<path d="M2.47504 16.1999C2.30629 16.0874 2.25004 15.8624 2.25004 15.6374L2.75629 12.7686C0.675039 9.33735 1.80004 4.83735 5.23129 2.81235C8.66254 0.787353 13.1625 1.8561 15.2438 5.28735C17.325 8.7186 16.2 13.2186 12.7688 15.2999C10.5188 16.6499 7.65004 16.7061 5.40004 15.3561L3.09379 16.3124C2.81254 16.3686 2.64379 16.3124 2.47504 16.1999ZM5.40004 14.1749C5.51254 14.1749 5.62504 14.2311 5.68129 14.2874C8.60629 16.1436 12.4313 15.2436 14.2313 12.3749C16.0313 9.5061 15.1875 5.62485 12.3188 3.82485C9.45004 2.02485 5.62504 2.7561 3.76879 5.6811C2.47504 7.7061 2.47504 10.3499 3.76879 12.3749C3.82504 12.4874 3.88129 12.6561 3.82504 12.7686L3.48754 14.8499L5.11879 14.1749H5.40004Z" fill="#38587A"/>
</svg>
