<svg width="18" height="18" viewBox="0 0 18 18" fill="none" xmlns="http://www.w3.org/2000/svg">
<path d="M5.38568 4.63849V3.25276C5.38568 2.70124 5.83692 2.25 6.38844 2.25H11.6028C12.1544 2.25 12.6056 2.70124 12.6056 3.25276V4.63849M15.8732 9.11981V14.4336C15.8732 14.947 15.453 15.3672 14.9396 15.3672H3.05165C2.53826 15.3672 2.11804 14.9471 2.11804 14.4336V9.15093" stroke="#38587A" stroke-miterlimit="22.9256" stroke-linecap="round" stroke-linejoin="round"/>
<path d="M7.75079 10.6919C4.4586 10.5037 1.49561 9.56227 1.49561 7.86767V5.65822C1.49561 5.14402 1.91498 4.72461 2.42922 4.72461H15.562C16.0762 4.72461 16.4956 5.14405 16.4956 5.65822V7.86767C16.4956 9.57288 13.4952 10.5155 10.1782 10.6954" stroke="#38587A" stroke-miterlimit="22.9256" stroke-linecap="round" stroke-linejoin="round"/>
<path fill-rule="evenodd" clip-rule="evenodd" d="M7.84412 9.76562H10.147V10.8393C10.147 11.4298 9.66388 11.9129 9.07337 11.9129H8.91777C8.32726 11.9129 7.84412 11.4298 7.84412 10.8393V9.76562Z" stroke="#38587A" stroke-miterlimit="22.9256" stroke-linecap="round" stroke-linejoin="round"/>
</svg>
