<svg width="20" height="20" viewBox="0 0 20 20" fill="none" xmlns="http://www.w3.org/2000/svg">
<path d="M17.9062 12.8688C18.2406 12.3469 18.4375 11.6969 18.4375 10.9375C18.4375 9.21875 16.5375 7.8125 14.0625 7.8125C10.4156 7.8125 9.975 9.0625 6.5625 9.0625C4.27813 9.0625 2.80938 8.25312 2.09063 6.95M2.09063 6.95C1.73438 6.30625 1.5625 5.61875 1.5625 5C1.5625 3.125 4.0375 1.5625 6.25 1.5625C8.93125 1.5625 10.1812 2.8125 12.8125 2.8125C14.6875 2.8125 15.8063 1.82187 15.9375 1.5625V5C15.8063 5.25937 14.6875 6.25 12.8125 6.25C10.1812 6.25 8.93125 5 6.25 5C4.6625 5 2.94063 5.80312 2.09063 6.95Z" stroke="#1C1C1C" stroke-width="0.75" stroke-miterlimit="10" stroke-linejoin="round"/>
<path d="M14.0625 11.25C10.4156 11.25 9.975 12.5 6.5625 12.5C3.15 12.5 1.5625 10 1.5625 8.125V5M14.0625 11.25C15.7531 11.25 17.175 11.9062 17.9062 12.8687C17.2906 13.8372 16.2 14.375 15 14.375C11.7719 14.375 11.3688 13.75 9.375 13.75C6.79688 13.75 5 15 5 15V18.4375C5 18.4375 6.79688 17.1875 9.375 17.1875C11.3688 17.1875 11.7719 17.8125 15 17.8125C16.85 17.8125 18.4375 16.5375 18.4375 14.375V10.9375M14.0625 11.25V9.6875M14.375 6V2.5625M6.5625 17.6844V14.2469M3.125 11.3372V9.375M4.6875 12.2094V10.625M6.25 12.4937V10M7.8125 12.4375V10.9375M9.375 12.1312V9.7M10.9375 11.6597V10.3125M12.5 11.3406V9.0625M15.625 11.4503V9.375M17.1875 12.175V10.625M8.125 17.2847V15.9375M11.25 17.4V15.9375M14.375 17.8034V16.25M17.5 16.8219V15.3125M9.6875 17.1937V15M12.8125 17.6875V15.3125M15.9375 17.6969V15.3125M12.8125 6.25V4.6875M11.25 3.75V6.25M9.6875 5.66906V4.0625M8.125 5.21531V2.8125M6.5625 5.00625V3.4375M5 5.15625V2.8125M3.4375 5.78438V4.0625" stroke="#1C1C1C" stroke-width="0.75" stroke-miterlimit="10" stroke-linejoin="round"/>
</svg>
