<svg width="20" height="20" viewBox="0 0 20 20" fill="none" xmlns="http://www.w3.org/2000/svg">
<path fill-rule="evenodd" clip-rule="evenodd" d="M4.51783 17.2487C4.73783 17.6595 5.16699 17.9162 5.63366 17.9154C5.83033 17.9162 6.02533 17.8704 6.20033 17.782L9.99366 15.7987C10.0037 15.7929 10.0153 15.7895 10.027 15.7904L13.7945 17.757C13.977 17.8554 14.1812 17.9062 14.3878 17.9054C14.4537 17.9054 14.5203 17.8995 14.5853 17.8904C15.2637 17.7795 15.727 17.1445 15.627 16.4654L14.8937 12.2904C14.8894 12.2843 14.8883 12.284 14.8879 12.2833C14.8878 12.283 14.8878 12.2827 14.8878 12.282C14.8878 12.2795 14.8937 12.2737 14.8937 12.2737L17.952 9.31536C18.4037 8.87953 18.4612 8.17703 18.0853 7.6737C17.8812 7.41036 17.582 7.23703 17.252 7.19036L13.0337 6.58203C13.0262 6.58203 13.0178 6.5737 13.0095 6.56536L11.1253 2.78203C10.9128 2.35453 10.4778 2.08453 10.0003 2.08203C9.86199 2.08203 9.72366 2.1037 9.59199 2.1487C9.27616 2.2562 9.01533 2.48286 8.86699 2.78203L6.98533 6.55453C6.98533 6.57203 6.96783 6.57953 6.95116 6.57953L2.74283 7.18786C2.48533 7.2312 2.24533 7.3462 2.05116 7.5212C1.80533 7.76203 1.66699 8.09286 1.66699 8.43786C1.66783 8.76536 1.79949 9.0787 2.03366 9.30703L5.11699 12.2737C5.12366 12.2804 5.12616 12.2895 5.12616 12.2987L4.38366 16.457C4.33949 16.7287 4.38699 17.007 4.51783 17.2487ZM9.97616 3.30453L9.98449 3.2987H10.0003L10.0078 3.3062C10.0153 3.3062 10.022 3.30786 10.0278 3.31286C10.0328 3.31786 10.0353 3.32453 10.0345 3.33203L11.9178 7.09786C12.0987 7.4687 12.4503 7.72703 12.8587 7.78953L17.077 8.40286C17.0845 8.40286 17.092 8.40453 17.0987 8.40786C17.1028 8.4087 17.1062 8.4087 17.1103 8.40786L17.1187 8.41536L17.1103 8.4337L14.052 11.3995C13.7478 11.6845 13.612 12.1062 13.6928 12.5154L14.427 16.6662L14.4103 16.682H14.3928C14.3895 16.6837 14.3862 16.6837 14.3828 16.682C14.3745 16.6812 14.3662 16.6779 14.3587 16.6737H14.3512L10.6012 14.7154C10.4212 14.622 10.2212 14.572 10.0178 14.5729C9.80866 14.5729 9.60199 14.6254 9.41699 14.7237L5.64283 16.7029C5.63866 16.7037 5.63366 16.7037 5.62949 16.7029C5.61199 16.7029 5.59699 16.6912 5.59283 16.6745V16.6579L6.32616 12.5079C6.39449 12.102 6.26116 11.6879 5.96783 11.3995L2.88449 8.4412C2.88366 8.4287 2.88533 8.41786 2.89199 8.40703L2.94283 8.39036L7.13449 7.78953C7.54283 7.7262 7.89366 7.4687 8.07533 7.09786L9.95949 3.32286C9.96366 3.31536 9.96866 3.3087 9.97616 3.30453Z" fill="#1C1C1C"/>
</svg>
