<svg width="14" height="14" viewBox="0 0 14 14" fill="none" xmlns="http://www.w3.org/2000/svg">
<path d="M7.29146 4.72216H6.41646V8.22216L9.18729 9.88466L9.62479 9.16716L7.29146 7.78466V4.72216ZM10.113 1.11133L12.8005 3.35424L12.0538 4.24966L9.36462 2.00791L10.113 1.11133ZM3.88654 1.11133L4.63437 2.00733L1.94637 4.24966L1.19971 3.35366L3.88654 1.11133ZM6.99979 2.38883C4.10062 2.38883 1.74979 4.73966 1.74979 7.63883C1.74979 10.538 4.10062 12.8888 6.99979 12.8888C9.89896 12.8888 12.2498 10.538 12.2498 7.63883C12.2498 4.73966 9.89896 2.38883 6.99979 2.38883ZM6.99979 11.7222C4.74812 11.7222 2.91646 9.89049 2.91646 7.63883C2.91646 5.38716 4.74812 3.55549 6.99979 3.55549C9.25146 3.55549 11.0831 5.38716 11.0831 7.63883C11.0831 9.89049 9.25146 11.7222 6.99979 11.7222Z" fill="#2E2E2F"/>
</svg>
