<svg width="18" height="18" viewBox="0 0 18 18" fill="none" xmlns="http://www.w3.org/2000/svg">
<path d="M9 1.3125C10.8773 1.31254 12.4182 2.79496 12.5127 4.64941L12.5176 4.83008C12.5101 6.7374 11.0178 8.27894 9.12988 8.33984H9.05957C9.01498 8.33611 8.97029 8.33536 8.92773 8.33887C6.95737 8.27324 5.48246 6.72983 5.48242 4.83008C5.48242 2.89219 7.06211 1.3125 9 1.3125ZM9 1.6875C7.27039 1.6875 5.85742 3.10047 5.85742 4.83008C5.85746 6.53221 7.1877 7.90525 8.88184 7.96484L8.92578 7.96582L8.95801 7.95898C8.96579 7.95861 8.97729 7.95899 8.99219 7.95898C9.0255 7.95898 9.06705 7.96084 9.10645 7.96387L9.12891 7.96582L9.15234 7.96484C10.8236 7.88799 12.134 6.51466 12.1426 4.83203V4.83008C12.1426 3.1005 10.7296 1.68754 9 1.6875Z" fill="#4B4F63" stroke="#4B4F63" stroke-width="0.75"/>
<path d="M9.12721 16.9125C7.65721 16.9125 6.17971 16.5375 5.06221 15.7875C4.01971 15.0975 3.44971 14.1525 3.44971 13.125C3.44971 12.0975 4.01971 11.145 5.06221 10.4475C7.31221 8.955 10.9572 8.955 13.1922 10.4475C14.2272 11.1375 14.8047 12.0825 14.8047 13.11C14.8047 14.1375 14.2347 15.09 13.1922 15.7875C12.0672 16.5375 10.5972 16.9125 9.12721 16.9125ZM5.68471 11.3925C4.96471 11.8725 4.57471 12.4875 4.57471 13.1325C4.57471 13.77 4.97221 14.385 5.68471 14.8575C7.55221 16.11 10.7022 16.11 12.5697 14.8575C13.2897 14.3775 13.6797 13.7625 13.6797 13.1175C13.6797 12.48 13.2822 11.865 12.5697 11.3925C10.7022 10.1475 7.55221 10.1475 5.68471 11.3925Z" fill="#4B4F63"/>
</svg>
