<svg width="26" height="25" viewBox="0 0 26 25" fill="none" xmlns="http://www.w3.org/2000/svg">
<g clip-path="url(#clip0_2152_21200)">
<path fill-rule="evenodd" clip-rule="evenodd" d="M13.5 4C8.52945 4 4.5 8.02941 4.5 13C4.5 17.9705 8.52945 22 13.5 22C18.4706 22 22.5 17.9705 22.5 13C22.5 8.02941 18.4706 4 13.5 4ZM13.5 20.2C9.52993 20.2 6.30001 16.9701 6.30001 13C6.30001 9.02988 9.52988 5.80001 13.5 5.80001C17.4701 5.80001 20.7 9.02988 20.7 13C20.7 16.9701 17.4701 20.2 13.5 20.2ZM14.627 9.4C14.627 10.0526 14.1519 10.525 13.5091 10.525C12.8404 10.525 12.3769 10.0525 12.3769 9.38751C12.3769 8.74837 12.853 8.27502 13.5091 8.27502C14.1519 8.27502 14.627 8.74837 14.627 9.4ZM12.602 12.1H14.4019V17.5H12.602V12.1Z" fill="#2176FF"/>
</g>
<defs>
<clipPath id="clip0_2152_21200">
<rect width="18" height="18" fill="white" transform="translate(4.5 4)"/>
</clipPath>
</defs>
</svg>
