<svg width="28" height="28" viewBox="0 0 28 28" fill="none" xmlns="http://www.w3.org/2000/svg">
<path d="M14 13C13.7348 13 13.4804 13.1054 13.2929 13.2929C13.1054 13.4804 13 13.7348 13 14V18C13 18.2652 13.1054 18.5196 13.2929 18.7071C13.4804 18.8946 13.7348 19 14 19C14.2652 19 14.5196 18.8946 14.7071 18.7071C14.8946 18.5196 15 18.2652 15 18V14C15 13.7348 14.8946 13.4804 14.7071 13.2929C14.5196 13.1054 14.2652 13 14 13ZM14.38 9.08C14.1365 8.97998 13.8635 8.97998 13.62 9.08C13.4973 9.12759 13.3851 9.19896 13.29 9.29C13.2017 9.3872 13.1306 9.49881 13.08 9.62C13.024 9.73868 12.9966 9.86882 13 10C12.9992 10.1316 13.0245 10.2621 13.0742 10.3839C13.124 10.5057 13.1973 10.6166 13.29 10.71C13.3872 10.7983 13.4988 10.8694 13.62 10.92C13.7715 10.9822 13.936 11.0063 14.0989 10.9901C14.2619 10.9739 14.4184 10.9179 14.5547 10.8271C14.691 10.7362 14.8029 10.6133 14.8805 10.4691C14.9582 10.3249 14.9992 10.1638 15 10C14.9963 9.73523 14.8927 9.48163 14.71 9.29C14.6149 9.19896 14.5028 9.12759 14.38 9.08ZM14 4C12.0222 4 10.0888 4.58649 8.4443 5.6853C6.79981 6.78412 5.51809 8.3459 4.76121 10.1732C4.00433 12.0004 3.8063 14.0111 4.19215 15.9509C4.578 17.8907 5.53041 19.6725 6.92894 21.0711C8.32746 22.4696 10.1093 23.422 12.0491 23.8078C13.9889 24.1937 15.9996 23.9957 17.8268 23.2388C19.6541 22.4819 21.2159 21.2002 22.3147 19.5557C23.4135 17.9112 24 15.9778 24 14C24 12.6868 23.7413 11.3864 23.2388 10.1732C22.7362 8.95991 21.9997 7.85752 21.0711 6.92893C20.1425 6.00035 19.0401 5.26375 17.8268 4.7612C16.6136 4.25866 15.3132 4 14 4ZM14 22C12.4178 22 10.871 21.5308 9.55544 20.6518C8.23985 19.7727 7.21447 18.5233 6.60897 17.0615C6.00347 15.5997 5.84504 13.9911 6.15372 12.4393C6.4624 10.8874 7.22433 9.46196 8.34315 8.34314C9.46197 7.22432 10.8874 6.4624 12.4393 6.15372C13.9911 5.84504 15.5997 6.00346 17.0615 6.60896C18.5233 7.21446 19.7727 8.23984 20.6518 9.55544C21.5308 10.871 22 12.4177 22 14C22 16.1217 21.1571 18.1566 19.6569 19.6568C18.1566 21.1571 16.1217 22 14 22Z" fill="#3E3E40"/>
</svg>
