<svg width="29" height="29" viewBox="0 0 29 29" fill="none" xmlns="http://www.w3.org/2000/svg">
<path fill-rule="evenodd" clip-rule="evenodd" d="M14.5613 26.3248C8.19451 26.3248 3.0332 21.1635 3.0332 14.7967C3.0332 8.42986 8.19451 3.26855 14.5613 3.26855C17.6188 3.26855 20.551 4.48312 22.7129 6.64506C24.8749 8.807 26.0894 11.7392 26.0894 14.7967C26.0894 21.1635 20.9281 26.3248 14.5613 26.3248ZM21.4787 14.7968C21.4787 15.4335 20.9626 15.9496 20.3259 15.9496H15.7147V20.5609C15.7147 21.1975 15.1986 21.7137 14.5619 21.7137C13.9252 21.7137 13.4091 21.1975 13.4091 20.5609V15.9496H8.79782C8.16114 15.9496 7.64501 15.4335 7.64501 14.7968C7.64501 14.1601 8.16114 13.644 8.79782 13.644H13.4091V9.03275C13.4091 8.39607 13.9252 7.87994 14.5619 7.87994C15.1986 7.87994 15.7147 8.39607 15.7147 9.03275V13.644H20.3259C20.9626 13.644 21.4787 14.1601 21.4787 14.7968ZM14.5607 5.57404C19.6542 5.57404 23.7832 9.70308 23.7832 14.7965C23.7832 17.2425 22.8116 19.5883 21.082 21.3178C19.3525 23.0474 17.0067 24.019 14.5607 24.019C9.46731 24.019 5.33826 19.89 5.33826 14.7965C5.33826 9.70308 9.46731 5.57404 14.5607 5.57404Z" fill="white"/>
</svg>
