<svg width="25" height="25" viewBox="0 0 25 25" fill="none" xmlns="http://www.w3.org/2000/svg">
<path fill-rule="evenodd" clip-rule="evenodd" d="M16.4999 18.2006C16.503 17.8158 16.36 17.4441 16.0999 17.1606L11.8479 12.6666L16.0949 8.17261C16.635 7.58642 16.635 6.68381 16.0949 6.09761C15.8429 5.82274 15.4872 5.66623 15.1144 5.66623C14.7415 5.66623 14.3858 5.82274 14.1339 6.09761L8.90686 11.6296C8.36417 12.2137 8.36417 13.1176 8.90686 13.7016L14.1339 19.2356C14.3858 19.5105 14.7415 19.667 15.1144 19.667C15.4872 19.667 15.8429 19.5105 16.0949 19.2356C16.3565 18.9546 16.5014 18.5846 16.4999 18.2006Z" fill="#C1C7D0"/>
</svg>
