<svg width="32" height="32" viewBox="0 0 32 32" fill="none" xmlns="http://www.w3.org/2000/svg">
<path d="M16 6C14.0222 6 12.0888 6.58649 10.4443 7.6853C8.79981 8.78412 7.51809 10.3459 6.76121 12.1732C6.00433 14.0004 5.8063 16.0111 6.19215 17.9509C6.578 19.8907 7.53041 21.6725 8.92894 23.0711C10.3275 24.4696 12.1093 25.422 14.0491 25.8078C15.9889 26.1937 17.9996 25.9957 19.8268 25.2388C21.6541 24.4819 23.2159 23.2002 24.3147 21.5557C25.4135 19.9112 26 17.9778 26 16C26 14.6868 25.7413 13.3864 25.2388 12.1732C24.7362 10.9599 23.9997 9.85752 23.0711 8.92893C22.1425 8.00035 21.0401 7.26375 19.8268 6.7612C18.6136 6.25866 17.3132 6 16 6ZM16 24C14.4178 24 12.871 23.5308 11.5554 22.6518C10.2398 21.7727 9.21447 20.5233 8.60897 19.0615C8.00347 17.5997 7.84504 15.9911 8.15372 14.4393C8.4624 12.8874 9.22433 11.462 10.3431 10.3431C11.462 9.22432 12.8874 8.4624 14.4393 8.15372C15.9911 7.84504 17.5997 8.00346 19.0615 8.60896C20.5233 9.21446 21.7727 10.2398 22.6518 11.5554C23.5308 12.871 24 14.4177 24 16C24 18.1217 23.1571 20.1566 21.6569 21.6568C20.1566 23.1571 18.1217 24 16 24ZM20 15H12C11.7348 15 11.4804 15.1054 11.2929 15.2929C11.1054 15.4804 11 15.7348 11 16C11 16.2652 11.1054 16.5196 11.2929 16.7071C11.4804 16.8946 11.7348 17 12 17H20C20.2652 17 20.5196 16.8946 20.7071 16.7071C20.8946 16.5196 21 16.2652 21 16C21 15.7348 20.8946 15.4804 20.7071 15.2929C20.5196 15.1054 20.2652 15 20 15Z" fill="#3E3E40"/>
</svg>
