<svg width="16" height="16" viewBox="0 0 16 16" fill="none" xmlns="http://www.w3.org/2000/svg">
<g clip-path="url(#clip0_2240_8586)">
<path d="M11.8303 1.67285V2.96976M4.04883 1.67285V2.96976" stroke="#252522" stroke-width="0.972684" stroke-linecap="round" stroke-linejoin="round"/>
<path opacity="0.4" d="M7.93661 8.80566H7.94245M7.93661 11.3995H7.94245M10.5275 8.80566H10.5334M5.3457 8.80566H5.35152M5.3457 11.3995H5.35152" stroke="#252522" stroke-width="1.29691" stroke-linecap="round" stroke-linejoin="round"/>
<path d="M2.42773 5.56348H13.4515" stroke="#252522" stroke-width="0.972684" stroke-linecap="round" stroke-linejoin="round"/>
<path d="M1.7793 8.3151C1.7793 5.48961 1.7793 4.07684 2.59124 3.19907C3.40319 2.32129 4.70999 2.32129 7.3236 2.32129H8.55566C11.1693 2.32129 12.4761 2.32129 13.288 3.19907C14.1 4.07684 14.1 5.48961 14.1 8.3151V8.64815C14.1 11.4737 14.1 12.8864 13.288 13.7642C12.4761 14.642 11.1693 14.642 8.55566 14.642H7.3236C4.70999 14.642 3.40319 14.642 2.59124 13.7642C1.7793 12.8864 1.7793 11.4737 1.7793 8.64815V8.3151Z" stroke="#252522" stroke-width="0.972684" stroke-linejoin="round"/>
<path d="M2.10352 5.56348H13.7757" stroke="#252522" stroke-width="0.972684" stroke-linejoin="round"/>
</g>
<defs>
<clipPath id="clip0_2240_8586">
<rect width="15.5629" height="15.5629" fill="white" transform="translate(0.158203 0.375977)"/>
</clipPath>
</defs>
</svg>
