<svg width="28" height="22" viewBox="0 0 28 22" fill="none" xmlns="http://www.w3.org/2000/svg">
<path fill-rule="evenodd" clip-rule="evenodd" d="M19.5 12.25C19.5 15.2876 17.0376 17.75 14 17.75C10.9624 17.75 8.5 15.2876 8.5 12.25C8.5 9.21243 10.9624 6.75 14 6.75C17.0376 6.75 19.5 9.21243 19.5 12.25ZM17.5 12.25C17.5 14.183 15.933 15.75 14 15.75C12.067 15.75 10.5 14.183 10.5 12.25C10.5 10.317 12.067 8.75 14 8.75C15.933 8.75 17.5 10.317 17.5 12.25Z" fill="white"/>
<path fill-rule="evenodd" clip-rule="evenodd" d="M10.2208 0.5C9.3599 0.5 8.59562 1.05086 8.32339 1.86754L7.77924 3.5H3.5C1.84315 3.5 0.5 4.84315 0.5 6.5V19C0.5 20.6569 1.84315 22 3.5 22H24.5C26.1569 22 27.5 20.6569 27.5 19V6.5C27.5 4.84315 26.1569 3.5 24.5 3.5H20.2208L19.6766 1.86754C19.4044 1.05086 18.6401 0.5 17.7792 0.5H10.2208ZM10.2208 2.5H17.7792L18.3234 4.13246C18.5956 4.94914 19.3599 5.5 20.2208 5.5H24.5C25.0523 5.5 25.5 5.94772 25.5 6.5V19C25.5 19.5523 25.0523 20 24.5 20H3.5C2.94772 20 2.5 19.5523 2.5 19V6.5C2.5 5.94772 2.94772 5.5 3.5 5.5H7.77924C8.6401 5.5 9.40438 4.94914 9.67661 4.13246L10.2208 2.5Z" fill="white"/>
</svg>
