<svg width="22" height="21" viewBox="0 0 22 21" fill="none" xmlns="http://www.w3.org/2000/svg">
<path d="M7 12H15M7 7H11M5.099 17.5C3.79967 17.372 2.824 16.9813 2.172 16.328C1 15.157 1 13.271 1 9.5V9C1 5.229 1 3.343 2.172 2.172C3.344 1.001 5.229 1 9 1H13C16.771 1 18.657 1 19.828 2.172C20.999 3.344 21 5.229 21 9V9.5C21 13.271 21 15.157 19.828 16.328C18.656 17.499 16.771 17.5 13 17.5C12.44 17.512 11.993 17.555 11.555 17.655C10.356 17.931 9.246 18.545 8.15 19.079C6.587 19.841 5.806 20.222 5.316 19.865C4.378 19.167 5.295 17.002 5.5 16" stroke="white" stroke-width="1.7" stroke-linecap="round" stroke-linejoin="round"/>
</svg>
