<svg width="15" height="15" viewBox="0 0 15 15" fill="none" xmlns="http://www.w3.org/2000/svg">
<path d="M8.07808 5.63769H7.20308V9.13769L9.97391 10.8002L10.4114 10.0827L8.07808 8.70019V5.63769ZM10.8997 2.02686L13.5871 4.26977L12.8404 5.16519L10.1512 2.92344L10.8997 2.02686ZM4.67316 2.02686L5.421 2.92286L2.73299 5.16519L1.98633 4.26919L4.67316 2.02686ZM7.78641 3.30436C4.88724 3.30436 2.53641 5.65519 2.53641 8.55436C2.53641 11.4535 4.88724 13.8044 7.78641 13.8044C10.6856 13.8044 13.0364 11.4535 13.0364 8.55436C13.0364 5.65519 10.6856 3.30436 7.78641 3.30436ZM7.78641 12.6377C5.53474 12.6377 3.70308 10.806 3.70308 8.55436C3.70308 6.30269 5.53474 4.47102 7.78641 4.47102C10.0381 4.47102 11.8697 6.30269 11.8697 8.55436C11.8697 10.806 10.0381 12.6377 7.78641 12.6377Z" fill="#2E2E2F"/>
</svg>
