<svg width="18" height="20" viewBox="0 0 18 20" fill="none" xmlns="http://www.w3.org/2000/svg">
<path fill-rule="evenodd" clip-rule="evenodd" d="M11.4244 0.0253906H5.72442V1.92539H11.4244V0.0253906ZM7.62442 12.3754H9.52442V6.67539H7.62442V12.3754ZM15.2529 6.09589L16.6019 4.74689C16.1934 4.26239 15.7469 3.80639 15.2624 3.40739L13.9134 4.75639C12.4409 3.57839 10.5884 2.87539 8.57442 2.87539C3.85291 2.87539 0.0244141 6.70389 0.0244141 11.4254C0.0244141 16.1469 3.84342 19.9754 8.57442 19.9754C13.3054 19.9754 17.1244 16.1469 17.1244 11.4254C17.1244 9.41139 16.4214 7.55889 15.2529 6.09589ZM8.57442 18.0754C4.89792 18.0754 1.92442 15.1019 1.92442 11.4254C1.92442 7.74889 4.89792 4.77539 8.57442 4.77539C12.2509 4.77539 15.2244 7.74889 15.2244 11.4254C15.2244 15.1019 12.2509 18.0754 8.57442 18.0754Z" fill="#004BFE"/>
</svg>
