<svg width="160" height="161" viewBox="0 0 160 161" fill="none" xmlns="http://www.w3.org/2000/svg">
<path d="M100.794 17.0411L102.169 17.3286C113.75 19.7348 123.206 28.1598 126.419 39.4098C126.831 40.8598 127.137 42.3348 127.331 43.8286C128.731 54.5973 124.231 65.9911 115.794 73.0286C110.812 77.1536 104.456 80.0786 101.344 85.7161C97.2998 93.0411 100.256 102.01 103.294 109.753C106.325 117.497 109.262 126.478 105.181 133.791C102.65 138.366 97.7186 141.272 92.6561 142.76C79.2498 146.71 64.2373 141.71 54.2623 132.135C44.2936 122.56 38.9123 109.041 36.9811 95.3973C34.2623 76.2848 38.1436 55.8223 49.8248 40.2286C61.4998 24.6348 81.3998 14.7036 100.794 17.0411Z" fill="#F6F6F6"/>
<path d="M58.7441 68.5352V98.9539C58.7441 106.122 58.7441 109.71 61.0628 111.935C66.2628 116.929 97.7566 117.86 103.925 111.935C106.244 109.71 106.244 106.122 106.244 98.9539V68.5352" stroke="#004956" stroke-width="2.5"/>
<path d="M59.0621 81.7535L47.0433 70.0785C44.2933 67.416 42.9121 66.0847 42.9121 64.4285C42.9121 62.7722 44.2871 61.441 47.0433 58.7785L54.9621 51.1097C56.3371 49.7785 57.0183 49.116 57.8371 48.6285C58.6558 48.141 59.5746 47.841 61.4183 47.2472L67.9308 45.1472C68.8808 44.841 69.3621 44.6847 69.6808 44.8722C70.0058 45.0597 70.1058 45.591 70.3121 46.6535C71.3808 52.2222 76.4308 56.4347 82.4933 56.4347C88.5558 56.4347 93.5996 52.216 94.6746 46.6535C94.8808 45.591 94.9808 45.0597 95.3058 44.8722C95.6308 44.6847 96.1058 44.841 97.0558 45.1472L103.569 47.2472C105.412 47.841 106.331 48.141 107.15 48.6285C107.969 49.116 108.656 49.7847 110.025 51.1097L117.944 58.7785C120.694 61.441 122.075 62.7722 122.075 64.4285C122.075 66.0847 120.7 67.416 117.944 70.0785L105.919 81.7597" stroke="#004956" stroke-width="2.5"/>
<path d="M140.744 102.197H126.363L123.963 104.597V118.978L126.363 121.378H140.744L143.144 118.978V104.597L140.744 102.197Z" fill="#BAF3E6" stroke="#004956" stroke-width="2.5"/>
<path d="M128.756 109.384C128.406 107.503 129.637 107.059 133.5 106.984M138.244 109.39C138.575 107.359 137.094 107.072 133.5 106.99V116.578M131.725 116.578H135.281" stroke="#004956" stroke-width="2.5" stroke-linecap="round" stroke-linejoin="round"/>
<path d="M144.337 99.7988H141.937C141.275 99.7988 140.737 100.336 140.737 100.999V103.399C140.737 104.061 141.275 104.599 141.937 104.599H144.337C145 104.599 145.537 104.061 145.537 103.399V100.999C145.537 100.336 145 99.7988 144.337 99.7988Z" fill="white" stroke="#004B58" stroke-width="2.5" stroke-linecap="round" stroke-linejoin="round"/>
<path d="M125.162 99.7988H122.762C122.1 99.7988 121.562 100.336 121.562 100.999V103.399C121.562 104.061 122.1 104.599 122.762 104.599H125.162C125.825 104.599 126.362 104.061 126.362 103.399V100.999C126.362 100.336 125.825 99.7988 125.162 99.7988Z" fill="white" stroke="#004B58" stroke-width="2.5" stroke-linecap="round" stroke-linejoin="round"/>
<path d="M144.337 118.979H141.937C141.275 118.979 140.737 119.517 140.737 120.179V122.579C140.737 123.242 141.275 123.779 141.937 123.779H144.337C145 123.779 145.537 123.242 145.537 122.579V120.179C145.537 119.517 145 118.979 144.337 118.979Z" fill="white" stroke="#004B58" stroke-width="2.5" stroke-linecap="round" stroke-linejoin="round"/>
<path d="M125.162 118.979H122.762C122.1 118.979 121.562 119.517 121.562 120.179V122.579C121.562 123.242 122.1 123.779 122.762 123.779H125.162C125.825 123.779 126.362 123.242 126.362 122.579V120.179C126.362 119.517 125.825 118.979 125.162 118.979Z" fill="white" stroke="#004B58" stroke-width="2.5" stroke-linecap="round" stroke-linejoin="round"/>
<path d="M134.769 32.3789H146.756" stroke="#004956" stroke-width="2.5" stroke-linecap="round" stroke-linejoin="round"/>
<path d="M134.769 39.5664H146.756" stroke="#004956" stroke-width="2.5" stroke-linecap="round" stroke-linejoin="round"/>
<path d="M134.769 46.7598H146.756" stroke="#004956" stroke-width="2.5" stroke-linecap="round" stroke-linejoin="round"/>
<path d="M125.175 34.0472C125.175 34.0472 126.375 34.8285 126.975 35.9722C126.975 35.9722 128.775 31.4785 131.169 29.9785" stroke="#004956" stroke-width="2.5" stroke-linecap="round" stroke-linejoin="round"/>
<path d="M125.175 47.229C125.175 47.229 126.375 48.0102 126.975 49.1539C126.975 49.1539 128.775 44.6602 131.169 43.1602" stroke="#004956" stroke-width="2.5" stroke-linecap="round" stroke-linejoin="round"/>
<path d="M32.4247 80.5215V90.109M37.2184 85.3153H27.6309" stroke="#004956" stroke-width="2.5" stroke-linecap="round" stroke-linejoin="round"/>
<path d="M13.25 85.3153C13.25 83.6403 13.25 82.7965 13.575 82.159C13.8625 81.5965 14.3187 81.134 14.8875 80.8465C15.5312 80.5215 16.3687 80.5215 18.0437 80.5215C19.7187 80.5215 20.5625 80.5215 21.2 80.8465C21.7625 81.134 22.225 81.5903 22.5125 82.159C22.8375 82.8028 22.8375 83.6403 22.8375 85.3153C22.8375 86.9903 22.8375 87.834 22.5125 88.4715C22.225 89.034 21.7687 89.4965 21.2 89.784C20.5562 90.109 19.7187 90.109 18.0437 90.109C16.3687 90.109 15.525 90.109 14.8875 89.784C14.325 89.4965 13.8625 89.0403 13.575 88.4715C13.25 87.8278 13.25 86.9903 13.25 85.3153Z" stroke="#004956" stroke-width="2.5" stroke-linecap="round" stroke-linejoin="round"/>
<path d="M13.25 99.698C13.25 98.023 13.25 97.1793 13.575 96.5418C13.8625 95.9793 14.3187 95.5168 14.8875 95.2293C15.5312 94.9043 16.3687 94.9043 18.0437 94.9043C19.7187 94.9043 20.5625 94.9043 21.2 95.2293C21.7625 95.5168 22.225 95.973 22.5125 96.5418C22.8375 97.1855 22.8375 98.023 22.8375 99.698C22.8375 101.373 22.8375 102.217 22.5125 102.854C22.225 103.417 21.7687 103.879 21.2 104.167C20.5562 104.492 19.7187 104.492 18.0437 104.492C16.3687 104.492 15.525 104.492 14.8875 104.167C14.325 103.879 13.8625 103.423 13.575 102.854C13.25 102.21 13.25 101.373 13.25 99.698Z" stroke="#004956" stroke-width="2.5" stroke-linecap="round" stroke-linejoin="round"/>
<path d="M27.6309 99.698C27.6309 98.023 27.6309 97.1793 27.9559 96.5418C28.2434 95.9793 28.6997 95.5168 29.2684 95.2293C29.9122 94.9043 30.7497 94.9043 32.4247 94.9043C34.0997 94.9043 34.9434 94.9043 35.5809 95.2293C36.1434 95.5168 36.6059 95.973 36.8934 96.5418C37.2184 97.1855 37.2184 98.023 37.2184 99.698C37.2184 101.373 37.2184 102.217 36.8934 102.854C36.6059 103.417 36.1497 103.879 35.5809 104.167C34.9372 104.492 34.0997 104.492 32.4247 104.492C30.7497 104.492 29.9059 104.492 29.2684 104.167C28.7059 103.879 28.2434 103.423 27.9559 102.854C27.6309 102.21 27.6309 101.373 27.6309 99.698Z" stroke="#004956" stroke-width="2.5" stroke-linecap="round" stroke-linejoin="round"/>
</svg>
