<svg width="29" height="28" viewBox="0 0 29 28" fill="none" xmlns="http://www.w3.org/2000/svg">
<path d="M26.2705 5.85008V10.4613C26.2705 11.098 25.7544 11.6141 25.1177 11.6141C24.481 11.6141 23.9649 11.098 23.9649 10.4613V8.75516L16.7598 16.9862C16.5413 17.235 16.2263 17.3778 15.8952 17.3782C15.5752 17.3864 15.2661 17.2611 15.0421 17.0323L12.4598 14.427L5.19713 22.7503C4.93125 23.0804 4.50568 23.238 4.08894 23.1606C3.6722 23.0833 3.33152 22.7835 3.20182 22.3799C3.07211 21.9764 3.1743 21.5343 3.46791 21.2286L11.5376 12.0061C11.7475 11.7656 12.0476 11.623 12.3666 11.612C12.6856 11.6011 12.9948 11.7229 13.2207 11.9484L15.8952 14.5307L22.4316 7.00289H20.5065C19.8698 7.00289 19.3536 6.48676 19.3536 5.85008C19.3536 5.2134 19.8698 4.69727 20.5065 4.69727H25.1177C25.7544 4.69727 26.2705 5.2134 26.2705 5.85008Z" fill="#46C23B"/>
</svg>
