<svg width="16" height="17" viewBox="0 0 16 17" fill="none" xmlns="http://www.w3.org/2000/svg">
<path d="M12.7998 12.1479H11.3093C10.728 12.1479 10.1824 11.8672 9.84457 11.3941L9.33283 10.6777M3.57191 5.82218H5.06242C5.64374 5.82218 6.18926 6.10292 6.52714 6.57595L7.09981 7.37767M4.45075 4.50391L3.19981 5.82218L4.45075 7.14045M4.45075 10.8594L3.19981 12.1776L4.45075 13.4959M12.7998 6.0257H11.3093C10.728 6.0257 10.1824 6.30644 9.84457 6.77947L6.52714 11.4239C6.18926 11.8969 5.64374 12.1776 5.06242 12.1776H3.57191" stroke="#144799" stroke-width="1.5" stroke-linecap="round" stroke-linejoin="round"/>
<circle cx="2.66667" cy="2.66667" r="2.66667" transform="matrix(-1 0 0 1 15.7334 0.5)" fill="#FB7181"/>
</svg>
