<svg width="15" height="15" viewBox="0 0 15 15" fill="none" xmlns="http://www.w3.org/2000/svg">
<path d="M9.98262 8.30879C12.4955 8.30879 14.5326 7.68199 14.5326 6.90879C14.5326 6.13559 12.4955 5.50879 9.98262 5.50879C7.46972 5.50879 5.43262 6.13559 5.43262 6.90879C5.43262 7.68199 7.46972 8.30879 9.98262 8.30879Z" stroke="black" stroke-width="0.7" stroke-linecap="round" stroke-linejoin="round"/>
<path d="M14.5326 10.0586C14.5326 10.8321 12.4956 11.4586 9.98262 11.4586C7.46962 11.4586 5.43262 10.8321 5.43262 10.0586" stroke="black" stroke-width="0.7" stroke-linecap="round" stroke-linejoin="round"/>
<path d="M14.5326 6.9082V13.0682C14.5326 13.9187 12.4956 14.6082 9.98262 14.6082C7.46962 14.6082 5.43262 13.9187 5.43262 13.0682V6.9082" stroke="black" stroke-width="0.7" stroke-linecap="round" stroke-linejoin="round"/>
<path d="M5.08223 3.4084C7.59512 3.4084 9.63223 2.7816 9.63223 2.0084C9.63223 1.2352 7.59512 0.608398 5.08223 0.608398C2.56933 0.608398 0.532227 1.2352 0.532227 2.0084C0.532227 2.7816 2.56933 3.4084 5.08223 3.4084Z" stroke="black" stroke-width="0.7" stroke-linecap="round" stroke-linejoin="round"/>
<path d="M3.33223 6.90879C2.00783 6.74779 0.791227 6.33129 0.532227 5.50879M3.33223 10.4088C2.00783 10.2478 0.791227 9.83129 0.532227 9.00879" stroke="black" stroke-width="0.7" stroke-linecap="round" stroke-linejoin="round"/>
<path d="M3.33223 13.9088C2.00783 13.7478 0.791227 13.3306 0.532227 12.5088V2.00879M9.63223 3.40879V2.00879" stroke="black" stroke-width="0.7" stroke-linecap="round" stroke-linejoin="round"/>
</svg>
