<svg width="20" height="20" viewBox="0 0 20 20" fill="none" xmlns="http://www.w3.org/2000/svg">
<path d="M15.3139 15.3454C17.2239 15.3454 18.7723 12.2487 18.7723 8.42858C18.7723 4.6085 17.2239 1.51172 15.3139 1.51172C13.4039 1.51172 11.8555 4.6085 11.8555 8.42858C11.8555 12.2487 13.4039 15.3454 15.3139 15.3454Z" stroke="black" stroke-width="1.29691" stroke-linecap="round" stroke-linejoin="round"/>
<path d="M15.3142 1.51172C12.6313 1.51172 7.07016 3.56776 3.8763 4.84392C2.41338 5.42839 1.48047 6.85327 1.48047 8.42858C1.48047 10.0039 2.41425 11.4288 3.8763 12.0132C7.07016 13.2894 12.6313 15.3454 15.3142 15.3454M9.26194 18.8039L7.58201 17.8788C6.68514 17.3824 5.95764 16.6286 5.49343 15.7147C5.02922 14.8007 4.84962 13.7686 4.97781 12.7516" stroke="black" stroke-width="1.29691" stroke-linecap="round" stroke-linejoin="round"/>
</svg>
