<svg width="16" height="18" viewBox="0 0 16 18" fill="none" xmlns="http://www.w3.org/2000/svg">
<path d="M13.5909 10.6364V13.9091H11.9545V10.6364H13.5909ZM3.77273 10.6364V13.9091H2.95455C2.50455 13.9091 2.13636 13.5409 2.13636 13.0909V10.6364H3.77273ZM7.86364 0C3.79727 0 0.5 3.29727 0.5 7.36364V13.0909C0.5 14.4491 1.59636 15.5455 2.95455 15.5455H5.40909V9H2.13636V7.36364C2.13636 4.19727 4.69727 1.63636 7.86364 1.63636C11.03 1.63636 13.5909 4.19727 13.5909 7.36364V9H10.3182V15.5455H13.5909V16.3636H7.86364V18H12.7727C14.1309 18 15.2273 16.9036 15.2273 15.5455V7.36364C15.2273 3.29727 11.93 0 7.86364 0Z" fill="#2176FF"/>
</svg>
