<svg width="26" height="25" viewBox="0 0 26 25" fill="none" xmlns="http://www.w3.org/2000/svg">
<path d="M19 9.857V11M19 9.857C18.5224 9.85883 18.0516 9.74389 17.6286 9.52219C17.2056 9.3005 16.8432 8.97876 16.573 8.585M19 9.857C19.4776 9.85883 19.9484 9.74389 20.3714 9.52219C20.7944 9.3005 21.1568 8.97876 21.427 8.585M16.573 8.585L15.5 9.285M16.573 8.585C16.2527 8.1185 16.0812 7.56589 16.0812 7C16.0812 6.43411 16.2527 5.8815 16.573 5.415M21.427 8.585L22.5 9.285M21.427 8.585C21.7473 8.1185 21.9188 7.56589 21.9188 7C21.9188 6.43411 21.7473 5.8815 21.427 5.415M19 4.143C19.4776 4.14117 19.9484 4.25611 20.3714 4.47781C20.7944 4.6995 21.1568 5.02124 21.427 5.415M19 4.143C18.5224 4.14117 18.0516 4.25611 17.6286 4.47781C17.2056 4.6995 16.8432 5.02124 16.573 5.415M19 4.143V3M21.427 5.415L22.5 4.714M16.573 5.415L15.5 4.715M3 6.5C3 5.1 3 4.4 3.272 3.865C3.51173 3.39435 3.89435 3.01173 4.365 2.772C4.9 2.5 5.6 2.5 7 2.5C8.4 2.5 9.1 2.5 9.635 2.772C10.1056 3.01173 10.4883 3.39435 10.728 3.865C11 4.4 11 5.1 11 6.5C11 7.9 11 8.6 10.728 9.135C10.4883 9.60565 10.1056 9.98827 9.635 10.228C9.1 10.5 8.4 10.5 7 10.5C5.6 10.5 4.9 10.5 4.365 10.228C3.89435 9.98827 3.51173 9.60565 3.272 9.135C3 8.6 3 7.9 3 6.5ZM3 18.5C3 17.1 3 16.4 3.272 15.865C3.5119 15.3947 3.89451 15.0125 4.365 14.773C4.9 14.5 5.6 14.5 7 14.5C8.4 14.5 9.1 14.5 9.635 14.773C10.1055 15.0125 10.4881 15.3947 10.728 15.865C11 16.4 11 17.1 11 18.5C11 19.9 11 20.6 10.728 21.135C10.4881 21.6053 10.1055 21.9875 9.635 22.227C9.1 22.5 8.4 22.5 7 22.5C5.6 22.5 4.9 22.5 4.365 22.227C3.89451 21.9875 3.5119 21.6053 3.272 21.135C3 20.6 3 19.9 3 18.5ZM15 18.5C15 17.1 15 16.4 15.273 15.865C15.5126 15.3949 15.8949 15.0126 16.365 14.773C16.9 14.5 17.6 14.5 19 14.5C20.4 14.5 21.1 14.5 21.635 14.773C22.1051 15.0126 22.4874 15.3949 22.727 15.865C23 16.4 23 17.1 23 18.5C23 19.9 23 20.6 22.727 21.135C22.4874 21.6051 22.1051 21.9874 21.635 22.227C21.1 22.5 20.4 22.5 19 22.5C17.6 22.5 16.9 22.5 16.365 22.227C15.8949 21.9874 15.5126 21.6051 15.273 21.135C15 20.6 15 19.9 15 18.5Z" stroke="#2176FF" stroke-width="1.5" stroke-linecap="round" stroke-linejoin="round"/>
</svg>
