<svg width="17" height="19" viewBox="0 0 17 19" fill="none" xmlns="http://www.w3.org/2000/svg">
<path d="M15.0762 3.90238L14.5403 12.5681C14.4037 14.7818 14.3354 15.8891 13.7796 16.6852C13.5052 17.0787 13.1519 17.4107 12.7423 17.6603C11.9151 18.1651 10.806 18.1651 8.58795 18.1651C6.36643 18.1651 5.25566 18.1651 4.4267 17.6594C4.01687 17.4094 3.66361 17.0767 3.38941 16.6826C2.83446 15.8856 2.76704 14.7766 2.63392 12.5594L2.11009 3.90238M5.99992 9.29195H11.1864M7.29653 12.6796H9.88975M0.813477 3.90238H16.3728M12.0983 3.90238L11.5088 2.68529C11.1163 1.87621 10.921 1.47253 10.583 1.22012C10.5079 1.16421 10.4284 1.11449 10.3453 1.07144C9.971 0.876953 9.52151 0.876953 8.62253 0.876953C7.70193 0.876953 7.2412 0.876953 6.86 1.07922C6.77574 1.12436 6.69536 1.1764 6.6197 1.23482C6.27739 1.49673 6.08636 1.91597 5.70429 2.75358L5.18132 3.90238" stroke="#D00416" stroke-width="1.27119" stroke-linecap="round" stroke-linejoin="round"/>
</svg>
