<svg width="20" height="16" viewBox="0 0 20 16" fill="none" xmlns="http://www.w3.org/2000/svg">
<path d="M19.4705 7.18494L18.4405 5.75494C18.21 5.43115 17.9056 5.167 17.5526 4.98439C17.1995 4.80178 16.808 4.70598 16.4105 4.70494H12.0305V2.56494C12.0305 1.9019 11.7672 1.26602 11.2983 0.797174C10.8295 0.328333 10.1936 0.0649414 9.53055 0.0649414H2.56055C1.89807 0.0667886 1.26326 0.330774 0.794821 0.799215C0.326379 1.26766 0.0623941 1.90247 0.0605469 2.56494V12.5049C0.0605469 12.9028 0.218582 13.2843 0.499887 13.5656C0.781191 13.8469 1.16272 14.0049 1.56055 14.0049H2.78055C2.85606 14.54 3.12225 15.0297 3.53015 15.3841C3.93805 15.7385 4.46021 15.9336 5.00055 15.9336C5.54088 15.9336 6.06304 15.7385 6.47094 15.3841C6.87884 15.0297 7.14504 14.54 7.22055 14.0049H12.7805C12.8561 14.54 13.1223 15.0297 13.5302 15.3841C13.9381 15.7385 14.4602 15.9336 15.0005 15.9336C15.5409 15.9336 16.063 15.7385 16.4709 15.3841C16.8788 15.0297 17.145 14.54 17.2205 14.0049H18.4405C18.8384 14.0049 19.2199 13.8469 19.5012 13.5656C19.7825 13.2843 19.9405 12.9028 19.9405 12.5049V8.63494C19.9381 8.11455 19.7739 7.60781 19.4705 7.18494ZM5.00055 14.9349C4.75332 14.9349 4.51165 14.8616 4.30608 14.7243C4.10052 14.5869 3.94031 14.3917 3.8457 14.1633C3.75109 13.9349 3.72633 13.6836 3.77457 13.4411C3.8228 13.1986 3.94185 12.9759 4.11666 12.8011C4.29148 12.6262 4.51421 12.5072 4.75668 12.459C4.99916 12.4107 5.25049 12.4355 5.4789 12.5301C5.70731 12.6247 5.90253 12.7849 6.03988 12.9905C6.17724 13.196 6.25055 13.4377 6.25055 13.6849C6.25055 14.0165 6.11885 14.3344 5.88443 14.5688C5.65001 14.8032 5.33207 14.9349 5.00055 14.9349ZM11.0305 13.0049H7.15055C7.00494 12.5491 6.71821 12.1513 6.33175 11.869C5.94529 11.5867 5.47911 11.4346 5.00055 11.4346C4.52198 11.4346 4.05581 11.5867 3.66935 11.869C3.28289 12.1513 2.99615 12.5491 2.85055 13.0049H1.56055C1.42794 13.0049 1.30076 12.9523 1.20699 12.8585C1.11323 12.7647 1.06055 12.6375 1.06055 12.5049V2.56494C1.06055 2.16712 1.21858 1.78559 1.49989 1.50428C1.78119 1.22298 2.16272 1.06494 2.56055 1.06494H9.53055C9.92837 1.06494 10.3099 1.22298 10.5912 1.50428C10.8725 1.78559 11.0305 2.16712 11.0305 2.56494V13.0049ZM15.0005 14.9349C14.7533 14.9349 14.5116 14.8616 14.3061 14.7243C14.1005 14.5869 13.9403 14.3917 13.8457 14.1633C13.7511 13.9349 13.7263 13.6836 13.7746 13.4411C13.8228 13.1986 13.9418 12.9759 14.1167 12.8011C14.2915 12.6262 14.5142 12.5072 14.7567 12.459C14.9992 12.4107 15.2505 12.4355 15.4789 12.5301C15.7073 12.6247 15.9025 12.7849 16.0399 12.9905C16.1772 13.196 16.2505 13.4377 16.2505 13.6849C16.2505 14.0165 16.1189 14.3344 15.8844 14.5688C15.65 14.8032 15.3321 14.9349 15.0005 14.9349ZM18.9405 12.5049C18.9405 12.6375 18.8879 12.7647 18.7941 12.8585C18.7003 12.9523 18.5732 13.0049 18.4405 13.0049H17.1505C17.0049 12.5491 16.7182 12.1513 16.3317 11.869C15.9453 11.5867 15.4791 11.4346 15.0005 11.4346C14.522 11.4346 14.0558 11.5867 13.6693 11.869C13.2829 12.1513 12.9962 12.5491 12.8505 13.0049H12.0305V5.70494H16.4105C16.6491 5.70654 16.884 5.76443 17.096 5.8739C17.308 5.98337 17.4911 6.14134 17.6305 6.33494L18.6605 7.76494C18.8405 8.01955 18.9382 8.32316 18.9405 8.63494V12.5049Z" fill="#797979"/>
<path d="M16.0293 8.20508H14.0293C13.8967 8.20508 13.7695 8.1524 13.6757 8.05863C13.582 7.96486 13.5293 7.83769 13.5293 7.70508C13.5293 7.57247 13.582 7.44529 13.6757 7.35152C13.7695 7.25776 13.8967 7.20508 14.0293 7.20508H16.0293C16.1619 7.20508 16.2891 7.25776 16.3828 7.35152C16.4766 7.44529 16.5293 7.57247 16.5293 7.70508C16.5293 7.83769 16.4766 7.96486 16.3828 8.05863C16.2891 8.1524 16.1619 8.20508 16.0293 8.20508Z" fill="#797979"/>
</svg>
