<svg width="252" height="251" viewBox="0 0 252 251" fill="none" xmlns="http://www.w3.org/2000/svg">
<path d="M124.77 243.25C189.581 243.25 242.121 190.531 242.121 125.5C242.121 60.4678 189.581 7.74902 124.77 7.74902C59.9595 7.74902 7.41992 60.4678 7.41992 125.5C7.41992 190.531 59.9595 243.25 124.77 243.25Z" fill="#F8F8F8"/>
<path d="M32.1187 229.206C33.3971 226.374 32.107 223.022 29.2848 221.739C26.4626 220.456 23.1377 221.713 21.8593 224.545C20.5812 227.376 21.816 230.751 24.6382 232.034C27.4604 233.315 30.8405 232.037 32.1187 229.206ZM40.4121 240.285C41.2257 238.482 40.4045 236.347 38.6083 235.531C36.812 234.715 34.696 235.514 33.8823 237.318C33.0687 239.119 33.8547 241.267 35.651 242.083C37.4472 242.899 39.5985 242.087 40.4121 240.285ZM228.538 22.7674C230.556 20.4088 230.254 16.827 227.904 14.8018C225.553 12.7766 222.01 13.0467 219.992 15.4055C217.974 17.7641 218.217 21.3505 220.567 23.3756C222.918 25.4009 226.518 25.1261 228.538 22.7674ZM233.402 35.7348C234.686 34.2337 234.495 31.954 232.998 30.665C231.503 29.376 229.248 29.548 227.964 31.0491C226.68 32.5503 226.833 34.8331 228.329 36.1219C229.826 37.4109 232.118 37.236 233.402 35.7348ZM28.121 33.9313C30.1396 31.5727 29.8383 27.991 27.4878 25.9657C25.1372 23.9406 21.5947 24.2106 19.5763 26.5694C17.558 28.9281 17.8003 32.5144 20.1507 34.5397C22.5014 36.5648 26.1028 36.29 28.121 33.9313Z" fill="#E6E6E6"/>
<path d="M214.128 114.805H25.4922L53.9215 49.9508C57.2121 41.615 65.0997 36.2334 74.0441 36.2334H165.577C174.521 36.2334 182.409 41.615 185.7 49.9508L214.128 114.805ZM39.6878 105.509H199.932L177.108 53.4315C175.238 48.6308 170.712 45.5297 165.577 45.5297H74.0441C68.9088 45.5297 64.3823 48.6308 62.513 53.4315L62.4389 53.6113L39.6878 105.509Z" fill="#CCCCCC"/>
<path d="M154.543 40.8834C154.543 45.9246 151.041 50.1379 146.347 51.2051C145.576 51.4072 144.77 51.4994 143.945 51.4994H102.579C101.754 51.4994 100.947 51.4072 100.177 51.2051C95.4644 50.1379 91.9805 45.9246 91.9805 40.8834C91.9805 34.8657 96.8506 30.249 102.579 30.249H143.945C144.77 30.249 145.576 30.3412 146.347 30.5437C151.041 31.6106 154.543 35.8422 154.543 40.8834Z" fill="url(#paint0_linear_2283_22137)"/>
<path d="M104.215 30.2527V51.5029H102.584C101.759 51.5029 100.952 51.4109 100.182 51.2088V30.5474C101.784 30.1259 103.061 30.2852 104.215 30.2527Z" fill="url(#paint1_linear_2283_22137)"/>
<path d="M114.757 30.249H110.705V51.4985H114.757V30.249Z" fill="url(#paint2_linear_2283_22137)"/>
<path d="M125.283 30.249H121.23V51.4985H125.283V30.249Z" fill="url(#paint3_linear_2283_22137)"/>
<path d="M135.803 30.249H131.77V51.4985H135.803V30.249Z" fill="url(#paint4_linear_2283_22137)"/>
<path d="M146.353 30.5437V51.2051C145.583 51.4072 144.776 51.4994 143.951 51.4994H142.301V30.249H143.951C144.776 30.249 145.583 30.3412 146.353 30.5437Z" fill="url(#paint5_linear_2283_22137)"/>
<path d="M229.393 99.7602V120.293C229.393 123.163 227.065 125.5 224.186 125.5H15.4313C12.5525 125.5 10.2422 123.163 10.2422 120.293V99.7602C10.2422 96.8899 12.5525 94.5537 15.4313 94.5537H224.186C227.065 94.5537 229.393 96.8899 229.393 99.7602Z" fill="url(#paint6_linear_2283_22137)"/>
<path d="M216.521 125.5L203.98 193.041C202.164 202.847 193.62 209.968 183.682 209.968H55.9356C45.9973 209.968 37.4712 202.847 35.6375 193.041L23.0957 125.5H216.521Z" fill="url(#paint7_linear_2283_22137)"/>
<path d="M85.0917 147.242V179.749C85.0917 184.609 81.1656 188.548 76.3223 188.548C71.4791 188.548 67.5527 184.609 67.5527 179.749V147.242C67.5527 142.382 71.4791 138.442 76.3223 138.442C81.1656 138.442 85.0917 142.382 85.0917 147.242Z" fill="url(#paint8_linear_2283_22137)"/>
<path d="M127.709 147.242V179.749C127.709 184.609 123.783 188.548 118.94 188.548C114.096 188.548 110.17 184.609 110.17 179.749V147.242C110.17 142.382 114.096 138.442 118.94 138.442C123.783 138.442 127.709 142.382 127.709 147.242Z" fill="url(#paint9_linear_2283_22137)"/>
<path d="M170.326 147.242V179.749C170.326 184.609 166.4 188.548 161.557 188.548C156.713 188.548 152.787 184.609 152.787 179.749V147.242C152.787 142.382 156.713 138.442 161.557 138.442C166.4 138.442 170.326 142.382 170.326 147.242Z" fill="url(#paint10_linear_2283_22137)"/>
<path d="M202.553 231.322C219.98 231.322 234.107 217.147 234.107 199.661C234.107 182.175 219.98 168 202.553 168C185.126 168 171 182.175 171 199.661C171 217.147 185.126 231.322 202.553 231.322Z" fill="#5B87B9" stroke="#2D496A" stroke-width="2" stroke-linecap="round" stroke-linejoin="round"/>
<path d="M210 200C210 200.552 209.552 201 209 201H197C196.448 201 196 200.552 196 200C196 199.448 196.448 199 197 199H209C209.552 199 210 199.448 210 200Z" fill="white"/>
<path d="M203 207C202.448 207 202 206.552 202 206L202 194C202 193.448 202.448 193 203 193C203.552 193 204 193.448 204 194L204 206C204 206.552 203.552 207 203 207Z" fill="white"/>
<defs>
<linearGradient id="paint0_linear_2283_22137" x1="91.9814" y1="40.8739" x2="154.542" y2="40.8739" gradientUnits="userSpaceOnUse">
<stop stop-color="#BDBDBD"/>
<stop offset="1" stop-color="#CACACA"/>
</linearGradient>
<linearGradient id="paint1_linear_2283_22137" x1="100.182" y1="40.8756" x2="104.216" y2="40.8756" gradientUnits="userSpaceOnUse">
<stop stop-color="#D6DCE8"/>
<stop offset="1" stop-color="white"/>
</linearGradient>
<linearGradient id="paint2_linear_2283_22137" x1="110.705" y1="40.8747" x2="114.757" y2="40.8747" gradientUnits="userSpaceOnUse">
<stop stop-color="#D6DCE8"/>
<stop offset="1" stop-color="white"/>
</linearGradient>
<linearGradient id="paint3_linear_2283_22137" x1="121.23" y1="40.8747" x2="125.283" y2="40.8747" gradientUnits="userSpaceOnUse">
<stop stop-color="#D6DCE8"/>
<stop offset="1" stop-color="white"/>
</linearGradient>
<linearGradient id="paint4_linear_2283_22137" x1="131.77" y1="40.8747" x2="135.803" y2="40.8747" gradientUnits="userSpaceOnUse">
<stop stop-color="#D6DCE8"/>
<stop offset="1" stop-color="white"/>
</linearGradient>
<linearGradient id="paint5_linear_2283_22137" x1="142.301" y1="40.8739" x2="146.353" y2="40.8739" gradientUnits="userSpaceOnUse">
<stop stop-color="#D6DCE8"/>
<stop offset="1" stop-color="white"/>
</linearGradient>
<linearGradient id="paint6_linear_2283_22137" x1="119.356" y1="96.5751" x2="119.886" y2="111.897" gradientUnits="userSpaceOnUse">
<stop stop-color="#EAEAEA"/>
<stop offset="1" stop-color="#CACACA"/>
</linearGradient>
<linearGradient id="paint7_linear_2283_22137" x1="119.356" y1="105.453" x2="121.466" y2="198.252" gradientUnits="userSpaceOnUse">
<stop stop-color="#E2E2E2"/>
<stop offset="1" stop-color="#E7E7E7"/>
</linearGradient>
<linearGradient id="paint8_linear_2283_22137" x1="67.552" y1="163.495" x2="85.0919" y2="163.495" gradientUnits="userSpaceOnUse">
<stop stop-color="white"/>
<stop offset="1" stop-color="#F2F2F2"/>
</linearGradient>
<linearGradient id="paint9_linear_2283_22137" x1="110.169" y1="163.495" x2="127.709" y2="163.495" gradientUnits="userSpaceOnUse">
<stop stop-color="white"/>
<stop offset="1" stop-color="#F2F2F2"/>
</linearGradient>
<linearGradient id="paint10_linear_2283_22137" x1="152.786" y1="163.495" x2="170.326" y2="163.495" gradientUnits="userSpaceOnUse">
<stop stop-color="white"/>
<stop offset="1" stop-color="#F2F2F2"/>
</linearGradient>
</defs>
</svg>
