<svg width="23" height="22" viewBox="0 0 23 22" fill="none" xmlns="http://www.w3.org/2000/svg">
<path d="M2.4668 9.49609V14.4981C2.4668 17.3281 2.4668 18.7421 3.3448 19.6211C4.2248 20.5011 5.6378 20.5011 8.4668 20.5011H14.4668C17.2948 20.5011 18.7088 20.5011 19.5878 19.6211C20.4668 18.7421 20.4668 17.3271 20.4668 14.4981V9.49609" stroke="#2176FF" stroke-width="1.5" stroke-linecap="round" stroke-linejoin="round"/>
<path d="M14.467 15.9928C13.783 16.5998 12.694 16.9928 11.467 16.9928C10.24 16.9928 9.15104 16.5998 8.46704 15.9928M9.60404 7.41775C9.32204 8.43675 8.29604 10.1938 6.34804 10.4478C4.62804 10.6728 3.32204 9.92175 2.98904 9.60775C2.62204 9.35275 1.78404 8.53775 1.57904 8.02975C1.37404 7.51975 1.61304 6.41675 1.78404 5.96675L2.46704 3.98875C2.63404 3.49175 3.02504 2.31675 3.42504 1.91875C3.82504 1.52075 4.63504 1.50375 4.96904 1.50375H11.975C13.778 1.52975 17.721 1.48775 18.5 1.50375C19.28 1.51975 19.748 2.17375 19.885 2.45375C21.048 5.26975 21.5 6.88375 21.5 7.56975C21.348 8.30375 20.72 9.68575 18.5 10.2948C16.193 10.9268 14.885 9.69675 14.475 9.22475M8.65504 9.22475C8.98004 9.62375 9.99904 10.4268 11.475 10.4468C12.952 10.4668 14.227 9.43675 14.68 8.91975C14.808 8.76675 15.085 8.31375 15.373 7.41675" stroke="#2176FF" stroke-width="1.5" stroke-linecap="round" stroke-linejoin="round"/>
</svg>
