<svg width="25" height="25" viewBox="0 0 25 25" fill="none" xmlns="http://www.w3.org/2000/svg">
<path d="M22.044 10.9669C22.348 11.3929 22.5 11.6069 22.5 11.9219C22.5 12.2379 22.348 12.4509 22.044 12.8769C20.678 14.7929 17.189 18.9219 12.5 18.9219C7.81 18.9219 4.322 14.7919 2.956 12.8769C2.652 12.4509 2.5 12.2369 2.5 11.9219C2.5 11.6059 2.652 11.3929 2.956 10.9669C4.322 9.05088 7.811 4.92188 12.5 4.92188C17.19 4.92188 20.678 9.05188 22.044 10.9669Z" stroke="black" stroke-width="1.5" stroke-linecap="round" stroke-linejoin="round"/>
<path opacity="0.4" d="M15.5 11.9219C15.5 11.1262 15.1839 10.3632 14.6213 9.80055C14.0587 9.23795 13.2956 8.92188 12.5 8.92188C11.7044 8.92188 10.9413 9.23795 10.3787 9.80055C9.81607 10.3632 9.5 11.1262 9.5 11.9219C9.5 12.7175 9.81607 13.4806 10.3787 14.0432C10.9413 14.6058 11.7044 14.9219 12.5 14.9219C13.2956 14.9219 14.0587 14.6058 14.6213 14.0432C15.1839 13.4806 15.5 12.7175 15.5 11.9219Z" stroke="#252522" stroke-width="1.5" stroke-linecap="round" stroke-linejoin="round"/>
</svg>
