<svg width="16" height="16" viewBox="0 0 16 16" fill="none" xmlns="http://www.w3.org/2000/svg">
<path d="M0.533203 7.8623C0.533203 4.56273 0.533203 2.9122 1.55815 1.88725C2.5831 0.862305 4.23289 0.862305 7.5332 0.862305C10.8328 0.862305 12.4833 0.862305 13.5083 1.88725C14.5332 2.9122 14.5332 4.56199 14.5332 7.8623C14.5332 11.1619 14.5332 12.8124 13.5083 13.8374C12.4833 14.8623 10.8335 14.8623 7.5332 14.8623C4.23362 14.8623 2.5831 14.8623 1.55815 13.8374C0.533203 12.8124 0.533203 11.1626 0.533203 7.8623Z" stroke="black" stroke-linecap="round" stroke-linejoin="round"/>
<path d="M5.42214 6.74887C5.07286 6.74887 5 6.83527 5 7.24882V7.99897C5 8.41297 5.07286 8.49892 5.42214 8.49892H6.26607V11.4991C6.26607 11.9131 6.33929 11.999 6.68821 11.999H7.5325C7.88179 11.999 7.95464 11.9126 7.95464 11.4991V8.49892H8.9025C9.16714 8.49892 9.23536 8.43817 9.30821 8.13622L9.48929 7.38652C9.61393 6.86947 9.53679 6.74887 9.08321 6.74887H7.95464V5.49922C7.95464 5.22292 8.14357 4.99882 8.37643 4.99882H9.57786C9.92714 4.99882 10 4.91287 10 4.49932V3.49852C10 3.08497 9.92714 2.99902 9.57786 2.99902H8.37643C7.21107 2.99902 6.26607 4.11817 6.26607 5.49922V6.74887H5.42214Z" stroke="black" stroke-width="0.7" stroke-linecap="round" stroke-linejoin="round"/>
</svg>
