<svg width="16" height="16" viewBox="0 0 16 16" fill="none" xmlns="http://www.w3.org/2000/svg">
<path d="M12.6777 9.55469C14.2342 9.55469 15.5 10.8035 15.5 12.3398C15.4999 13.8753 14.2341 15.125 12.6777 15.125C11.1215 15.1248 9.85654 13.8752 9.85645 12.3398C9.85645 10.8036 11.1214 9.55484 12.6777 9.55469ZM12.6777 10.8604C11.8511 10.8605 11.1797 11.5239 11.1797 12.3398C11.1798 13.1549 11.8512 13.8182 12.6777 13.8184C13.5044 13.8184 14.1757 13.155 14.1758 12.3398C14.1758 11.5238 13.5045 10.8604 12.6777 10.8604ZM6.58789 11.6865C6.95317 11.6865 7.25 11.9793 7.25 12.3398C7.24977 12.7002 6.95302 12.9922 6.58789 12.9922H1.16211C0.797086 12.992 0.501211 12.7001 0.500977 12.3398C0.500977 11.9794 0.796942 11.6867 1.16211 11.6865H6.58789ZM3.32129 0.875C4.87768 0.875 6.14346 2.12473 6.14355 3.66016C6.14355 5.19565 4.87773 6.44531 3.32129 6.44531C1.76592 6.44508 0.5 5.19551 0.5 3.66016C0.500091 2.12487 1.76598 0.875228 3.32129 0.875ZM3.32129 2.18164C2.49567 2.18187 1.82333 2.84516 1.82324 3.66016C1.82324 4.47523 2.49562 5.13942 3.32129 5.13965C4.14804 5.13965 4.82031 4.47537 4.82031 3.66016C4.82022 2.84502 4.14798 2.18164 3.32129 2.18164ZM14.8379 3.00684C15.2031 3.00684 15.4998 3.29974 15.5 3.66016C15.5 4.02073 15.2032 4.31348 14.8379 4.31348H9.41211C9.04682 4.31348 8.75 4.02073 8.75 3.66016C8.75019 3.29974 9.04694 3.00684 9.41211 3.00684H14.8379Z" fill="white"/>
</svg>
