<svg width="24" height="25" viewBox="0 0 24 25" fill="none" xmlns="http://www.w3.org/2000/svg">
<path d="M17.9583 4.66748H6.875C6.24511 4.66748 5.64102 4.9177 5.19562 5.3631C4.75022 5.8085 4.5 6.41259 4.5 7.04248V7.96873C4.49989 8.29564 4.56727 8.61906 4.69792 8.91873V8.96623C4.80976 9.22033 4.96819 9.45125 5.165 9.64706L10.0417 14.4921V19.7091C10.0414 19.8437 10.0754 19.9761 10.1405 20.0938C10.2056 20.2116 10.2997 20.3108 10.4137 20.3821C10.5397 20.4601 10.6851 20.5013 10.8333 20.5008C10.9573 20.5001 11.0793 20.4702 11.1896 20.4137L14.3562 18.8304C14.4868 18.7646 14.5966 18.664 14.6735 18.5396C14.7503 18.4152 14.7912 18.272 14.7917 18.1258V14.4921L19.6367 9.64706C19.8335 9.45125 19.9919 9.22033 20.1037 8.96623V8.91873C20.2453 8.6214 20.3235 8.29789 20.3333 7.96873V7.04248C20.3333 6.41259 20.0831 5.8085 19.6377 5.3631C19.1923 4.9177 18.5882 4.66748 17.9583 4.66748ZM13.4379 13.6054C13.3645 13.6794 13.3065 13.7671 13.2671 13.8636C13.2277 13.96 13.2077 14.0633 13.2083 14.1675V17.635L11.625 18.4266V14.1675C11.6256 14.0633 11.6056 13.96 11.5662 13.8636C11.5268 13.7671 11.4688 13.6794 11.3954 13.6054L7.19958 9.41748H17.6337L13.4379 13.6054ZM18.75 7.83415H6.08333V7.04248C6.08333 6.83252 6.16674 6.63115 6.31521 6.48269C6.46367 6.33422 6.66504 6.25081 6.875 6.25081H17.9583C18.1683 6.25081 18.3697 6.33422 18.5181 6.48269C18.6666 6.63115 18.75 6.83252 18.75 7.04248V7.83415Z" fill="#3E3E40"/>
</svg>
