<svg width="96" height="15" viewBox="0 0 96 15" fill="none" xmlns="http://www.w3.org/2000/svg">
<g clip-path="url(#clip0_1196_21016)">
<path fill-rule="evenodd" clip-rule="evenodd" d="M8.5 11.1962L5.37713 12.7897C5.00946 12.9773 4.58567 12.6638 4.6575 12.2574L5.25 8.90445L2.75401 6.54304C2.44975 6.25519 2.61307 5.74322 3.02781 5.68473L6.49139 5.19625L8.05431 2.12259C8.23965 1.7581 8.76035 1.7581 8.94569 2.12259L10.5086 5.19625L13.9722 5.68473C14.3869 5.74322 14.5502 6.25519 14.246 6.54304L11.75 8.90445L12.3425 12.2574C12.4143 12.6638 11.9905 12.9773 11.6229 12.7897L8.5 11.1962Z" fill="#F59E0B"/>
<path fill-rule="evenodd" clip-rule="evenodd" d="M23.5 11.1962L20.3771 12.7897C20.0095 12.9773 19.5857 12.6638 19.6575 12.2574L20.25 8.90445L17.754 6.54304C17.4498 6.25519 17.6131 5.74322 18.0278 5.68473L21.4914 5.19625L23.0543 2.12259C23.2397 1.7581 23.7603 1.7581 23.9457 2.12259L25.5086 5.19625L28.9722 5.68473C29.3869 5.74322 29.5502 6.25519 29.246 6.54304L26.75 8.90445L27.3425 12.2574C27.4143 12.6638 26.9905 12.9773 26.6229 12.7897L23.5 11.1962Z" fill="#F59E0B"/>
<path fill-rule="evenodd" clip-rule="evenodd" d="M38.5 11.1962L35.3771 12.7897C35.0095 12.9773 34.5857 12.6638 34.6575 12.2574L35.25 8.90445L32.754 6.54304C32.4498 6.25519 32.6131 5.74322 33.0278 5.68473L36.4914 5.19625L38.0543 2.12259C38.2397 1.7581 38.7603 1.7581 38.9457 2.12259L40.5086 5.19625L43.9722 5.68473C44.3869 5.74322 44.5502 6.25519 44.246 6.54304L41.75 8.90445L42.3425 12.2574C42.4143 12.6638 41.9905 12.9773 41.6229 12.7897L38.5 11.1962Z" fill="#F59E0B"/>
<path fill-rule="evenodd" clip-rule="evenodd" d="M53.5 11.1962L50.3771 12.7897C50.0095 12.9773 49.5857 12.6638 49.6575 12.2574L50.25 8.90445L47.754 6.54304C47.4498 6.25519 47.6131 5.74322 48.0278 5.68473L51.4914 5.19625L53.0543 2.12259C53.2397 1.7581 53.7603 1.7581 53.9457 2.12259L55.5086 5.19625L58.9722 5.68473C59.3869 5.74322 59.5502 6.25519 59.246 6.54304L56.75 8.90445L57.3425 12.2574C57.4143 12.6638 56.9905 12.9773 56.6229 12.7897L53.5 11.1962Z" fill="#F59E0B"/>
<path fill-rule="evenodd" clip-rule="evenodd" d="M68.5 11.1962L65.3771 12.7897C65.0095 12.9773 64.5857 12.6638 64.6575 12.2574L65.25 8.90445L62.754 6.54304C62.4498 6.25519 62.6131 5.74322 63.0278 5.68473L66.4914 5.19625L68.0543 2.12259C68.2397 1.7581 68.7603 1.7581 68.9457 2.12259L70.5086 5.19625L73.9722 5.68473C74.3869 5.74322 74.5502 6.25519 74.246 6.54304L71.75 8.90445L72.3425 12.2574C72.4143 12.6638 71.9905 12.9773 71.6229 12.7897L68.5 11.1962Z" fill="#F59E0B"/>
</g>
<defs>
<clipPath id="clip0_1196_21016">
<rect width="95" height="14" fill="white" transform="translate(0.5 0.246094)"/>
</clipPath>
</defs>
</svg>
