<svg width="16" height="13" viewBox="0 0 16 13" fill="none" xmlns="http://www.w3.org/2000/svg">
<path d="M2.4 3.09018H4V5.49001H6.4V7.0899H4V9.48973H2.4V7.0899H0V5.49001H2.4V3.09018ZM14.4 4.18109C14.4099 4.60399 14.3338 5.02448 14.1765 5.41715C14.0192 5.80982 13.7838 6.1665 13.4847 6.46561C13.1855 6.76472 12.8288 7.00005 12.4361 7.15737C12.0435 7.31468 11.6229 7.39072 11.2 7.38087C10.7771 7.39072 10.3565 7.31468 9.96385 7.15737C9.57116 7.00005 9.21445 6.76472 8.91532 6.46561C8.61619 6.1665 8.38084 5.80982 8.22351 5.41715C8.06618 5.02448 7.99015 4.60399 8 4.18109C7.99015 3.7582 8.06618 3.3377 8.22351 2.94503C8.38084 2.55236 8.61619 2.19569 8.91532 1.89657C9.21445 1.59746 9.57116 1.36213 9.96385 1.20481C10.3565 1.0475 10.7771 0.971466 11.2 0.981317C11.6229 0.971466 12.0435 1.0475 12.4361 1.20481C12.8288 1.36213 13.1855 1.59746 13.4847 1.89657C13.7838 2.19569 14.0192 2.55236 14.1765 2.94503C14.3338 3.3377 14.4099 3.7582 14.4 4.18109ZM9.6 4.18109C9.58971 4.39392 9.62405 4.60654 9.70082 4.80531C9.77759 5.00407 9.89508 5.18459 10.0458 5.33525C10.1964 5.48592 10.377 5.6034 10.5757 5.68017C10.7745 5.75693 10.9872 5.79127 11.2 5.78098C11.4128 5.79127 11.6255 5.75693 11.8243 5.68017C12.023 5.6034 12.2036 5.48592 12.3542 5.33525C12.5049 5.18459 12.6224 5.00407 12.6992 4.80531C12.7759 4.60654 12.8103 4.39392 12.8 4.18109C12.8103 3.96827 12.7759 3.75564 12.6992 3.55688C12.6224 3.35811 12.5049 3.1776 12.3542 3.02693C12.2036 2.87627 12.023 2.75878 11.8243 2.68202C11.6255 2.60525 11.4128 2.57092 11.2 2.5812C10.9872 2.57092 10.7745 2.60525 10.5757 2.68202C10.377 2.75878 10.1964 2.87627 10.0458 3.02693C9.89508 3.1776 9.77759 3.35811 9.70082 3.55688C9.62405 3.75564 9.58971 3.96827 9.6 4.18109ZM14.4 12.1805C14.4 11.5441 14.1471 10.9336 13.6971 10.4836C13.247 10.0335 12.6365 9.7807 12 9.7807H10.4C9.76348 9.7807 9.15303 10.0335 8.70294 10.4836C8.25286 10.9336 8 11.5441 8 12.1805V12.9805H6.4V12.1805C6.4 11.6553 6.50346 11.1352 6.70448 10.6499C6.9055 10.1646 7.20014 9.72371 7.57157 9.3523C7.94301 8.98089 8.38396 8.68627 8.86927 8.48527C9.35457 8.28426 9.87471 8.18081 10.4 8.18081H12C13.0609 8.18081 14.0783 8.60221 14.8284 9.3523C15.5786 10.1024 16 11.1197 16 12.1805V12.9805H14.4V12.1805Z" fill="white"/>
</svg>
