<svg width="61" height="15" viewBox="0 0 61 15" fill="none" xmlns="http://www.w3.org/2000/svg">
<path fill-rule="evenodd" clip-rule="evenodd" d="M37.5 11.1962L34.3771 12.7897C34.0095 12.9773 33.5857 12.6638 33.6575 12.2574L34.25 8.90445L31.754 6.54304C31.4498 6.25519 31.6131 5.74322 32.0278 5.68473L35.4914 5.19625L37.0543 2.12259C37.2397 1.7581 37.7603 1.7581 37.9457 2.12259L39.5086 5.19625L42.9722 5.68473C43.3869 5.74322 43.5502 6.25519 43.246 6.54304L40.75 8.90445L41.3425 12.2574C41.4143 12.6638 40.9905 12.9773 40.6229 12.7897L37.5 11.1962Z" fill="#F59E0B"/>
<path fill-rule="evenodd" clip-rule="evenodd" d="M22.5 11.1962L19.3771 12.7897C19.0095 12.9773 18.5857 12.6638 18.6575 12.2574L19.25 8.90445L16.754 6.54304C16.4498 6.25519 16.6131 5.74322 17.0278 5.68473L20.4914 5.19625L22.0543 2.12259C22.2397 1.7581 22.7603 1.7581 22.9457 2.12259L24.5086 5.19625L27.9722 5.68473C28.3869 5.74322 28.5502 6.25519 28.246 6.54304L25.75 8.90445L26.3425 12.2574C26.4143 12.6638 25.9905 12.9773 25.6229 12.7897L22.5 11.1962Z" fill="#F59E0B"/>
<path fill-rule="evenodd" clip-rule="evenodd" d="M7.5 11.1962L4.37713 12.7897C4.00946 12.9773 3.58567 12.6638 3.6575 12.2574L4.25 8.90445L1.75401 6.54304C1.44975 6.25519 1.61307 5.74322 2.02781 5.68473L5.49139 5.19625L7.05431 2.12259C7.23965 1.7581 7.76035 1.7581 7.94569 2.12259L9.50861 5.19625L12.9722 5.68473C13.3869 5.74322 13.5502 6.25519 13.246 6.54304L10.75 8.90445L11.3425 12.2574C11.4143 12.6638 10.9905 12.9773 10.6229 12.7897L7.5 11.1962Z" fill="#F59E0B"/>
<path fill-rule="evenodd" clip-rule="evenodd" d="M53.5 11.1962L50.3771 12.7897C50.0095 12.9773 49.5857 12.6638 49.6575 12.2574L50.25 8.90445L47.754 6.54304C47.4498 6.25519 47.6131 5.74322 48.0278 5.68473L51.4914 5.19625L53.0543 2.12259C53.2397 1.7581 53.7603 1.7581 53.9457 2.12259L55.5086 5.19625L58.9722 5.68473C59.3869 5.74322 59.5502 6.25519 59.246 6.54304L56.75 8.90445L57.3425 12.2574C57.4143 12.6638 56.9905 12.9773 56.6229 12.7897L53.5 11.1962Z" fill="#F59E0B"/>
</svg>
