<svg width="12" height="14" viewBox="0 0 12 14" fill="none" xmlns="http://www.w3.org/2000/svg">
<path d="M10.8082 2.50716H8.56645M10.8082 2.50716C10.8082 2.82164 9.97092 3.40959 9.68733 3.63029M10.8082 2.50716C10.8082 2.19268 9.97092 1.60473 9.68733 1.38403M0.719727 2.50716H2.96149M0.719727 2.50716C0.719727 2.19268 1.55758 1.60473 1.84117 1.38403M0.719727 2.50716C0.719727 2.82164 1.55758 3.40959 1.84117 3.63029M4.54734 12.6153V12.0874C4.54742 11.7234 4.4296 11.3692 4.21153 11.0777L2.06467 8.20871C1.88609 7.97061 1.75356 7.6814 1.83499 7.39501C2.03715 6.688 2.83626 6.05961 3.72971 7.16645L4.62821 8.1256V2.27917C4.68324 1.2515 6.41005 0.927483 6.58862 2.27917V5.61092C7.42142 5.50422 11.3428 6.08881 10.7723 8.56755L10.6914 8.9247C10.5752 9.44022 10.2332 10.3578 9.85636 10.8947C9.46383 11.4534 9.64746 12.3547 9.60253 12.6164" stroke="#5B87B9" stroke-width="0.842345" stroke-linecap="round" stroke-linejoin="round"/>
</svg>
