<svg width="16" height="17" viewBox="0 0 16 17" fill="none" xmlns="http://www.w3.org/2000/svg">
<path d="M10.2978 4.52492L11.1985 3.62489C11.4373 3.3861 11.7611 3.25195 12.0988 3.25195C12.4365 3.25195 12.7604 3.3861 12.9992 3.62489C13.238 3.86368 13.3721 4.18754 13.3721 4.52524C13.3721 4.86294 13.238 5.1868 12.9992 5.42559L12.0992 6.32626M10.2978 4.52492L5.00816 9.81459C4.33683 10.4866 4.00084 10.8219 3.77214 11.2311C3.54344 11.6403 3.31346 12.6059 3.09375 13.5303C4.01755 13.3106 4.98374 13.0806 5.39296 12.8519C5.80218 12.6232 6.13817 12.2873 6.8095 11.6159L12.0992 6.32626M10.2978 4.52492L12.0992 6.32626M7.59068 13.5303H11.4452" stroke="#406896" stroke-width="0.963627" stroke-linecap="round" stroke-linejoin="round"/>
</svg>
