<svg width="23" height="20" viewBox="0 0 23 20" fill="none" xmlns="http://www.w3.org/2000/svg">
<path d="M19.8301 0H3.34598C2.02725 0 0.953125 1.01 0.953125 2.25V17.75C0.953125 18.99 2.02725 20 3.34598 20H19.8301C21.1488 20 22.223 18.99 22.223 17.75V2.25C22.223 1.01 21.1488 0 19.8301 0ZM3.34598 1.5H19.8301C20.2693 1.5 20.6277 1.837 20.6277 2.25V11.926L16.5248 8.068C16.3759 7.928 16.1738 7.848 15.9611 7.848H15.9579C15.7452 7.848 15.54 7.928 15.3922 8.072L10.8011 12.456L8.87295 10.65C8.72406 10.51 8.522 10.43 8.3093 10.43C8.10405 10.4 7.88922 10.51 7.74033 10.657L2.54836 15.642V2.25C2.54836 1.837 2.90676 1.5 3.34598 1.5ZM2.55474 17.78L8.31674 12.246L14.9976 18.5H3.34598C2.91846 18.5 2.57282 18.178 2.55474 17.78ZM19.8301 18.5H17.2565L11.9316 13.513L15.9643 9.663L20.6277 14.047V17.75C20.6277 18.163 20.2693 18.5 19.8301 18.5Z" fill="#2B59A3"/>
<path d="M8.25709 7.8506C9.16279 7.8506 9.897 7.16022 9.897 6.3086C9.897 5.45698 9.16279 4.7666 8.25709 4.7666C7.3514 4.7666 6.61719 5.45698 6.61719 6.3086C6.61719 7.16022 7.3514 7.8506 8.25709 7.8506Z" fill="#2B59A3"/>
</svg>
