<svg width="15" height="14" viewBox="0 0 15 14" fill="none" xmlns="http://www.w3.org/2000/svg">
<path d="M1.19922 6.86263C1.19922 3.8773 1.19922 2.38396 2.12655 1.45663C3.05389 0.529297 4.54655 0.529297 7.53255 0.529297C10.5179 0.529297 12.0112 0.529297 12.9386 1.45663C13.8659 2.38396 13.8659 3.87663 13.8659 6.86263C13.8659 9.84796 13.8659 11.3413 12.9386 12.2686C12.0112 13.196 10.5186 13.196 7.53255 13.196C4.54722 13.196 3.05389 13.196 2.12655 12.2686C1.19922 11.3413 1.19922 9.84863 1.19922 6.86263Z" stroke="black" stroke-linecap="round" stroke-linejoin="round"/>
<path d="M11.2052 3.19629H11.1985M10.5332 6.86296C10.5332 7.65861 10.2171 8.42167 9.65452 8.98428C9.09191 9.54689 8.32885 9.86296 7.5332 9.86296C6.73755 9.86296 5.97449 9.54689 5.41188 8.98428C4.84927 8.42167 4.5332 7.65861 4.5332 6.86296C4.5332 6.06731 4.84927 5.30424 5.41188 4.74164C5.97449 4.17903 6.73755 3.86296 7.5332 3.86296C8.32885 3.86296 9.09191 4.17903 9.65452 4.74164C10.2171 5.30424 10.5332 6.06731 10.5332 6.86296Z" stroke="black" stroke-linecap="round" stroke-linejoin="round"/>
</svg>
