<svg width="15" height="16" viewBox="0 0 15 16" fill="none" xmlns="http://www.w3.org/2000/svg">
<path d="M8.43334 14.5569C8.12551 14.8426 7.72075 15.001 7.30074 15C6.88097 15.0008 6.4765 14.8425 6.16884 14.5569C3.38914 11.9382 -0.336255 9.0129 1.48024 4.766C2.46374 2.47 4.82134 1 7.30144 1C9.78154 1 12.1398 2.47 13.1219 4.766C14.9363 9.008 11.22 11.9473 8.43334 14.5569Z" stroke="black" stroke-width="1.5" stroke-linecap="round" stroke-linejoin="round"/>
<path d="M9.74961 7.29961C9.74961 7.62135 9.68624 7.93993 9.56311 8.23718C9.43999 8.53443 9.25952 8.80452 9.03202 9.03202C8.80452 9.25952 8.53443 9.43999 8.23718 9.56311C7.93993 9.68624 7.62135 9.74961 7.29961 9.74961C6.97787 9.74961 6.65928 9.68624 6.36203 9.56311C6.06479 9.43999 5.7947 9.25952 5.5672 9.03202C5.33969 8.80452 5.15923 8.53443 5.0361 8.23718C4.91298 7.93993 4.84961 7.62135 4.84961 7.29961C4.84961 6.64983 5.10773 6.02666 5.5672 5.5672C6.02666 5.10773 6.64983 4.84961 7.29961 4.84961C7.94939 4.84961 8.57256 5.10773 9.03202 5.5672C9.49148 6.02666 9.74961 6.64983 9.74961 7.29961Z" stroke="black" stroke-width="1.5" stroke-linecap="round" stroke-linejoin="round"/>
</svg>
