<svg width="13" height="17" viewBox="0 0 13 17" fill="none" xmlns="http://www.w3.org/2000/svg">
<path d="M6.5498 1.72583C8.30319 1.72583 9.73778 3.16042 9.73778 4.91381C9.73778 6.5875 8.06409 9.29729 6.5498 11.2101C5.0355 9.21759 3.36181 6.5875 3.36181 4.91381C3.36181 3.16042 4.79641 1.72583 6.5498 1.72583ZM6.5498 0.131836C3.91971 0.131836 1.76782 2.28373 1.76782 4.91381C1.76782 8.5003 6.5498 13.6808 6.5498 13.6808C6.5498 13.6808 11.3318 8.4206 11.3318 4.91381C11.3318 2.28373 9.17988 0.131836 6.5498 0.131836ZM6.5498 3.31982C5.6731 3.31982 4.95581 4.03712 4.95581 4.91381C4.95581 5.79051 5.6731 6.50781 6.5498 6.50781C7.42649 6.50781 8.14379 5.79051 8.14379 4.91381C8.14379 4.03712 7.42649 3.31982 6.5498 3.31982ZM12.9258 13.6808C12.9258 15.4342 10.0566 16.8688 6.5498 16.8688C3.04301 16.8688 0.173828 15.4342 0.173828 13.6808C0.173828 12.6447 1.13022 11.768 2.64452 11.1304L3.12271 11.8477C2.32572 12.2462 1.76782 12.7244 1.76782 13.2823C1.76782 14.3981 3.91971 15.2748 6.5498 15.2748C9.17988 15.2748 11.3318 14.3981 11.3318 13.2823C11.3318 12.7244 10.7739 12.2462 9.89718 11.8477L10.3754 11.1304C11.9694 11.768 12.9258 12.6447 12.9258 13.6808Z" fill="white"/>
</svg>
