<svg width="10" height="10" viewBox="0 0 10 10" fill="none" xmlns="http://www.w3.org/2000/svg">
<rect x="0.101562" y="0.316895" width="9.30612" height="9.30612" rx="4.65306" fill="#1BB532"/>
<path d="M5.18359 7.45151C5.06708 7.55966 4.91388 7.6196 4.75491 7.61922C4.59603 7.61953 4.44294 7.5596 4.32649 7.45151C3.27439 6.46035 1.86435 5.35314 2.55189 3.74572C2.92414 2.8767 3.81647 2.32031 4.75517 2.32031C5.69388 2.32031 6.58648 2.8767 6.95819 3.74572C7.64493 5.35129 6.23834 6.46379 5.18359 7.45151Z" stroke="white" stroke-width="0.54302" stroke-linecap="round" stroke-linejoin="round"/>
<path d="M5.68228 4.70474C5.68228 4.82651 5.6583 4.9471 5.61169 5.0596C5.56509 5.17211 5.49679 5.27433 5.41068 5.36044C5.32457 5.44655 5.22234 5.51486 5.10984 5.56146C4.99733 5.60806 4.87675 5.63204 4.75497 5.63204C4.6332 5.63204 4.51261 5.60806 4.40011 5.56146C4.2876 5.51486 4.18537 5.44655 4.09927 5.36044C4.01316 5.27433 3.94485 5.17211 3.89825 5.0596C3.85165 4.9471 3.82766 4.82651 3.82766 4.70474C3.82766 4.4588 3.92536 4.22293 4.09927 4.04903C4.27317 3.87513 4.50903 3.77743 4.75497 3.77743C5.00091 3.77743 5.23677 3.87513 5.41068 4.04903C5.58458 4.22293 5.68228 4.4588 5.68228 4.70474Z" stroke="white" stroke-width="0.54302" stroke-linecap="round" stroke-linejoin="round"/>
</svg>
