<svg width="25" height="25" viewBox="0 0 25 25" fill="none" xmlns="http://www.w3.org/2000/svg">
<path d="M8.62257 10.953H14.2646C14.3959 10.953 14.5259 10.9789 14.6473 11.0291C14.7686 11.0794 14.8788 11.153 14.9717 11.2459C15.0645 11.3388 15.1382 11.449 15.1884 11.5703C15.2387 11.6916 15.2646 11.8217 15.2646 11.953C15.2646 12.0843 15.2387 12.2144 15.1884 12.3357C15.1382 12.457 15.0645 12.5672 14.9717 12.6601C14.8788 12.753 14.7686 12.8266 14.6473 12.8769C14.5259 12.9271 14.3959 12.953 14.2646 12.953H8.62257L9.74457 14.075C9.93208 14.2626 10.0374 14.5171 10.0373 14.7824C10.0372 15.0476 9.93171 15.302 9.74407 15.4895C9.55643 15.677 9.30199 15.7823 9.03672 15.7822C8.77145 15.7821 8.51708 15.6766 8.32957 15.489L5.50157 12.661C5.40823 12.5683 5.33416 12.4581 5.28361 12.3367C5.23306 12.2153 5.20703 12.085 5.20703 11.9535C5.20703 11.822 5.23306 11.6917 5.28361 11.5703C5.33416 11.4489 5.40823 11.3387 5.50157 11.246L8.32857 8.418C8.51608 8.23036 8.77045 8.12489 9.03572 8.1248C9.30099 8.1247 9.55543 8.22999 9.74307 8.4175C9.93071 8.60501 10.0362 8.85938 10.0363 9.12465C10.0364 9.38992 9.93108 9.64436 9.74357 9.832L8.62257 10.953ZM18.2086 3.125C18.4738 3.125 18.7281 3.23036 18.9157 3.41789C19.1032 3.60543 19.2086 3.85978 19.2086 4.125V20.125C19.2086 20.3902 19.1032 20.6446 18.9157 20.8321C18.7281 21.0196 18.4738 21.125 18.2086 21.125C17.9434 21.125 17.689 21.0196 17.5015 20.8321C17.3139 20.6446 17.2086 20.3902 17.2086 20.125V4.125C17.2086 3.85978 17.3139 3.60543 17.5015 3.41789C17.689 3.23036 17.9434 3.125 18.2086 3.125V3.125Z" fill="#F81140"/>
</svg>
