<svg width="25" height="25" viewBox="0 0 25 25" fill="none" xmlns="http://www.w3.org/2000/svg">
<path d="M20.6803 21.5215C20.4813 21.5215 20.2906 21.4425 20.1499 21.3018C20.0093 21.1612 19.9303 20.9704 19.9303 20.7715V4.27148C19.9303 4.07257 20.0093 3.88181 20.1499 3.74115C20.2906 3.6005 20.4813 3.52148 20.6803 3.52148C20.8792 3.52148 21.0699 3.6005 21.2106 3.74115C21.3512 3.88181 21.4303 4.07257 21.4303 4.27148V20.7715C21.4316 20.8703 21.4131 20.9685 21.3759 21.0601C21.3387 21.1517 21.2835 21.2349 21.2136 21.3048C21.1437 21.3747 21.0605 21.4299 20.9689 21.4671C20.8773 21.5043 20.7791 21.5228 20.6803 21.5215ZM17.2803 11.9325C17.2892 12.281 17.2171 12.6268 17.0696 12.9426C16.9221 13.2584 16.7032 13.5357 16.4303 13.7525L7.32026 20.8425C6.99426 21.0895 6.60726 21.2425 6.20026 21.2825H5.97026C5.62403 21.2911 5.28088 21.2157 4.97026 21.0625C4.6004 20.882 4.28859 20.6014 4.07026 20.2525C3.85286 19.9048 3.73844 19.5026 3.74026 19.0925V5.94248C3.74134 5.54811 3.8484 5.16128 4.05026 4.82248C4.25828 4.48569 4.55148 4.20973 4.90026 4.02248C5.24767 3.83469 5.63957 3.74481 6.0341 3.76242C6.42862 3.78003 6.81096 3.90448 7.14026 4.12248L16.2603 10.2025C16.5503 10.3935 16.7903 10.6505 16.9603 10.9525C17.1397 11.2507 17.2491 11.5858 17.2803 11.9325Z" fill="white"/>
</svg>
