<svg width="25" height="26" viewBox="0 0 25 26" fill="none" xmlns="http://www.w3.org/2000/svg">
<rect x="0.5" y="0.980469" width="24" height="24" rx="12" stroke="#3D5E83"/>
<path d="M10.5 13.4805H14.5M10.5 10.9805H12.5M9.5495 16.2305C8.89983 16.1665 8.412 15.9711 8.086 15.6445C7.5 15.059 7.5 14.116 7.5 12.2305V11.9805C7.5 10.095 7.5 9.15197 8.086 8.56647C8.672 7.98097 9.6145 7.98047 11.5 7.98047H13.5C15.3855 7.98047 16.3285 7.98047 16.914 8.56647C17.4995 9.15247 17.5 10.095 17.5 11.9805V12.2305C17.5 14.116 17.5 15.059 16.914 15.6445C16.328 16.23 15.3855 16.2305 13.5 16.2305C13.22 16.2365 12.9965 16.258 12.7775 16.308C12.178 16.446 11.623 16.753 11.075 17.02C10.2935 17.401 9.903 17.5915 9.658 17.413C9.189 17.064 9.6475 15.9815 9.75 15.4805" stroke="#3D5E83" stroke-linecap="round" stroke-linejoin="round"/>
</svg>
