<svg width="13" height="17" viewBox="0 0 13 17" fill="none" xmlns="http://www.w3.org/2000/svg">
<path fill-rule="evenodd" clip-rule="evenodd" d="M6.64241 12.1198C4.54107 12.1198 2.8316 10.5127 2.8316 8.53722V3.76037C2.8316 1.78484 4.54107 0.177734 6.64241 0.177734C8.74375 0.177734 10.4532 1.78484 10.4532 3.76037V8.53722C10.4532 10.5127 8.74375 12.1198 6.64241 12.1198ZM6.64232 1.37205C5.24152 1.37205 4.10178 2.44355 4.10178 3.76047V8.53732C4.10178 9.85424 5.24153 10.9257 6.64232 10.9257C8.04311 10.9257 9.18286 9.85423 9.18286 8.53732V3.76047C9.18286 2.44355 8.0431 1.37205 6.64232 1.37205ZM12.3586 7.34292C12.0078 7.34292 11.7234 7.61027 11.7234 7.94002V8.53713C11.7234 11.1711 9.4441 13.314 6.64236 13.314C3.84063 13.314 1.56128 11.1711 1.56128 8.53713V7.94002C1.56128 7.61027 1.2769 7.34292 0.92615 7.34292C0.575397 7.34292 0.291016 7.61027 0.291016 7.94002V8.53713C0.291016 11.6282 2.80218 14.1774 6.00723 14.4779V15.7024H4.73696C4.38621 15.7024 4.10183 15.9698 4.10183 16.2995C4.10183 16.6293 4.38621 16.8966 4.73696 16.8966H8.54777C8.89853 16.8966 9.18291 16.6293 9.18291 16.2995C9.18291 15.9698 8.89853 15.7024 8.54777 15.7024H7.27751V14.4779C10.4826 14.1772 12.9937 11.628 12.9937 8.53713V7.94002C12.9937 7.61027 12.7093 7.34292 12.3586 7.34292Z" fill="white"/>
</svg>
