<svg width="25" height="26" viewBox="0 0 25 26" fill="none" xmlns="http://www.w3.org/2000/svg">
<rect x="0.5" y="0.980469" width="24" height="24" rx="12" stroke="#3D5E83"/>
<path d="M8.69889 12.6754C8.65833 13.513 8.705 14.4046 8.01222 14.9656C7.85295 15.0943 7.7237 15.2614 7.63477 15.4536C7.54585 15.6458 7.4997 15.8577 7.5 16.0726C7.5 16.6708 7.93445 17.1808 8.5 17.1808H16.5C17.0656 17.1808 17.5 16.6708 17.5 16.0726C17.5 15.637 17.31 15.2266 16.9878 14.9656C16.295 14.4046 16.3417 13.513 16.3011 12.6754C16.2511 11.623 15.8288 10.6316 15.1215 9.90582C14.4141 9.18006 13.4757 8.77539 12.5 8.77539C11.5243 8.77539 10.5859 9.18006 9.87853 9.90582C9.17117 10.6316 8.74888 11.623 8.69889 12.6754Z" stroke="#3D5E83" stroke-linecap="round" stroke-linejoin="round"/>
<path d="M14.1693 17.1805C14.1693 17.6579 13.9937 18.1157 13.6811 18.4533C13.3686 18.7908 12.9446 18.9805 12.5026 18.9805C12.0606 18.9805 11.6367 18.7908 11.3241 18.4533C11.0115 18.1157 10.8359 17.6579 10.8359 17.1805M11.6693 7.65547C11.6693 8.15227 12.0426 8.78047 12.5026 8.78047C12.9626 8.78047 13.3359 8.15227 13.3359 7.65547C13.3359 7.15867 12.9626 6.98047 12.5026 6.98047C12.0426 6.98047 11.6693 7.15867 11.6693 7.65547Z" stroke="#3D5E83" stroke-linecap="round" stroke-linejoin="round"/>
</svg>
