<svg width="16" height="17" viewBox="0 0 16 17" fill="none" xmlns="http://www.w3.org/2000/svg">
<path fill-rule="evenodd" clip-rule="evenodd" d="M8.00032 3.16634C10.2211 3.16634 12.0212 4.96636 12.0212 7.18717V10.6874C12.0212 10.7644 12.0345 10.8408 12.0606 10.9133L12.3017 11.583H3.69892L3.94007 10.9133C3.96615 10.8408 3.97949 10.7644 3.97949 10.6874V7.18717C3.97949 4.96636 5.77951 3.16634 8.00032 3.16634ZM13.3545 7.18717C13.3545 4.22998 10.9575 1.83301 8.00032 1.83301C5.04313 1.83301 2.64615 4.22998 2.64615 7.18717V10.5711L2.12307 12.0238C2.04953 12.2281 2.08005 12.4554 2.20488 12.633C2.32971 12.8106 2.53322 12.9163 2.75032 12.9163H13.2503C13.4674 12.9163 13.6709 12.8106 13.7958 12.633C13.9206 12.4554 13.9511 12.2281 13.8776 12.0238L13.3545 10.5711V7.18717Z" fill="#144799"/>
<path fill-rule="evenodd" clip-rule="evenodd" d="M10.2503 11.583C9.88214 11.583 9.58366 11.8815 9.58366 12.2497C9.58366 13.1242 8.87489 13.833 8.00033 13.833C7.12577 13.833 6.41699 13.1242 6.41699 12.2497C6.41699 11.8815 6.11852 11.583 5.75033 11.583C5.38214 11.583 5.08366 11.8815 5.08366 12.2497C5.08366 13.8606 6.38939 15.1663 8.00033 15.1663C9.61127 15.1663 10.917 13.8606 10.917 12.2497C10.917 11.8815 10.6185 11.583 10.2503 11.583Z" fill="#144799"/>
</svg>
