<svg width="256" height="238" viewBox="0 0 256 238" fill="none" xmlns="http://www.w3.org/2000/svg">
<path d="M173.931 163.13C174.047 163.13 174.154 163.165 174.246 163.223H231.079L231.183 163.233C231.416 163.281 231.592 163.488 231.592 163.735C231.592 163.983 231.416 164.189 231.183 164.237L231.079 164.248H219.572C209.528 172.048 206.962 180.584 206.88 187.156C206.839 190.468 207.428 193.296 208.028 195.295C208.328 196.294 208.631 197.084 208.856 197.622C208.969 197.891 209.063 198.097 209.128 198.234C209.154 198.29 209.175 198.335 209.191 198.367L216.447 205.704L216.082 206.064L215.718 206.426L208.463 199.089L208.328 199.021C208.19 198.954 207.983 198.857 207.713 198.739C207.172 198.505 206.379 198.19 205.377 197.876C203.372 197.248 200.538 196.623 197.227 196.637C190.684 196.664 182.215 199.18 174.529 209.232V220.041C174.529 220.375 174.261 220.646 173.931 220.646C173.6 220.646 173.332 220.375 173.332 220.041V163.735C173.332 163.401 173.6 163.13 173.931 163.13ZM194.862 187.645C193.175 187.559 190.862 187.615 188.354 188.177C183.426 189.281 177.736 192.338 174.529 200.193V207.574C182.201 198.115 190.61 195.639 197.222 195.611C200.663 195.597 203.604 196.246 205.685 196.897C206.011 197 206.316 197.105 206.6 197.205L197.42 187.921C197.414 187.92 197.408 187.919 197.401 187.918C197.279 187.896 197.097 187.865 196.861 187.832C196.39 187.765 195.705 187.687 194.862 187.645ZM216.447 205.704C216.646 205.905 216.645 206.231 216.443 206.43C216.242 206.629 215.917 206.627 215.718 206.426L216.447 205.704ZM187.406 179.104C186.357 178.995 184.917 178.967 183.347 179.287C180.298 179.908 176.71 181.845 174.529 187.2V197.738C177.993 191.024 183.401 188.235 188.131 187.176C190.752 186.589 193.162 186.531 194.915 186.62C195.41 186.645 195.853 186.684 196.235 186.724L188.956 179.361C188.882 179.343 188.777 179.319 188.644 179.292C188.353 179.232 187.93 179.158 187.406 179.104ZM209.64 164.248C201.749 167.621 198.793 173.342 197.793 178.232C197.29 180.695 197.283 182.952 197.402 184.594C197.462 185.414 197.554 186.079 197.63 186.536C197.64 186.597 197.651 186.653 197.66 186.706L197.981 187.03C198.028 187.063 198.067 187.104 198.1 187.149L207.337 196.491C207.242 196.212 207.143 195.911 207.047 195.59C206.424 193.516 205.812 190.583 205.854 187.144C205.937 180.504 208.463 172.031 217.931 164.248H209.64ZM197.364 164.454C192.195 166.657 190.29 170.161 189.659 173.131C189.331 174.677 189.345 176.092 189.443 177.121C189.492 177.635 189.562 178.05 189.618 178.335C189.644 178.465 189.668 178.569 189.686 178.641L196.454 185.485C196.427 185.233 196.401 184.96 196.38 184.668C196.255 182.96 196.261 180.605 196.788 178.027C197.754 173.304 200.47 167.845 207.262 164.248H197.868L197.364 164.454ZM174.529 184.819C176.874 180.594 180.211 178.879 183.143 178.282C184.84 177.937 186.389 177.967 187.512 178.083C187.581 178.09 187.649 178.099 187.715 178.106L174.529 164.771V184.819ZM188.44 177.382C188.435 177.328 188.428 177.274 188.423 177.219C188.318 176.115 188.301 174.592 188.656 172.918C189.282 169.972 191.057 166.602 195.426 164.248H175.452L188.44 177.382Z" fill="url(#paint0_linear_2283_22674)"/>
<path d="M135.582 232.793C198.929 232.793 250.283 181.439 250.283 118.092C250.283 54.744 198.929 3.39062 135.582 3.39062C72.2342 3.39062 20.8809 54.744 20.8809 118.092C20.8809 181.439 72.2342 232.793 135.582 232.793Z" fill="url(#paint1_linear_2283_22674)"/>
<rect x="22.3037" y="13.9492" width="210.396" height="210.396" rx="105.198" fill="#1FC16B"/>
<rect x="22.3037" y="13.9492" width="210.396" height="210.396" rx="105.198" stroke="#84EBB4" stroke-width="8.60357"/>
<path d="M98.5625 125.405C98.5625 125.405 104.82 125.405 113.162 140.005C113.162 140.005 136.351 101.765 156.962 94.1191" stroke="white" stroke-width="6.25714" stroke-linecap="round" stroke-linejoin="round"/>
<path d="M254.995 70.59C255.047 70.4963 255.078 70.3926 255.087 70.2857C255.096 70.1789 255.082 70.0714 255.047 69.9702C255.012 69.869 254.957 69.7765 254.884 69.6987C254.811 69.6209 254.722 69.5596 254.624 69.5188C251.763 68.3651 241.641 64.9407 236.109 71.8444C232.407 76.3817 227.176 79.3727 221.423 80.2405C221.278 80.2602 221.143 80.3236 221.034 80.4225C220.926 80.5213 220.849 80.6511 220.815 80.7946C220.781 80.9382 220.79 81.0889 220.842 81.2269C220.894 81.365 220.986 81.4839 221.106 81.5682C225.995 85.0749 242.148 94.0113 254.995 70.59Z" fill="url(#paint2_linear_2283_22674)"/>
<path d="M40.5821 119.007C40.623 118.931 40.6476 118.848 40.6546 118.762C40.6615 118.677 40.6505 118.59 40.6223 118.509C40.5941 118.428 40.5494 118.354 40.491 118.291C40.4326 118.229 40.3619 118.179 40.2833 118.146C37.9927 117.231 29.8531 114.484 25.4075 119.977C22.4411 123.617 18.2492 126.021 13.6372 126.725C13.5214 126.741 13.413 126.792 13.3262 126.871C13.2395 126.95 13.1784 127.054 13.1509 127.169C13.1235 127.284 13.1311 127.404 13.1726 127.515C13.2142 127.625 13.2877 127.72 13.3837 127.788C17.286 130.644 30.2605 137.823 40.5821 119.007Z" fill="url(#paint3_linear_2283_22674)"/>
<path d="M232.723 108.621C232.689 108.558 232.668 108.488 232.662 108.417C232.656 108.345 232.665 108.273 232.689 108.205C232.713 108.138 232.752 108.076 232.801 108.025C232.851 107.973 232.91 107.933 232.977 107.907C234.896 107.128 241.696 104.83 245.408 109.463C247.896 112.511 251.411 114.52 255.277 115.103C255.379 115.113 255.476 115.155 255.554 115.223C255.632 115.292 255.686 115.383 255.709 115.485C255.732 115.586 255.723 115.693 255.683 115.789C255.642 115.884 255.573 115.965 255.485 116.019C252.208 118.39 241.352 124.388 232.723 108.621Z" fill="url(#paint4_linear_2283_22674)"/>
<path d="M0.380383 78.9063C0.324501 78.8016 0.290927 78.6862 0.281823 78.5676C0.272719 78.449 0.288288 78.3298 0.327526 78.2177C0.366765 78.1055 0.428803 78.003 0.509641 77.9165C0.590479 77.8301 0.688324 77.7618 0.796871 77.716C3.96579 76.4433 15.1838 72.6527 21.3134 80.2888C25.4193 85.3235 31.2266 88.6383 37.6107 89.5914C37.7704 89.6152 37.9193 89.6869 38.0381 89.7973C38.157 89.9077 38.2404 90.0516 38.2774 90.2104C38.3145 90.3692 38.3036 90.5357 38.246 90.6881C38.1885 90.8406 38.087 90.9721 37.9548 91.0655C32.5133 94.9477 14.6134 104.855 0.380383 78.9063Z" fill="url(#paint5_linear_2283_22674)"/>
<path d="M39.512 49.2055C39.1972 47.9708 40.3371 46.8583 41.5638 47.203L49.8439 49.5298C51.0706 49.8746 51.4642 51.4179 50.5523 52.3079L44.3971 58.3154C43.4852 59.2053 41.9518 58.7744 41.637 57.5397L39.512 49.2055Z" fill="#BDDBFF"/>
<path d="M229.813 8.64515C230.302 6.61822 233.185 6.61821 233.675 8.64515L235.321 15.4671C235.496 16.1914 236.062 16.757 236.786 16.9318L243.608 18.5786C245.635 19.0679 245.635 21.951 243.608 22.4403L236.786 24.087C236.062 24.2619 235.496 24.8274 235.321 25.5518L233.675 32.3737C233.185 34.4006 230.302 34.4006 229.813 32.3737L228.166 25.5518C227.991 24.8274 227.426 24.2619 226.701 24.087L219.88 22.4403C217.853 21.951 217.853 19.0679 219.88 18.5786L226.701 16.9318C227.426 16.757 227.991 16.1914 228.166 15.4671L229.813 8.64515Z" fill="#BDDBFF"/>
<path d="M87.813 205.645C88.3023 203.618 91.1853 203.618 91.6746 205.645L93.3214 212.467C93.4963 213.191 94.0618 213.757 94.7862 213.932L101.608 215.579C103.635 216.068 103.635 218.951 101.608 219.44L94.7862 221.087C94.0618 221.262 93.4963 221.827 93.3214 222.552L91.6746 229.374C91.1853 231.401 88.3023 231.401 87.813 229.374L86.1662 222.552C85.9913 221.827 85.4258 221.262 84.7015 221.087L77.8795 219.44C75.8526 218.951 75.8526 216.068 77.8795 215.579L84.7015 213.932C85.4258 213.757 85.9913 213.191 86.1662 212.467L87.813 205.645Z" fill="#BDDBFF"/>
<path d="M56.6738 190.888C59.1877 190.888 61.2264 192.926 61.2266 195.439C61.2266 197.953 59.1878 199.992 56.6738 199.992C54.16 199.992 52.1221 197.953 52.1221 195.439C52.1223 192.926 54.1602 190.888 56.6738 190.888Z" stroke="#BDDBFF" stroke-width="2.48287"/>
<circle cx="63.6742" cy="16.4398" r="4.55192" stroke="#99B5FC" stroke-width="2.48287"/>
<circle cx="244.674" cy="186.44" r="4.55192" stroke="#99B5FC" stroke-width="2.48287"/>
<defs>
<linearGradient id="paint0_linear_2283_22674" x1="161.11" y1="172.594" x2="255.493" y2="183.259" gradientUnits="userSpaceOnUse">
<stop offset="0.0844027" stop-color="#BDD7FF"/>
<stop offset="1" stop-color="#FFF6F5"/>
</linearGradient>
<linearGradient id="paint1_linear_2283_22674" x1="134.698" y1="-33.9588" x2="137.047" y2="368.854" gradientUnits="userSpaceOnUse">
<stop stop-color="white" stop-opacity="0"/>
<stop offset="1" stop-color="#9DB3FF"/>
</linearGradient>
<linearGradient id="paint2_linear_2283_22674" x1="263.433" y1="87.147" x2="251.6" y2="59.9568" gradientUnits="userSpaceOnUse">
<stop stop-color="#99D4FF"/>
<stop offset="1" stop-color="#DAE2FF"/>
</linearGradient>
<linearGradient id="paint3_linear_2283_22674" x1="47.3524" y1="132.302" x2="37.849" y2="110.476" gradientUnits="userSpaceOnUse">
<stop stop-color="#99D4FF"/>
<stop offset="1" stop-color="#DAE2FF"/>
</linearGradient>
<linearGradient id="paint4_linear_2283_22674" x1="261.332" y1="119.775" x2="253.358" y2="101.476" gradientUnits="userSpaceOnUse">
<stop stop-color="#99D4FF"/>
<stop offset="1" stop-color="#DAE2FF"/>
</linearGradient>
<linearGradient id="paint5_linear_2283_22674" x1="47.5488" y1="97.2466" x2="34.4489" y2="67.1207" gradientUnits="userSpaceOnUse">
<stop stop-color="#99D4FF"/>
<stop offset="1" stop-color="#DAE2FF"/>
</linearGradient>
</defs>
</svg>
