<svg width="12" height="12" viewBox="0 0 12 12" fill="none" xmlns="http://www.w3.org/2000/svg">
<path d="M9.61206 5.96191V11.6504H2.11401V5.96191H9.61206Z" stroke="#808080" stroke-width="0.7"/>
<path d="M7.73999 3.47754L9.21753 5.26172H2.57202L4.24585 3.47754H7.73999Z" stroke="#808080" stroke-width="0.7"/>
<path d="M3.54968 3.19531L1.72546 5.1416L0.559448 4.25098L2.56824 2.56738L3.54968 3.19531Z" stroke="#808080" stroke-width="0.7" stroke-linejoin="round"/>
<path d="M11.4147 4.23047L10.0309 5.14648L8.42737 3.20898L9.4303 2.56738L11.4147 4.23047Z" stroke="#808080" stroke-width="0.7" stroke-linejoin="round"/>
<mask id="path-5-inside-1_1632_1076" fill="white">
<path d="M5.09497 2.18504C5.1388 2.16415 5.17289 2.12704 5.19013 2.08146C5.20738 2.03588 5.20643 1.98537 5.1875 1.94047L4.48891 0.284159C4.47901 0.260698 4.4645 0.239491 4.44625 0.221813C4.42799 0.204136 4.40637 0.190353 4.38268 0.181293C4.35899 0.172233 4.33373 0.168084 4.3084 0.169094C4.28308 0.170104 4.25822 0.176253 4.23532 0.187172L4.10073 0.25134C4.07783 0.262257 4.05736 0.277718 4.04055 0.296793C4.02375 0.315868 4.01095 0.338164 4.00294 0.362338C3.99492 0.386512 3.99185 0.412067 3.99391 0.437465C3.99596 0.462864 4.00311 0.487582 4.01491 0.510134L4.84808 2.10227C4.87067 2.14543 4.90897 2.17814 4.95498 2.19356C5.00099 2.20899 5.05115 2.20593 5.09497 2.18504Z"/>
</mask>
<path d="M5.09497 2.18504L5.3962 2.81691L5.39621 2.81691L5.09497 2.18504ZM5.1875 1.94047L5.83249 1.66846L5.83248 1.66844L5.1875 1.94047ZM4.48891 0.284159L3.84392 0.556178L3.84393 0.556195L4.48891 0.284159ZM4.23532 0.187172L4.53657 0.819032L4.53657 0.81903L4.23532 0.187172ZM4.10073 0.25134L4.40198 0.883201L4.40198 0.8832L4.10073 0.25134ZM4.01491 0.510134L4.63512 0.185574L4.63512 0.185572L4.01491 0.510134ZM4.84808 2.10227L4.22787 2.42683L4.22788 2.42683L4.84808 2.10227ZM5.09497 2.18504L5.39621 2.81691C5.60367 2.718 5.76399 2.54287 5.84485 2.32916L5.19013 2.08146L4.53542 1.83377C4.58179 1.71121 4.67392 1.6103 4.79373 1.55318L5.09497 2.18504ZM5.19013 2.08146L5.84485 2.32916C5.92566 2.11554 5.92126 1.87895 5.83249 1.66846L5.1875 1.94047L4.54251 2.21248C4.49161 2.09178 4.48909 1.95622 4.53542 1.83377L5.19013 2.08146ZM5.1875 1.94047L5.83248 1.66844L5.13388 0.0121219L4.48891 0.284159L3.84393 0.556195L4.54252 2.21251L5.1875 1.94047ZM4.48891 0.284159L5.13389 0.0121393C5.08747 -0.0979359 5.01927 -0.197704 4.9332 -0.281051L4.44625 0.221813L3.95929 0.724678C3.90973 0.676685 3.87056 0.619331 3.84392 0.556178L4.48891 0.284159ZM4.44625 0.221813L4.9332 -0.281051C4.84713 -0.364405 4.74495 -0.429602 4.63274 -0.472521L4.38268 0.181293L4.13262 0.835106C4.06778 0.810307 4.00885 0.772677 3.95929 0.724678L4.44625 0.221813ZM4.38268 0.181293L4.63274 -0.472521C4.5205 -0.515445 4.40067 -0.535144 4.2805 -0.53035L4.3084 0.169094L4.3363 0.868538C4.26678 0.871311 4.19748 0.859911 4.13262 0.835106L4.38268 0.181293ZM4.3084 0.169094L4.2805 -0.53035C4.16032 -0.525556 4.04247 -0.496375 3.93406 -0.444687L4.23532 0.187172L4.53657 0.81903C4.47396 0.848882 4.40583 0.865764 4.3363 0.868538L4.3084 0.169094ZM4.23532 0.187172L3.93407 -0.444689L3.79948 -0.380521L4.10073 0.25134L4.40198 0.8832L4.53657 0.819032L4.23532 0.187172ZM4.10073 0.25134L3.79948 -0.380522C3.69108 -0.328843 3.59447 -0.255786 3.51532 -0.165942L4.04055 0.296793L4.56579 0.759529C4.52025 0.811223 4.46457 0.853358 4.40198 0.883201L4.10073 0.25134ZM4.04055 0.296793L3.51532 -0.165942C3.43617 -0.0761054 3.3761 0.0286732 3.33852 0.142012L4.00294 0.362338L4.66736 0.582664C4.64581 0.647654 4.61133 0.707842 4.56579 0.759529L4.04055 0.296793ZM4.00294 0.362338L3.33852 0.142012C3.30093 0.255346 3.28656 0.375052 3.29619 0.493984L3.99391 0.437465L4.69162 0.380947C4.69714 0.449081 4.68891 0.517678 4.66736 0.582664L4.00294 0.362338ZM3.99391 0.437465L3.29619 0.493984C3.30583 0.612915 3.33929 0.728804 3.3947 0.834696L4.01491 0.510134L4.63512 0.185572C4.66693 0.246361 4.6861 0.312814 4.69162 0.380947L3.99391 0.437465ZM4.01491 0.510134L3.3947 0.834694L4.22787 2.42683L4.84808 2.10227L5.46829 1.77771L4.63512 0.185574L4.01491 0.510134ZM4.84808 2.10227L4.22788 2.42683C4.33392 2.62947 4.51436 2.78413 4.73247 2.85725L4.95498 2.19356L5.17749 1.52987C5.30358 1.57214 5.40742 1.66139 5.46829 1.77771L4.84808 2.10227ZM4.95498 2.19356L4.73247 2.85725C4.95067 2.93041 5.18862 2.91588 5.3962 2.81691L5.09497 2.18504L4.79374 1.55317C4.91368 1.49599 5.05131 1.48756 5.17749 1.52987L4.95498 2.19356Z" fill="#808080" mask="url(#path-5-inside-1_1632_1076)"/>
<mask id="path-7-inside-2_1632_1076" fill="white">
<path d="M5.97085 2.02482C6.00256 2.02255 6.03218 2.00805 6.05351 1.98434C6.07484 1.96063 6.08623 1.92955 6.08531 1.89759L6.0508 0.718439C6.05031 0.701737 6.04646 0.685307 6.0395 0.670136C6.03253 0.654965 6.02259 0.641367 6.01026 0.63016C5.99794 0.618952 5.98348 0.610366 5.96777 0.604918C5.95206 0.59947 5.93542 0.597272 5.91884 0.598456L5.82141 0.605437C5.80484 0.606623 5.78867 0.611165 5.77389 0.618791C5.75911 0.626416 5.74602 0.636968 5.7354 0.649811C5.72477 0.662654 5.71684 0.677524 5.71208 0.693527C5.70732 0.70953 5.70582 0.726335 5.70769 0.742934L5.83963 1.91511C5.8432 1.94689 5.85884 1.97605 5.8833 1.9965C5.90775 2.01694 5.93912 2.02709 5.97085 2.02482Z"/>
</mask>
<path d="M6.08531 1.89759L6.78501 1.87735L6.78501 1.87711L6.08531 1.89759ZM6.0508 0.718439L6.7505 0.697962L6.7505 0.697934L6.0508 0.718439ZM5.91884 0.598456L5.86895 -0.0997632L5.86882 -0.099754L5.91884 0.598456ZM5.82141 0.605437L5.87138 1.30365L5.87143 1.30365L5.82141 0.605437ZM5.70769 0.742934L5.01204 0.820938L5.01208 0.821234L5.70769 0.742934ZM5.83963 1.91511L6.53526 1.83701L6.53524 1.83681L5.83963 1.91511ZM5.97085 2.02482L6.02086 2.72304C6.23384 2.70778 6.43187 2.6104 6.57393 2.45249L6.05351 1.98434L5.53309 1.51618C5.63249 1.40569 5.77129 1.33733 5.92084 1.32661L5.97085 2.02482ZM6.05351 1.98434L6.57393 2.45249C6.71587 2.29469 6.79112 2.0886 6.78501 1.87735L6.08531 1.89759L5.3856 1.91783C5.38134 1.77049 5.4338 1.62656 5.53309 1.51618L6.05351 1.98434ZM6.08531 1.89759L6.78501 1.87711L6.7505 0.697962L6.0508 0.718439L5.3511 0.738916L5.38561 1.91807L6.08531 1.89759ZM6.0508 0.718439L6.7505 0.697934C6.74726 0.587437 6.72183 0.478635 6.67564 0.378039L6.0395 0.670136L5.40335 0.962233C5.3711 0.891978 5.35336 0.816037 5.3511 0.738944L6.0508 0.718439ZM6.0395 0.670136L6.67564 0.378039C6.62945 0.277436 6.56338 0.186983 6.48119 0.112249L6.01026 0.63016L5.53934 1.14807C5.4818 1.09575 5.43562 1.03249 5.40335 0.962233L6.0395 0.670136ZM6.01026 0.63016L6.48119 0.112249C6.39899 0.0375087 6.30239 -0.0199371 6.19713 -0.0564423L5.96777 0.604918L5.73842 1.26628C5.66457 1.24067 5.59688 1.20039 5.53934 1.14807L6.01026 0.63016ZM5.96777 0.604918L6.19713 -0.0564423C6.09185 -0.092952 5.9802 -0.107713 5.86895 -0.0997631L5.91884 0.598456L5.96874 1.29668C5.89064 1.30226 5.81228 1.29189 5.73842 1.26628L5.96777 0.604918ZM5.91884 0.598456L5.86882 -0.099754L5.77138 -0.0927734L5.82141 0.605437L5.87143 1.30365L5.96886 1.29667L5.91884 0.598456ZM5.82141 0.605437L5.77143 -0.0927767C5.66021 -0.0848154 5.55187 -0.0543325 5.45295 -0.00329918L5.77389 0.618791L6.09484 1.24088C6.02548 1.27666 5.94947 1.29806 5.87138 1.30365L5.82141 0.605437ZM5.77389 0.618791L5.45295 -0.00329918C5.35404 0.0477305 5.26668 0.118199 5.19599 0.203674L5.7354 0.649811L6.27481 1.09595C6.22535 1.15574 6.16419 1.2051 6.09484 1.24088L5.77389 0.618791ZM5.7354 0.649811L5.19599 0.203674C5.1253 0.289145 5.0727 0.38788 5.04116 0.493878L5.71208 0.693527L6.38301 0.893175C6.36099 0.967168 6.32425 1.03616 6.27481 1.09595L5.7354 0.649811ZM5.71208 0.693527L5.04116 0.493878C5.00962 0.599869 4.99973 0.711098 5.01204 0.820938L5.70769 0.742934L6.40333 0.66493C6.41192 0.741573 6.40502 0.819191 6.38301 0.893175L5.71208 0.693527ZM5.70769 0.742934L5.01208 0.821234L5.14402 1.99341L5.83963 1.91511L6.53524 1.83681L6.40329 0.664634L5.70769 0.742934ZM5.83963 1.91511L5.144 1.99321C5.1676 2.20337 5.27116 2.39712 5.43429 2.53352L5.8833 1.9965L6.3323 1.45947C6.44653 1.55498 6.5188 1.69041 6.53526 1.83701L5.83963 1.91511ZM5.8833 1.9965L5.43429 2.53352C5.59756 2.67002 5.8077 2.73828 6.0208 2.72304L5.97085 2.02482L5.9209 1.32661C6.07054 1.3159 6.21795 1.36386 6.3323 1.45947L5.8833 1.9965Z" fill="#808080" mask="url(#path-7-inside-2_1632_1076)"/>
<mask id="path-9-inside-3_1632_1076" fill="white">
<path d="M6.64689 2.46059C6.73413 2.51131 6.8566 2.46477 6.92452 2.35508L8.13064 0.407426C8.20269 0.291074 8.18562 0.149264 8.09309 0.0954745L7.96412 0.0205099C7.87159 -0.0332895 7.74084 0.0225737 7.6765 0.143403L6.59934 2.16601C6.53868 2.27993 6.55965 2.40987 6.64689 2.46059Z"/>
</mask>
<path d="M6.64689 2.46059L6.29505 3.06574L6.2951 3.06577L6.64689 2.46059ZM6.92452 2.35508L6.32939 1.98654L6.32938 1.98655L6.92452 2.35508ZM8.13064 0.407426L8.72577 0.775969L8.72578 0.775954L8.13064 0.407426ZM8.09309 0.0954745L8.4449 -0.509696L8.44486 -0.509722L8.09309 0.0954745ZM7.96412 0.0205099L7.61226 0.625653L7.61236 0.625706L7.96412 0.0205099ZM7.6765 0.143403L8.29434 0.472443L8.29436 0.472412L7.6765 0.143403ZM6.59934 2.16601L5.98149 1.83697L5.98148 1.837L6.59934 2.16601ZM6.64689 2.46059L6.2951 3.06577C6.83473 3.37946 7.33801 3.01695 7.51966 2.7236L6.92452 2.35508L6.32938 1.98655C6.36915 1.92234 6.43821 1.85396 6.54428 1.81365C6.65216 1.77265 6.82621 1.75515 6.99868 1.85541L6.64689 2.46059ZM6.92452 2.35508L7.51965 2.72362L8.72577 0.775969L8.13064 0.407426L7.53552 0.038882L6.32939 1.98654L6.92452 2.35508ZM8.13064 0.407426L8.72578 0.775954C8.83962 0.59211 8.89565 0.369347 8.86857 0.144335C8.84142 -0.0812167 8.72015 -0.349684 8.4449 -0.509696L8.09309 0.0954745L7.74129 0.700645C7.55857 0.594423 7.4921 0.423755 7.4786 0.311644C7.46517 0.200072 7.49371 0.10639 7.53551 0.0388966L8.13064 0.407426ZM8.09309 0.0954745L8.44486 -0.509722L8.31588 -0.584686L7.96412 0.0205099L7.61236 0.625706L7.74133 0.700671L8.09309 0.0954745ZM7.96412 0.0205099L8.31597 -0.584633C8.04004 -0.745074 7.74553 -0.717311 7.53471 -0.627236C7.32496 -0.53762 7.16023 -0.376401 7.05863 -0.185606L7.6765 0.143403L8.29436 0.472412C8.2571 0.542378 8.18992 0.615251 8.08477 0.660177C7.97854 0.705563 7.79567 0.732294 7.61226 0.625653L7.96412 0.0205099ZM7.6765 0.143403L7.05865 -0.185636L5.98149 1.83697L6.59934 2.16601L7.21718 2.49505L8.29434 0.472443L7.6765 0.143403ZM6.59934 2.16601L5.98148 1.837C5.81958 2.14103 5.75917 2.75418 6.29505 3.06574L6.64689 2.46059L6.99873 1.85544C7.17062 1.95538 7.24071 2.11399 7.25871 2.22545C7.27648 2.33556 7.25265 2.42845 7.2172 2.49503L6.59934 2.16601Z" fill="#808080" mask="url(#path-9-inside-3_1632_1076)"/>
</svg>
