<svg width="25" height="25" viewBox="0 0 25 25" fill="none" xmlns="http://www.w3.org/2000/svg">
<path d="M18 9.83333H19.6667C19.8877 9.83333 20.0996 9.92113 20.2559 10.0774C20.4122 10.2337 20.5 10.4457 20.5 10.6667V20.6667C20.5 20.8877 20.4122 21.0996 20.2559 21.2559C20.0996 21.4122 19.8877 21.5 19.6667 21.5H6.33333C6.11232 21.5 5.90036 21.4122 5.74408 21.2559C5.5878 21.0996 5.5 20.8877 5.5 20.6667V10.6667C5.5 10.4457 5.5878 10.2337 5.74408 10.0774C5.90036 9.92113 6.11232 9.83333 6.33333 9.83333H8V9C8 7.67392 8.52678 6.40215 9.46447 5.46447C10.4021 4.52678 11.6739 4 13 4C14.3261 4 15.5979 4.52678 16.5355 5.46447C17.4732 6.40215 18 7.67392 18 9V9.83333ZM7.16667 11.5V19.8333H18.8333V11.5H7.16667ZM12.1667 14.8333H13.8333V16.5H12.1667V14.8333ZM8.83333 14.8333H10.5V16.5H8.83333V14.8333ZM15.5 14.8333H17.1667V16.5H15.5V14.8333ZM16.3333 9.83333V9C16.3333 8.11594 15.9821 7.2681 15.357 6.64298C14.7319 6.01786 13.8841 5.66667 13 5.66667C12.1159 5.66667 11.2681 6.01786 10.643 6.64298C10.0179 7.2681 9.66667 8.11594 9.66667 9V9.83333H16.3333Z" fill="#C1C7D0"/>
</svg>
