<svg width="22" height="21" viewBox="0 0 22 21" fill="none" xmlns="http://www.w3.org/2000/svg">
<path d="M14.6563 4.57183L15.8445 3.38454C16.1595 3.06954 16.5867 2.89258 17.0322 2.89258C17.4777 2.89258 17.9049 3.06954 18.2199 3.38454C18.5349 3.69955 18.7119 4.12678 18.7119 4.57226C18.7119 5.01773 18.5349 5.44497 18.2199 5.75997L17.0326 6.9481M14.6563 4.57183L10.2207 9.00743C9.33514 9.89387 8.89192 10.3362 8.59023 10.8761C8.28853 11.4159 7.98514 12.6896 7.69531 13.9091C8.91396 13.6193 10.1885 13.3159 10.7284 13.0142C11.2682 12.7125 11.7114 12.2693 12.597 11.3837L17.0326 6.9481M14.6563 4.57183L17.0326 6.9481" stroke="white" stroke-width="1.27119" stroke-linecap="round" stroke-linejoin="round"/>
<path d="M18.7122 10.5197C18.7122 14.1155 18.7122 15.9129 17.5953 17.0299C16.4783 18.1468 14.68 18.1468 11.0851 18.1468C7.49021 18.1468 5.69191 18.1468 4.57496 17.0299C3.45801 15.9129 3.45801 14.1146 3.45801 10.5197C3.45801 6.92478 3.45801 5.12648 4.57496 4.00953C5.69191 2.89258 7.49021 2.89258 11.0851 2.89258" stroke="white" stroke-width="1.27119" stroke-linecap="round" stroke-linejoin="round"/>
</svg>
