<svg width="16" height="16" viewBox="0 0 16 16" fill="none" xmlns="http://www.w3.org/2000/svg">
<path d="M2.24445 7.95856C1.58084 6.80216 1.26024 5.85715 1.06704 4.89955C0.781432 3.48274 1.43524 2.09884 2.51816 1.21544C2.97597 0.842334 3.50097 0.970435 3.77188 1.45554L4.38299 2.55244C4.86739 3.42184 5.1096 3.85585 5.062 4.31645C5.0137 4.77775 4.68679 5.15295 4.03368 5.90335L2.24445 7.95856ZM2.24445 7.95856C3.58777 10.3008 5.69551 12.4106 8.04054 13.7546M8.04054 13.7546C9.19766 14.4182 10.142 14.7388 11.0996 14.932C12.5164 15.2176 13.9003 14.5638 14.783 13.4809C15.1568 13.0231 15.0287 12.4981 14.5436 12.2272L13.4467 11.6161C12.5773 11.1317 12.1433 10.8895 11.6827 10.9371C11.2214 10.9854 10.8462 11.3123 10.0958 11.9654L8.04054 13.7546Z" stroke="black" stroke-linecap="round" stroke-linejoin="round"/>
</svg>
