<svg width="15" height="16" viewBox="0 0 15 16" fill="none" xmlns="http://www.w3.org/2000/svg">
<path d="M7.53516 14.9121C11.4013 14.9121 14.5352 11.7782 14.5352 7.91211C14.5352 4.04601 11.4013 0.912109 7.53516 0.912109C3.66906 0.912109 0.535156 4.04601 0.535156 7.91211C0.535156 8.87741 0.731156 9.79721 1.08396 10.6337C1.27926 11.0957 1.37656 11.3267 1.38916 11.5017C1.40106 11.6767 1.34926 11.8685 1.24636 12.2528L0.535156 14.9121L3.19446 14.2009C3.57876 14.098 3.77056 14.0469 3.94556 14.0581C4.12056 14.0707 4.35156 14.168 4.81356 14.3633C5.67501 14.7261 6.60041 14.9127 7.53516 14.9121Z" stroke="black" stroke-width="0.7" stroke-linecap="round" stroke-linejoin="round"/>
<path d="M5.14688 8.17601L5.75658 7.41931C6.01348 7.10011 6.33058 6.80331 6.35648 6.37771C6.36208 6.27061 6.28648 5.78901 6.13598 4.82511C6.07648 4.44641 5.72228 4.41211 5.41638 4.41211C5.01738 4.41211 4.81788 4.41211 4.61978 4.50311C4.36918 4.61721 4.11228 4.93851 4.05558 5.20801C4.01078 5.42151 4.04438 5.56851 4.11088 5.86251C4.39228 7.11061 5.05378 8.34331 6.07858 9.36881C7.10408 10.3936 8.33678 11.0551 9.58558 11.3365C9.87958 11.403 10.0259 11.4366 10.2394 11.3918C10.5089 11.3358 10.8302 11.0782 10.945 10.8276C11.0353 10.6295 11.0353 10.43 11.0353 10.031C11.0353 9.72441 11.001 9.37091 10.6223 9.31141C9.65838 9.16021 9.17678 9.08531 9.06968 9.09091C8.64478 9.11611 8.34728 9.43391 8.02808 9.69081L7.27138 10.2998" stroke="black" stroke-width="0.7" stroke-linecap="round" stroke-linejoin="round"/>
</svg>
