<svg width="16" height="16" viewBox="0 0 16 16" fill="none" xmlns="http://www.w3.org/2000/svg">
<path d="M6.33333 2C3.348 2 1.85467 2 0.927333 2.92733C0 3.85467 0 5.34733 0 8.334C0 11.3193 0 12.812 0.927333 13.7393C1.85467 14.6667 3.34733 14.6667 6.33333 14.6667C9.31867 14.6667 10.812 14.6667 11.7393 13.7393C12.6667 12.812 12.6667 11.3193 12.6667 8.33333C12.6667 7.42667 12.6667 6.65733 12.6407 6" stroke="#406896" stroke-width="1.12313" stroke-linecap="round" stroke-linejoin="round"/>
<path d="M2.99023 14.334C5.9049 10.8507 9.1729 6.25665 13.9889 9.36265M9.32357 4.00065C9.32357 4.00065 9.99023 4.00065 10.6569 5.33398C10.6569 5.33398 12.7749 2.00065 14.6569 1.33398" stroke="#406896" stroke-width="1.12313" stroke-linecap="round" stroke-linejoin="round"/>
</svg>
