<svg width="26" height="25" viewBox="0 0 26 25" fill="none" xmlns="http://www.w3.org/2000/svg">
<path d="M6.5 4C5.95 4 5.5 4.18 5.09 4.57C4.7 4.96 4.5 5.44 4.5 6V18C4.5 18.56 4.7 19.04 5.09 19.43C5.5 19.82 5.95 20 6.5 20H20.5C21 20 21.5 19.81 21.89 19.41C22.3 19 22.5 18.53 22.5 18V6C22.5 5.47 22.3 5 21.89 4.59C21.5 4.19 21 4 20.5 4H6.5ZM6 5.5H21V18.5H6V5.5ZM8.5 9C8.2 9 7.97 9.09 7.78 9.28C7.59 9.47 7.5 9.7 7.5 10V14C7.5 14.3 7.59 14.53 7.78 14.72C7.97 14.91 8.2 15 8.5 15H11.5C11.77 15 12 14.91 12.21 14.72C12.41 14.53 12.5 14.3 12.5 14V13H11V13.5H9V10.5H11V11H12.5V10C12.5 9.7 12.41 9.47 12.21 9.28C12 9.09 11.77 9 11.5 9H8.5ZM15.5 9C15.23 9 15 9.09 14.79 9.28C14.59 9.47 14.5 9.7 14.5 10V14C14.5 14.3 14.59 14.53 14.79 14.72C15 14.91 15.23 15 15.5 15H18.5C18.8 15 19.03 14.91 19.22 14.72C19.41 14.53 19.5 14.3 19.5 14V13H18V13.5H16V10.5H18V11H19.5V10C19.5 9.7 19.41 9.47 19.22 9.28C19.03 9.09 18.8 9 18.5 9H15.5Z" fill="#2176FF"/>
</svg>
