<svg width="13" height="13" viewBox="0 0 13 13" fill="none" xmlns="http://www.w3.org/2000/svg">
<g clip-path="url(#clip0_1458_2596)">
<path d="M6.28667 2.61963C6.30639 2.57785 6.33685 2.54268 6.37462 2.51809C6.41239 2.4935 6.45595 2.48047 6.5004 2.48047C6.54486 2.48047 6.58842 2.4935 6.62619 2.51809C6.66396 2.54268 6.69442 2.57785 6.71414 2.61963L7.75354 4.82762C7.82201 4.97295 7.92309 5.09868 8.0481 5.19402C8.1731 5.28937 8.3183 5.35148 8.47123 5.37502L10.7957 5.73177C10.8398 5.73846 10.8811 5.75795 10.9152 5.78802C10.9492 5.81809 10.9745 5.85755 10.9883 5.90194C11.0021 5.94632 11.0037 5.99386 10.9931 6.03918C10.9824 6.08449 10.9599 6.12578 10.928 6.15836L9.24696 7.87511C9.13609 7.98842 9.05315 8.12828 9.00525 8.28266C8.95736 8.43703 8.94596 8.60131 8.97203 8.76133L9.3689 11.1869C9.37667 11.233 9.37192 11.2806 9.35517 11.324C9.33843 11.3675 9.31037 11.4052 9.2742 11.4327C9.23803 11.4603 9.1952 11.4766 9.15061 11.4799C9.10601 11.4831 9.06144 11.4732 9.02198 11.4511L6.94406 10.3054C6.80715 10.23 6.65482 10.1906 6.50018 10.1906C6.34554 10.1906 6.19321 10.23 6.05629 10.3054L3.97883 11.4511C3.93938 11.473 3.89487 11.4829 3.85035 11.4796C3.80582 11.4762 3.76308 11.4599 3.72699 11.4324C3.69089 11.4048 3.66288 11.3672 3.64616 11.3238C3.62943 11.2804 3.62465 11.233 3.63236 11.1869L4.02878 8.7618C4.05496 8.6017 4.04362 8.43733 3.99572 8.28285C3.94783 8.12838 3.86482 7.98844 3.75385 7.87511L2.0728 6.15883C2.04067 6.12629 2.01791 6.08493 2.00709 6.03948C1.99628 5.99403 1.99786 5.9463 2.01164 5.90174C2.02543 5.85718 2.05088 5.81758 2.08508 5.78745C2.11928 5.75731 2.16086 5.73786 2.20509 5.7313L4.52913 5.37502C4.68223 5.35166 4.82763 5.28963 4.95281 5.19428C5.07798 5.09892 5.17919 4.97309 5.24772 4.82762L6.28667 2.61963Z" stroke="#808080" stroke-width="1.3" stroke-linecap="round" stroke-linejoin="round"/>
</g>
<defs>
<clipPath id="clip0_1458_2596">
<rect x="0.5" y="0.980469" width="12" height="12" rx="6" fill="white"/>
</clipPath>
</defs>
</svg>
