<svg width="29" height="28" viewBox="0 0 29 28" fill="none" xmlns="http://www.w3.org/2000/svg">
<path fill-rule="evenodd" clip-rule="evenodd" d="M26.3679 19.6838C26.3842 22.7339 24.4783 25.4638 21.6095 26.4995C18.7406 27.5352 15.5304 26.6522 13.5947 24.2951C13.5295 24.3006 13.4639 24.3006 13.3987 24.2951H6.35506C4.55119 24.3272 3.06127 22.894 3.02344 21.0903V6.74929C3.06127 4.94553 4.55119 3.51232 6.35506 3.54448H21.5952C23.3991 3.51232 24.889 4.94553 24.9268 6.74929L24.996 15.0726C24.9907 15.1832 24.9674 15.2923 24.9268 15.3954C25.8589 16.6311 26.3645 18.136 26.3679 19.6838ZM17.9288 19.73L18.2631 19.3841C18.4922 19.1665 18.6219 18.8643 18.6219 18.5483C18.6219 18.2323 18.4922 17.9302 18.2631 17.7126C18.0467 17.4943 17.752 17.3716 17.4446 17.3716C17.1372 17.3716 16.8426 17.4943 16.6261 17.7126L15.4733 18.8654C15.0263 19.315 15.0263 20.0412 15.4733 20.4908L16.6261 21.6436C16.8418 21.8637 17.1365 21.9882 17.4446 21.9895C17.8934 21.9752 18.2931 21.7015 18.4688 21.2883C18.6444 20.8751 18.5642 20.3974 18.2631 20.0643L17.9288 19.73ZM20.0851 19.384C19.6381 18.9344 19.6381 18.2082 20.0851 17.7586C20.3016 17.5403 20.5962 17.4176 20.9036 17.4176C21.211 17.4176 21.5056 17.5403 21.7221 17.7586L22.8749 18.9114C23.3219 19.361 23.3219 20.0872 22.8749 20.5368L21.7221 21.6897C21.5065 21.9097 21.2117 22.0342 20.9036 22.0355C20.5955 22.0342 20.3008 21.9097 20.0851 21.6897C19.6381 21.24 19.6381 20.5138 20.0851 20.0642L20.431 19.7299L20.0851 19.384ZM22.6207 13.401C21.5661 12.8019 20.3751 12.4842 19.1622 12.4787C16.8414 12.4792 14.663 13.5976 13.3099 15.4832C11.9569 17.3688 11.5949 19.7906 12.3376 21.9894H6.3545C5.82357 22.0224 5.36547 21.6209 5.3285 21.0902V6.74924C5.36547 6.21858 5.82357 5.8171 6.3545 5.85005H21.5947C21.8516 5.8343 22.1042 5.9215 22.2967 6.09239C22.4893 6.26327 22.6058 6.50378 22.6207 6.76077V13.401ZM24.0622 19.6839C24.0622 16.978 21.8687 14.7845 19.1628 14.7845C16.4569 14.7845 14.2633 16.978 14.2633 19.6839C14.2633 22.3898 16.4569 24.5834 19.1628 24.5834C21.866 24.577 24.0559 22.3872 24.0622 19.6839ZM19.1634 8.15575C19.8 8.15575 20.3162 8.67188 20.3162 9.30856C20.3162 9.94524 19.8 10.4614 19.1634 10.4614H8.78805C8.15137 10.4614 7.63524 9.94524 7.63524 9.30856C7.63524 8.67188 8.15137 8.15575 8.78805 8.15575H19.1634Z" fill="#E21F1F"/>
</svg>
