<svg width="32" height="32" viewBox="0 0 32 32" fill="none" xmlns="http://www.w3.org/2000/svg">
<path d="M15.9998 12.0002V16.0002M15.9998 20.0002H16.0098M14.2898 6.8602L5.81978 21.0002C5.64514 21.3026 5.55274 21.6455 5.55177 21.9947C5.55079 22.3439 5.64127 22.6873 5.8142 22.9907C5.98714 23.2941 6.2365 23.547 6.53748 23.7241C6.83847 23.9012 7.18058 23.9964 7.52978 24.0002H24.4698C24.819 23.9964 25.1611 23.9012 25.4621 23.7241C25.7631 23.547 26.0124 23.2941 26.1854 22.9907C26.3583 22.6873 26.4488 22.3439 26.4478 21.9947C26.4468 21.6455 26.3544 21.3026 26.1798 21.0002L17.7098 6.8602C17.5315 6.56631 17.2805 6.32332 16.981 6.15469C16.6814 5.98605 16.3435 5.89746 15.9998 5.89746C15.656 5.89746 15.3181 5.98605 15.0186 6.15469C14.7191 6.32332 14.468 6.56631 14.2898 6.8602Z" stroke="#3E3E40" stroke-width="2" stroke-linecap="round" stroke-linejoin="round"/>
</svg>
