<svg width="17" height="24" viewBox="0 0 17 24" fill="none" xmlns="http://www.w3.org/2000/svg">
<mask id="path-1-inside-1_1612_18619" fill="white">
<path d="M1 0.650391C1.46944 0.650391 1.84961 1.03056 1.84961 1.5V2.74609C3.7144 2.42496 8.00195 1.8046 8.00195 2.90039C8.00249 4.07544 13.9201 3.27789 15.8223 2.99121C16.1277 2.94518 16.4032 3.18138 16.4033 3.49023V12.2852C16.4033 12.5268 16.2344 12.7326 15.9961 12.7725C14.4056 13.0382 8.70215 13.9071 8.70215 12.7021C8.7012 11.5916 3.85208 12.2448 1.84961 12.5615V22.5049L1.8457 22.5918C1.80214 23.0204 1.44008 23.3545 1 23.3545C0.559924 23.3545 0.19786 23.0204 0.154297 22.5918L0.150391 22.5049V1.5C0.150391 1.03056 0.530558 0.650391 1 0.650391Z"/>
</mask>
<path d="M1.84961 2.74609H0.149609V4.76387L2.13812 4.42143L1.84961 2.74609ZM8.00195 2.90039H6.30195L6.30195 2.90116L8.00195 2.90039ZM15.8223 2.99121L16.0756 4.67223L16.0756 4.67223L15.8223 2.99121ZM16.4033 3.49023H18.1033V3.48949L16.4033 3.49023ZM15.9961 12.7725L16.2762 14.4492L16.2762 14.4492L15.9961 12.7725ZM8.70215 12.7021L10.4021 12.7021L10.4021 12.7007L8.70215 12.7021ZM1.84961 12.5615L1.58407 10.8824L0.149609 11.1092V12.5615H1.84961ZM1.84961 22.5049L3.54789 22.5812L3.54961 22.5431V22.5049H1.84961ZM1.8457 22.5918L3.53699 22.7637L3.54184 22.716L3.54399 22.6681L1.8457 22.5918ZM0.154297 22.5918L-1.54399 22.6681L-1.54184 22.716L-1.53699 22.7637L0.154297 22.5918ZM0.150391 22.5049H-1.54961V22.5431L-1.5479 22.5812L0.150391 22.5049ZM1 0.650391V2.35039C0.530558 2.35039 0.149609 1.96944 0.149609 1.5H1.84961H3.54961C3.54961 0.0916739 2.40833 -1.04961 1 -1.04961V0.650391ZM1.84961 1.5H0.149609V2.74609H1.84961H3.54961V1.5H1.84961ZM1.84961 2.74609L2.13812 4.42143C3.05643 4.26329 4.50764 4.04347 5.70089 3.9902C6.31928 3.9626 6.73815 3.98713 6.95207 4.03224C7.06855 4.05681 6.97668 4.05817 6.81891 3.94425C6.60046 3.78652 6.30195 3.42539 6.30195 2.90039H8.00195H9.70195C9.70195 2.10144 9.26946 1.51999 8.80925 1.1877C8.40972 0.899224 7.96831 0.771779 7.6537 0.705427C7.00543 0.568705 6.23586 0.562935 5.54926 0.593587C4.13253 0.656833 2.50758 0.907762 1.5611 1.07075L1.84961 2.74609ZM8.00195 2.90039L6.30195 2.90116C6.30242 3.92342 7.00077 4.50356 7.44764 4.7467C7.8754 4.97944 8.34782 5.07936 8.7092 5.13252C9.4659 5.24383 10.4022 5.23719 11.2863 5.1917C13.0904 5.09889 15.113 4.8173 16.0756 4.67223L15.8223 2.99121L15.5689 1.31019C14.6293 1.4518 12.742 1.71232 11.1116 1.79619C10.2786 1.83905 9.61646 1.82939 9.20402 1.76872C8.98082 1.73588 8.97598 1.70757 9.07259 1.76014C9.18831 1.8231 9.70162 2.17112 9.70195 2.89962L8.00195 2.90039ZM15.8223 2.99121L16.0756 4.67223C15.3568 4.78056 14.7036 4.22527 14.7033 3.49098L16.4033 3.49023L18.1033 3.48949C18.1027 2.13748 16.8986 1.10979 15.5689 1.3102L15.8223 2.99121ZM16.4033 3.49023H14.7033V12.2852H16.4033H18.1033V3.49023H16.4033ZM16.4033 12.2852H14.7033C14.7033 11.7234 15.1082 11.1972 15.716 11.0957L15.9961 12.7725L16.2762 14.4492C17.3607 14.268 18.1033 13.3302 18.1033 12.2852H16.4033ZM15.9961 12.7725L15.716 11.0957C14.9327 11.2266 13.1809 11.4978 11.6484 11.592C10.8631 11.6402 10.2464 11.634 9.87005 11.5776C9.6656 11.547 9.68203 11.522 9.79478 11.5866C9.94733 11.6739 10.4021 12.0282 10.4021 12.7021L8.70215 12.7021L7.00215 12.7022C7.00215 13.6773 7.6352 14.2681 8.10587 14.5374C8.53675 14.7841 9.01118 14.8869 9.36628 14.9401C10.109 15.0513 11.0176 15.0372 11.8569 14.9856C13.5738 14.8801 15.4689 14.5841 16.2762 14.4492L15.9961 12.7725ZM8.70215 12.7021L10.4021 12.7007C10.4014 11.8133 9.86816 11.2295 9.4088 10.9342C8.99967 10.6712 8.54995 10.5562 8.22211 10.4955C7.53983 10.3692 6.71352 10.3649 5.95204 10.3982C4.38912 10.4667 2.59818 10.722 1.58407 10.8824L1.84961 12.5615L2.11515 14.2407C3.10351 14.0844 4.73836 13.8547 6.10086 13.795C6.80208 13.7643 7.31339 13.7851 7.60316 13.8387C7.76135 13.868 7.70627 13.8817 7.57032 13.7943C7.38415 13.6746 7.00267 13.3133 7.00215 12.7036L8.70215 12.7021ZM1.84961 12.5615H0.149609V22.5049H1.84961H3.54961V12.5615H1.84961ZM1.84961 22.5049L0.151324 22.4286L0.147417 22.5155L1.8457 22.5918L3.54399 22.6681L3.54789 22.5812L1.84961 22.5049ZM1.8457 22.5918L0.154417 22.4199C0.198281 21.9883 0.560014 21.6545 1 21.6545V23.3545V25.0545C2.32014 25.0545 3.406 24.0524 3.53699 22.7637L1.8457 22.5918ZM1 23.3545V21.6545C1.43999 21.6545 1.80172 21.9883 1.84558 22.4199L0.154297 22.5918L-1.53699 22.7637C-1.406 24.0524 -0.320138 25.0545 1 25.0545V23.3545ZM0.154297 22.5918L1.85258 22.5155L1.84868 22.4286L0.150391 22.5049L-1.5479 22.5812L-1.54399 22.6681L0.154297 22.5918ZM0.150391 22.5049H1.85039V1.5H0.150391H-1.54961V22.5049H0.150391ZM0.150391 1.5H1.85039C1.85039 1.96944 1.46944 2.35039 1 2.35039V0.650391V-1.04961C-0.408326 -1.04961 -1.54961 0.0916739 -1.54961 1.5H0.150391Z" fill="#1F2937" mask="url(#path-1-inside-1_1612_18619)"/>
</svg>
