<svg width="17" height="15" viewBox="0 0 17 15" fill="none" xmlns="http://www.w3.org/2000/svg">
<path d="M15.1817 5.48727L4.01559 0.235769C3.57492 0.029467 3.07733 -0.043978 2.59066 0.0254477C2.104 0.0948735 1.65194 0.303791 1.29612 0.623717C0.940295 0.943643 0.698031 1.35901 0.602354 1.81318C0.506676 2.26735 0.562242 2.73823 0.761476 3.16161L2.67566 7.19026C2.71909 7.28766 2.74146 7.39223 2.74146 7.49785C2.74146 7.60347 2.71909 7.70804 2.67566 7.80544L0.761476 11.8341C0.599329 12.1767 0.530781 12.552 0.562063 12.9259C0.593345 13.2998 0.723465 13.6604 0.940597 13.975C1.15773 14.2895 1.45499 14.5481 1.80536 14.7271C2.15573 14.9061 2.54811 14.9999 2.94683 15C3.32028 14.9965 3.68817 14.9145 4.02356 14.7599L15.1896 9.50843C15.5857 9.32101 15.9186 9.03377 16.1513 8.67875C16.3839 8.32373 16.5071 7.91489 16.5071 7.49785C16.5071 7.08081 16.3839 6.67197 16.1513 6.31695C15.9186 5.96193 15.5857 5.67469 15.1896 5.48727H15.1817ZM14.4718 8.16554L3.30574 13.417C3.15912 13.4833 2.99448 13.5057 2.83389 13.4815C2.6733 13.4572 2.52445 13.3873 2.40728 13.2811C2.29012 13.175 2.21026 13.0377 2.17839 12.8877C2.14653 12.7377 2.16419 12.5821 2.22902 12.4418L4.13522 8.41311C4.1599 8.35932 4.18121 8.30421 4.19903 8.24807H9.69433C9.90586 8.24807 10.1087 8.16903 10.2583 8.02833C10.4079 7.88764 10.4919 7.69682 10.4919 7.49785C10.4919 7.29888 10.4079 7.10806 10.2583 6.96737C10.1087 6.82668 9.90586 6.74764 9.69433 6.74764H4.19903C4.18121 6.6915 4.1599 6.63638 4.13522 6.58259L2.22902 2.55393C2.16419 2.41362 2.14653 2.25801 2.17839 2.10798C2.21026 1.95795 2.29012 1.82068 2.40728 1.71455C2.52445 1.60843 2.6733 1.53854 2.83389 1.51425C2.99448 1.48996 3.15912 1.51243 3.30574 1.57865L14.4718 6.83016C14.6025 6.89312 14.7121 6.98876 14.7887 7.10657C14.8652 7.22438 14.9057 7.35978 14.9057 7.49785C14.9057 7.63593 14.8652 7.77132 14.7887 7.88913C14.7121 8.00694 14.6025 8.10259 14.4718 8.16554Z" fill="white"/>
</svg>
