<svg width="26" height="25" viewBox="0 0 26 25" fill="none" xmlns="http://www.w3.org/2000/svg">
<path d="M12.47 22.5C8.478 22.5 6.481 22.5 5.24 21.328C4 20.157 4 18.271 4 14.5V10.5C4 6.729 4 4.843 5.24 3.672C6.481 2.5 8.478 2.5 12.47 2.5H13.53C17.523 2.5 19.519 2.5 20.76 3.672C22 4.843 22 6.729 22 10.5M12.5 22.5H14M9 7.5H17M9 12.5H14" stroke="#2176FF" stroke-width="1.5" stroke-linecap="round" stroke-linejoin="round"/>
<path d="M18.5 19.09L17.598 22.243C17.5889 22.2788 17.5899 22.3163 17.6008 22.3516C17.6118 22.3868 17.6322 22.4183 17.66 22.4426C17.6877 22.467 17.7216 22.4831 17.758 22.4894C17.7944 22.4956 17.8317 22.4917 17.866 22.478L19.851 21.685C19.9466 21.6466 20.0534 21.6466 20.149 21.685L22.153 22.485C22.1865 22.4984 22.2231 22.5024 22.2587 22.4967C22.2943 22.491 22.3278 22.4758 22.3555 22.4526C22.3831 22.4294 22.404 22.3992 22.4159 22.3651C22.4278 22.331 22.4303 22.2944 22.423 22.259L21.659 18.991M23 16.495C22.9987 15.7002 22.682 14.9384 22.1196 14.3769C21.5571 13.8154 20.7948 13.5 20 13.5C18.343 13.5 17 14.841 17 16.495C17.0003 16.8887 17.0781 17.2784 17.229 17.642C17.3799 18.0056 17.601 18.3358 17.8796 18.614C18.1582 18.8921 18.4888 19.1126 18.8526 19.2629C19.2165 19.4132 19.6063 19.4904 20 19.49C21.657 19.49 23 18.15 23 16.495Z" stroke="#2176FF" stroke-width="1.5" stroke-linecap="round" stroke-linejoin="round"/>
</svg>
