<svg width="20" height="20" viewBox="0 0 20 20" fill="none" xmlns="http://www.w3.org/2000/svg">
<path d="M5.47957 11.4799L5.24998 11.7174V5.70866C5.24998 5.4987 5.16658 5.29733 5.01811 5.14887C4.86964 5.0004 4.66828 4.91699 4.45832 4.91699C4.24835 4.91699 4.04699 5.0004 3.89852 5.14887C3.75006 5.29733 3.66665 5.4987 3.66665 5.70866V11.7174L3.43707 11.4799C3.28799 11.3308 3.08581 11.2471 2.87498 11.2471C2.66416 11.2471 2.46197 11.3308 2.3129 11.4799C2.16383 11.629 2.08008 11.8312 2.08008 12.042C2.08008 12.2528 2.16383 12.455 2.3129 12.6041L3.89623 14.1874C3.97152 14.2595 4.06031 14.316 4.15748 14.3537C4.25225 14.3955 4.35471 14.4172 4.45832 14.4172C4.56192 14.4172 4.66439 14.3955 4.75915 14.3537C4.85633 14.316 4.94511 14.2595 5.0204 14.1874L6.60373 12.6041C6.67755 12.5303 6.7361 12.4426 6.77605 12.3462C6.816 12.2497 6.83656 12.1464 6.83656 12.042C6.83656 11.9376 6.816 11.8342 6.77605 11.7378C6.7361 11.6414 6.67755 11.5537 6.60373 11.4799C6.52992 11.4061 6.44229 11.3475 6.34585 11.3076C6.24941 11.2676 6.14604 11.2471 6.04165 11.2471C5.93726 11.2471 5.8339 11.2676 5.73745 11.3076C5.64101 11.3475 5.55338 11.4061 5.47957 11.4799ZM9.20832 6.50033H17.125C17.3349 6.50033 17.5363 6.41692 17.6848 6.26845C17.8332 6.11999 17.9167 5.91862 17.9167 5.70866C17.9167 5.4987 17.8332 5.29733 17.6848 5.14887C17.5363 5.0004 17.3349 4.91699 17.125 4.91699H9.20832C8.99835 4.91699 8.79699 5.0004 8.64852 5.14887C8.50006 5.29733 8.41665 5.4987 8.41665 5.70866C8.41665 5.91862 8.50006 6.11999 8.64852 6.26845C8.79699 6.41692 8.99835 6.50033 9.20832 6.50033ZM17.125 8.87533H9.20832C8.99835 8.87533 8.79699 8.95873 8.64852 9.1072C8.50006 9.25567 8.41665 9.45703 8.41665 9.66699C8.41665 9.87696 8.50006 10.0783 8.64852 10.2268C8.79699 10.3753 8.99835 10.4587 9.20832 10.4587H17.125C17.3349 10.4587 17.5363 10.3753 17.6848 10.2268C17.8332 10.0783 17.9167 9.87696 17.9167 9.66699C17.9167 9.45703 17.8332 9.25567 17.6848 9.1072C17.5363 8.95873 17.3349 8.87533 17.125 8.87533ZM17.125 12.8337H9.20832C8.99835 12.8337 8.79699 12.9171 8.64852 13.0655C8.50006 13.214 8.41665 13.4154 8.41665 13.6253C8.41665 13.8353 8.50006 14.0367 8.64852 14.1851C8.79699 14.3336 8.99835 14.417 9.20832 14.417H17.125C17.3349 14.417 17.5363 14.3336 17.6848 14.1851C17.8332 14.0367 17.9167 13.8353 17.9167 13.6253C17.9167 13.4154 17.8332 13.214 17.6848 13.0655C17.5363 12.9171 17.3349 12.8337 17.125 12.8337Z" fill="#3E3E40"/>
</svg>
