<svg width="9" height="8" viewBox="0 0 9 8" fill="none" xmlns="http://www.w3.org/2000/svg">
<rect x="0.853516" y="0.00830078" width="7.31707" height="7.31707" rx="3.65854" fill="#EBA309"/>
<path d="M4.4109 1.59871C4.42026 1.5789 4.4347 1.56222 4.45261 1.55056C4.47052 1.53889 4.49119 1.53271 4.51227 1.53271C4.53335 1.53271 4.55401 1.53889 4.57192 1.55056C4.58983 1.56222 4.60428 1.5789 4.61363 1.59871L5.10657 2.64586C5.13905 2.71479 5.18698 2.77441 5.24627 2.81963C5.30555 2.86485 5.37441 2.8943 5.44694 2.90547L6.54934 3.07466C6.57023 3.07783 6.58985 3.08707 6.60599 3.10134C6.62214 3.1156 6.63415 3.13431 6.64068 3.15536C6.64721 3.17641 6.64799 3.19896 6.64293 3.22045C6.63788 3.24194 6.62719 3.26152 6.61208 3.27697L5.81483 4.09115C5.76226 4.14489 5.72292 4.21121 5.70021 4.28443C5.67749 4.35764 5.67208 4.43555 5.68445 4.51144L5.87266 5.66177C5.87635 5.68366 5.8741 5.7062 5.86615 5.72682C5.85821 5.74744 5.84491 5.7653 5.82775 5.77836C5.8106 5.79143 5.79029 5.79918 5.76914 5.80072C5.74799 5.80226 5.72685 5.79754 5.70814 5.78709L4.72268 5.24371C4.65774 5.20795 4.5855 5.18927 4.51216 5.18927C4.43882 5.18927 4.36658 5.20795 4.30165 5.24371L3.3164 5.78709C3.29769 5.79748 3.27658 5.80215 3.25547 5.80058C3.23435 5.799 3.21408 5.79125 3.19696 5.77819C3.17984 5.76513 3.16656 5.7473 3.15863 5.72672C3.15069 5.70614 3.14843 5.68363 3.15209 5.66177L3.34009 4.51167C3.35251 4.43574 3.34713 4.35778 3.32441 4.28452C3.3017 4.21126 3.26233 4.1449 3.2097 4.09115L2.41246 3.2772C2.39722 3.26176 2.38642 3.24215 2.38129 3.22059C2.37617 3.19904 2.37691 3.1764 2.38345 3.15527C2.38999 3.13414 2.40206 3.11536 2.41828 3.10106C2.4345 3.08677 2.45422 3.07755 2.4752 3.07444L3.57738 2.90547C3.64999 2.89439 3.71895 2.86497 3.77831 2.81975C3.83768 2.77453 3.88568 2.71485 3.91817 2.64586L4.4109 1.59871Z" fill="white" stroke="white" stroke-width="0.609756" stroke-linecap="round" stroke-linejoin="round"/>
</svg>
