<svg width="23" height="22" viewBox="0 0 23 22" fill="none" xmlns="http://www.w3.org/2000/svg">
<path d="M13.0855 3.21791L14.6988 6.44458C14.9188 6.89374 15.5055 7.32458 16.0005 7.40708L18.9247 7.89291C20.7947 8.20458 21.2347 9.56124 19.8872 10.8996L17.6138 13.1729C17.2288 13.5579 17.018 14.3004 17.1372 14.8321L17.788 17.6462C18.3013 19.8737 17.1188 20.7354 15.148 19.5712L12.4072 17.9487C11.9122 17.6554 11.0963 17.6554 10.5922 17.9487L7.85134 19.5712C5.88967 20.7354 4.69801 19.8646 5.21134 17.6462L5.86217 14.8321C5.98134 14.3004 5.77051 13.5579 5.38551 13.1729L3.11217 10.8996C1.77384 9.56124 2.20467 8.20458 4.07467 7.89291L6.99884 7.40708C7.48467 7.32458 8.07134 6.89374 8.29134 6.44458L9.90467 3.21791C10.7847 1.46708 12.2147 1.46708 13.0855 3.21791Z" stroke="#1F2937" stroke-width="1.7" stroke-linecap="round" stroke-linejoin="round"/>
</svg>
