<svg width="19" height="19" viewBox="0 0 19 19" fill="none" xmlns="http://www.w3.org/2000/svg">
<path d="M9.4627 3.74617C8.74983 3.74617 8.04394 3.88658 7.38533 4.15939C6.72672 4.43219 6.12829 4.83205 5.62421 5.33613C5.12014 5.84021 4.72028 6.43863 4.44747 7.09724C4.17467 7.75585 4.03426 8.46174 4.03426 9.17462C4.03426 9.88749 4.17467 10.5934 4.44747 11.252C4.72028 11.9106 5.12014 12.509 5.62421 13.0131C6.12829 13.5172 6.72672 13.917 7.38533 14.1898C8.04394 14.4627 8.74983 14.6031 9.4627 14.6031C10.9024 14.6031 12.2832 14.0311 13.3012 13.0131C14.3192 11.9951 14.8911 10.6143 14.8911 9.17462C14.8911 7.7349 14.3192 6.35416 13.3012 5.33613C12.2832 4.3181 10.9024 3.74617 9.4627 3.74617ZM2.91113 9.17462C2.91113 7.43703 3.60139 5.77062 4.83004 4.54196C6.0587 3.3133 7.72512 2.62305 9.4627 2.62305C11.2003 2.62305 12.8667 3.3133 14.0954 4.54196C15.324 5.77062 16.0143 7.43703 16.0143 9.17462C16.0143 10.9122 15.324 12.5786 14.0954 13.8073C12.8667 15.0359 11.2003 15.7262 9.4627 15.7262C7.72512 15.7262 6.0587 15.0359 4.83004 13.8073C3.60139 12.5786 2.91113 10.9122 2.91113 9.17462Z" fill="#406896"/>
<path opacity="0.5" d="M8.52742 7.67821C8.52742 7.16157 8.94672 6.74227 9.46336 6.74227H9.55022C9.72353 6.74244 9.89265 6.79566 10.0348 6.89475C10.177 6.99385 10.2855 7.13409 10.3456 7.29663C10.4058 7.45917 10.4148 7.63623 10.3714 7.80403C10.328 7.97182 10.2342 8.12231 10.1028 8.23528L9.52626 8.7302C9.33098 8.89835 9.17414 9.10653 9.0664 9.34062C8.95865 9.57471 8.90252 9.82924 8.9018 10.0869V10.486C8.9018 10.635 8.96096 10.7778 9.06628 10.8831C9.17159 10.9884 9.31443 11.0476 9.46336 11.0476C9.6123 11.0476 9.75513 10.9884 9.86045 10.8831C9.96576 10.7778 10.0249 10.635 10.0249 10.486V10.0869C10.0249 9.89301 10.1095 9.70882 10.257 9.58303L10.8336 9.08885C11.1396 8.82662 11.3579 8.47694 11.4591 8.08689C11.5604 7.69684 11.5397 7.28513 11.3999 6.90718C11.2601 6.52923 11.0079 6.20317 10.6772 5.97288C10.3465 5.7426 9.9532 5.61915 9.55022 5.61914H9.46336C9.19296 5.61914 8.92521 5.6724 8.67539 5.77588C8.42557 5.87936 8.19858 6.03102 8.00738 6.22223C7.81618 6.41343 7.66451 6.64042 7.56103 6.89024C7.45756 7.14005 7.4043 7.40781 7.4043 7.67821V7.75832C7.4043 7.90726 7.46346 8.05009 7.56878 8.15541C7.67409 8.26072 7.81692 8.31989 7.96586 8.31989C8.1148 8.31989 8.25763 8.26072 8.36294 8.15541C8.46826 8.05009 8.52742 7.90726 8.52742 7.75832V7.67821ZM9.46336 12.9195C9.66194 12.9195 9.85239 12.8406 9.99281 12.7002C10.1332 12.5597 10.2121 12.3693 10.2121 12.1707C10.2121 11.9721 10.1332 11.7817 9.99281 11.6413C9.85239 11.5008 9.66194 11.422 9.46336 11.422C9.26478 11.422 9.07433 11.5008 8.93392 11.6413C8.7935 11.7817 8.71461 11.9721 8.71461 12.1707C8.71461 12.3693 8.7935 12.5597 8.93392 12.7002C9.07433 12.8406 9.26478 12.9195 9.46336 12.9195Z" fill="#406896"/>
</svg>
