<svg width="14" height="13" viewBox="0 0 14 13" fill="none" xmlns="http://www.w3.org/2000/svg">
<path d="M1.31727 4.39296V7.49806C1.31727 9.81026 1.31727 10.966 2.03933 11.6838C2.76139 12.4015 3.92272 12.4022 6.246 12.4022H7.47819C9.80147 12.4022 10.9634 12.4022 11.6849 11.6838C12.4063 10.9654 12.4069 9.81026 12.4069 7.49868V4.39296M5.62991 6.24124H8.09428M11.9128 1.3125H1.81137C1.3493 1.3125 1.11765 1.3125 0.95747 1.42155C0.878391 1.47558 0.812997 1.5473 0.766482 1.63102C0.67222 1.7986 0.695015 2.02532 0.741222 2.47999C0.818233 3.2384 0.856431 3.61792 1.05728 3.889C1.1577 4.02392 1.28462 4.13728 1.43063 4.2223C1.72389 4.39296 2.10956 4.39296 2.88214 4.39296H10.8433C11.6152 4.39296 12.0009 4.39296 12.2942 4.2223C12.4402 4.13728 12.5671 4.02392 12.6675 3.889C12.8684 3.61792 12.9066 3.2384 12.9836 2.47999C13.0298 2.02593 13.0526 1.7986 12.9589 1.6304C12.9122 1.54684 12.8466 1.47533 12.7673 1.42155C12.6065 1.3125 12.3749 1.3125 11.9128 1.3125Z" stroke="#717171" stroke-width="0.693103" stroke-linecap="round" stroke-linejoin="round"/>
</svg>
