<svg width="200" height="200" viewBox="0 0 200 200" fill="none" xmlns="http://www.w3.org/2000/svg">
<rect width="200" height="200" rx="100" fill="#BCFDAF" fill-opacity="0.37"/>
<path d="M187.484 99.8355C187.768 147.96 148.626 187.566 100.502 187.85C52.3774 188.134 12.7709 148.992 12.4871 100.867C12.2033 52.7432 51.3455 13.1367 99.4697 12.853C147.594 12.5692 187.2 51.7113 187.484 99.8355ZM66.553 69.4855L88.7256 105.055C90.3161 107.671 93.1253 109.23 96.1878 109.211L137.225 108.97C140.811 108.861 143.769 105.868 143.748 102.281C143.727 98.6935 140.734 95.7361 137.147 95.7572L98.2098 95.9868L77.7996 62.5066C75.856 59.368 71.7374 58.3423 68.5988 60.2858C65.5477 62.2288 64.6095 66.3469 66.553 69.4855Z" fill="#35C21E" fill-opacity="0.9"/>
</svg>
