<svg width="254" height="213" viewBox="0 0 254 213" fill="none" xmlns="http://www.w3.org/2000/svg">
<rect x="23" y="12" width="200" height="200" rx="100" fill="#AC2D2F" fill-opacity="0.1"/>
<path d="M126.497 202.116C177.018 202.116 217.974 160.538 217.974 109.249C217.974 57.9598 177.018 16.3818 126.497 16.3818C75.9749 16.3818 35.019 57.9598 35.019 109.249C35.019 160.538 75.9749 202.116 126.497 202.116Z" fill="url(#paint0_linear_1196_12555)"/>
<g filter="url(#filter0_f_1196_12555)">
<ellipse cx="134.311" cy="177.5" rx="94.5074" ry="9.71573" fill="#FEC1C1"/>
</g>
<path d="M209.702 94.3027H93.5615C90.3112 94.3027 87.6763 96.9777 87.6763 100.277V171.973C87.6763 175.273 90.3112 177.948 93.5615 177.948H209.702C212.953 177.948 215.588 175.273 215.588 171.973V100.277C215.588 96.9777 212.953 94.3027 209.702 94.3027Z" fill="url(#paint1_linear_1196_12555)"/>
<path d="M164.054 102.345V171.974C164.054 173.56 163.433 175.081 162.328 176.203C161.223 177.325 159.725 177.955 158.162 177.955H58.1909C56.6283 177.955 55.1297 177.325 54.0248 176.203C52.9198 175.081 52.2991 173.56 52.2991 171.974V96.988C52.298 96.1451 52.4724 95.3115 52.8108 94.5419C53.1493 93.7722 53.6442 93.0839 54.263 92.522L98.3927 52.6864C99.4542 51.7299 100.82 51.1945 102.239 51.1786C103.658 51.1627 105.036 51.6675 106.118 52.6L163.798 102.345H164.054Z" fill="url(#paint2_linear_1196_12555)"/>
<path d="M164.055 102.343V94.3019L106.996 44.9229H152.166C153.598 44.9295 154.984 45.4338 156.094 46.3517L220.845 100.017C221.042 100.193 221.182 100.425 221.248 100.682C221.314 100.94 221.302 101.212 221.213 101.462C221.125 101.713 220.965 101.931 220.754 102.088C220.542 102.245 220.289 102.334 220.027 102.343H164.055Z" fill="url(#paint3_linear_1196_12555)"/>
<path d="M122.555 126.343H92.0959C90.8335 126.343 89.8102 127.367 89.8102 128.629V177.949H124.84V128.629C124.84 127.367 123.817 126.343 122.555 126.343Z" fill="url(#paint4_linear_1196_12555)"/>
<path d="M215.595 102.344H164.081V114.479H215.595V102.344Z" fill="url(#paint5_linear_1196_12555)"/>
<path d="M109.758 47.3154L107.1 44.9229L107.048 44.976L106.989 44.9229L103.251 48.299L44.2541 99.9974C44.0587 100.168 43.9192 100.395 43.854 100.649C43.7888 100.902 43.8011 101.169 43.8892 101.415C43.9773 101.661 44.1371 101.874 44.3473 102.026C44.5574 102.177 44.8081 102.26 45.0659 102.264L51.141 102.343L107.1 53.4296L163.799 102.343H164.054L173.22 102.224L109.758 47.3154Z" fill="url(#paint6_linear_1196_12555)"/>
<path d="M106.819 108.412C113.019 108.412 118.046 103.309 118.046 97.0144C118.046 90.7196 113.019 85.6167 106.819 85.6167C100.618 85.6167 95.5913 90.7196 95.5913 97.0144C95.5913 103.309 100.618 108.412 106.819 108.412Z" fill="url(#paint7_linear_1196_12555)"/>
<path d="M78.4185 126.343H61.8448C60.5824 126.343 59.5591 127.367 59.5591 128.629V156.343C59.5591 157.606 60.5824 158.629 61.8448 158.629H78.4185C79.6808 158.629 80.7042 157.606 80.7042 156.343V128.629C80.7042 127.367 79.6808 126.343 78.4185 126.343Z" fill="url(#paint8_linear_1196_12555)"/>
<g filter="url(#filter1_d_1196_12555)">
<path d="M85.7913 112.312C85.7948 107.49 84.8621 102.714 83.0465 98.2585C81.2309 93.8025 78.5681 89.7534 75.2103 86.3427C71.8525 82.9321 67.8654 80.2266 63.4771 78.3811C59.0888 76.5355 54.3852 75.586 49.6352 75.5869C44.8858 75.5869 40.1829 76.537 35.7953 78.383C31.4077 80.2289 27.4215 82.9345 24.0643 86.3451C20.7072 89.7557 18.045 93.8045 16.2298 98.26C14.4147 102.716 13.4822 107.491 13.4856 112.312C13.4847 117.132 14.4191 121.905 16.2354 126.358C18.0518 130.811 20.7144 134.858 24.0713 138.266C27.4281 141.675 31.4135 144.379 35.7998 146.223C40.1861 148.068 44.8874 149.017 49.6352 149.017H110.681L97.9939 138.47C94.1794 135.299 91.106 131.308 88.9958 126.784C86.8855 122.26 85.791 117.317 85.7913 112.312Z" fill="url(#paint9_linear_1196_12555)"/>
</g>
<path fill-rule="evenodd" clip-rule="evenodd" d="M38.2107 114.35C38.2107 119.715 42.1384 124.065 46.9835 124.065C51.8286 124.065 55.7564 119.715 55.7564 114.35H38.2107Z" fill="#831919"/>
<path d="M35.0202 111.92C37.2226 111.92 39.0079 110.108 39.0079 107.872C39.0079 105.636 37.2226 103.824 35.0202 103.824C32.8179 103.824 31.0326 105.636 31.0326 107.872C31.0326 110.108 32.8179 111.92 35.0202 111.92Z" fill="url(#paint10_linear_1196_12555)"/>
<path d="M58.9447 111.92C61.147 111.92 62.9323 110.108 62.9323 107.872C62.9323 105.636 61.147 103.824 58.9447 103.824C56.7424 103.824 54.957 105.636 54.957 107.872C54.957 110.108 56.7424 111.92 58.9447 111.92Z" fill="url(#paint11_linear_1196_12555)"/>
<path d="M150.973 137.154H134.4C133.137 137.154 132.114 138.178 132.114 139.44V156.335C132.114 157.597 133.137 158.621 134.4 158.621H150.973C152.236 158.621 153.259 157.597 153.259 156.335V139.44C153.259 138.178 152.236 137.154 150.973 137.154Z" fill="url(#paint12_linear_1196_12555)"/>
<g filter="url(#filter2_f_1196_12555)">
<ellipse cx="169.002" cy="77.5106" rx="27.9136" ry="52.222" fill="#C83535"/>
</g>
<path d="M150.973 126.422H134.4C133.137 126.422 132.114 127.446 132.114 128.708V130.397C132.114 131.659 133.137 132.683 134.4 132.683H150.973C152.236 132.683 153.259 131.659 153.259 130.397V128.708C153.259 127.446 152.236 126.422 150.973 126.422Z" fill="url(#paint13_linear_1196_12555)"/>
<path d="M216.009 150.893C215.424 148.432 211.922 148.432 211.337 150.893L210.754 153.344C210.546 154.221 209.864 154.907 208.99 155.121L206.433 155.748C203.994 156.345 203.994 159.814 206.433 160.412L208.99 161.038C209.864 161.253 210.546 161.939 210.754 162.815L211.337 165.266C211.922 167.727 215.424 167.727 216.009 165.266L216.592 162.815C216.8 161.939 217.482 161.253 218.356 161.038L220.913 160.412C223.352 159.814 223.352 156.345 220.913 155.748L218.356 155.121C217.482 154.907 216.8 154.221 216.592 153.344L216.009 150.893Z" fill="#FF4949"/>
<path d="M117.913 188.136C117.328 185.675 113.826 185.675 113.241 188.136L112.658 190.587C112.45 191.463 111.769 192.149 110.894 192.364L108.337 192.99C105.898 193.588 105.898 197.057 108.337 197.655L110.894 198.281C111.769 198.495 112.45 199.181 112.658 200.058L113.241 202.509C113.826 204.97 117.328 204.97 117.913 202.509L118.496 200.058C118.705 199.181 119.386 198.495 120.261 198.281L122.817 197.655C125.256 197.057 125.256 193.588 122.817 192.99L120.261 192.364C119.386 192.149 118.705 191.463 118.496 190.587L117.913 188.136Z" fill="#FF4949"/>
<path d="M64.4795 41.5904C63.8944 39.1294 60.3926 39.1294 59.8074 41.5904L59.2246 44.0417C59.0162 44.918 58.3349 45.604 57.46 45.8184L54.9038 46.4449C52.4642 47.0427 52.4642 50.5114 54.9038 51.1092L57.46 51.7357C58.3349 51.95 59.0162 52.636 59.2246 53.5124L59.8074 55.9637C60.3926 58.4246 63.8944 58.4246 64.4795 55.9637L65.0624 53.5124C65.2708 52.636 65.9521 51.95 66.8269 51.7357L69.3832 51.1092C71.8228 50.5114 71.8227 47.0427 69.3832 46.4449L66.8269 45.8184C65.9521 45.604 65.2708 44.918 65.0624 44.0417L64.4795 41.5904Z" fill="#FF4949"/>
<path d="M109.289 23.5518C107.44 23.552 105.903 25.0801 105.903 27.0127C105.904 28.9451 107.44 30.4724 109.289 30.4727C111.138 30.4727 112.676 28.9453 112.676 27.0127C112.676 25.0799 111.138 23.5518 109.289 23.5518Z" stroke="#C83535" stroke-width="3.00147"/>
<path d="M227.137 71.6147C228.368 70.7036 228.168 68.8071 226.775 68.1807L222.009 66.0369C220.601 65.4035 219.033 66.5413 219.195 68.0789L219.749 73.3412C219.911 74.8787 221.681 75.6543 222.925 74.733L227.137 71.6147Z" fill="#FF4949"/>
<path d="M183.589 184.248C182.107 183.867 180.775 185.256 181.19 186.75L182.607 191.843C183.023 193.337 184.875 193.815 185.942 192.703L189.578 188.91C190.644 187.798 190.125 185.931 188.642 185.549L183.589 184.248Z" fill="#FF4949"/>
<path d="M48.6772 189.529C46.8283 189.53 45.2915 191.058 45.2915 192.99C45.2917 194.923 46.8285 196.45 48.6772 196.45C50.5262 196.45 52.0638 194.923 52.064 192.99C52.064 191.057 50.5263 189.529 48.6772 189.529Z" stroke="#C83535" stroke-width="3.00147"/>
<path d="M200.392 25.6709C196.23 21.4428 191.288 18.0887 185.848 15.8003C180.409 13.5118 174.579 12.334 168.691 12.334C162.803 12.334 156.972 13.5118 151.533 15.8003C146.093 18.0887 141.151 21.4428 136.989 25.6709C132.976 29.6503 129.789 34.4059 127.617 39.6567C125.444 44.9074 124.331 50.547 124.342 56.2421C124.342 67.7927 128.734 79.6954 136.989 89.9966L162.579 123.678C163.3 124.627 164.226 125.395 165.286 125.924C166.345 126.453 167.51 126.727 168.691 126.727C169.871 126.727 171.036 126.453 172.095 125.924C173.155 125.395 174.081 124.627 174.802 123.678L200.392 89.9966C208.647 79.6954 213.033 67.7927 213.033 56.2421C213.045 50.5474 211.932 44.908 209.761 39.6572C207.59 34.4064 204.404 29.6506 200.392 25.6709Z" fill="url(#paint14_linear_1196_12555)"/>
<path d="M168.689 76.0466C178.957 76.0466 187.281 67.5962 187.281 57.1722C187.281 46.7482 178.957 38.2979 168.689 38.2979C158.421 38.2979 150.097 46.7482 150.097 57.1722C150.097 67.5962 158.421 76.0466 168.689 76.0466Z" fill="white"/>
<defs>
<filter id="filter0_f_1196_12555" x="14.7918" y="142.772" width="239.039" height="69.4562" filterUnits="userSpaceOnUse" color-interpolation-filters="sRGB">
<feFlood flood-opacity="0" result="BackgroundImageFix"/>
<feBlend mode="normal" in="SourceGraphic" in2="BackgroundImageFix" result="shape"/>
<feGaussianBlur stdDeviation="12.5061" result="effect1_foregroundBlur_1196_12555"/>
</filter>
<filter id="filter1_d_1196_12555" x="0.914203" y="67.5869" width="122.338" height="98.5735" filterUnits="userSpaceOnUse" color-interpolation-filters="sRGB">
<feFlood flood-opacity="0" result="BackgroundImageFix"/>
<feColorMatrix in="SourceAlpha" type="matrix" values="0 0 0 0 0 0 0 0 0 0 0 0 0 0 0 0 0 0 127 0" result="hardAlpha"/>
<feOffset dy="4.57142"/>
<feGaussianBlur stdDeviation="6.2857"/>
<feComposite in2="hardAlpha" operator="out"/>
<feColorMatrix type="matrix" values="0 0 0 0 0.346421 0 0 0 0 0.322361 0 0 0 0 0.879167 0 0 0 0.25 0"/>
<feBlend mode="normal" in2="BackgroundImageFix" result="effect1_dropShadow_1196_12555"/>
<feBlend mode="normal" in="SourceGraphic" in2="effect1_dropShadow_1196_12555" result="shape"/>
</filter>
<filter id="filter2_f_1196_12555" x="116.076" y="0.276287" width="105.852" height="154.468" filterUnits="userSpaceOnUse" color-interpolation-filters="sRGB">
<feFlood flood-opacity="0" result="BackgroundImageFix"/>
<feBlend mode="normal" in="SourceGraphic" in2="BackgroundImageFix" result="shape"/>
<feGaussianBlur stdDeviation="12.5061" result="effect1_foregroundBlur_1196_12555"/>
</filter>
<linearGradient id="paint0_linear_1196_12555" x1="125.791" y1="-13.8579" x2="127.723" y2="312.277" gradientUnits="userSpaceOnUse">
<stop stop-color="white" stop-opacity="0"/>
<stop offset="1" stop-color="#FF9DB5"/>
</linearGradient>
<linearGradient id="paint1_linear_1196_12555" x1="137.9" y1="149.164" x2="222.386" y2="260.837" gradientUnits="userSpaceOnUse">
<stop stop-color="#810404"/>
<stop offset="1" stop-color="#F7F7FF"/>
</linearGradient>
<linearGradient id="paint2_linear_1196_12555" x1="232.008" y1="222.842" x2="71.1393" y2="52.1619" gradientUnits="userSpaceOnUse">
<stop stop-color="#A62D2D"/>
<stop offset="1" stop-color="#F7F7FF"/>
</linearGradient>
<linearGradient id="paint3_linear_1196_12555" x1="147.072" y1="94.1077" x2="171.561" y2="32.3089" gradientUnits="userSpaceOnUse">
<stop stop-color="#8A1212"/>
<stop offset="1" stop-color="#F7F7FF"/>
</linearGradient>
<linearGradient id="paint4_linear_1196_12555" x1="107.325" y1="126.343" x2="107.325" y2="177.949" gradientUnits="userSpaceOnUse">
<stop stop-color="#F34949"/>
<stop offset="1" stop-color="#9B1616"/>
</linearGradient>
<linearGradient id="paint5_linear_1196_12555" x1="167.01" y1="81.9634" x2="127.674" y2="101.683" gradientUnits="userSpaceOnUse">
<stop stop-color="#9A0C0C"/>
<stop offset="1" stop-color="#F7F7FF"/>
</linearGradient>
<linearGradient id="paint6_linear_1196_12555" x1="154.218" y1="84.8946" x2="134.887" y2="1.85706" gradientUnits="userSpaceOnUse">
<stop stop-color="#FF2121"/>
<stop offset="1" stop-color="#F7F7FF"/>
</linearGradient>
<linearGradient id="paint7_linear_1196_12555" x1="85.2632" y1="94.1087" x2="134.073" y2="123.393" gradientUnits="userSpaceOnUse">
<stop stop-color="#710B0B"/>
<stop offset="1" stop-color="#F7F7FF"/>
</linearGradient>
<linearGradient id="paint8_linear_1196_12555" x1="70.1316" y1="126.343" x2="70.1316" y2="158.629" gradientUnits="userSpaceOnUse">
<stop stop-color="#F34949"/>
<stop offset="1" stop-color="#9B1616"/>
</linearGradient>
<linearGradient id="paint9_linear_1196_12555" x1="21.9804" y1="117.063" x2="97.9294" y2="151.669" gradientUnits="userSpaceOnUse">
<stop stop-color="#FFD7D7"/>
<stop offset="1" stop-color="#FF9393"/>
</linearGradient>
<linearGradient id="paint10_linear_1196_12555" x1="35.0202" y1="103.824" x2="35.0202" y2="111.92" gradientUnits="userSpaceOnUse">
<stop stop-color="#0B0B0B"/>
<stop offset="1" stop-color="#A82727"/>
</linearGradient>
<linearGradient id="paint11_linear_1196_12555" x1="58.9447" y1="103.824" x2="58.9447" y2="111.92" gradientUnits="userSpaceOnUse">
<stop stop-color="#0B0B0B"/>
<stop offset="1" stop-color="#A82727"/>
</linearGradient>
<linearGradient id="paint12_linear_1196_12555" x1="142.686" y1="137.154" x2="142.686" y2="158.621" gradientUnits="userSpaceOnUse">
<stop stop-color="#F34949"/>
<stop offset="1" stop-color="#9B1616"/>
</linearGradient>
<linearGradient id="paint13_linear_1196_12555" x1="142.686" y1="126.422" x2="142.686" y2="132.683" gradientUnits="userSpaceOnUse">
<stop stop-color="#F34949"/>
<stop offset="1" stop-color="#9B1616"/>
</linearGradient>
<linearGradient id="paint14_linear_1196_12555" x1="124.376" y1="12.6078" x2="190.153" y2="112.608" gradientUnits="userSpaceOnUse">
<stop stop-color="#C83535"/>
<stop offset="1" stop-color="#A82727"/>
</linearGradient>
</defs>
</svg>
