<svg width="26" height="25" viewBox="0 0 26 25" fill="none" xmlns="http://www.w3.org/2000/svg">
<path d="M16.5 11C17.5609 11 18.5783 10.5786 19.3284 9.82843C20.0786 9.07828 20.5 8.06087 20.5 7C20.5 5.93913 20.0786 4.92172 19.3284 4.17157C18.5783 3.42143 17.5609 3 16.5 3M18.5 14C19.8261 14 21.0979 14.5268 22.0355 15.4645C22.9732 16.4021 23.5 17.6739 23.5 19C23.5 19.5304 23.2893 20.0391 22.9142 20.4142C22.5391 20.7893 22.0304 21 21.5 21H20M14.5 7C14.5 8.06087 14.0786 9.07828 13.3284 9.82843C12.5783 10.5786 11.5609 11 10.5 11C9.43913 11 8.42172 10.5786 7.67157 9.82843C6.92143 9.07828 6.5 8.06087 6.5 7C6.5 5.93913 6.92143 4.92172 7.67157 4.17157C8.42172 3.42143 9.43913 3 10.5 3C11.5609 3 12.5783 3.42143 13.3284 4.17157C14.0786 4.92172 14.5 5.93913 14.5 7ZM12.5 14H8.5C7.17392 14 5.90215 14.5268 4.96447 15.4645C4.02678 16.4021 3.5 17.6739 3.5 19C3.5 19.5304 3.71071 20.0391 4.08579 20.4142C4.46086 20.7893 4.96957 21 5.5 21H15.5C16.0304 21 16.5391 20.7893 16.9142 20.4142C17.2893 20.0391 17.5 19.5304 17.5 19C17.5 17.6739 16.9732 16.4021 16.0355 15.4645C15.0979 14.5268 13.8261 14 12.5 14Z" stroke="#2176FF" stroke-width="1.5" stroke-linecap="round" stroke-linejoin="round"/>
</svg>
