<svg width="14" height="14" viewBox="0 0 14 14" fill="none" xmlns="http://www.w3.org/2000/svg">
<path d="M10.3734 2.54626C10.8837 2.54626 11.2975 2.96001 11.2975 3.47039C11.2975 3.98078 10.8837 4.39453 10.3734 4.39453C9.86297 4.39453 9.44922 3.98078 9.44922 3.47039C9.44922 2.96001 9.86297 2.54626 10.3734 2.54626Z" stroke="#717171" stroke-width="0.924138" stroke-linecap="round" stroke-linejoin="round"/>
<path d="M4.08039 8.39279L5.92867 10.2411M1.47679 6.63323C0.858845 7.32325 0.845907 8.36445 1.41271 9.0976C2.51367 10.5268 3.79466 11.8078 5.22386 12.9087C5.95701 13.4755 6.9982 13.4626 7.68822 12.8447C9.55349 11.1762 11.3062 9.38603 12.9349 7.4859C13.0993 7.29692 13.2005 7.06126 13.2244 6.8119C13.3255 5.7054 13.5343 2.51774 12.6687 1.65274C11.8031 0.787751 8.61606 0.99599 7.50956 1.09765C7.2602 1.12154 7.02454 1.22278 6.83555 1.38721C4.93545 3.01567 3.14528 4.76818 1.47679 6.63323Z" stroke="#717171" stroke-width="0.924138" stroke-linecap="round" stroke-linejoin="round"/>
</svg>
