<svg width="18" height="18" viewBox="0 0 18 18" fill="none" xmlns="http://www.w3.org/2000/svg">
<g clip-path="url(#clip0_1612_18701)">
<path d="M1.875 0.899902H6.6323C7.5338 0.899902 8.3812 1.2158 9.01877 1.78954L17.3603 9.2969C17.7728 9.66815 18 10.1616 18 10.6888C18 11.2133 17.7728 11.7067 17.3603 12.0779L12.42 16.5242C12.0075 16.8954 11.4593 17.0999 10.8735 17.0999C10.2908 17.0999 9.7425 16.8954 9.33001 16.5242L0.988501 9.01682C0.351 8.44303 0 7.68027 0 6.86894V2.58739C0 1.65725 0.841499 0.899902 1.875 0.899902ZM0.75 6.86894C0.75 7.50007 1.023 8.0934 1.518 8.5389L9.86024 16.0469C10.3995 16.5323 11.3452 16.5356 11.889 16.0469L16.83 11.6C17.1007 11.357 17.25 11.033 17.25 10.6861C17.25 10.3418 17.1008 10.0178 16.83 9.77417L8.4885 2.26678C7.992 1.82061 7.3335 1.57489 6.6323 1.57489H1.875C1.2548 1.57489 0.75 2.02916 0.75 2.58739V6.86894Z" fill="#4B4F63" stroke="#4B4F63" stroke-width="0.5"/>
<path d="M4.125 2.9248C5.1585 2.9248 6 3.68215 6 4.6123C6 5.54244 5.1585 6.29979 4.125 6.29979C3.0915 6.29979 2.25 5.54246 2.25 4.6123C2.25 3.68215 3.0915 2.9248 4.125 2.9248ZM4.125 5.6248C4.7453 5.6248 5.25 5.17053 5.25 4.6123C5.25 4.05406 4.7453 3.5998 4.125 3.5998C3.5047 3.5998 3 4.05406 3 4.6123C3 5.17053 3.5048 5.6248 4.125 5.6248Z" fill="#4B4F63" stroke="#4B4F63" stroke-width="0.5"/>
</g>
<defs>
<clipPath id="clip0_1612_18701">
<rect width="18" height="18" fill="white" transform="matrix(-1 0 0 1 18 0)"/>
</clipPath>
</defs>
</svg>
