<svg width="46" height="15" viewBox="0 0 46 15" fill="none" xmlns="http://www.w3.org/2000/svg">
<path fill-rule="evenodd" clip-rule="evenodd" d="M38.5 11.1962L35.3771 12.7897C35.0095 12.9773 34.5857 12.6638 34.6575 12.2574L35.25 8.90445L32.754 6.54304C32.4498 6.25519 32.6131 5.74322 33.0278 5.68473L36.4914 5.19625L38.0543 2.12259C38.2397 1.7581 38.7603 1.7581 38.9457 2.12259L40.5086 5.19625L43.9722 5.68473C44.3869 5.74322 44.5502 6.25519 44.246 6.54304L41.75 8.90445L42.3425 12.2574C42.4143 12.6638 41.9905 12.9773 41.6229 12.7897L38.5 11.1962Z" fill="#F59E0B"/>
<path fill-rule="evenodd" clip-rule="evenodd" d="M7.5 11.1962L4.37713 12.7897C4.00946 12.9773 3.58567 12.6638 3.6575 12.2574L4.25 8.90445L1.75401 6.54304C1.44975 6.25519 1.61307 5.74322 2.02781 5.68473L5.49139 5.19625L7.05431 2.12259C7.23965 1.7581 7.76035 1.7581 7.94569 2.12259L9.50861 5.19625L12.9722 5.68473C13.3869 5.74322 13.5502 6.25519 13.246 6.54304L10.75 8.90445L11.3425 12.2574C11.4143 12.6638 10.9905 12.9773 10.6229 12.7897L7.5 11.1962Z" fill="#F59E0B"/>
<path fill-rule="evenodd" clip-rule="evenodd" d="M22.5 11.1962L19.3771 12.7897C19.0095 12.9773 18.5857 12.6638 18.6575 12.2574L19.25 8.90445L16.754 6.54304C16.4498 6.25519 16.6131 5.74322 17.0278 5.68473L20.4914 5.19625L22.0543 2.12259C22.2397 1.7581 22.7603 1.7581 22.9457 2.12259L24.5086 5.19625L27.9722 5.68473C28.3869 5.74322 28.5502 6.25519 28.246 6.54304L25.75 8.90445L26.3425 12.2574C26.4143 12.6638 25.9905 12.9773 25.6229 12.7897L22.5 11.1962Z" fill="#F59E0B"/>
</svg>
