<svg width="16" height="16" viewBox="0 0 16 16" fill="none" xmlns="http://www.w3.org/2000/svg">
<path d="M0.533203 7.8623C0.533203 4.56273 0.533203 2.9122 1.55815 1.88725C2.5831 0.862305 4.23289 0.862305 7.5332 0.862305C10.8328 0.862305 12.4833 0.862305 13.5083 1.88725C14.5332 2.9122 14.5332 4.56199 14.5332 7.8623C14.5332 11.1619 14.5332 12.8124 13.5083 13.8374C12.4833 14.8623 10.8335 14.8623 7.5332 14.8623C4.23362 14.8623 2.5831 14.8623 1.55815 13.8374C0.533203 12.8124 0.533203 11.1626 0.533203 7.8623Z" stroke="black" stroke-linecap="round" stroke-linejoin="round"/>
<path d="M6.45387 7.13086C5.84966 7.04539 4.47176 7.18613 3.79682 8.43507C3.12187 9.68402 3.80198 10.9838 4.22713 11.4775C4.6464 11.9395 5.97934 12.8141 7.39334 11.9601C7.74408 11.7487 8.18103 11.5902 8.67619 9.93602L8.61871 3.42676C8.52292 4.14371 9.31503 5.82518 11.569 6.02413" stroke="black" stroke-linecap="round" stroke-linejoin="round"/>
</svg>
