<svg width="29" height="29" viewBox="0 0 29 29" fill="none" xmlns="http://www.w3.org/2000/svg">
<path d="M7.82617 10.8125V19.6707C7.82617 21.7584 7.82617 22.8029 8.50172 23.4519C10.0165 24.9068 19.1883 25.1765 20.9844 23.4519C21.6599 22.8017 21.6599 21.7584 21.6599 19.6707V10.8125" stroke="#AD24AF" stroke-width="2.59382" stroke-linecap="round" stroke-linejoin="round"/>
<path d="M7.52636 14.2709L4.41838 11.262C3.61602 10.4839 3.21484 10.0977 3.21484 9.61352C3.21484 9.13165 3.61602 8.74315 4.41723 7.96731L6.724 5.73547C7.12403 5.34812 7.32346 5.15445 7.56209 5.01265C7.80073 4.86971 8.06933 4.78324 8.60423 4.61032L10.5018 3.99818C10.7784 3.90826 10.9179 3.86445 11.0125 3.91748C11.107 3.97167 11.137 4.12614 11.1969 4.43625C11.5082 6.05825 12.9768 7.286 14.743 7.286C16.5091 7.286 17.9777 6.05825 18.2902 4.43625C18.3489 4.12614 18.3789 3.97167 18.4746 3.91748C18.5668 3.86445 18.7063 3.90826 18.9841 3.99818L20.8817 4.61032C21.4177 4.78324 21.6863 4.86971 21.9238 5.01265C22.1613 5.1556 22.3619 5.34812 22.7619 5.73547L25.0675 7.96731C25.871 8.7443 26.2711 9.1328 26.2711 9.61467C26.2711 10.0965 25.8699 10.485 25.0687 11.2609L21.9584 14.2709" stroke="#AD24AF" stroke-width="2.59382" stroke-linecap="round" stroke-linejoin="round"/>
</svg>
