<svg width="31" height="15" viewBox="0 0 31 15" fill="none" xmlns="http://www.w3.org/2000/svg">
<path fill-rule="evenodd" clip-rule="evenodd" d="M23.5 11.1962L20.3771 12.7897C20.0095 12.9773 19.5857 12.6638 19.6575 12.2574L20.25 8.90445L17.754 6.54304C17.4498 6.25519 17.6131 5.74322 18.0278 5.68473L21.4914 5.19625L23.0543 2.12259C23.2397 1.7581 23.7603 1.7581 23.9457 2.12259L25.5086 5.19625L28.9722 5.68473C29.3869 5.74322 29.5502 6.25519 29.246 6.54304L26.75 8.90445L27.3425 12.2574C27.4143 12.6638 26.9905 12.9773 26.6229 12.7897L23.5 11.1962Z" fill="#F59E0B"/>
<path fill-rule="evenodd" clip-rule="evenodd" d="M7.5 11.1962L4.37713 12.7897C4.00946 12.9773 3.58567 12.6638 3.6575 12.2574L4.25 8.90445L1.75401 6.54304C1.44975 6.25519 1.61307 5.74322 2.02781 5.68473L5.49139 5.19625L7.05431 2.12259C7.23965 1.7581 7.76035 1.7581 7.94569 2.12259L9.50861 5.19625L12.9722 5.68473C13.3869 5.74322 13.5502 6.25519 13.246 6.54304L10.75 8.90445L11.3425 12.2574C11.4143 12.6638 10.9905 12.9773 10.6229 12.7897L7.5 11.1962Z" fill="#F59E0B"/>
</svg>
