<svg width="22" height="22" viewBox="0 0 22 22" fill="none" xmlns="http://www.w3.org/2000/svg">
<path d="M11.0009 21.75C10.3709 21.75 9.74086 21.54 9.25086 21.12L7.67086 19.76C7.51086 19.62 7.11086 19.48 6.90086 19.48H5.18086C3.70086 19.48 2.50086 18.28 2.50086 16.8V15.09C2.50086 14.88 2.36086 14.49 2.22086 14.33L0.870859 12.74C0.0508594 11.77 0.0508594 10.24 0.870859 9.27L2.22086 7.68C2.36086 7.52 2.50086 7.13 2.50086 6.92V5.2C2.50086 3.72 3.70086 2.52 5.18086 2.52H6.91086C7.12086 2.52 7.52086 2.37 7.68086 2.24L9.26086 0.88C10.2409 0.04 11.7709 0.04 12.7509 0.88L14.3309 2.24C14.4909 2.38 14.8909 2.52 15.1009 2.52H16.8009C18.2809 2.52 19.4809 3.72 19.4809 5.2V6.9C19.4809 7.11 19.6309 7.51 19.7709 7.67L21.1309 9.25C21.9709 10.23 21.9709 11.76 21.1309 12.74L19.7709 14.32C19.6309 14.48 19.4809 14.88 19.4809 15.09V16.79C19.4809 18.27 18.2809 19.47 16.8009 19.47H15.1009C14.8909 19.47 14.4909 19.62 14.3309 19.75L12.7509 21.11C12.2609 21.54 11.6309 21.75 11.0009 21.75ZM5.18086 4.02C4.53086 4.02 4.00086 4.55 4.00086 5.2V6.91C4.00086 7.48 3.73086 8.21 3.36086 8.64L2.01086 10.23C1.66086 10.64 1.66086 11.35 2.01086 11.76L3.36086 13.35C3.73086 13.79 4.00086 14.51 4.00086 15.08V16.79C4.00086 17.44 4.53086 17.97 5.18086 17.97H6.91086C7.49086 17.97 8.22086 18.24 8.66086 18.62L10.2409 19.98C10.6509 20.33 11.3709 20.33 11.7809 19.98L13.3609 18.62C13.8009 18.25 14.5309 17.97 15.1109 17.97H16.8109C17.4609 17.97 17.9909 17.44 17.9909 16.79V15.09C17.9909 14.51 18.2609 13.78 18.6409 13.34L20.0009 11.76C20.3509 11.35 20.3509 10.63 20.0009 10.22L18.6409 8.64C18.2609 8.2 17.9909 7.47 17.9909 6.89V5.2C17.9909 4.55 17.4609 4.02 16.8109 4.02H15.1109C14.5309 4.02 13.8009 3.75 13.3609 3.37L11.7809 2.01C11.3709 1.66 10.6509 1.66 10.2409 2.01L8.66086 3.38C8.22086 3.75 7.48086 4.02 6.91086 4.02H5.18086Z" fill="#797979"/>
</svg>
