<svg width="19" height="16" viewBox="0 0 19 16" fill="none" xmlns="http://www.w3.org/2000/svg">
<path d="M9.29778 14.8623C10.7884 14.8623 12.2172 14.7149 13.5414 14.4448C15.1967 14.1071 16.0235 13.9391 16.7779 12.969C17.5331 11.9981 17.5331 10.8838 17.5331 8.65538V7.06926C17.5331 4.8408 17.5331 3.72574 16.7779 2.75562C16.0235 1.78551 15.1967 1.61669 13.5414 1.27986C12.1443 0.99983 10.7227 0.85996 9.29778 0.862334C7.80719 0.862334 6.37837 1.00975 5.05414 1.27986C3.39885 1.61751 2.57203 1.78551 1.81767 2.75562C1.0625 3.72656 1.0625 4.8408 1.0625 7.06926V8.65538C1.0625 10.8838 1.0625 11.9989 1.81767 12.969C2.57203 13.9391 3.39885 14.108 5.05414 14.4448C6.37837 14.7149 7.80719 14.8623 9.29778 14.8623Z" stroke="black" stroke-linecap="round" stroke-linejoin="round"/>
<path d="M12.5615 8.11944C12.4396 8.61849 11.7891 8.9759 10.4887 9.6932C9.07388 10.4731 8.36648 10.8626 7.79412 10.7119C7.60338 10.6626 7.42519 10.5737 7.27118 10.4508C6.82813 10.0926 6.82812 9.34896 6.82812 7.86167C6.82812 6.37438 6.82813 5.63074 7.27118 5.2725C7.42107 5.15144 7.60059 5.06168 7.79412 5.01144C8.36648 4.86074 9.07388 5.25027 10.4887 6.03015C11.7899 6.74662 12.4396 7.10485 12.5615 7.60391C12.6027 7.77355 12.6027 7.94979 12.5615 8.11944Z" stroke="black" stroke-linecap="round" stroke-linejoin="round"/>
</svg>
