<svg width="24" height="24" viewBox="0 0 24 24" fill="none" xmlns="http://www.w3.org/2000/svg">
<path d="M17 0.25C20.7279 0.25 23.75 3.27208 23.75 7V17C23.75 20.7279 20.7279 23.75 17 23.75H7C3.27208 23.75 0.25 20.7279 0.25 17V7C0.25 3.27208 3.27208 0.25 7 0.25H17ZM7 1.75C4.10051 1.75 1.75 4.10051 1.75 7V17C1.75 19.8995 4.10051 22.25 7 22.25H17C19.8995 22.25 22.25 19.8995 22.25 17V7C22.25 4.10051 19.8995 1.75 17 1.75H7ZM12 5.25C12.3797 5.25 12.6935 5.53236 12.7432 5.89844L12.75 6V11.25H18C18.3797 11.25 18.6935 11.5324 18.7432 11.8984L18.75 12C18.75 12.3797 18.4676 12.6935 18.1016 12.7432L18 12.75H12.75V18C12.75 18.3797 12.4676 18.6935 12.1016 18.7432L12 18.75C11.6203 18.75 11.3065 18.4676 11.2568 18.1016L11.25 18V12.749L6 12.75C5.6203 12.75 5.3065 12.4676 5.25684 12.1016L5.25 12C5.25 11.6203 5.53236 11.3065 5.89844 11.2568L6 11.25L11.25 11.249V6C11.25 5.65482 11.4833 5.36368 11.8008 5.27637L11.8984 5.25684L12 5.25Z" fill="#7A7B7C"/>
</svg>
