<svg width="21" height="22" viewBox="0 0 21 22" fill="none" xmlns="http://www.w3.org/2000/svg">
<path fill-rule="evenodd" clip-rule="evenodd" d="M14.6653 16.7866C13.1638 17.9092 11.3003 18.5742 9.28125 18.5742C4.31079 18.5742 0.28125 14.5447 0.28125 9.57422C0.28125 4.60376 4.31079 0.574219 9.28125 0.574219C14.2517 0.574219 18.2812 4.60376 18.2812 9.57422C18.2812 11.8049 17.4697 13.8462 16.1257 15.4187L20.5728 19.8657C20.7681 20.061 20.7681 20.3777 20.5728 20.5728L19.8657 21.28C19.6704 21.4753 19.3538 21.4753 19.1587 21.28L14.6653 16.7866ZM16.2812 9.57422C16.2812 13.4402 13.1472 16.5742 9.28125 16.5742C5.41528 16.5742 2.28125 13.4402 2.28125 9.57422C2.28125 5.70825 5.41528 2.57422 9.28125 2.57422C13.1472 2.57422 16.2812 5.70825 16.2812 9.57422Z" fill="#7A7B7C"/>
</svg>
